<svg width="39" height="39" viewBox="0 0 39 39" fill="none" xmlns="http://www.w3.org/2000/svg">
<path d="M35.7486 29.2461H34.1172V32.4982H35.7486V29.2461Z" fill="white"/>
<path d="M34.1129 25.9932H32.4922V29.2453H34.1129V25.9932Z" fill="white"/>
<path d="M34.1072 32.498H4.85938V34.1188H34.1072V32.498Z" fill="white"/>
<path d="M32.4879 22.7422H30.8672V25.9943H32.4879V22.7422Z" fill="white"/>
<path d="M30.8736 19.501H29.2422V22.7424H30.8736V19.501Z" fill="white"/>
<path d="M29.2379 16.248H27.6172V19.5002H29.2379V16.248Z" fill="white"/>
<path d="M27.6158 12.9961H25.9844V16.2482H27.6158V12.9961Z" fill="white"/>
<path d="M25.9879 9.74365H24.3672V12.9958H25.9879V9.74365Z" fill="white"/>
<path d="M24.3629 6.50195H22.7422V9.74342H24.3629V6.50195Z" fill="white"/>
<path d="M22.7486 4.87061H21.1172V6.502H22.7486V4.87061Z" fill="white"/>
<path d="M18.1614 28.5779H20.8209V27.2525H22.155V24.5929H20.8209V23.2588H18.1614V24.5929H16.8359V27.2525H18.1614V28.5779Z" fill="white"/>
<path d="M20.8158 13.9639H18.1562V21.9338H20.8158V13.9639Z" fill="white"/>
<path d="M21.1115 3.25049H17.8594V4.87122H21.1115V3.25049Z" fill="white"/>
<path d="M17.8629 4.87061H16.2422V6.502H17.8629V4.87061Z" fill="white"/>
<path d="M16.2379 6.50195H14.6172V9.74342H16.2379V6.50195Z" fill="white"/>
<path d="M14.6236 9.74365H12.9922V12.9958H14.6236V9.74365Z" fill="white"/>
<path d="M12.9879 12.9961H11.3672V16.2482H12.9879V12.9961Z" fill="white"/>
<path d="M11.3707 16.248H9.75V19.5002H11.3707V16.248Z" fill="white"/>
<path d="M9.74859 19.501H8.11719V22.7424H9.74859V19.501Z" fill="white"/>
<path d="M8.11292 22.7422H6.49219V25.9943H8.11292V22.7422Z" fill="white"/>
<path d="M6.49077 25.9932H4.85938V29.2453H6.49077V25.9932Z" fill="white"/>
<path d="M4.86292 29.2461H3.24219V32.4982H4.86292V29.2461Z" fill="white"/>
</svg>
