<svg width="16" height="16" viewBox="0 0 16 16" fill="none" xmlns="http://www.w3.org/2000/svg">
<path d="M3.49915 5.77954C3.03903 5.77954 2.66602 6.15256 2.66602 6.61268V10.5007C2.66602 10.9608 3.03903 11.3338 3.49915 11.3338C3.95928 11.3338 4.33229 10.9608 4.33229 10.5007V6.61268C4.33229 6.15256 3.95928 5.77954 3.49915 5.77954ZM12.9414 5.77954C12.4812 5.77954 12.1082 6.15256 12.1082 6.61268V10.5007C12.1082 10.9608 12.4812 11.3338 12.9414 11.3338C13.4015 11.3338 13.7745 10.9608 13.7745 10.5007V6.61268C13.7745 6.15256 13.4015 5.77954 12.9414 5.77954ZM11.2751 5.77954H5.16543C5.01205 5.77954 4.88771 5.90389 4.88771 6.05726V10.5007C4.88758 11.1606 5.35195 11.7295 5.99857 11.8615V13.8332C5.99857 14.2933 6.37158 14.6663 6.8317 14.6663C7.29183 14.6663 7.66484 14.2933 7.66484 13.8332V11.8892H8.7757V13.8332C8.7757 14.2933 9.14871 14.6663 9.60884 14.6663C10.069 14.6663 10.442 14.2933 10.442 13.8332V11.8615C11.0886 11.7295 11.553 11.1606 11.5528 10.5007V6.05726C11.5528 5.90389 11.4285 5.77954 11.2751 5.77954ZM10.2392 2.48698L10.9163 1.81047C11.0266 1.70391 11.0297 1.52812 10.9231 1.41778C10.8166 1.30747 10.6408 1.30442 10.5304 1.41096C10.5281 1.4132 10.5258 1.41546 10.5236 1.41778L9.7349 2.2065C9.25702 1.99891 8.74156 1.89179 8.22053 1.89179C7.69951 1.89179 7.18405 1.99891 6.70616 2.2065L5.91747 1.41723C5.80715 1.31067 5.63134 1.31374 5.52477 1.42405C5.42084 1.53168 5.42084 1.7023 5.52477 1.8099L6.20128 2.48696C5.79531 2.75557 5.46264 3.12108 5.23331 3.55046C5.00397 3.97985 4.8852 4.45959 4.88771 4.94638C4.88771 5.09975 5.01205 5.2241 5.16543 5.2241H11.2751C11.4285 5.2241 11.5528 5.09975 11.5528 4.94638C11.5553 4.4596 11.4365 3.97986 11.2072 3.55048C10.9779 3.1211 10.6452 2.7556 10.2392 2.48698Z" fill="currentColor"/>
<path d="M6.83046 4.11306C6.98384 4.11306 7.10818 3.98872 7.10818 3.83534C7.10818 3.68196 6.98384 3.55762 6.83046 3.55762C6.67707 3.55762 6.55273 3.68196 6.55273 3.83534C6.55273 3.98872 6.67707 4.11306 6.83046 4.11306Z" fill="white"/>
<path d="M9.6078 4.11306C9.76118 4.11306 9.88552 3.98872 9.88552 3.83534C9.88552 3.68196 9.76118 3.55762 9.6078 3.55762C9.45442 3.55762 9.33008 3.68196 9.33008 3.83534C9.33008 3.98872 9.45442 4.11306 9.6078 4.11306Z" fill="white"/>
</svg>
