<svg width="20" height="20" viewBox="0 0 20 20" fill="none" xmlns="http://www.w3.org/2000/svg">
<path fill-rule="evenodd" clip-rule="evenodd" d="M2.5 17.5L2.5 15.8333L2.5 4.16667L2.5 2.5L17.5 2.5L17.5 4.16667L17.5 15.8333L17.5 17.5L2.5 17.5ZM15.8333 4.16667L4.16667 4.16667L4.16667 15.8333L15.8333 15.8333L15.8333 4.16667ZM5.83333 10.8333L5.83333 9.16667L10.8333 9.16667L10.8333 7.5L12.5 7.5L12.5 9.16667L14.1667 9.16667L14.1667 10.8333L12.5 10.8333L12.5 12.5L10.8333 12.5L10.8333 10.8333L5.83333 10.8333ZM9.16667 12.5L10.8333 12.5L10.8333 14.1667L9.16667 14.1667L9.16667 12.5ZM9.16667 5.83333L9.16667 7.5L10.8333 7.5L10.8333 5.83333L9.16667 5.83333Z" fill="currentColor"/>
</svg>
