<svg width="16" height="16" viewBox="0 0 16 16" fill="none" xmlns="http://www.w3.org/2000/svg">
<path fill-rule="evenodd" clip-rule="evenodd" d="M2.66797 7.33301L2.66797 8.66634L10.668 8.66634L10.668 9.99967L12.0013 9.99967L12.0013 8.66634L13.3346 8.66634L13.3346 7.33301L12.0013 7.33301L12.0013 5.99967L10.668 5.99967L10.668 7.33301L2.66797 7.33301ZM10.668 5.99967L10.668 4.66634L9.33464 4.66634L9.33464 5.99967L10.668 5.99967ZM9.33464 11.333L10.668 11.333L10.668 9.99967L9.33464 9.99967L9.33464 11.333ZM9.33464 11.333L8.0013 11.333L8.0013 12.6663L9.33464 12.6663L9.33464 11.333ZM8.0013 3.33301L8.0013 4.66634L9.33464 4.66634L9.33464 3.33301L8.0013 3.33301Z" fill="currentColor"/>
</svg>
