<svg width="20" height="21" viewBox="0 0 20 21" fill="none" xmlns="http://www.w3.org/2000/svg">
<path fill-rule="evenodd" clip-rule="evenodd" d="M15.2375 2.80547V1.85547H18.0937V2.80547H19.0437V17.093H18.0937V18.043H15.2375V17.093H14.2812V2.80547H15.2375ZM0 18.999H20V19.949H0V18.999ZM11.425 15.1869H10.475V16.1368H9.52504V15.1868H10.475V14.2369H11.425V12.3307H10.475V13.2803H9.52504V12.3303H10.475V11.3807H11.425V9.47441H10.475V10.4243H9.52504V9.47428H10.475V8.51816H11.425V6.61816H10.475V7.56784H9.52504V6.61784H10.475V5.66191H8.56873V4.71191H11.425V5.66191H12.3812V17.0932H11.425V15.1869ZM11.425 17.0929V18.0429H8.56871V17.0929H7.61871V5.66162H8.56871V7.56787H9.52496V8.51787H8.56871V10.4241H9.52496V11.3804H8.56871V13.2804H9.52496V14.2366H8.56871V16.1366H9.52496V17.0929H11.425ZM5.71247 11.3806H4.76248V10.4244H1.90623V11.3806H0.950012V17.0931H1.90623V18.0431H4.76248V17.0931H5.71247V11.3806ZM1.90626 17.0931H4.76247V11.3806H1.90626V17.0931Z" fill="#9D9FA6"/>
</svg>
