<svg width="20" height="20" viewBox="0 0 20 20" fill="none" xmlns="http://www.w3.org/2000/svg">
<g clip-path="url(#clip0_6014_51925)">
<path fill-rule="evenodd" clip-rule="evenodd" d="M10.953 1.43086H9.04674V2.38086H8.09674V0.474609H11.903V2.38086H10.953V1.43086ZM15.7155 2.38094H14.7592V3.33716H13.8093V2.38094H11.9031V3.33719H13.8093V4.28716H14.7593V3.33719H15.7155V2.38094ZM15.7156 3.33716H16.6656V4.28716H15.7156V3.33716ZM16.6656 4.28727H17.6218V5.23727H16.6656V4.28727ZM17.6218 6.1932H16.6656V8.0932H17.6218V6.1932ZM18.5718 9.04967V10.9559H17.6218V11.9057H16.6656V13.8119H17.6218V11.9059H19.5218V8.09342H17.6218V9.04967H18.5718ZM17.6218 14.7621H16.6656V15.7121H17.6218V14.7621ZM16.6656 15.7118H15.7156V16.6681H16.6656V15.7118ZM15.7156 13.812H16.6656V14.762H15.7156V13.812ZM16.6656 5.23739H15.7156V6.19364H16.6656V5.23739ZM15.7155 16.6685H14.7592V17.6185H15.7155V16.6685ZM14.7592 8.09342H15.7155V11.9059H14.7593V13.8119H13.8093V11.9057H14.7592V8.09342ZM13.8093 15.7118H14.7593V16.6681H13.8093V15.7118ZM13.8093 6.1932H14.7593V8.0932H13.8093V6.19364H11.9031V5.23739H13.8093V6.1932ZM11.9031 16.6685H13.8093V17.6185H11.9031V16.6685ZM13.8093 13.812H11.9031V14.762H13.8093V13.812ZM9.04674 18.5748H10.953V17.6186H11.903V19.5248H8.09674V17.6186H9.04674V18.5748ZM11.903 14.7621H8.09674V15.7121H11.903V14.7621ZM10.953 11.9059H9.04674V10.9559H8.09674V9.04967H9.04674V8.09342H10.953V9.04967H11.903V10.9559H10.953V11.9059ZM11.903 4.28727H8.09674V5.23727H11.903V4.28727ZM8.09676 16.6685H6.19051V17.6185H8.09676V16.6685ZM6.19051 13.812H8.09676V14.762H6.19051V13.812ZM8.09676 5.23739H6.19051V6.1932H5.2406V8.0932H6.1906V6.19364H8.09676V5.23739ZM6.19051 2.38094H8.09676V3.33719H6.1906V4.28716H5.2406V3.33716H6.19051V2.38094ZM6.1906 15.7118H5.2406V16.6681H6.1906V15.7118ZM5.2406 11.9057H6.1906V13.8119H5.2406V11.9057ZM5.24053 16.6685H4.28428V17.6185H5.24053V16.6685ZM4.28428 8.09342H5.24053V11.9059H4.28428V8.09342ZM5.24053 2.38094H4.28428V3.33719H5.24053V2.38094ZM3.33436 15.7118H4.28427V16.6681H3.33427V15.7121H2.38436V14.7621H3.33436V15.7118ZM4.28427 13.812H3.33427V14.762H4.28427V13.812ZM3.33427 5.23739H4.28427V6.19364H3.33436V8.0932H2.38436V6.1932H3.33427V5.23739ZM4.28427 3.33716H3.33427V4.28716H4.28427V3.33716ZM3.33436 11.9057H2.38436V13.8119H3.33436V11.9057ZM3.33436 4.28727H2.38436V5.23727H3.33436V4.28727ZM1.42803 10.9559H2.38428V11.9059H0.478027V8.09342H2.38428V9.04967H1.42803V10.9559Z" fill="#9D9FA6"/>
</g>
<defs>
<clipPath id="clip0_6014_51925">
<rect width="20" height="20" fill="white"/>
</clipPath>
</defs>
</svg>
