<svg width="20" height="21" viewBox="0 0 20 21" fill="none" xmlns="http://www.w3.org/2000/svg">
<path fill-rule="evenodd" clip-rule="evenodd" d="M17.1407 5.66797H18.0907V7.56797H19.047V10.4242H10.472V1.85547H13.3282V2.80547H15.2345V3.76172H16.1907V4.71484H17.1407V5.66797ZM16.1907 8.52422H17.1407V6.62109H16.1907V8.52422ZM15.2345 6.61797H16.1907V5.67109H15.2345V6.61797ZM14.2845 5.66797H15.2345V4.71484H14.2845V5.66797ZM15.2344 14.2362H16.1907V16.1425H15.2344V14.2362ZM8.57196 12.3301V3.76139H6.66571V4.71139H7.61571V13.2864H16.1907V14.2364H17.1407V12.3301H8.57196ZM14.2844 16.1426H15.2344V17.0926H14.2845V18.0423H13.3282V17.0923H14.2844V16.1426ZM11.4282 18.0424H13.3282V18.9986H11.4282V18.0424ZM11.4282 18.999H6.66571V19.949H11.4282V18.999ZM4.75938 18.0424H6.66563V18.9986H4.75938V18.0424ZM6.66563 4.71151H4.75938V5.66772H3.80947V6.61772H4.75947V5.66776H6.66563V4.71151ZM3.80947 17.0923H4.75947V18.0423H3.80947V17.0923ZM2.85315 16.1426H3.8094V17.0926H2.85315V16.1426ZM3.8094 6.61784H2.85315V7.56784H3.8094V6.61784ZM1.90324 14.2362H2.85324V16.1425H1.90324V14.2362ZM2.85324 7.56795H1.90324V9.4742H2.85324V7.56795ZM0.953125 9.47388H1.90312V14.2364H0.953125V9.47388Z" fill="#9D9FA6"/>
</svg>
