<svg width="20" height="21" viewBox="0 0 20 21" fill="none" xmlns="http://www.w3.org/2000/svg">
<g clip-path="url(#clip0_4001_21432)">
<path d="M18.9299 8.2583H19.9778V13.5117H18.9299V8.2583Z" fill="#9D9FA6"/>
<path d="M0.00463867 8.2583H1.05256V13.5117H0.00463867V8.2583Z" fill="#9D9FA6"/>
<path d="M18.9295 13.5117H17.8816V15.6145H18.9295V13.5117Z" fill="#9D9FA6"/>
<path d="M18.9295 6.15527H17.8816V8.25801H18.9295V6.15527Z" fill="#9D9FA6"/>
<path d="M17.8812 15.6147H16.8264V17.7106H17.8812V15.6147Z" fill="#9D9FA6"/>
<path d="M17.8812 4.05273H16.8264V6.15547H17.8812V4.05273Z" fill="#9D9FA6"/>
<path d="M15.7787 16.6626H14.7239V18.7653H16.8266V17.7105H15.7787V16.6626Z" fill="#9D9FA6"/>
<path d="M16.8266 3.00537H14.7239V4.05329H16.8266V3.00537Z" fill="#9D9FA6"/>
<path d="M14.7238 18.7646H12.6279V19.8126H14.7238V18.7646Z" fill="#9D9FA6"/>
<path d="M14.7238 15.6147H12.6279V16.6627H14.7238V15.6147Z" fill="#9D9FA6"/>
<path d="M13.6759 13.5117H12.6279V14.5596H13.6759V13.5117Z" fill="#9D9FA6"/>
<path d="M14.7238 1.95703H12.6279V3.00495H14.7238V1.95703Z" fill="#9D9FA6"/>
<path d="M12.6279 14.5596H7.37451V15.6144H12.6279V14.5596Z" fill="#9D9FA6"/>
<path d="M12.6279 0.902344V1.95716H7.37451V0.902344H12.6279Z" fill="#9D9FA6"/>
<path d="M12.6279 19.8477V20.9025H7.37451V19.8477H12.6279Z" fill="#9D9FA6"/>
<path d="M7.37544 18.7646H5.27271V19.8126H7.37544V18.7646Z" fill="#9D9FA6"/>
<path d="M7.37544 15.6147H5.27271V16.6627H7.37544V15.6147Z" fill="#9D9FA6"/>
<path d="M7.37488 13.5117H6.32007V14.5596H7.37488V13.5117Z" fill="#9D9FA6"/>
<path d="M7.37544 1.95703H5.27271V3.00495H7.37544V1.95703Z" fill="#9D9FA6"/>
<path d="M6.32063 8.25821H7.37544V7.21029H12.6288V8.25821H13.6768V13.5116H14.7247V6.15547H13.6768V5.10755H12.6288V4.05273H7.37544V5.10755H6.32063V6.15547H5.27271V13.5116H6.32063V8.25821Z" fill="#9D9FA6"/>
<path d="M4.224 16.6626V17.7105H3.16919V18.7653H5.27193V16.6626H4.224Z" fill="#9D9FA6"/>
<path d="M5.27193 3.00537H3.16919V4.05329H5.27193V3.00537Z" fill="#9D9FA6"/>
<path d="M3.16975 15.6147H2.12183V17.7106H3.16975V15.6147Z" fill="#9D9FA6"/>
<path d="M3.16975 4.05273H2.12183V6.15547H3.16975V4.05273Z" fill="#9D9FA6"/>
<path d="M2.12147 13.5117H1.06665V15.6145H2.12147V13.5117Z" fill="#9D9FA6"/>
<path d="M2.12147 6.15527H1.06665V8.25801H2.12147V6.15527Z" fill="#9D9FA6"/>
</g>
<defs>
<clipPath id="clip0_4001_21432">
<rect width="20" height="20" fill="white" transform="translate(0 0.902344)"/>
</clipPath>
</defs>
</svg>
