<svg width="20" height="21" viewBox="0 0 20 21" fill="none" xmlns="http://www.w3.org/2000/svg">
<g clip-path="url(#clip0_6014_51871)">
<path fill-rule="evenodd" clip-rule="evenodd" d="M12.375 0.902344H7.61871V1.85234H12.375V0.902344ZM13.3312 1.85246H12.375V2.80871H13.3312V1.85246ZM14.2813 2.80868H13.3313V7.57118H14.2813V2.80868ZM10.475 9.47116V12.3337H16.1875V13.2837H10.475V16.1399H11.425V17.0899H12.375V19.9524H11.425V20.9024H8.56875V19.9524H7.61875V17.0899H8.56875V16.1399H9.51875V13.2837H3.80625V12.3337H9.51875V9.47116H7.61875V8.52116H12.375V9.47116H10.475ZM17.1375 13.2835H16.1875V14.2335H17.1375V13.2835ZM19.0438 16.1399H18.0938V14.2336H17.1375V16.1399H16.1875V17.0899H15.2375V19.9524H16.1875V20.9024H19.0438V19.9524H20V17.0899H19.0438V16.1399ZM12.375 7.57104H13.3312V8.52104H12.375V7.57104ZM11.425 5.66471H12.375V6.61471H11.425V5.66471ZM12.375 3.75879H11.425V4.70879H12.375V3.75879ZM8.56873 6.61483H11.425V7.57108H8.56873V6.61483ZM7.61871 5.66471H8.56871V6.61471H7.61871V5.66471ZM8.56871 3.75879H7.61871V4.70879H8.56871V3.75879ZM6.6625 7.57104H7.61875V8.52104H6.6625V7.57104ZM7.61875 1.85246H6.6625V2.80871H7.61875V1.85246ZM5.71248 2.80868H6.66248V7.57118H5.71248V2.80868ZM3.80624 13.2835H2.85624V14.2335H3.80624V13.2835ZM0.95 16.1399H1.9V14.2336H2.85625V16.1399H3.80625V17.0899H4.75625V19.9524H3.80625V20.9024H0.95V19.9524H0V17.0899H0.95V16.1399Z" fill="#9D9FA6"/>
</g>
<defs>
<clipPath id="clip0_6014_51871">
<rect width="20" height="20" fill="white" transform="translate(0 0.902344)"/>
</clipPath>
</defs>
</svg>
