<svg width="20" height="21" viewBox="0 0 20 21" fill="none" xmlns="http://www.w3.org/2000/svg">
<g clip-path="url(#clip0_6014_51894)">
<path fill-rule="evenodd" clip-rule="evenodd" d="M12.3812 0.902344H7.61871V1.85234H12.3812V0.902344ZM14.2813 1.85246H12.3813V2.80871H14.2812V3.75827H16.1875V2.80827H14.2813V1.85246ZM16.1875 3.75838H17.1438V4.71463H16.1875V3.75838ZM17.1438 4.71501H18.0938V6.61483H19.0437V8.52108H18.0937V6.61501H17.1438V4.71501ZM20 8.52116H19.0438V13.2837H20V8.52116ZM19.0437 13.2835H18.0937V15.1898H19.0437V13.2835ZM18.0938 15.1899H17.1438V17.0897H16.1875V18.0459H17.1438V17.0899H18.0938V15.1899ZM16.1875 18.0463H14.2812V18.9963H16.1875V18.0463ZM8.56871 12.3334H9.52496V13.2834H10.475V12.3334H11.425V11.3771H15.2375V10.4271H11.425V9.47088H10.475V3.75838H9.52496V9.47088H8.56871V10.4271H7.61871V11.3771H8.56871V12.3334ZM12.3813 18.9964H14.2813V19.9527H12.3813V18.9964ZM7.61873 19.9522H12.3812V20.9022H7.61871V19.9527H5.71248V18.9964H7.61873V19.9522ZM7.61873 1.85246H5.71248V2.80827H3.80625V3.75827H5.7125V2.80871H7.61873V1.85246ZM3.80625 18.0463H5.7125V18.9963H3.80625V18.0463ZM2.85633 17.0897H3.80624V18.0459H2.85624V17.0899H1.90633V15.1899H2.85633V17.0897ZM3.80624 3.75838H2.85624V4.71463H3.80624V3.75838ZM2.85633 4.71501H1.90633V6.61501H2.85633V4.71501ZM0.950012 13.2835H1.90626V15.1898H0.950012V13.2835ZM1.90626 6.61483H0.950012V8.52108H1.90626V6.61483ZM0 8.52116H0.95V13.2837H0V8.52116Z" fill="#9D9FA6"/>
</g>
<defs>
<clipPath id="clip0_6014_51894">
<rect width="20" height="20" fill="white" transform="translate(0 0.902344)"/>
</clipPath>
</defs>
</svg>
