<svg width="20" height="21" viewBox="0 0 20 21" fill="none" xmlns="http://www.w3.org/2000/svg">
<path fill-rule="evenodd" clip-rule="evenodd" d="M11.4281 4.71191H13.3344V5.66191H14.2844V6.61816H15.2406V8.52441H16.1906V13.2807H15.2406V15.1869H14.2844V16.1432H13.3344V17.0932H11.4281V18.0432H6.66561V18.9994H13.3344V18.0432H15.2406V17.0932H16.1906V16.1432H17.1469V15.1869H18.0969V13.2807H19.0469V8.52441H18.0969V6.61816H17.1469V5.66191H16.1906V4.71191H15.2406V3.76191H13.3344V2.80566H6.66561V3.76191H11.4281V4.71159H6.66561V5.66159H11.4281V4.71191ZM15.2406 8.52425H14.2844V7.56803H13.3344V8.52428H14.2843V13.2805H15.2406V8.52425ZM13.3344 13.2805H14.2844V14.2368H13.3344V13.2805ZM12.3844 14.2367H13.3344V15.1867H12.3844V14.2367ZM13.3344 6.61833H12.3844V7.56833H13.3344V6.61833ZM11.4281 15.1868H12.3843V16.1431H11.4281V17.0931H6.66561V16.1431H11.4281V15.1868ZM12.3843 5.6617H11.4281V6.61795H12.3843V5.6617ZM10.4781 11.3808H9.52183V13.2808H10.4781V14.2371H9.52183V15.1871H8.57183V14.2371H7.62183V13.2808H8.57183V11.3808H7.62183V10.4246H8.57183V8.52458H7.62186V10.4243H6.66561V8.52425H7.62183V7.56833H8.57183V6.61833H9.52183V7.56833H10.4781V8.52425H11.4281V9.47425H10.4781V8.52458H9.52183V10.4246H10.4781V11.3807H11.4281V13.2807H10.4781V11.3808ZM7.62186 12.3308H6.66561V13.2808H7.62186V12.3308ZM6.66558 17.0932H4.76558V18.0432H6.66558V17.0932ZM5.7156 15.1868H6.6656V16.1431H5.7156V15.1868ZM6.6656 5.6617H5.7156V6.61795H6.6656V5.6617ZM4.76558 3.76188H6.66558V4.71188H4.76558V3.76188ZM5.71558 14.2367H4.76558V15.1867H5.71558V14.2367ZM4.76558 6.61833H5.71558V7.56833H4.76558V6.61833ZM4.76552 16.1431H3.80935V15.1868H2.85935V16.1431H3.80927V17.0931H4.76552V16.1431ZM3.80927 13.2805H4.76552V14.2368H3.80927V13.2805ZM4.76552 7.56803H3.80927V8.52425H2.85939V6.61833H1.90314V8.52458H2.85935V13.2805H3.80935V8.52428H4.76552V7.56803ZM3.80927 4.71159H4.76552V5.66159H3.80927V4.71159ZM3.80935 5.6617H2.85935V6.61795H3.80935V5.6617ZM1.90314 13.2805H2.85939V15.1868H1.90314V13.2805ZM0.953125 8.52425H1.90313V13.2805H0.953125V8.52425Z" fill="#9D9FA6"/>
</svg>
