<svg width="72" height="98" viewBox="0 0 72 98" fill="none" xmlns="http://www.w3.org/2000/svg">
<g clip-path="url(#clip0_6037_56292)">
<path d="M39.6413 61.6504H32.793V68.4987H39.6413V61.6504Z" fill="#D69365"/>
<path d="M26.0163 54.8018H19.168V61.6501H26.0163V54.8018Z" fill="#F9D4BB"/>
<path d="M39.6413 54.8018H32.793V61.6501H39.6413V54.8018Z" fill="white"/>
<path d="M53.3405 54.8018H46.4922V61.6501H53.3405V54.8018Z" fill="#F9D4BB"/>
<path d="M26.0163 47.9531H19.168V54.8014H26.0163V47.9531Z" fill="#F9D4BB"/>
<path d="M39.6413 47.9531H32.793V54.8014H39.6413V47.9531Z" fill="#F9D4BB"/>
<path d="M53.3405 47.9531H46.4922V54.8014H53.3405V47.9531Z" fill="#F9D4BB"/>
<path d="M26.0163 41.1045H19.168V47.9528H26.0163V41.1045Z" fill="#F9D4BB"/>
<path d="M19.1686 47.9531H12.3203V54.8014H19.1686V47.9531Z" fill="#F9BE8F"/>
<path d="M19.1686 41.1045H12.3203V47.9528H19.1686V41.1045Z" fill="#4F2B00"/>
<path d="M60.1881 47.9531H53.3398V54.8014H60.1881V47.9531Z" fill="#F9BE8F"/>
<path d="M60.1881 41.1045H53.3398V47.9528H60.1881V41.1045Z" fill="#4F2B00"/>
<path d="M39.6413 41.1045H32.793V47.9528H39.6413V41.1045Z" fill="#F9D4BB"/>
<path d="M53.3405 41.1045H46.4922V47.9528H53.3405V41.1045Z" fill="#F9D4BB"/>
<path d="M26.0163 34.2559H19.168V41.1042H26.0163V34.2559Z" fill="#F9D4BB"/>
<path d="M19.1686 34.2559H12.3203V41.1042H19.1686V34.2559Z" fill="#714400"/>
<path d="M19.1686 61.6504H12.3203V68.4987H19.1686V61.6504Z" fill="#4F2B00"/>
<path d="M26.0163 61.6504H19.168V68.4987H26.0163V61.6504Z" fill="#351C00"/>
<path d="M32.7936 61.6504H25.9453V68.4987H32.7936V61.6504Z" fill="#351C00"/>
<path d="M46.4909 61.6504H39.6426V68.4987H46.4909V61.6504Z" fill="#351C00"/>
<path d="M53.3405 61.6504H46.4922V68.4987H53.3405V61.6504Z" fill="#351C00"/>
<path d="M19.1686 68.4277H12.3203V75.276H19.1686V68.4277Z" fill="#963C3C"/>
<path d="M19.1686 54.8018H12.3203V61.6501H19.1686V54.8018Z" fill="#4F2B00"/>
<path d="M60.1881 61.6504H53.3398V68.4987H60.1881V61.6504Z" fill="#4F2B00"/>
<path d="M60.1881 68.4277H53.3398V75.276H60.1881V68.4277Z" fill="#963C3C"/>
<path d="M60.1881 54.8018H53.3398V61.6501H60.1881V54.8018Z" fill="#4F2B00"/>
<path d="M60.1881 34.2559H53.3398V41.1042H60.1881V34.2559Z" fill="#714400"/>
<path d="M19.1686 27.4785H12.3203V34.3268H19.1686V27.4785Z" fill="#714400"/>
<path d="M60.1881 27.4785H53.3398V34.3268H60.1881V27.4785Z" fill="#714400"/>
<path d="M19.1686 20.6299H12.3203V27.4782H19.1686V20.6299Z" fill="#714400"/>
<path d="M60.1881 20.6299H53.3398V27.4782H60.1881V20.6299Z" fill="#714400"/>
<path d="M39.6413 34.2559H32.793V41.1042H39.6413V34.2559Z" fill="#F9D4BB"/>
<path d="M53.3405 34.2559H46.4922V41.1042H53.3405V34.2559Z" fill="#F9D4BB"/>
<path d="M26.0163 27.4785H19.168V34.3268H26.0163V27.4785Z" fill="#714400"/>
<path d="M39.6413 27.4785H32.793V34.3268H39.6413V27.4785Z" fill="#F9D4BB"/>
<path d="M53.3405 27.4785H46.4922V34.3268H53.3405V27.4785Z" fill="#8C6214"/>
<path d="M53.3405 34.2559H46.4922V41.1042H53.3405V34.2559Z" fill="#8C6214"/>
<path d="M26.0163 20.6299H19.168V27.4782H26.0163V20.6299Z" fill="#714400"/>
<path d="M39.6413 20.6299H32.793V27.4782H39.6413V20.6299Z" fill="#8C6214"/>
<path d="M39.6413 27.4785H32.793V34.3268H39.6413V27.4785Z" fill="#8C6214"/>
<path d="M32.7936 54.8018H25.9453V61.6501H32.7936V54.8018Z" fill="#F9D4BB"/>
<path d="M32.7936 47.9531H25.9453V54.8014H32.7936V47.9531Z" fill="#F9D4BB"/>
<path d="M32.7936 41.1045H25.9453V47.9528H32.7936V41.1045Z" fill="#211C19"/>
<path d="M32.7936 34.2559H25.9453V41.1042H32.7936V34.2559Z" fill="#F9D4BB"/>
<path d="M32.7936 27.4785H25.9453V34.3268H32.7936V27.4785Z" fill="#F9D4BB"/>
<path d="M32.7936 20.6299H25.9453V27.4782H32.7936V20.6299Z" fill="#714400"/>
<path d="M46.4909 54.8018H39.6426V61.6501H46.4909V54.8018Z" fill="#F9D4BB"/>
<path d="M46.4909 47.9531H39.6426V54.8014H46.4909V47.9531Z" fill="#F9D4BB"/>
<path d="M46.4909 41.1045H39.6426V47.9528H46.4909V41.1045Z" fill="#211C19"/>
<path d="M46.4909 34.2559H39.6426V41.1042H46.4909V34.2559Z" fill="#F9D4BB"/>
<path d="M46.4909 27.4785H39.6426V34.3268H46.4909V27.4785Z" fill="#F9D4BB"/>
<path d="M46.4909 20.6299H39.6426V27.4782H46.4909V20.6299Z" fill="#8C6214"/>
<path d="M46.4909 27.4785H39.6426V34.3268H46.4909V27.4785Z" fill="#8C6214"/>
<path d="M53.3405 20.6299H46.4922V27.4782H53.3405V20.6299Z" fill="#714400"/>
<path d="M26.0163 13.7812H19.168V20.6295H26.0163V13.7812Z" fill="#714400"/>
<path d="M39.6413 13.7812H32.793V20.6295H39.6413V13.7812Z" fill="#8C6214"/>
<path d="M32.7936 13.7812H25.9453V20.6295H32.7936V13.7812Z" fill="#8C6214"/>
<path d="M46.4909 13.7812H39.6426V20.6295H46.4909V13.7812Z" fill="#8C6214"/>
<path d="M53.3405 13.7812H46.4922V20.6295H53.3405V13.7812Z" fill="#714400"/>
<path d="M26.0163 68.4277H19.168V75.276H26.0163V68.4277Z" fill="#7F0000"/>
<path d="M32.7936 68.4277H25.9453V75.276H32.7936V68.4277Z" fill="#F9BE8F"/>
<path d="M39.6413 68.4277H32.793V75.276H39.6413V68.4277Z" fill="#F9BE8F"/>
<path d="M46.4909 68.4277H39.6426V75.276H46.4909V68.4277Z" fill="#F9BE8F"/>
<path d="M53.3405 68.4277H46.4922V75.276H53.3405V68.4277Z" fill="#7F0000"/>
<path d="M26.0163 75.2764H19.168V82.1247H26.0163V75.2764Z" fill="#963C3C"/>
<path d="M32.7936 75.2764H25.9453V82.1247H32.7936V75.2764Z" fill="#F9BE8F"/>
<path d="M39.6413 75.2764H32.793V82.1247H39.6413V75.2764Z" fill="#F9BE8F"/>
<path d="M46.4909 75.2764H39.6426V82.1247H46.4909V75.2764Z" fill="#F9BE8F"/>
<path d="M53.3405 75.2764H46.4922V82.1247H53.3405V75.2764Z" fill="#963C3C"/>
<path d="M26.0163 82.125H19.168V88.9733H26.0163V82.125Z" fill="#963C3C"/>
<path d="M12.319 82.125H5.4707V88.9733H12.319V82.125Z" fill="#BA5F5F"/>
<path d="M32.7936 82.125H25.9453V88.9733H32.7936V82.125Z" fill="#7F0000"/>
<path d="M39.6413 82.125H32.793V88.9733H39.6413V82.125Z" fill="#7F0000"/>
<path d="M46.4909 82.125H39.6426V88.9733H46.4909V82.125Z" fill="#7F0000"/>
<path d="M53.3405 82.125H46.4922V88.9733H53.3405V82.125Z" fill="#963C3C"/>
<path d="M66.9655 82.125H60.1172V88.9733H66.9655V82.125Z" fill="#BA5F5F"/>
<path d="M12.319 75.2764H5.4707V82.1247H12.319V75.2764Z" fill="#BA5F5F"/>
<path d="M66.9655 75.2764H60.1172V82.1247H66.9655V75.2764Z" fill="#BA5F5F"/>
<path d="M26.0163 88.9736H19.168V95.8219H26.0163V88.9736Z" fill="#963C3C"/>
<path d="M12.319 88.9736H5.4707V95.8219H12.319V88.9736Z" fill="#BA5F5F"/>
<path d="M32.7936 88.9736H25.9453V95.8219H32.7936V88.9736Z" fill="#7F0000"/>
<path d="M39.6413 88.9736H32.793V95.8219H39.6413V88.9736Z" fill="#7F0000"/>
<path d="M46.4909 88.9736H39.6426V95.8219H46.4909V88.9736Z" fill="#7F0000"/>
<path d="M53.3405 88.9736H46.4922V95.8219H53.3405V88.9736Z" fill="#963C3C"/>
<path d="M66.9655 88.9736H60.1172V95.8219H66.9655V88.9736Z" fill="#BA5F5F"/>
<path d="M26.0163 95.8223H19.168V102.671H26.0163V95.8223Z" fill="#963C3C"/>
<path d="M12.319 95.8223H5.4707V102.671H12.319V95.8223Z" fill="#D69365"/>
<path d="M32.7936 95.8223H25.9453V102.671H32.7936V95.8223Z" fill="#7F0000"/>
<path d="M39.6413 95.8223H32.793V102.671H39.6413V95.8223Z" fill="#7F0000"/>
<path d="M46.4909 95.8223H39.6426V102.671H46.4909V95.8223Z" fill="#7F0000"/>
<path d="M53.3405 95.8223H46.4922V102.671H53.3405V95.8223Z" fill="#963C3C"/>
<path d="M66.9655 95.8223H60.1172V102.671H66.9655V95.8223Z" fill="#D69365"/>
<path d="M19.1686 75.2764H12.3203V82.1247H19.1686V75.2764Z" fill="#963C3C"/>
<path d="M19.1686 82.125H12.3203V88.9733H19.1686V82.125Z" fill="#963C3C"/>
<path d="M19.1686 88.9736H12.3203V95.8219H19.1686V88.9736Z" fill="#963C3C"/>
<path d="M19.1686 95.8223H12.3203V102.671H19.1686V95.8223Z" fill="#963C3C"/>
<path d="M60.1881 75.2764H53.3398V82.1247H60.1881V75.2764Z" fill="#963C3C"/>
<path d="M60.1881 82.125H53.3398V88.9733H60.1881V82.125Z" fill="#963C3C"/>
<path d="M60.1881 88.9736H53.3398V95.8219H60.1881V88.9736Z" fill="#963C3C"/>
<path d="M60.1881 95.8223H53.3398V102.671H60.1881V95.8223Z" fill="#963C3C"/>
</g>
<defs>
<clipPath id="clip0_6037_56292">
<rect width="70.4375" height="101.062" fill="white" transform="translate(0.78125 -1.53125)"/>
</clipPath>
</defs>
</svg>
