<svg width="80" height="80" viewBox="0 0 80 80" fill="none" xmlns="http://www.w3.org/2000/svg">
<g clip-path="url(#clip0_6037_30850)">
<path d="M67.6936 67.8832V62.6903H62.5007V57.4972H57.3076V47.1115H62.5007V41.9184H67.6936V15.9538H62.5007V10.7609H57.3076V5.56789H52.1148V0.375H27.8811V5.56789H22.6882V10.7609H17.4951V15.9538H12.3023V41.9184H17.4951V47.1115H22.6882V57.4972H17.4951V62.6903H12.3023V67.8832H7.10938V80H72.8865V67.8832H67.6936Z" fill="#055DF5"/>
<path d="M22.6882 52.3043V57.4972H17.4951V62.6903H12.3023V67.8832H7.10938V80H17.4951V67.8832H22.6882V62.6903H27.8811V52.3043H22.6882ZM12.3023 36.7255V41.9184H17.4951V47.1115H22.6882V36.7255H17.4951H12.3023ZM62.5007 15.9538V10.7609H57.3076V5.56789H52.1148V0.375H27.8811V5.56789H22.6882V10.7609H17.4951V15.9538H12.3023V31.5326H22.6882V15.9538H27.8811V10.7609H52.1148V15.9538H57.3076V21.1467H67.6936V15.9538H62.5007Z" fill="white"/>
<path d="M12.3008 15.9538H17.4937V41.9186H12.3008V15.9538ZM62.4992 15.9538H67.6921V41.9186H62.4992V15.9538ZM27.8796 0.375H52.1133V5.56789H27.8796V0.375ZM17.4937 10.7609H22.6866V15.9538H17.4937V10.7609ZM22.6867 5.56789H27.8796V10.7608H22.6867V5.56789ZM52.1133 5.56789H57.3062V10.7608H52.1133V5.56789ZM57.3062 10.7608L62.4991 10.7609V15.9538H57.3062V10.7608ZM17.4937 41.9184H22.6866V47.1113H17.4937V41.9184ZM57.3062 41.9184H62.4991V47.1113H57.3062V41.9184ZM52.1133 52.3043H46.9204V57.4972H57.3062V47.1114H52.1133V52.3043ZM12.3008 62.6903H17.4937V67.8831H12.3008V62.6903ZM62.4992 62.6903H67.6921V67.8831H62.4992V62.6903Z" fill="black"/>
<path d="M67.6936 67.886V74.8099H12.3023V67.886H7.10938V80.0028H72.8865V67.886H67.6936ZM17.4951 57.5H22.688V62.6929H17.4951V57.5ZM57.3076 57.5H62.5005V62.6929H57.3076V57.5ZM33.074 57.5V52.3071H27.8811V47.1143H22.6882L22.688 57.5H27.8811H33.074Z" fill="#055DF5"/>
<path d="M17.4922 57.5H22.6851L22.6852 47.1143H27.8781V52.3071H33.071V57.5H27.8781H22.6851V62.6929H17.4922V57.5Z" fill="#0A0E20"/>
<path d="M62.4976 57.5H57.3047V62.6929H62.4976V57.5Z" fill="#0A0E20"/>
</g>
<defs>
<clipPath id="clip0_6037_30850">
<rect width="79.625" height="79.625" fill="white" transform="translate(0.1875 0.375)"/>
</clipPath>
</defs>
</svg>
