<svg width="20" height="20" viewBox="0 0 20 20" fill="none" xmlns="http://www.w3.org/2000/svg">
<path d="M18.0964 11.4316H17.1401V16.1941H18.0964V11.4316Z" fill="url(#paint0_linear_6081_61033)"/>
<path d="M17.1404 16.1943H16.1904V18.0943H17.1404V16.1943Z" fill="url(#paint1_linear_6081_61033)"/>
<path d="M17.1404 9.52539H16.1904V11.4316H17.1404V9.52539Z" fill="url(#paint2_linear_6081_61033)"/>
<path d="M16.1902 8.5752H15.2402V9.52519H16.1902V8.5752Z" fill="url(#paint3_linear_6081_61033)"/>
<path d="M16.1904 18.0947H14.2842V19.051H16.1904V18.0947Z" fill="url(#paint4_linear_6081_61033)"/>
<path d="M15.2404 7.61816H14.2842V8.57441H15.2404V7.61816Z" fill="url(#paint5_linear_6081_61033)"/>
<path d="M14.284 2.85625H15.2402V0H13.334V0.95H14.284V2.85625Z" fill="url(#paint6_linear_6081_61033)"/>
<path d="M14.284 6.66895H13.334V7.61894H14.284V6.66895Z" fill="url(#paint7_linear_6081_61033)"/>
<path d="M14.284 2.85645H13.334V3.8127H14.284V2.85645Z" fill="url(#paint8_linear_6081_61033)"/>
<path d="M14.2841 19.0498H5.71533V19.9998H14.2841V19.0498Z" fill="url(#paint9_linear_6081_61033)"/>
<path d="M7.61533 8.5752V9.52519H6.66533V10.4752H5.71533V15.2377H6.66533V16.1939H7.61533V17.1439H12.3778V16.1939H13.3341V15.2377H14.2841V10.4752H13.3341V9.52519H12.3778V8.5752H7.61533ZM12.3778 14.2877H11.4278V15.2377H10.4778V16.1939H9.52158V15.2377H8.57158V14.2877H11.4278V13.3314H8.57158V12.3814H7.61533V11.4314H8.57158V10.4752H9.52158V9.52519H10.4778V10.4752H11.4278V11.4314H8.57158V12.3814H11.4278V13.3314H12.3778V14.2877Z" fill="url(#paint10_linear_6081_61033)"/>
<path d="M13.3337 5.71191H12.3774V6.66816H13.3337V5.71191Z" fill="url(#paint11_linear_6081_61033)"/>
<path d="M13.3337 3.8125H12.3774V4.7625H13.3337V3.8125Z" fill="url(#paint12_linear_6081_61033)"/>
<path d="M13.3337 0.950195H12.3774V1.90645H13.3337V0.950195Z" fill="url(#paint13_linear_6081_61033)"/>
<path d="M12.3777 1.90625H11.4277V2.85625H12.3777V1.90625Z" fill="url(#paint14_linear_6081_61033)"/>
<path d="M11.4275 0.950195H10.4775V1.90645H11.4275V0.950195Z" fill="url(#paint15_linear_6081_61033)"/>
<path d="M10.4777 0H9.52148V0.95H10.4777V0Z" fill="url(#paint16_linear_6081_61033)"/>
<path d="M12.3772 4.7627H7.61475V5.7127H12.3772V4.7627Z" fill="url(#paint17_linear_6081_61033)"/>
<path d="M9.52129 0.950195H8.57129V1.90645H9.52129V0.950195Z" fill="url(#paint18_linear_6081_61033)"/>
<path d="M8.571 1.90625H7.61475V2.85625H8.571V1.90625Z" fill="url(#paint19_linear_6081_61033)"/>
<path d="M7.61504 5.71191H6.66504V6.66816H7.61504V5.71191Z" fill="url(#paint20_linear_6081_61033)"/>
<path d="M7.61504 3.8125H6.66504V4.7625H7.61504V3.8125Z" fill="url(#paint21_linear_6081_61033)"/>
<path d="M7.61504 0.950195H6.66504V1.90645H7.61504V0.950195Z" fill="url(#paint22_linear_6081_61033)"/>
<path d="M6.66533 6.66895H5.71533V7.61894H6.66533V6.66895Z" fill="url(#paint23_linear_6081_61033)"/>
<path d="M6.66533 2.85645H5.71533V3.8127H6.66533V2.85645Z" fill="url(#paint24_linear_6081_61033)"/>
<path d="M5.71484 18.0947H3.80859V19.051H5.71484V18.0947Z" fill="url(#paint25_linear_6081_61033)"/>
<path d="M5.71504 7.61816H4.75879V8.57441H5.71504V7.61816Z" fill="url(#paint26_linear_6081_61033)"/>
<path d="M6.66504 0.95V0H4.75879V2.85625H5.71504V0.95H6.66504Z" fill="url(#paint27_linear_6081_61033)"/>
<path d="M4.75859 8.5752H3.80859V9.52519H4.75859V8.5752Z" fill="url(#paint28_linear_6081_61033)"/>
<path d="M3.80937 16.1943H2.85938V18.0943H3.80937V16.1943Z" fill="url(#paint29_linear_6081_61033)"/>
<path d="M3.80937 9.52539H2.85938V11.4316H3.80937V9.52539Z" fill="url(#paint30_linear_6081_61033)"/>
<path d="M2.85908 11.4316H1.90283V16.1941H2.85908V11.4316Z" fill="url(#paint31_linear_6081_61033)"/>
<defs>
<linearGradient id="paint0_linear_6081_61033" x1="17.6201" y1="10.1761" x2="20.0348" y2="10.9575" gradientUnits="userSpaceOnUse">
<stop stop-color="#5164D8"/>
<stop offset="1" stop-color="#0824B6"/>
</linearGradient>
<linearGradient id="paint1_linear_6081_61033" x1="16.6672" y1="15.6934" x2="18.2739" y2="16.9882" gradientUnits="userSpaceOnUse">
<stop stop-color="#5164D8"/>
<stop offset="1" stop-color="#0824B6"/>
</linearGradient>
<linearGradient id="paint2_linear_6081_61033" x1="16.6672" y1="9.02283" x2="18.2781" y2="10.3167" gradientUnits="userSpaceOnUse">
<stop stop-color="#5164D8"/>
<stop offset="1" stop-color="#0824B6"/>
</linearGradient>
<linearGradient id="paint3_linear_6081_61033" x1="15.717" y1="8.32474" x2="16.4537" y2="9.51199" gradientUnits="userSpaceOnUse">
<stop stop-color="#5164D8"/>
<stop offset="1" stop-color="#0824B6"/>
</linearGradient>
<linearGradient id="paint4_linear_6081_61033" x1="15.2409" y1="17.8426" x2="15.7105" y2="19.3516" gradientUnits="userSpaceOnUse">
<stop stop-color="#5164D8"/>
<stop offset="1" stop-color="#0824B6"/>
</linearGradient>
<linearGradient id="paint5_linear_6081_61033" x1="14.7641" y1="7.36606" x2="15.5056" y2="8.56112" gradientUnits="userSpaceOnUse">
<stop stop-color="#5164D8"/>
<stop offset="1" stop-color="#0824B6"/>
</linearGradient>
<linearGradient id="paint6_linear_6081_61033" x1="14.2907" y1="-0.753011" x2="16.756" y2="1.8988" gradientUnits="userSpaceOnUse">
<stop stop-color="#5164D8"/>
<stop offset="1" stop-color="#0824B6"/>
</linearGradient>
<linearGradient id="paint7_linear_6081_61033" x1="13.8108" y1="6.41849" x2="14.5474" y2="7.60574" gradientUnits="userSpaceOnUse">
<stop stop-color="#5164D8"/>
<stop offset="1" stop-color="#0824B6"/>
</linearGradient>
<linearGradient id="paint8_linear_6081_61033" x1="13.8108" y1="2.60434" x2="14.5544" y2="3.79503" gradientUnits="userSpaceOnUse">
<stop stop-color="#5164D8"/>
<stop offset="1" stop-color="#0824B6"/>
</linearGradient>
<linearGradient id="paint9_linear_6081_61033" x1="10.0159" y1="18.7994" x2="10.1284" y2="20.4359" gradientUnits="userSpaceOnUse">
<stop stop-color="#5164D8"/>
<stop offset="1" stop-color="#0824B6"/>
</linearGradient>
<linearGradient id="paint10_linear_6081_61033" x1="10.0159" y1="6.31616" x2="16.6601" y2="17.0248" gradientUnits="userSpaceOnUse">
<stop stop-color="#5164D8"/>
<stop offset="1" stop-color="#0824B6"/>
</linearGradient>
<linearGradient id="paint11_linear_6081_61033" x1="12.8574" y1="5.45981" x2="13.5988" y2="6.65487" gradientUnits="userSpaceOnUse">
<stop stop-color="#5164D8"/>
<stop offset="1" stop-color="#0824B6"/>
</linearGradient>
<linearGradient id="paint12_linear_6081_61033" x1="12.8574" y1="3.56205" x2="13.5918" y2="4.75361" gradientUnits="userSpaceOnUse">
<stop stop-color="#5164D8"/>
<stop offset="1" stop-color="#0824B6"/>
</linearGradient>
<linearGradient id="paint13_linear_6081_61033" x1="12.8574" y1="0.698093" x2="13.5988" y2="1.89315" gradientUnits="userSpaceOnUse">
<stop stop-color="#5164D8"/>
<stop offset="1" stop-color="#0824B6"/>
</linearGradient>
<linearGradient id="paint14_linear_6081_61033" x1="11.9045" y1="1.6558" x2="12.6412" y2="2.84304" gradientUnits="userSpaceOnUse">
<stop stop-color="#5164D8"/>
<stop offset="1" stop-color="#0824B6"/>
</linearGradient>
<linearGradient id="paint15_linear_6081_61033" x1="10.9543" y1="0.698093" x2="11.698" y2="1.88878" gradientUnits="userSpaceOnUse">
<stop stop-color="#5164D8"/>
<stop offset="1" stop-color="#0824B6"/>
</linearGradient>
<linearGradient id="paint16_linear_6081_61033" x1="10.0014" y1="-0.250455" x2="10.7359" y2="0.941107" gradientUnits="userSpaceOnUse">
<stop stop-color="#5164D8"/>
<stop offset="1" stop-color="#0824B6"/>
</linearGradient>
<linearGradient id="paint17_linear_6081_61033" x1="10.005" y1="4.51224" x2="10.2054" y2="6.13172" gradientUnits="userSpaceOnUse">
<stop stop-color="#5164D8"/>
<stop offset="1" stop-color="#0824B6"/>
</linearGradient>
<linearGradient id="paint18_linear_6081_61033" x1="9.04808" y1="0.698093" x2="9.7917" y2="1.88878" gradientUnits="userSpaceOnUse">
<stop stop-color="#5164D8"/>
<stop offset="1" stop-color="#0824B6"/>
</linearGradient>
<linearGradient id="paint19_linear_6081_61033" x1="8.09468" y1="1.6558" x2="8.82915" y2="2.84736" gradientUnits="userSpaceOnUse">
<stop stop-color="#5164D8"/>
<stop offset="1" stop-color="#0824B6"/>
</linearGradient>
<linearGradient id="paint20_linear_6081_61033" x1="7.14183" y1="5.45981" x2="7.88545" y2="6.6505" gradientUnits="userSpaceOnUse">
<stop stop-color="#5164D8"/>
<stop offset="1" stop-color="#0824B6"/>
</linearGradient>
<linearGradient id="paint21_linear_6081_61033" x1="7.14183" y1="3.56205" x2="7.87846" y2="4.74929" gradientUnits="userSpaceOnUse">
<stop stop-color="#5164D8"/>
<stop offset="1" stop-color="#0824B6"/>
</linearGradient>
<linearGradient id="paint22_linear_6081_61033" x1="7.14183" y1="0.698093" x2="7.88545" y2="1.88878" gradientUnits="userSpaceOnUse">
<stop stop-color="#5164D8"/>
<stop offset="1" stop-color="#0824B6"/>
</linearGradient>
<linearGradient id="paint23_linear_6081_61033" x1="6.19212" y1="6.41849" x2="6.92875" y2="7.60574" gradientUnits="userSpaceOnUse">
<stop stop-color="#5164D8"/>
<stop offset="1" stop-color="#0824B6"/>
</linearGradient>
<linearGradient id="paint24_linear_6081_61033" x1="6.19212" y1="2.60434" x2="6.93575" y2="3.79503" gradientUnits="userSpaceOnUse">
<stop stop-color="#5164D8"/>
<stop offset="1" stop-color="#0824B6"/>
</linearGradient>
<linearGradient id="paint25_linear_6081_61033" x1="4.76532" y1="17.8426" x2="5.23496" y2="19.3516" gradientUnits="userSpaceOnUse">
<stop stop-color="#5164D8"/>
<stop offset="1" stop-color="#0824B6"/>
</linearGradient>
<linearGradient id="paint26_linear_6081_61033" x1="5.23872" y1="7.36606" x2="5.98019" y2="8.56112" gradientUnits="userSpaceOnUse">
<stop stop-color="#5164D8"/>
<stop offset="1" stop-color="#0824B6"/>
</linearGradient>
<linearGradient id="paint27_linear_6081_61033" x1="5.71551" y1="-0.753011" x2="8.18079" y2="1.8988" gradientUnits="userSpaceOnUse">
<stop stop-color="#5164D8"/>
<stop offset="1" stop-color="#0824B6"/>
</linearGradient>
<linearGradient id="paint28_linear_6081_61033" x1="4.28539" y1="8.32474" x2="5.02201" y2="9.51199" gradientUnits="userSpaceOnUse">
<stop stop-color="#5164D8"/>
<stop offset="1" stop-color="#0824B6"/>
</linearGradient>
<linearGradient id="paint29_linear_6081_61033" x1="3.33617" y1="15.6934" x2="4.94288" y2="16.9882" gradientUnits="userSpaceOnUse">
<stop stop-color="#5164D8"/>
<stop offset="1" stop-color="#0824B6"/>
</linearGradient>
<linearGradient id="paint30_linear_6081_61033" x1="3.33617" y1="9.02283" x2="4.94704" y2="10.3167" gradientUnits="userSpaceOnUse">
<stop stop-color="#5164D8"/>
<stop offset="1" stop-color="#0824B6"/>
</linearGradient>
<linearGradient id="paint31_linear_6081_61033" x1="2.38276" y1="10.1761" x2="4.79746" y2="10.9575" gradientUnits="userSpaceOnUse">
<stop stop-color="#5164D8"/>
<stop offset="1" stop-color="#0824B6"/>
</linearGradient>
</defs>
</svg>
