<svg width="44" height="45" viewBox="0 0 44 45" fill="none" xmlns="http://www.w3.org/2000/svg">
<path d="M22 44.5C34.1503 44.5 44 34.6503 44 22.5C44 10.3497 34.1503 0.5 22 0.5C9.84974 0.5 0 10.3497 0 22.5C0 34.6503 9.84974 44.5 22 44.5Z" fill="#055DF5"/>
<g clip-path="url(#clip0_3266_143847)">
<path d="M32.8584 22.43H22.5759V12.14H24.8634V11H19.1484V12.14H21.4359V23.57H20.2884V24.7175H22.5759V25.8575H23.7159V26.9975H24.8634V28.145H26.0034V29.285H27.1434V30.425H28.2909V31.5725H27.1434V32.7125H29.4309V31.5725H30.5784V30.425H31.7184V28.145H32.8584V25.8575H34.0059V20.1425H32.8584V22.43Z" fill="white"/>
<path d="M32.8509 17.8555H31.7109V20.143H32.8509V17.8555Z" fill="white"/>
<path d="M31.7103 15.5752H30.5703V17.8552H31.7103V15.5752Z" fill="white"/>
<path d="M30.5772 20.1416H29.4297V21.2816H30.5772V20.1416Z" fill="white"/>
<path d="M30.5772 14.4277H29.4297V15.5752H30.5772V14.4277Z" fill="white"/>
<path d="M29.4213 17.8555H28.2812V19.003H29.4213V17.8555Z" fill="white"/>
<path d="M29.4281 13.2871H27.1406V14.4271H29.4281V13.2871Z" fill="white"/>
<path d="M27.1322 20.1416H25.9922V21.2816H27.1322V20.1416Z" fill="white"/>
<path d="M27.1322 15.5752H25.9922V16.7152H27.1322V15.5752Z" fill="white"/>
<path d="M25.9994 31.5723H24.8594V33.8598H27.1394V32.7123H25.9994V31.5723Z" fill="white"/>
<path d="M27.1394 12.1406H24.8594V13.2881H27.1394V12.1406Z" fill="white"/>
<path d="M24.8584 30.4258H23.7109V31.5733H24.8584V30.4258Z" fill="white"/>
<path d="M24.8584 17.8555H23.7109V19.003H24.8584V17.8555Z" fill="white"/>
<path d="M24.8584 14.4277H23.7109V15.5752H24.8584V14.4277Z" fill="white"/>
<path d="M22.5759 32.7129H21.4359V33.8604H19.1484V35.0004H24.8634V33.8604H22.5759V32.7129Z" fill="white"/>
<path d="M23.7103 29.2852H22.5703V30.4252H23.7103V29.2852Z" fill="white"/>
<path d="M22.5697 28.1445H21.4297V29.2845H22.5697V28.1445Z" fill="white"/>
<path d="M21.4287 31.5723H20.2812V32.7123H21.4287V31.5723Z" fill="white"/>
<path d="M21.4287 26.998H20.2812V28.1455H21.4287V26.998Z" fill="white"/>
<path d="M20.2884 30.4258H19.1484V31.5733H20.2884V30.4258Z" fill="white"/>
<path d="M19.1397 25.8578H17.9922V26.9978H20.2797V24.7178H19.1397V25.8578Z" fill="white"/>
<path d="M19.1469 32.7129H16.8594V33.8604H19.1469V32.7129Z" fill="white"/>
<path d="M19.1397 29.2852H17.9922V30.4252H19.1397V29.2852Z" fill="white"/>
<path d="M19.1469 12.1406H16.8594V13.2881H19.1469V12.1406Z" fill="white"/>
<path d="M16.8509 28.1455H15.7109V29.2855H17.9909V26.998H16.8509V28.1455Z" fill="white"/>
<path d="M16.8578 31.5723H14.5703V32.7123H16.8578V31.5723Z" fill="white"/>
<path d="M16.8578 13.2871H14.5703V14.4271H16.8578V13.2871Z" fill="white"/>
<path d="M15.7178 29.2852H14.5703V30.4252H15.7178V29.2852Z" fill="white"/>
<path d="M14.5619 30.4258H13.4219V31.5733H14.5619V30.4258Z" fill="white"/>
<path d="M14.5619 14.4277H13.4219V15.5752H14.5619V14.4277Z" fill="white"/>
<path d="M13.4291 28.1445H12.2891V30.4245H13.4291V28.1445Z" fill="white"/>
<path d="M13.4291 15.5752H12.2891V17.8552H13.4291V15.5752Z" fill="white"/>
<path d="M12.2803 25.8574H11.1328V28.1449H12.2803V25.8574Z" fill="white"/>
<path d="M12.2803 17.8555H11.1328V20.143H12.2803V17.8555Z" fill="white"/>
<path d="M11.14 20.1416H10V25.8566H11.14V20.1416Z" fill="white"/>
</g>
<defs>
<clipPath id="clip0_3266_143847">
<rect width="24" height="24" fill="white" transform="translate(10 11)"/>
</clipPath>
</defs>
</svg>
