<svg width="20" height="20" viewBox="0 0 20 20" fill="none" xmlns="http://www.w3.org/2000/svg">
<path fill-rule="evenodd" clip-rule="evenodd" d="M1.66699 4.1665H3.33366V5.83317H1.66699V4.1665ZM5.00033 7.49984H3.33366V5.83317H5.00033V7.49984ZM15.0003 7.49984V9.1665H16.667V10.8332H18.3337V14.1665V15.8332H16.667H3.33366H1.66699V14.1665V10.8332H3.33366V9.1665H5.00033V7.49984H6.66699V5.83317H13.3337V7.49984H15.0003ZM16.667 5.83317V7.49984H15.0003V5.83317H16.667ZM16.667 5.83317V4.1665H18.3337V5.83317H16.667ZM6.66699 10.8332H8.33366V12.4998H6.66699V10.8332ZM13.3337 10.8332H11.667V12.4998H13.3337V10.8332Z"/>
</svg>
