<svg width="21" height="21" viewBox="0 0 21 21" fill="none" xmlns="http://www.w3.org/2000/svg">
<path d="M15 5.8125H14.875V2.375C14.875 2.20924 14.8092 2.05027 14.6919 1.93306C14.5747 1.81585 14.4158 1.75 14.25 1.75C14.0842 1.75 13.9253 1.81585 13.8081 1.93306C13.6908 2.05027 13.625 2.20924 13.625 2.375V5.8125H6C5.53803 5.81249 5.09479 5.99515 4.76696 6.32064C4.43913 6.64613 4.2533 7.08804 4.25 7.55V15.3563C4.2533 15.8182 4.43913 16.2601 4.76696 16.5856C5.09479 16.9111 5.53803 17.0938 6 17.0938H7.0625V18.0688C7.06202 18.2934 7.12593 18.5134 7.24667 18.7029C7.36741 18.8923 7.53992 19.0431 7.74375 19.1375C7.9047 19.2108 8.07938 19.2492 8.25625 19.25C8.53079 19.2493 8.79631 19.1519 9.00625 18.975L11.2687 17.1H15.0187C15.4785 17.0951 15.9179 16.9094 16.2419 16.5831C16.5659 16.2568 16.7484 15.8161 16.75 15.3563V7.55C16.7467 7.08804 16.5609 6.64613 16.233 6.32064C15.9052 5.99515 15.462 5.81249 15 5.8125ZM6.75 12.9125C6.75 12.7467 6.81585 12.5878 6.93306 12.4706C7.05027 12.3533 7.20924 12.2875 7.375 12.2875H11.75C11.9158 12.2875 12.0747 12.3533 12.1919 12.4706C12.3092 12.5878 12.375 12.7467 12.375 12.9125C12.375 13.0783 12.3092 13.2372 12.1919 13.3544C12.0747 13.4717 11.9158 13.5375 11.75 13.5375H7.375C7.20924 13.5375 7.05027 13.4717 6.93306 13.3544C6.81585 13.2372 6.75 13.0783 6.75 12.9125ZM14.25 10.2063C14.25 10.2883 14.2338 10.3696 14.2024 10.4454C14.171 10.5213 14.125 10.5902 14.0669 10.6482C14.0089 10.7062 13.94 10.7523 13.8642 10.7837C13.7883 10.8151 13.7071 10.8313 13.625 10.8313H7.375C7.20924 10.8313 7.05027 10.7654 6.93306 10.6482C6.81585 10.531 6.75 10.372 6.75 10.2063C6.75 10.0405 6.81585 9.88152 6.93306 9.76431C7.05027 9.6471 7.20924 9.58125 7.375 9.58125H13.625C13.7908 9.58125 13.9497 9.6471 14.0669 9.76431C14.1842 9.88152 14.25 10.0405 14.25 10.2063ZM3 13.8813C2.66848 13.8813 2.35054 13.7496 2.11612 13.5151C1.8817 13.2807 1.75 12.9628 1.75 12.6313V9.81875C1.75 9.48723 1.8817 9.16929 2.11612 8.93487C2.35054 8.70045 2.66848 8.56875 3 8.56875V13.8813ZM18 8.56875V13.8813C18.3315 13.8813 18.6495 13.7496 18.8839 13.5151C19.1183 13.2807 19.25 12.9628 19.25 12.6313V9.81875C19.25 9.48723 19.1183 9.16929 18.8839 8.93487C18.6495 8.70045 18.3315 8.56875 18 8.56875Z" fill="#CECFD2"/>
</svg>
