<svg width="36" height="36" viewBox="0 0 36 36" fill="none" xmlns="http://www.w3.org/2000/svg">
<path d="M18 36C27.9411 36 36 27.9411 36 18C36 8.05888 27.9411 0 18 0C8.05888 0 0 8.05888 0 18C0 27.9411 8.05888 36 18 36Z" fill="#D6DAF4"/>
<path d="M24.5432 18.4871C24.0832 17.8923 23.3891 17.4837 22.4608 17.2617C23.6429 16.6587 24.1624 15.6354 24.0197 14.1915C23.9721 13.6679 23.8273 13.2141 23.5853 12.8295C23.3431 12.4447 23.0162 12.1354 22.6034 11.9015C22.191 11.6672 21.7424 11.4889 21.2587 11.3659C20.7749 11.243 20.2195 11.1537 19.5928 11.0982V8.09961H17.7605V11.0149C17.4432 11.0149 16.9593 11.0228 16.3089 11.0387V8.09961H14.4763V11.0982C14.2145 11.1062 13.8298 11.1102 13.3221 11.1102L10.7996 11.0982V13.0497H12.1203C12.7232 13.0497 13.0762 13.3195 13.1793 13.8589V17.274C13.2587 17.274 13.3221 17.2781 13.3698 17.286H13.1793V22.0693C13.1159 22.4737 12.8859 22.6762 12.4892 22.6762H11.1686L10.7996 24.8538H13.1795C13.3303 24.8538 13.5483 24.8558 13.834 24.8594C14.1195 24.8634 14.3336 24.8654 14.4764 24.8654V27.8996H16.3093V24.901C16.6424 24.9092 17.1262 24.913 17.7609 24.913V27.8996H19.5932V24.8654C20.2438 24.8337 20.8209 24.7745 21.3244 24.6869C21.8282 24.5994 22.3102 24.4628 22.7702 24.2762C23.2302 24.0899 23.6148 23.8577 23.9242 23.5801C24.2337 23.3027 24.4893 22.9495 24.6919 22.521C24.8939 22.0926 25.0229 21.5968 25.0783 21.0335C25.1819 19.9311 25.0033 19.0822 24.5432 18.4871ZM16.3445 13.1803C16.4001 13.1803 16.5568 13.1783 16.8146 13.1743C17.0725 13.1702 17.2866 13.1663 17.4572 13.1623C17.6277 13.1583 17.8578 13.1683 18.1475 13.1921C18.437 13.2158 18.6809 13.2477 18.8792 13.2872C19.0774 13.3268 19.2958 13.3923 19.5335 13.4835C19.7717 13.5747 19.962 13.6858 20.1046 13.8167C20.2475 13.9475 20.3685 14.1142 20.4674 14.3165C20.5667 14.5188 20.6163 14.7508 20.6163 15.0125C20.6163 15.2347 20.5807 15.437 20.5094 15.6196C20.4382 15.802 20.3308 15.9547 20.1882 16.0777C20.0455 16.2007 19.8985 16.3079 19.7478 16.399C19.5972 16.4902 19.4046 16.5636 19.1707 16.6191C18.9368 16.6746 18.7325 16.7183 18.5581 16.7499C18.3836 16.7817 18.1655 16.8036 17.9036 16.8154C17.6418 16.8272 17.4434 16.8353 17.3086 16.8392C17.1737 16.8432 16.9893 16.8432 16.7552 16.8392C16.5211 16.8353 16.3844 16.8332 16.3447 16.8332V13.1802L16.3445 13.1803ZM21.3483 21.2835C21.2728 21.466 21.1757 21.6248 21.0568 21.7597C20.9377 21.8943 20.781 22.0135 20.5867 22.1164C20.3925 22.2197 20.2039 22.3029 20.0216 22.3663C19.8391 22.4301 19.6188 22.4853 19.3613 22.5331C19.1031 22.5807 18.8772 22.6142 18.6826 22.6342C18.4884 22.654 18.2564 22.6698 17.9866 22.6818C17.717 22.6935 17.5067 22.6996 17.356 22.6996C17.2053 22.6996 17.0148 22.6974 16.7848 22.6935C16.5546 22.6898 16.408 22.6878 16.3445 22.6878V18.6657C16.4078 18.6657 16.5963 18.6618 16.9097 18.6538C17.2231 18.6458 17.4788 18.642 17.6772 18.642C17.8755 18.642 18.1493 18.6538 18.4984 18.6777C18.8473 18.7014 19.1408 18.7369 19.379 18.7845C19.6169 18.8322 19.8765 18.9054 20.1583 19.0047C20.4398 19.1038 20.668 19.2248 20.8426 19.3676C21.0172 19.5106 21.1638 19.6928 21.2828 19.915C21.402 20.137 21.4615 20.3909 21.4615 20.6766C21.4614 20.8989 21.4238 21.1009 21.3483 21.2835Z" fill="url(#paint0_linear_6014_51974)"/>
<defs>
<linearGradient id="paint0_linear_6014_51974" x1="17.9802" y1="2.87961" x2="34.9183" y2="22.6061" gradientUnits="userSpaceOnUse">
<stop stop-color="#5164D8"/>
<stop offset="1" stop-color="#0824B6"/>
</linearGradient>
</defs>
</svg>
