<svg width="24" height="25" viewBox="0 0 24 25" fill="none" xmlns="http://www.w3.org/2000/svg">
<g opacity="0.4">
<path d="M17.9174 12.0652C18.4454 11.3926 18.7742 10.5854 18.8662 9.73524C18.9582 8.8851 18.8099 8.0262 18.438 7.25619C18.0661 6.48618 17.4857 5.83596 16.7626 5.37947C16.0396 4.92297 15.2029 4.67852 14.3478 4.67391H13.6957V2.5H11.9565V4.67391H10.2174V2.5H8.47826V4.67391H5V7.28261H7.6087V17.7174H5V20.3261H8.47826V22.5H10.2174V20.3261H11.9565V22.5H13.6957V20.3261H15.2174C19.6087 20.3261 21.4696 14.6739 17.9174 12.0652ZM10.2174 7.28261C14.487 7.28261 15 7.09565 15.7304 7.85652C16.0037 8.13014 16.1898 8.4786 16.2651 8.8579C16.3405 9.23721 16.3017 9.63033 16.1538 9.98763C16.0058 10.3449 15.7553 10.6504 15.4339 10.8654C15.1125 11.0804 14.7345 11.1953 14.3478 11.1957H10.2174V7.28261ZM15.2174 17.7174H10.2174V13.8043H15.2174C15.4744 13.8036 15.729 13.854 15.9663 13.9525C16.2037 14.051 16.4191 14.1958 16.6 14.3783C16.8733 14.6519 17.0593 15.0003 17.1347 15.3796C17.21 15.7589 17.1713 16.1521 17.0234 16.5094C16.8754 16.8667 16.6249 17.1721 16.3035 17.3871C15.982 17.6021 15.6041 17.7171 15.2174 17.7174Z" fill="white"/>
</g>
</svg>
