<svg width="36" height="36" viewBox="0 0 36 36" fill="none" xmlns="http://www.w3.org/2000/svg">
<path d="M18 36C27.9411 36 36 27.9411 36 18C36 8.05888 27.9411 0 18 0C8.05888 0 0 8.05888 0 18C0 27.9411 8.05888 36 18 36Z" fill="#D6DAF4"/>
<path d="M24.5444 18.4866C24.0844 17.8918 23.3903 17.4833 22.462 17.2612C23.6441 16.6583 24.1636 15.6349 24.021 14.191C23.9733 13.6674 23.8286 13.2136 23.5865 12.829C23.3443 12.4442 23.0174 12.135 22.6046 11.901C22.1922 11.6667 21.7436 11.4884 21.2599 11.3654C20.7762 11.2425 20.2207 11.1532 19.594 11.0977V8.09912H17.7617V11.0144C17.4444 11.0144 16.9605 11.0223 16.3101 11.0382V8.09912H14.4776V11.0977C14.2157 11.1057 13.831 11.1097 13.3234 11.1097L10.8008 11.0977V13.0492H12.1215C12.7244 13.0492 13.0774 13.319 13.1805 13.8584V17.2735C13.26 17.2735 13.3234 17.2776 13.371 17.2855H13.1805V22.0688C13.1171 22.4733 12.8871 22.6757 12.4904 22.6757H11.1698L10.8009 24.8533H13.1807C13.3315 24.8533 13.5495 24.8553 13.8352 24.8589C14.1207 24.8629 14.3348 24.8649 14.4776 24.8649V27.8991H16.3105V24.9006C16.6436 24.9087 17.1275 24.9126 17.7621 24.9126V27.8991H19.5944V24.8649C20.2451 24.8332 20.8221 24.774 21.3256 24.6865C21.8294 24.5989 22.3114 24.4623 22.7714 24.2757C23.2314 24.0894 23.6161 23.8572 23.9254 23.5796C24.2349 23.3022 24.4905 22.949 24.6931 22.5206C24.8951 22.0921 25.0242 21.5963 25.0795 21.033C25.1831 19.9306 25.0045 19.0817 24.5444 18.4866ZM16.3458 13.1798C16.4013 13.1798 16.558 13.1778 16.8158 13.1738C17.0737 13.1697 17.2878 13.1658 17.4584 13.1618C17.629 13.1578 17.859 13.1678 18.1487 13.1916C18.4382 13.2154 18.6821 13.2472 18.8804 13.2868C19.0786 13.3263 19.297 13.3918 19.5347 13.4831C19.7729 13.5742 19.9632 13.6853 20.1058 13.8162C20.2487 13.9471 20.3697 14.1137 20.4687 14.316C20.5679 14.5183 20.6175 14.7503 20.6175 15.012C20.6175 15.2342 20.5819 15.4365 20.5106 15.6191C20.4394 15.8015 20.332 15.9542 20.1894 16.0772C20.0468 16.2002 19.8997 16.3074 19.749 16.3985C19.5984 16.4897 19.4058 16.5631 19.1719 16.6186C18.938 16.6741 18.7338 16.7178 18.5593 16.7494C18.3848 16.7812 18.1667 16.8031 17.9049 16.8149C17.643 16.8268 17.4446 16.8348 17.3098 16.8388C17.1749 16.8427 16.9906 16.8427 16.7564 16.8388C16.5223 16.8348 16.3856 16.8328 16.3459 16.8328V13.1797L16.3458 13.1798ZM21.3496 21.283C21.274 21.4655 21.177 21.6243 21.0581 21.7592C20.9389 21.8939 20.7822 22.013 20.5879 22.116C20.3937 22.2192 20.2051 22.3024 20.0228 22.3659C19.8403 22.4296 19.6201 22.4848 19.3625 22.5326C19.1043 22.5802 18.8784 22.6137 18.6839 22.6337C18.4896 22.6536 18.2577 22.6693 17.9878 22.6814C17.7182 22.693 17.5079 22.6991 17.3572 22.6991C17.2065 22.6991 17.0161 22.6969 16.786 22.693C16.5558 22.6893 16.4092 22.6873 16.3457 22.6873V18.6652C16.4091 18.6652 16.5975 18.6614 16.9109 18.6533C17.2244 18.6453 17.4801 18.6416 17.6784 18.6416C17.8767 18.6416 18.1505 18.6533 18.4996 18.6772C18.8485 18.7009 19.142 18.7364 19.3802 18.784C19.6181 18.8317 19.8777 18.905 20.1595 19.0042C20.4411 19.1033 20.6693 19.2243 20.8438 19.3671C21.0184 19.5101 21.165 19.6923 21.284 19.9145C21.4032 20.1365 21.4627 20.3904 21.4627 20.6761C21.4627 20.8984 21.425 21.1004 21.3496 21.283Z" fill="url(#paint0_linear_6037_31394)"/>
<defs>
<linearGradient id="paint0_linear_6037_31394" x1="17.9814" y1="2.87912" x2="34.9195" y2="22.6056" gradientUnits="userSpaceOnUse">
<stop stop-color="#5164D8"/>
<stop offset="1" stop-color="#0824B6"/>
</linearGradient>
</defs>
</svg>
