<svg width="24" height="24" viewBox="0 0 24 24" fill="none" xmlns="http://www.w3.org/2000/svg">
<path d="M17.9174 11.5652C18.4454 10.8926 18.7742 10.0854 18.8662 9.23524C18.9582 8.3851 18.8099 7.5262 18.438 6.75619C18.0661 5.98618 17.4857 5.33596 16.7626 4.87947C16.0396 4.42297 15.2029 4.17852 14.3478 4.17391H13.6957V2H11.9565V4.17391H10.2174V2H8.47826V4.17391H5V6.78261H7.6087V17.2174H5V19.8261H8.47826V22H10.2174V19.8261H11.9565V22H13.6957V19.8261H15.2174C19.6087 19.8261 21.4696 14.1739 17.9174 11.5652ZM10.2174 6.78261C14.487 6.78261 15 6.59565 15.7304 7.35652C16.0037 7.63014 16.1898 7.9786 16.2651 8.3579C16.3405 8.73721 16.3017 9.13033 16.1538 9.48763C16.0058 9.84492 15.7553 10.1504 15.4339 10.3654C15.1125 10.5804 14.7345 10.6953 14.3478 10.6957H10.2174V6.78261ZM15.2174 17.2174H10.2174V13.3043H15.2174C15.4744 13.3036 15.729 13.354 15.9663 13.4525C16.2037 13.551 16.4191 13.6958 16.6 13.8783C16.8733 14.1519 17.0593 14.5003 17.1347 14.8796C17.21 15.2589 17.1713 15.6521 17.0234 16.0094C16.8754 16.3667 16.6249 16.6721 16.3035 16.8871C15.982 17.1021 15.6041 17.2171 15.2174 17.2174Z" fill="#E6E6E8"/>
</svg>
