<svg width="44" height="44" viewBox="0 0 44 44" fill="none" xmlns="http://www.w3.org/2000/svg">
<path d="M22 44C34.1503 44 44 34.1503 44 22C44 9.84974 34.1503 0 22 0C9.84974 0 0 9.84974 0 22C0 34.1503 9.84974 44 22 44Z" fill="#D6DAF4"/>
<path d="M30.0009 22.5953C29.4387 21.8683 28.5903 21.3689 27.4558 21.0975C28.9005 20.3606 29.5354 19.1098 29.3611 17.345C29.3028 16.7051 29.126 16.1505 28.8301 15.6803C28.5341 15.2101 28.1345 14.8321 27.63 14.5461C27.126 14.2598 26.5777 14.0418 25.9865 13.8916C25.3952 13.7413 24.7164 13.6322 23.9504 13.5644V9.89941H21.7109V13.4626C21.3231 13.4626 20.7317 13.4722 19.9368 13.4916V9.89941H17.697V13.5644C17.3769 13.5741 16.9068 13.5791 16.2863 13.5791L13.2031 13.5644V15.9496H14.8173C15.5542 15.9496 15.9857 16.2793 16.1117 16.9385V21.1125C16.2088 21.1125 16.2863 21.1175 16.3445 21.1272H16.1117V26.9734C16.0342 27.4678 15.7531 27.7152 15.2682 27.7152H13.6541L13.2032 30.3767H16.112C16.2962 30.3767 16.5627 30.3792 16.9118 30.3836C17.2608 30.3884 17.5225 30.3909 17.6971 30.3909V34.0994H19.9372V30.4345C20.3443 30.4444 20.9357 30.4492 21.7114 30.4492V34.0994H23.9509V30.3909C24.7461 30.3522 25.4514 30.2798 26.0668 30.1728C26.6825 30.0658 27.2717 29.8988 27.8339 29.6708C28.3961 29.4431 28.8662 29.1593 29.2443 28.82C29.6226 28.4809 29.935 28.0493 30.1827 27.5256C30.4295 27.002 30.5873 26.396 30.6549 25.7074C30.7815 24.3601 30.5632 23.3226 30.0009 22.5953ZM19.9803 16.1091C20.0482 16.1091 20.2397 16.1066 20.5548 16.1018C20.8701 16.0968 21.1317 16.092 21.3402 16.0871C21.5487 16.0823 21.8299 16.0944 22.1839 16.1235C22.5378 16.1526 22.8359 16.1915 23.0782 16.2399C23.3205 16.2882 23.5874 16.3683 23.878 16.4798C24.1691 16.5912 24.4016 16.727 24.5759 16.8869C24.7506 17.0469 24.8984 17.2506 25.0194 17.4978C25.1408 17.7451 25.2014 18.0286 25.2014 18.3485C25.2014 18.62 25.1578 18.8673 25.0707 19.0905C24.9837 19.3134 24.8524 19.5001 24.6781 19.6504C24.5038 19.8007 24.324 19.9317 24.1398 20.0431C23.9558 20.1545 23.7204 20.2443 23.4345 20.3121C23.1486 20.38 22.899 20.4333 22.6858 20.472C22.4725 20.5108 22.2059 20.5376 21.8859 20.5521C21.5658 20.5665 21.3234 20.5764 21.1586 20.5812C20.9938 20.586 20.7684 20.586 20.4823 20.5812C20.1961 20.5764 20.0291 20.5739 19.9805 20.5739V16.109L19.9803 16.1091ZM26.0961 26.013C26.0037 26.2361 25.8851 26.4302 25.7398 26.5951C25.5942 26.7596 25.4026 26.9052 25.1652 27.0311C24.9278 27.1573 24.6973 27.259 24.4745 27.3365C24.2514 27.4144 23.9822 27.4819 23.6674 27.5403C23.3519 27.5985 23.0758 27.6395 22.838 27.6639C22.6006 27.6882 22.3171 27.7075 21.9873 27.7221C21.6578 27.7364 21.4007 27.7438 21.2166 27.7438C21.0323 27.7438 20.7996 27.7411 20.5184 27.7364C20.2371 27.7319 20.0578 27.7294 19.9802 27.7294V22.8135C20.0577 22.8135 20.288 22.8088 20.6711 22.7989C21.0542 22.7891 21.3667 22.7846 21.6091 22.7846C21.8515 22.7846 22.1861 22.7989 22.6129 22.8282C23.0392 22.8571 23.398 22.9006 23.6891 22.9587C23.9799 23.017 24.2972 23.1065 24.6416 23.2279C24.9857 23.349 25.2646 23.4968 25.478 23.6714C25.6913 23.8462 25.8706 24.0688 26.0159 24.3404C26.1617 24.6118 26.2344 24.9221 26.2344 25.2713C26.2343 25.543 26.1883 25.7899 26.0961 26.013Z" fill="url(#paint0_linear_3275_151285)"/>
<defs>
<linearGradient id="paint0_linear_3275_151285" x1="21.9794" y1="3.51942" x2="42.6816" y2="27.6296" gradientUnits="userSpaceOnUse">
<stop stop-color="#5164D8"/>
<stop offset="1" stop-color="#0824B6"/>
</linearGradient>
</defs>
</svg>
