<svg width="30" height="30" viewBox="0 0 30 30" fill="none" xmlns="http://www.w3.org/2000/svg">
<g clip-path="url(#clip0_6037_11733)">
<path d="M28.5734 20.0057H27.1484V21.4307H28.5734V22.8557H29.9984V18.5713H28.5734V20.0057Z" fill="white"/>
<path d="M28.5734 22.8555H27.1484V24.2898H28.5734V22.8555Z" fill="white"/>
<path d="M28.5734 17.1465H27.1484V18.5715H28.5734V17.1465Z" fill="white"/>
<path d="M27.1484 21.4316H21.4297V22.8566H27.1484V21.4316Z" fill="white"/>
<path d="M27.1484 15.7129H21.4297V17.1473H27.1484V15.7129Z" fill="white"/>
<path d="M27.1484 24.291H21.4297V25.716H27.1484V24.291Z" fill="white"/>
<path d="M21.4328 17.1465H20.0078V18.5715H21.4328V17.1465Z" fill="white"/>
<path d="M18.5734 21.4309H17.1484V22.8559H18.5734V24.2902H17.1484V25.7152H18.5734V27.1402H20.0078V20.0059H18.5734V21.4309Z" fill="white"/>
<path d="M18.5734 27.1406H17.1484V28.575H18.5734V27.1406Z" fill="white"/>
<path d="M18.5734 18.5713H17.1484V20.0057H18.5734V18.5713Z" fill="white"/>
<path d="M17.1477 28.5742H10.0039V29.9992H17.1477V28.5742Z" fill="white"/>
<path d="M17.1477 25.7148H10.0039V27.1398H17.1477V25.7148Z" fill="white"/>
<path d="M17.1477 22.8555H10.0039V24.2898H17.1477V22.8555Z" fill="white"/>
<path d="M17.1477 17.1465H10.0039V18.5715H17.1477V17.1465Z" fill="white"/>
<path d="M10.0039 14.2873V15.7123H12.8633V12.8623H11.4289V14.2873H10.0039Z" fill="white"/>
<path d="M11.4289 11.4277H10.0039V12.8621H11.4289V11.4277Z" fill="white"/>
<path d="M10.0031 27.1406H8.57812V28.575H10.0031V27.1406Z" fill="white"/>
<path d="M10 25.7152V24.2902H8.575V22.8559H10V21.4309H8.575V20.0059H7.14062V27.1402H8.575V25.7152H10Z" fill="white"/>
<path d="M10.0031 18.5713H8.57812V20.0057H10.0031V18.5713Z" fill="white"/>
<path d="M10.0031 15.7129H2.85938V17.1473H10.0031V15.7129Z" fill="white"/>
<path d="M7.14375 18.5713H2.85938V20.0057H7.14375V18.5713Z" fill="white"/>
<path d="M10.0031 10.0029H2.85938V11.4279H10.0031V10.0029Z" fill="white"/>
<path d="M5.71875 24.291H2.85938V25.716H5.71875V24.291Z" fill="white"/>
<path d="M5.71875 21.4316H2.85938V22.8566H5.71875V21.4316Z" fill="white"/>
<path d="M2.85859 11.4277H1.43359V12.8621H2.85859V11.4277Z" fill="white"/>
<path d="M1.43437 18.5717H2.85938V17.1467H1.43437V15.7123H2.85938V14.2873H1.43437V12.8623H0V24.2904H2.85938V22.8561H1.43437V21.4311H2.85938V20.0061H1.43437V18.5717Z" fill="white"/>
<path d="M17.7094 0V1.425H16.2844V2.85938H14.85V4.28438H13.425V5.70938H12V7.14375H16.2844V15.7125H17.8346V17H19.1966V15.7125H20.5688V7.14375H24.8531V5.70938H23.4281V4.28438H21.9937V2.85938H20.5688V1.425H19.1344V0H17.7094Z" fill="white"/>
</g>
<defs>
<clipPath id="clip0_6037_11733">
<rect width="30" height="30" fill="white"/>
</clipPath>
</defs>
</svg>
