<svg width="18" height="18" viewBox="0 0 18 18" fill="none" xmlns="http://www.w3.org/2000/svg">
<path fill-rule="evenodd" clip-rule="evenodd" d="M10.7635 1.43457H12.1986V2.86976H13.6338H15.069V4.30494V5.74013V7.17531V14.3512V15.7864H13.6338H3.58753H2.15234V14.3512V7.17531V5.74013V4.30494V2.86976H3.58753H5.02271V1.43457H6.4579V2.86976H10.7635V1.43457ZM6.4579 4.30494H5.02271H3.58753V5.74013H13.6338V4.30494H12.1986H10.7635H6.4579ZM3.58753 7.17531V14.3512H13.6338V7.17531H3.58753ZM5.02271 8.6105H6.4579V10.0457H5.02271V8.6105ZM9.32827 8.6105H7.89308V10.0457H9.32827V8.6105ZM10.7635 8.6105H12.1986V10.0457H10.7635V8.6105ZM6.4579 11.4809H5.02271V12.9161H6.4579V11.4809ZM7.89308 11.4809H9.32827V12.9161H7.89308V11.4809ZM12.1986 11.4809H10.7635V12.9161H12.1986V11.4809Z" fill="currentColor"/>
</svg>
