<svg width="16" height="16" viewBox="0 0 16 16" fill="none" xmlns="http://www.w3.org/2000/svg">
<path fill-rule="evenodd" clip-rule="evenodd" d="M3.33333 1.33301H2V3.33301H0V4.66634H2V6.66634H3.33333V4.66634H5.33333V3.33301H3.33333V1.33301ZM11.3332 1.99966H9.99984V1.99967H6.66667V3.33301H9.99984V4.66633H10V4.66634H13.3332V12.6663H3.33333V7.99967H2V12.6663V13.9997H3.33333H14.6667V12.6663H14.6665V4.66634H14.6667V3.33301H14.6665V3.333H13.3332V3.33301H11.3333V1.99967H11.3332V1.99966ZM6.66683 5.99967H9.3335V7.33301L10.6667 7.33301V9.99967H9.3335V11.333H6.66683V9.99967H9.33333V7.33301L6.66683 7.33301V5.99967ZM5.33333 7.33301H6.66667V9.99967H5.33333V7.33301Z" fill="white"/>
</svg>
