<svg width="20" height="21" viewBox="0 0 20 21" fill="none" xmlns="http://www.w3.org/2000/svg">
<g clip-path="url(#clip0_6081_61085)">
<path fill-rule="evenodd" clip-rule="evenodd" d="M10.9563 1.42871H6.19385V2.37793H4.2876V3.33418H6.19385V2.37871H10.9561V3.33418H12.856V4.28301H13.8122V3.33301H12.8561V2.37793H10.9563V1.42871ZM13.8123 4.28613H14.7623V5.24023H15.7185V7.14023H14.7622V5.24238H13.8123V4.28613ZM15.7185 7.14062H16.6685V11.9031H15.7185V7.14062ZM17.6186 15.7168H18.5748V16.6668H19.5248V19.523H18.5748V20.4793H15.7186V19.523H14.7623V18.573H13.8123V17.623H12.8561V16.6668H10.9563V17.6223H6.19385V16.666H10.9561V15.7168H12.8561V14.7605H13.8123V13.8105H14.7623V11.9043H15.7186V13.8105H16.6686V14.7605H17.6186V15.7168ZM17.6186 18.573H18.5748V17.623H17.6186V16.6668H16.6686V15.7168H15.7186V16.6668H16.6686V17.623H17.6186V18.573ZM13.8122 7.14062H12.856V11.9031H13.8122V7.14062ZM12.8558 11.9043H11.9058V12.8605H12.8558V11.9043ZM11.9058 6.19043H12.8558V7.14043H11.9058V6.19043ZM11.9061 12.8613H10.9561V13.8105H6.19385V14.7605H10.9563V13.8113H11.9061V12.8613ZM10.9563 5.24023H11.9061V6.19023H10.9561V5.24238H6.19385V4.28613H10.9563V5.24023ZM10.9558 9.99609H9.99951V10.9523H10.9558V9.99609ZM7.14307 10.9531V11.9031H8.09932V12.8594H9.04932V11.9031H9.99932V10.9531H7.14307ZM9.99932 7.14043V8.09668H7.14307V7.14043H8.09932V6.19043H9.04932V7.14043H9.99932ZM7.14307 9.04766H6.19385V8.09766H7.14385V9.04688H9.99932V9.99688H7.14307V9.04766ZM6.19385 15.7158H4.2876V16.6658H6.19385V15.7158ZM5.2373 12.8613H6.19355V13.8113H5.2373V12.8613ZM6.19355 5.24023H5.2373V6.19023H6.19355V5.24023ZM5.2376 11.9043H4.2876V12.8605H5.2376V11.9043ZM4.2876 6.19043H5.2376V7.14043H4.2876V6.19043ZM4.2874 14.7598H3.3374V15.716H4.2874V14.7598ZM3.3374 7.14062H4.2874V11.9031H3.3374V7.14062ZM4.2874 3.33301H3.3374V4.28301H4.2874V3.33301ZM2.3811 13.8105H3.33735V14.7605H2.3811V13.8105ZM3.33735 4.28613H2.3811V5.24238H3.33735V4.28613ZM1.43091 11.9043H2.38091V13.8105H1.43091V11.9043ZM2.38091 5.24023H1.43091V7.14023H2.38091V5.24023ZM0.474609 7.14062H1.43086V11.9031H0.474609V7.14062Z" fill="url(#paint0_linear_6081_61085)"/>
</g>
<defs>
<linearGradient id="paint0_linear_6081_61085" x1="13.1268" y1="-6.42244" x2="23.8939" y2="16.1456" gradientUnits="userSpaceOnUse">
<stop stop-color="#57D3BF"/>
<stop offset="1" stop-color="#0FA7BA"/>
</linearGradient>
<clipPath id="clip0_6081_61085">
<rect width="20" height="20" fill="white" transform="translate(0 0.955078)"/>
</clipPath>
</defs>
</svg>
