<svg width="34" height="35" viewBox="0 0 34 35" fill="none" xmlns="http://www.w3.org/2000/svg">
<path d="M17 0.5C13.6377 0.5 10.3509 1.49703 7.55531 3.36502C4.75968 5.233 2.58074 7.88804 1.29406 10.9944C0.00736586 14.1007 -0.329291 17.5189 0.326658 20.8165C0.982606 24.1142 2.6017 27.1433 4.97919 29.5208C7.35668 31.8983 10.3858 33.5174 13.6835 34.1733C16.9811 34.8293 20.3993 34.4926 23.5056 33.2059C26.612 31.9193 29.267 29.7403 31.135 26.9447C33.003 24.1491 34 20.8623 34 17.5C34 12.9913 32.2089 8.6673 29.0208 5.47918C25.8327 2.29107 21.5087 0.5 17 0.5ZM26.6617 13.3987L15.9942 25.4971C15.822 25.691 15.6133 25.8491 15.3799 25.9621C15.1465 26.0751 14.8931 26.141 14.6342 26.1558H14.5067C14.0235 26.1588 13.5564 25.9821 13.1963 25.66L7.48709 20.5954C7.09446 20.2469 6.85634 19.7567 6.82513 19.2327C6.79391 18.7087 6.97215 18.1937 7.32063 17.801C7.66911 17.4084 8.1593 17.1703 8.68334 17.1391C9.20739 17.1079 9.72237 17.2861 10.115 17.6346L14.365 21.3817L23.7221 10.7567C24.0696 10.3631 24.5593 10.1237 25.0833 10.0912C25.6074 10.0586 26.1229 10.2356 26.5165 10.5831C26.91 10.9307 27.1494 11.4203 27.182 11.9444C27.2145 12.4684 27.0375 12.9839 26.69 13.3775L26.6617 13.3987Z" fill="#00AC45"/>
</svg>
