<svg width="132" height="132" viewBox="0 0 132 132" fill="none" xmlns="http://www.w3.org/2000/svg">
<rect x="16.4998" y="32.1328" width="85.1053" height="11.2895" fill="url(#paint0_linear_1797_18751)"/>
<path fill-rule="evenodd" clip-rule="evenodd" d="M101.605 44.7245H16.4998V112.027H101.605V44.7245ZM101.605 42.9876H16.4998V32.1323H101.605V42.9876ZM103.342 113.764H14.7629V30.3955H103.342V113.764ZM97.6972 34.3034H100.737H101.171V34.7376V37.7771H100.302V35.7859L95.706 40.3823H97.6972V41.2508H94.6577H94.2235V40.8166V37.7771H95.0919V39.7683L99.6883 35.1718H97.6972V34.3034ZM20.4077 39.9481C21.6067 39.9481 22.5787 38.9761 22.5787 37.7771C22.5787 36.578 21.6067 35.606 20.4077 35.606C19.2086 35.606 18.2366 36.578 18.2366 37.7771C18.2366 38.9761 19.2086 39.9481 20.4077 39.9481ZM26.4866 39.9481C27.6857 39.9481 28.6577 38.9761 28.6577 37.7771C28.6577 36.578 27.6857 35.606 26.4866 35.606C25.2876 35.606 24.3156 36.578 24.3156 37.7771C24.3156 38.9761 25.2876 39.9481 26.4866 39.9481ZM34.7366 37.7771C34.7366 38.9761 33.7646 39.9481 32.5656 39.9481C31.3665 39.9481 30.3945 38.9761 30.3945 37.7771C30.3945 36.578 31.3665 35.606 32.5656 35.606C33.7646 35.606 34.7366 36.578 34.7366 37.7771Z" fill="#0A0E20"/>
<rect x="16.4998" y="44.2891" width="85.1053" height="67.7368" fill="white"/>
<rect x="22.5793" y="26.0527" width="85.1053" height="11.2895" fill="url(#paint1_linear_1797_18751)"/>
<path fill-rule="evenodd" clip-rule="evenodd" d="M107.685 38.6444H22.5794V105.947H107.685V38.6444ZM107.685 36.9075H22.5794V26.0523H107.685V36.9075ZM109.421 107.684H20.8425V24.3154H109.421V107.684ZM103.777 28.2233H106.816H107.25V28.6575V31.697H106.382V29.7058L101.786 34.3023H103.777V35.1707H100.737H100.303V34.7365V31.697H101.171V33.6882L105.768 29.0917H103.777V28.2233ZM26.4873 33.8681C27.6863 33.8681 28.6583 32.896 28.6583 31.697C28.6583 30.498 27.6863 29.526 26.4873 29.526C25.2882 29.526 24.3162 30.498 24.3162 31.697C24.3162 32.896 25.2882 33.8681 26.4873 33.8681ZM32.5662 33.8681C33.7653 33.8681 34.7373 32.896 34.7373 31.697C34.7373 30.498 33.7653 29.526 32.5662 29.526C31.3672 29.526 30.3952 30.498 30.3952 31.697C30.3952 32.896 31.3672 33.8681 32.5662 33.8681ZM40.8162 31.697C40.8162 32.896 39.8442 33.8681 38.6452 33.8681C37.4461 33.8681 36.4741 32.896 36.4741 31.697C36.4741 30.498 37.4461 29.526 38.6452 29.526C39.8442 29.526 40.8162 30.498 40.8162 31.697Z" fill="#0A0E20"/>
<rect x="22.5793" y="38.209" width="85.1053" height="67.7368" fill="white"/>
<rect x="29.5263" y="19.9736" width="85.1053" height="11.2895" fill="url(#paint2_linear_1797_18751)"/>
<path fill-rule="evenodd" clip-rule="evenodd" d="M114.632 32.5653H29.5265V99.8679H114.632V32.5653ZM114.632 30.8284H29.5265V19.9732H114.632V30.8284ZM116.369 101.605H27.7897V18.2363H116.369V101.605ZM110.724 22.1442H113.763H114.198V22.5784V25.6179H113.329V23.6267L108.733 28.2232H110.724V29.0916H107.684H107.25V28.6574V25.6179H108.119V27.6091L112.715 23.0126H110.724V22.1442ZM33.4344 27.789C34.6334 27.789 35.6055 26.8169 35.6055 25.6179C35.6055 24.4189 34.6334 23.4469 33.4344 23.4469C32.2354 23.4469 31.2634 24.4189 31.2634 25.6179C31.2634 26.8169 32.2354 27.789 33.4344 27.789ZM39.5134 27.789C40.7124 27.789 41.6844 26.8169 41.6844 25.6179C41.6844 24.4189 40.7124 23.4469 39.5134 23.4469C38.3143 23.4469 37.3423 24.4189 37.3423 25.6179C37.3423 26.8169 38.3143 27.789 39.5134 27.789ZM47.7634 25.6179C47.7634 26.8169 46.7913 27.789 45.5923 27.789C44.3933 27.789 43.4213 26.8169 43.4213 25.6179C43.4213 24.4189 44.3933 23.4469 45.5923 23.4469C46.7913 23.4469 47.7634 24.4189 47.7634 25.6179Z" fill="#0A0E20"/>
<rect x="29.5263" y="32.1309" width="85.1053" height="67.7368" fill="white"/>
<g clip-path="url(#clip0_1797_18751)">
<ellipse cx="72.0614" cy="65.5702" rx="23.4747" ry="22.2392" fill="#F1F4F9"/>
<path d="M95.5266 59.8799H93.2578V71.2535H95.5266V59.8799Z" fill="#0A0E20"/>
<path d="M93.2569 71.2539H90.9882V75.8063H93.2569V71.2539Z" fill="#0A0E20"/>
<path d="M93.2569 55.3418H90.9882V59.8793H93.2569V55.3418Z" fill="#0A0E20"/>
<path d="M90.9894 75.8027H88.7057V80.3552H90.9894V75.8027Z" fill="#0A0E20"/>
<path d="M90.9894 50.79H88.7057V55.3425H90.9894V50.79Z" fill="#0A0E20"/>
<path d="M88.7048 80.3574H86.436V82.6262H88.7048V80.3574Z" fill="#0A0E20"/>
<path d="M88.7048 48.5195H86.436V50.7883H88.7048V48.5195Z" fill="#0A0E20"/>
<path d="M86.4343 82.6279H81.8818V84.9116H86.4343V82.6279Z" fill="#0A0E20"/>
<path d="M86.4343 46.2383H81.8818V48.522H86.4343V46.2383Z" fill="#0A0E20"/>
<path d="M81.8842 84.9102H77.3318V87.1789H81.8842V84.9102Z" fill="#0A0E20"/>
<path d="M81.8842 43.9697H77.3318V46.2385H81.8842V43.9697Z" fill="#0A0E20"/>
<path d="M77.3308 87.1797H65.9722V89.4484H77.3308V87.1797Z" fill="#0A0E20"/>
<path d="M77.3308 41.6846H65.9722V43.9682H77.3308V41.6846Z" fill="#0A0E20"/>
<path d="M65.973 84.9102H61.4205V87.1789H65.973V84.9102Z" fill="#0A0E20"/>
<path d="M65.973 43.9697H61.4205V46.2385H65.973V43.9697Z" fill="#0A0E20"/>
<path d="M61.4203 82.6279H56.8679V84.9116H61.4203V82.6279Z" fill="#0A0E20"/>
<path d="M61.4203 46.2383H56.8679V48.522H61.4203V46.2383Z" fill="#0A0E20"/>
<path d="M56.8675 80.3574H54.5988V82.6262H56.8675V80.3574Z" fill="#0A0E20"/>
<path d="M56.8675 48.5195H54.5988V50.7883H56.8675V48.5195Z" fill="#0A0E20"/>
<path d="M54.6 75.8027H52.3163V80.3552H54.6V75.8027Z" fill="#0A0E20"/>
<path d="M54.6 50.79H52.3163V55.3425H54.6V50.79Z" fill="#0A0E20"/>
<path d="M52.3164 71.2539H50.0477V75.8063H52.3164V71.2539Z" fill="#0A0E20"/>
<path d="M52.3164 55.3418H50.0477V59.8793H52.3164V55.3418Z" fill="#0A0E20"/>
<path d="M50.0468 59.8799H47.7631V71.2535H50.0468V59.8799Z" fill="#0A0E20"/>
<path d="M59.0828 67.8067H61.3162V70.0401H63.5496V72.2735H65.7977V74.5215H70.2645V72.2735H72.5125V70.0401H74.7459V67.8067H76.994V65.5586H79.2274V63.3252H81.4608V61.0918H83.7089V58.8437H81.4608V56.6104H79.2274V58.8437H76.994V61.0918H74.7459V63.3252H72.5125V65.5586H70.2645V67.8067H65.7977V65.5586H63.5496V63.3252H61.3162V65.5586H59.0828V67.8067Z" fill="#00AC45"/>
</g>
<defs>
<linearGradient id="paint0_linear_1797_18751" x1="59.0524" y1="32.1328" x2="59.0524" y2="43.4223" gradientUnits="userSpaceOnUse">
<stop stop-color="#4658C9"/>
</linearGradient>
<linearGradient id="paint1_linear_1797_18751" x1="65.1319" y1="26.0527" x2="65.1319" y2="37.3422" gradientUnits="userSpaceOnUse">
<stop stop-color="#4658C9"/>
</linearGradient>
<linearGradient id="paint2_linear_1797_18751" x1="72.0789" y1="19.9736" x2="72.0789" y2="31.2631" gradientUnits="userSpaceOnUse">
<stop stop-color="#4658C9"/>
</linearGradient>
<clipPath id="clip0_1797_18751">
<rect width="47.7632" height="47.7632" fill="white" transform="translate(47.7635 41.6836)"/>
</clipPath>
</defs>
</svg>
