<svg width="32" height="32" viewBox="0 0 32 32" fill="none" xmlns="http://www.w3.org/2000/svg">
<g clip-path="url(#clip0_1789_33317)">
<rect width="32" height="32" fill="#00AC45"/>
<g clip-path="url(#clip1_1789_33317)">
<path d="M26 13.6191H25.05V18.3816H26V13.6191Z" fill="white"/>
<path d="M25.05 18.3809H24.1V20.2871H25.05V18.3809Z" fill="white"/>
<path d="M25.05 11.7188H24.1V13.6188H25.05V11.7188Z" fill="white"/>
<path d="M24.1 20.2871H23.1438V22.1934H24.1V20.2871Z" fill="white"/>
<path d="M24.1 9.8125H23.1438V11.7188H24.1V9.8125Z" fill="white"/>
<path d="M23.1437 22.1934H22.1937V23.1434H23.1437V22.1934Z" fill="white"/>
<path d="M23.1437 8.8623H22.1937V9.8123H23.1437V8.8623Z" fill="white"/>
<path d="M22.1937 23.1436H20.2875V24.0998H22.1937V23.1436Z" fill="white"/>
<path d="M22.1937 7.90625H20.2875V8.8625H22.1937V7.90625Z" fill="white"/>
<path d="M20.2875 24.0996H18.3812V25.0496H20.2875V24.0996Z" fill="white"/>
<path d="M20.2875 6.95605H18.3812V7.90605H20.2875V6.95605Z" fill="white"/>
<path d="M18.3812 25.0498H13.625V25.9998H18.3812V25.0498Z" fill="white"/>
<path d="M18.3812 6H13.625V6.95625H18.3812V6Z" fill="white"/>
<path d="M13.625 24.0996H11.7188V25.0496H13.625V24.0996Z" fill="white"/>
<path d="M13.625 6.95605H11.7188V7.90605H13.625V6.95605Z" fill="white"/>
<path d="M11.7188 23.1436H9.8125V24.0998H11.7188V23.1436Z" fill="white"/>
<path d="M11.7188 7.90625H9.8125V8.8625H11.7188V7.90625Z" fill="white"/>
<path d="M9.81255 22.1934H8.86255V23.1434H9.81255V22.1934Z" fill="white"/>
<path d="M9.81255 8.8623H8.86255V9.8123H9.81255V8.8623Z" fill="white"/>
<path d="M8.8625 20.2871H7.90625V22.1934H8.8625V20.2871Z" fill="white"/>
<path d="M8.8625 9.8125H7.90625V11.7188H8.8625V9.8125Z" fill="white"/>
<path d="M7.9063 18.3809H6.9563V20.2871H7.9063V18.3809Z" fill="white"/>
<path d="M7.9063 11.7188H6.9563V13.6188H7.9063V11.7188Z" fill="white"/>
<path d="M6.95625 13.6191H6V18.3816H6.95625V13.6191Z" fill="white"/>
<path d="M10.7395 16.9383H11.6747V17.8735H12.6099V18.8087H13.5512V19.75H15.4216V18.8087H16.363V17.8735H17.2982V16.9383H18.2395V15.9969H19.1747V15.0617H20.1099V14.1265H21.0512V13.1852H20.1099V12.25H19.1747V13.1852H18.2395V14.1265H17.2982V15.0617H16.363V15.9969H15.4216V16.9383H13.5512V15.9969H12.6099V15.0617H11.6747V15.9969H10.7395V16.9383Z" fill="white"/>
</g>
</g>
<defs>
<clipPath id="clip0_1789_33317">
<rect width="32" height="32" rx="4.8" fill="white"/>
</clipPath>
<clipPath id="clip1_1789_33317">
<rect width="20" height="20" fill="white" transform="translate(6 6)"/>
</clipPath>
</defs>
</svg>
