<svg width="10" height="11" viewBox="0 0 10 11" fill="none" xmlns="http://www.w3.org/2000/svg">
<g clip-path="url(#clip0_3266_136901)">
<path d="M10.0016 4.30957H9.52344V6.69082H10.0016V4.30957Z" fill="#055DF5"/>
<path d="M9.52187 6.69043H9.04688V7.64355H9.52187V6.69043Z" fill="#055DF5"/>
<path d="M9.52187 3.35645H9.04688V4.30957H9.52187V3.35645Z" fill="#055DF5"/>
<path d="M9.05313 7.64355H8.57812V8.59355H9.05313V7.64355Z" fill="#055DF5"/>
<path d="M9.05313 2.40625H8.57812V3.35625H9.05313V2.40625Z" fill="#055DF5"/>
<path d="M8.57188 8.59375H8.09375V9.07188H8.57188V8.59375Z" fill="#055DF5"/>
<path d="M8.57188 1.92773H8.09375V2.40586H8.57188V1.92773Z" fill="#055DF5"/>
<path d="M8.09375 9.07227H7.14062V9.54727H8.09375V9.07227Z" fill="#055DF5"/>
<path d="M8.09375 1.45215H7.14062V1.92715H8.09375V1.45215Z" fill="#055DF5"/>
<path d="M4.2875 6.21523H4.76563V6.69023H5.24063V6.21523H5.71563V5.73711H7.62187V5.26211H5.71563V4.78398H5.24063V1.92773H4.76563V4.78398H4.2875V5.26211H3.8125V5.73711H4.2875V6.21523Z" fill="#055DF5"/>
<path d="M7.1375 9.54785H6.1875V10.026H7.1375V9.54785Z" fill="#055DF5"/>
<path d="M7.1375 0.974609H6.1875V1.45273H7.1375V0.974609Z" fill="#055DF5"/>
<path d="M6.19375 10.0254H3.8125V10.5004H6.19375V10.0254Z" fill="#055DF5"/>
<path d="M6.19375 0.5H3.8125V0.975H6.19375V0.5Z" fill="#055DF5"/>
<path d="M3.8125 9.54785H2.85938V10.026H3.8125V9.54785Z" fill="#055DF5"/>
<path d="M3.8125 0.974609H2.85938V1.45273H3.8125V0.974609Z" fill="#055DF5"/>
<path d="M2.85156 9.07227H1.89844V9.54727H2.85156V9.07227Z" fill="#055DF5"/>
<path d="M2.85156 1.45215H1.89844V1.92715H2.85156V1.45215Z" fill="#055DF5"/>
<path d="M1.89688 8.59375H1.42188V9.07188H1.89688V8.59375Z" fill="#055DF5"/>
<path d="M1.89688 1.92773H1.42188V2.40586H1.89688V1.92773Z" fill="#055DF5"/>
<path d="M1.42813 7.64355H0.953125V8.59355H1.42813V7.64355Z" fill="#055DF5"/>
<path d="M1.42813 2.40625H0.953125V3.35625H1.42813V2.40625Z" fill="#055DF5"/>
<path d="M0.946875 6.69043H0.46875V7.64355H0.946875V6.69043Z" fill="#055DF5"/>
<path d="M0.946875 3.35645H0.46875V4.30957H0.946875V3.35645Z" fill="#055DF5"/>
<path d="M0.475 4.30957H0V6.69082H0.475V4.30957Z" fill="#055DF5"/>
</g>
<defs>
<clipPath id="clip0_3266_136901">
<rect width="10" height="10" fill="white" transform="translate(0 0.5)"/>
</clipPath>
</defs>
</svg>
