<svg width="20" height="21" viewBox="0 0 20 21" fill="none" xmlns="http://www.w3.org/2000/svg">
<path fill-rule="evenodd" clip-rule="evenodd" d="M4.1665 4.66699H5.83317V6.33366H4.1665V4.66699ZM7.49984 8.00033H5.83317V6.33366H7.49984V8.00033ZM9.1665 9.66699H7.49984V8.00033H9.1665V9.66699ZM10.8332 9.66699H9.1665V11.3337H7.49984V13.0003H5.83317V14.667H4.1665V16.3337H5.83317V14.667H7.49984V13.0003H9.1665V11.3337H10.8332V13.0003H12.4998V14.667H14.1665V16.3337H15.8332V14.667H14.1665V13.0003H12.4998V11.3337H10.8332V9.66699ZM12.4998 8.00033V9.66699H10.8332V8.00033H12.4998ZM14.1665 6.33366V8.00033H12.4998V6.33366H14.1665ZM14.1665 6.33366V4.66699H15.8332V6.33366H14.1665Z"/>
</svg>
