<svg width="92" height="92" viewBox="0 0 92 92" fill="none" xmlns="http://www.w3.org/2000/svg">
<rect x="12.6953" y="22.873" width="58.5384" height="7.76529" fill="url(#paint0_linear_3457_173302)"/>
<path fill-rule="evenodd" clip-rule="evenodd" d="M71.233 31.5347H12.6947V77.8278H71.233V31.5347ZM71.233 30.34H12.6947V22.8734H71.233V30.34ZM72.4277 79.0224H11.5V21.6787H72.4277V79.0224ZM68.545 24.3667H70.6357H70.9344V24.6654V26.756H70.337V25.3864L67.1754 28.548H68.545V29.1453H66.4544H66.1557V28.8467V26.756H66.7531V28.1256L69.9147 24.964H68.545V24.3667ZM15.3826 28.2493C16.2074 28.2493 16.876 27.5808 16.876 26.756C16.876 25.9313 16.2074 25.2627 15.3826 25.2627C14.5579 25.2627 13.8893 25.9313 13.8893 26.756C13.8893 27.5808 14.5579 28.2493 15.3826 28.2493ZM19.564 28.2493C20.3887 28.2493 21.0573 27.5808 21.0573 26.756C21.0573 25.9313 20.3887 25.2627 19.564 25.2627C18.7392 25.2627 18.0706 25.9313 18.0706 26.756C18.0706 27.5808 18.7392 28.2493 19.564 28.2493ZM25.2386 26.756C25.2386 27.5808 24.57 28.2493 23.7453 28.2493C22.9205 28.2493 22.2519 27.5808 22.2519 26.756C22.2519 25.9313 22.9205 25.2627 23.7453 25.2627C24.57 25.2627 25.2386 25.9313 25.2386 26.756Z" fill="#0A0E20"/>
<rect x="12.6953" y="31.2344" width="58.5384" height="46.5918" fill="white"/>
<rect x="16.875" y="18.6914" width="58.5384" height="7.76529" fill="url(#paint1_linear_3457_173302)"/>
<path fill-rule="evenodd" clip-rule="evenodd" d="M75.4127 27.353H16.8743V73.6461H75.4127V27.353ZM75.4127 26.1584H16.8743V18.6917H75.4127V26.1584ZM76.6074 74.8408H15.6797V17.4971H76.6074V74.8408ZM72.7247 20.1851H74.8154H75.1141V20.4837V22.5744H74.5167V21.2048L71.3551 24.3664H72.7247V24.9637H70.6341H70.3354V24.665V22.5744H70.9327V23.944L74.0943 20.7824H72.7247V20.1851ZM19.5623 24.0677C20.3871 24.0677 21.0557 23.3991 21.0557 22.5744C21.0557 21.7496 20.3871 21.0811 19.5623 21.0811C18.7376 21.0811 18.069 21.7496 18.069 22.5744C18.069 23.3991 18.7376 24.0677 19.5623 24.0677ZM23.7436 24.0677C24.5684 24.0677 25.237 23.3991 25.237 22.5744C25.237 21.7496 24.5684 21.0811 23.7436 21.0811C22.9189 21.0811 22.2503 21.7496 22.2503 22.5744C22.2503 23.3991 22.9189 24.0677 23.7436 24.0677ZM29.4183 22.5744C29.4183 23.3991 28.7497 24.0677 27.925 24.0677C27.1002 24.0677 26.4316 23.3991 26.4316 22.5744C26.4316 21.7496 27.1002 21.0811 27.925 21.0811C28.7497 21.0811 29.4183 21.7496 29.4183 22.5744Z" fill="#0A0E20"/>
<rect x="16.875" y="27.0527" width="58.5384" height="46.5918" fill="white"/>
<rect x="21.6484" y="14.5117" width="58.5384" height="7.76529" fill="url(#paint2_linear_3457_173302)"/>
<path fill-rule="evenodd" clip-rule="evenodd" d="M80.1862 23.1724H21.6478V69.4655H80.1862V23.1724ZM80.1862 21.9777H21.6478V14.5111H80.1862V21.9777ZM81.3808 70.6601H20.4531V13.3164H81.3808V70.6601ZM77.4982 16.0044H79.5888H79.8875V16.3031V18.3937H79.2902V17.0241L76.1286 20.1857H77.4982V20.783H75.4075H75.1088V20.4844V18.3937H75.7062V19.7633L78.8678 16.6017H77.4982V16.0044ZM24.3358 19.887C25.1605 19.887 25.8291 19.2185 25.8291 18.3937C25.8291 17.569 25.1605 16.9004 24.3358 16.9004C23.511 16.9004 22.8424 17.569 22.8424 18.3937C22.8424 19.2185 23.511 19.887 24.3358 19.887ZM28.5171 19.887C29.3418 19.887 30.0104 19.2185 30.0104 18.3937C30.0104 17.569 29.3418 16.9004 28.5171 16.9004C27.6923 16.9004 27.0238 17.569 27.0238 18.3937C27.0238 19.2185 27.6923 19.887 28.5171 19.887ZM34.1917 18.3937C34.1917 19.2185 33.5231 19.887 32.6984 19.887C31.8737 19.887 31.2051 19.2185 31.2051 18.3937C31.2051 17.569 31.8737 16.9004 32.6984 16.9004C33.5231 16.9004 34.1917 17.569 34.1917 18.3937Z" fill="#0A0E20"/>
<rect x="21.6484" y="22.874" width="58.5384" height="46.5918" fill="white"/>
<g clip-path="url(#clip0_3457_173302)">
<path d="M61.5888 49.9781H60.4531V51.1137H61.5888V52.2493H62.7244V48.835H61.5888V49.9781Z" fill="#E34545"/>
<path d="M61.5888 52.249H60.4531V53.3921H61.5888V52.249Z" fill="#E34545"/>
<path d="M61.5888 47.6992H60.4531V48.8349H61.5888V47.6992Z" fill="#E34545"/>
<path d="M60.4559 51.1133H55.8984V52.2489H60.4559V51.1133Z" fill="#E34545"/>
<path d="M60.4559 46.5566H55.8984V47.6997H60.4559V46.5566Z" fill="#E34545"/>
<path d="M60.4559 53.3926H55.8984V54.5282H60.4559V53.3926Z" fill="#E34545"/>
<path d="M55.9013 47.6992H54.7656V48.8349H55.9013V47.6992Z" fill="#E34545"/>
<path d="M53.62 51.1132H52.4844V52.2488H53.62V53.3919H52.4844V54.5276H53.62V55.6632H54.7631V49.9775H53.62V51.1132Z" fill="#E34545"/>
<path d="M53.62 55.6641H52.4844V56.8072H53.62V55.6641Z" fill="#E34545"/>
<path d="M53.62 48.835H52.4844V49.9781H53.62V48.835Z" fill="#E34545"/>
<path d="M52.4822 56.8066H46.7891V57.9423H52.4822V56.8066Z" fill="#E34545"/>
<path d="M52.4822 54.5273H46.7891V55.663H52.4822V54.5273Z" fill="#E34545"/>
<path d="M52.4822 52.249H46.7891V53.3921H52.4822V52.249Z" fill="#E34545"/>
<path d="M52.4822 47.6992H46.7891V48.8349H52.4822V47.6992Z" fill="#E34545"/>
<path d="M46.7891 45.4198V46.5555H49.0678V44.2842H47.9247V45.4198H46.7891Z" fill="#E34545"/>
<path d="M47.9247 43.1416H46.7891V44.2847H47.9247V43.1416Z" fill="#E34545"/>
<path d="M46.7919 55.6641H45.6562V56.8072H46.7919V55.6641Z" fill="#E34545"/>
<path d="M46.7944 54.5276V53.3919H45.6587V52.2488H46.7944V51.1132H45.6587V49.9775H44.5156V55.6632H45.6587V54.5276H46.7944Z" fill="#E34545"/>
<path d="M46.7919 48.835H45.6562V49.9781H46.7919V48.835Z" fill="#E34545"/>
<path d="M46.7947 46.5566H41.1016V47.6997H46.7947V46.5566Z" fill="#E34545"/>
<path d="M44.5159 48.835H41.1016V49.9781H44.5159V48.835Z" fill="#E34545"/>
<path d="M46.7947 42.0059H41.1016V43.1415H46.7947V42.0059Z" fill="#E34545"/>
<path d="M54.7666 40.8629V42.006H53.6234V43.1417H60.4597V36.3129H59.3166V37.4486H58.1809V38.5917H55.9022V37.4486H54.7666V36.3129H53.6234V35.1773H51.3522V36.3129H50.2091V37.4486H49.0734V38.5917H46.7947V37.4486H45.659V36.3129H44.5159V35.1773H43.3803V34.0342H41.1016V35.1773H42.2447V36.3129H43.3803V37.4486H44.5159V38.5917H45.659V39.7273H46.7947V40.8629H49.0734V39.7273H50.2091V38.5917H51.3522V37.4486H53.6234V38.5917H54.7666V39.7273H55.9022V40.8629H54.7666Z" fill="#E34545"/>
<path d="M43.3803 53.3926H41.1016V54.5282H43.3803V53.3926Z" fill="#E34545"/>
<path d="M43.3803 51.1133H41.1016V52.2489H43.3803V51.1133Z" fill="#E34545"/>
<path d="M41.0966 43.1416H39.9609V44.2847H41.0966V43.1416Z" fill="#E34545"/>
<path d="M39.9634 48.8342H41.0991V47.6986H39.9634V46.5555H41.0991V45.4198H39.9634V44.2842H38.8203V53.3917H41.0991V52.2486H39.9634V51.1129H41.0991V49.9773H39.9634V48.8342Z" fill="#E34545"/>
</g>
<defs>
<linearGradient id="paint0_linear_3457_173302" x1="41.9645" y1="22.873" x2="41.9645" y2="30.6383" gradientUnits="userSpaceOnUse">
<stop stop-color="#4658C9"/>
</linearGradient>
<linearGradient id="paint1_linear_3457_173302" x1="46.1442" y1="18.6914" x2="46.1442" y2="26.4567" gradientUnits="userSpaceOnUse">
<stop stop-color="#4658C9"/>
</linearGradient>
<linearGradient id="paint2_linear_3457_173302" x1="50.9176" y1="14.5117" x2="50.9176" y2="22.277" gradientUnits="userSpaceOnUse">
<stop stop-color="#4658C9"/>
</linearGradient>
<clipPath id="clip0_3457_173302">
<rect width="23.9081" height="23.9081" fill="white" transform="translate(38.8203 34.0342)"/>
</clipPath>
</defs>
</svg>
