<svg width="680" height="680" viewBox="0 0 680 680" fill="none" xmlns="http://www.w3.org/2000/svg">
<ellipse cx="336" cy="563" rx="189" ry="22" fill="#055DF5"/>
<g opacity="0.3" filter="url(#filter0_f_5001_168630)">
<circle cx="499.5" cy="37.5" r="360.5" fill="url(#paint0_linear_5001_168630)"/>
</g>
<path d="M313 432.002L360 553" stroke="#012C69" stroke-width="5.58056" stroke-miterlimit="10" stroke-linecap="round"/>
<path d="M374.646 432.002L422.5 554" stroke="#012C69" stroke-width="5.58056" stroke-miterlimit="10" stroke-linecap="round"/>
<path d="M324.998 462.531H388.261" stroke="#012C69" stroke-width="5.58056" stroke-miterlimit="10" stroke-linecap="round"/>
<path d="M336.563 491.936H399.816" stroke="#012C69" stroke-width="5.58056" stroke-miterlimit="10" stroke-linecap="round"/>
<path d="M348.34 520.021H411.603" stroke="#012C69" stroke-width="5.58056" stroke-miterlimit="10" stroke-linecap="round"/>
<g style="mix-blend-mode:multiply" opacity="0.54">
<path d="M313 432L360 552.5" stroke="#012C69" stroke-width="5.58056" stroke-miterlimit="10" stroke-linecap="round"/>
<path d="M374.646 432L422.5 554" stroke="#012C69" stroke-width="5.58056" stroke-miterlimit="10" stroke-linecap="round"/>
<path d="M324.998 462.529H388.261" stroke="#012C69" stroke-width="5.58056" stroke-miterlimit="10" stroke-linecap="round"/>
<path d="M336.563 491.932H399.816" stroke="#012C69" stroke-width="5.58056" stroke-miterlimit="10" stroke-linecap="round"/>
<path d="M348.34 520.02H411.603" stroke="#012C69" stroke-width="5.58056" stroke-miterlimit="10" stroke-linecap="round"/>
</g>
<path d="M288 435.001L302 432.001L374 430.001" stroke="#001848" stroke-width="5.58056" stroke-miterlimit="10" stroke-linecap="round"/>
<path d="M374 430L350 435" stroke="#012C69" stroke-width="5.58056" stroke-miterlimit="10" stroke-linecap="round"/>
<path d="M287 435H351" stroke="#012C69" stroke-width="5.58056" stroke-miterlimit="10" stroke-linecap="round"/>
<g style="mix-blend-mode:multiply">
<path d="M349 435.998L289.344 435.963" stroke="#012C69" stroke-width="2.48239" stroke-miterlimit="10" stroke-linecap="round"/>
</g>
<path d="M349.825 435.963L303 563" stroke="#012C69" stroke-width="5.58056" stroke-miterlimit="10" stroke-linecap="round"/>
<path d="M288.179 435.963L239 561" stroke="#012C69" stroke-width="5.58056" stroke-miterlimit="10" stroke-linecap="round"/>
<g style="mix-blend-mode:multiply">
<path d="M289.604 435.963L240.5 560.5" stroke="#012C69" stroke-width="2.48239" stroke-miterlimit="10" stroke-linecap="round"/>
</g>
<path d="M337.827 466.492H274.565" stroke="#012C69" stroke-width="5.58056" stroke-miterlimit="10" stroke-linecap="round"/>
<path d="M326.262 495.896H263.009" stroke="#012C69" stroke-width="5.58056" stroke-miterlimit="10" stroke-linecap="round"/>
<path d="M314.485 523.982H251.223" stroke="#012C69" stroke-width="5.58056" stroke-miterlimit="10" stroke-linecap="round"/>
<g style="mix-blend-mode:multiply">
<path d="M314.678 525.666H251.425" stroke="#012C69" stroke-width="2.48239" stroke-miterlimit="10" stroke-linecap="round"/>
</g>
<g style="mix-blend-mode:multiply">
<path d="M325.261 497.541H262.009" stroke="#012C69" stroke-width="2.48239" stroke-miterlimit="10" stroke-linecap="round"/>
</g>
<g style="mix-blend-mode:multiply">
<path d="M337.202 468.398H273.949" stroke="#012C69" stroke-width="2.48239" stroke-miterlimit="10" stroke-linecap="round"/>
</g>
<path d="M445.3 547.701H442.5V591.901H445.3V547.701Z" fill="#FFC727"/>
<path d="M480.7 572.101L478.4 571.301L479.6 570.701L479 569.501L480.2 568.901L479.6 567.801L480.8 567.201L480.2 566.001L481.4 565.401L480.8 564.201L482 563.701L481.4 562.501L482.7 561.901L482.1 560.701L483.3 560.201L482.7 559.001L483.9 558.401L483.3 557.201L484.5 556.701L483.9 555.501L485.1 554.901L484.5 553.701L485.7 553.201L485.1 552.001L486.3 551.401L485.7 550.201L486.9 549.701L486.3 548.501L487.6 547.901L487 546.701L488.2 546.201L487.6 545.001L488.8 544.401L488.2 543.201L489.4 542.701L488.8 541.501L490 540.901L489.4 539.701L490.6 539.201L490 538.001L491.2 537.401L490.6 536.201L491.8 535.701L491.2 534.501L492.5 533.901L491.8 532.701L493.1 532.201L492.5 531.001L493.7 530.401L493.1 529.201L494.3 528.701L493.7 527.501L494.9 526.901L494.3 525.701L496.6 526.501L480.7 572.101Z" fill="#C7C7C7"/>
<path d="M496.679 526.547L500.077 516.824L497.717 515.999L494.319 525.723L496.679 526.547Z" fill="#37474F"/>
<path d="M480.7 572.102L481.3 570.302L490 573.302C490.9 573.602 491.8 573.102 492.1 572.302L506 532.502C506.3 531.602 505.8 530.702 505 530.402L496.3 527.402L496.9 525.602L505.6 528.602C507.4 529.202 508.4 531.202 507.8 533.102L493.9 572.902C493.3 574.702 491.3 575.702 489.4 575.102L480.7 572.102Z" fill="#263238"/>
<path d="M505.6 547.701H502.8V591.901H505.6V547.701Z" fill="#FFC727"/>
<path d="M503 551.201H445.3V553.501H503V551.201Z" fill="#FFC727"/>
<path d="M444.5 543.102L459.8 539.802L456.2 523.402L441 526.702L444.5 543.102ZM445.6 537.502L443.6 528.302L454.5 525.902L456.5 535.102L445.6 537.502Z" fill="#263238"/>
<path d="M463.1 582.003L464 581.503V581.403L463 581.203L464 580.703L463.9 580.603L462.9 580.403L463.9 579.903V579.803L462.8 579.603L463.8 579.103V579.003L462.8 578.803L463.7 578.303V578.203L462.7 578.003L463.6 577.403L462.6 577.203L463.5 576.603L462.5 576.403L463.5 575.803L462.4 575.503L463.4 575.003L462.3 574.703L463.3 574.203L462.3 573.903L463.2 573.403L462.2 573.103L463.1 572.603L462.1 572.303L463.1 571.803H463L462 571.503L463 571.003V570.903L461.9 570.703L462.9 570.203V570.103L461.9 569.903L462.8 569.403V569.303L461.8 569.103L462.7 568.603V568.503L461.7 568.303L462.6 567.803V567.703L461.6 567.503L462.6 567.003V566.903L461.5 566.703L462.5 566.203V566.103L461.4 565.903L462.4 565.403V565.303L461.4 565.103L462.3 564.603V564.503L461.3 564.303L462.2 563.703L461.2 563.503L462.2 562.903H462.1L461.1 562.603L462.1 562.103L461 561.803L462 561.303L460.9 561.003L461.9 560.503L460.9 560.203L461.8 559.703L460.8 559.403L461.7 558.903L460.7 558.603L461.7 558.103V558.003L460.6 557.803L461.6 557.303V557.203L460.5 557.003L461.5 556.503V556.403L460.5 556.203L461.4 555.703V555.603L460.4 555.403L461.3 554.903V554.803L460.3 554.603L461.2 554.103V554.003L460.2 553.803L461.2 553.303V553.203L460.1 553.003L461.1 552.503V552.403L460 552.203L461 551.603L460 551.403L460.9 550.803L459.9 550.503L460.8 550.003L459.8 549.703L460.7 549.203L459.7 548.903L460.7 548.403L459.6 548.103L460.6 547.603L459.5 547.303L460.5 546.803L459.5 546.503L460.4 546.003V545.903L459.4 545.703L460.3 545.203V545.103L459.3 544.903L460.3 544.403V544.303L459.2 544.103L460.2 543.603V543.503L459.1 543.303L460.1 542.803V542.703L459.1 542.503L460 542.003V541.903L459 541.703L459.9 541.203V541.103L458.9 540.903L459.8 540.403V539.803L444.5 543.103L455.4 583.603L463.1 582.003Z" fill="#C7C7C7"/>
<g opacity="0.3">
<path d="M448.1 556.302L459.7 546.602L460.3 546.002H460.4V545.902L459.4 545.702L460.3 545.202V545.102L459.3 544.902L460.3 544.402V544.302L459.2 544.102L460.2 543.602V543.502L459.5 543.402L447.3 553.502L448.1 556.302Z" fill="white"/>
<path d="M456.9 583.303L462.4 582.203L463.4 581.303L463 581.203L464 580.703L463.9 580.604L462.9 580.404L463.9 579.904V579.803L462.8 579.604L463.8 579.104V579.004L462.8 578.803L463.7 578.303V578.203L463.2 578.104L456.9 583.303Z" fill="white"/>
<path d="M462.2 568.902L462.7 568.602V568.502H462.6L462.2 568.902Z" fill="white"/>
<path d="M454.1 579.004L462.1 572.303H462.2L462.9 571.703L462 571.504L463 571.004V570.904L461.9 570.703L462.9 570.203V570.104L461.9 569.904L462.8 569.404V569.303L461.9 569.104L453.4 576.203L454.1 579.004Z" fill="white"/>
<path d="M446.7 551.203L459 540.903L459.4 540.603L459.8 540.203V539.803L457.8 540.203L446.3 549.803L446.7 551.203Z" fill="white"/>
<path d="M461.7 565.103H461.4L462.3 564.603V564.503L461.7 564.303L452.3 572.103L452.5 572.803L461.7 565.103Z" fill="white"/>
<path d="M446.1 548.803L455.9 540.604L454.5 540.904L445.9 548.104L446.1 548.803Z" fill="white"/>
</g>
<path d="M450.5 562.104L457.7 560.104L462.9 578.604C463.3 579.904 462.5 581.303 461.2 581.703L458.8 582.404C457.5 582.804 456.1 582.003 455.7 580.703L450.5 562.104Z" fill="#37474F"/>
<path d="M451.727 561.844L456.637 560.467L456.097 558.541L451.187 559.919L451.727 561.844Z" fill="#37474F"/>
<path d="M452.816 559.413L454.357 558.98L448.52 538.184L446.98 538.616L452.816 559.413Z" fill="#EBEBEB"/>
<path d="M445.7 537.003C445.7 537.003 445.8 533.503 445.9 533.503L446.4 533.403L446.9 533.303C447 533.303 448.8 536.203 448.8 536.203L448.5 538.203L447 538.603L445.7 537.003Z" fill="#EBEBEB"/>
<path d="M460.924 578.857L462.175 578.506L457.636 562.331L456.384 562.682L460.924 578.857Z" fill="#263238"/>
<path d="M458.561 579.58L459.813 579.229L455.274 563.053L454.022 563.405L458.561 579.58Z" fill="#263238"/>
<path d="M456.296 580.177L457.548 579.826L453.01 563.651L451.759 564.002L456.296 580.177Z" fill="#263238"/>
<path d="M467.2 559.002L459.7 558.602L460.7 539.402C460.8 538.002 461.9 537.002 463.3 537.002L465.8 537.102C467.2 537.202 468.2 538.302 468.2 539.702L467.2 559.002Z" fill="#37474F"/>
<path d="M466.048 558.945L460.954 558.691L460.854 560.689L465.948 560.943L466.048 558.945Z" fill="#37474F"/>
<path d="M464.137 560.869L462.539 560.789L461.463 582.363L463.061 582.443L464.137 560.869Z" fill="#EBEBEB"/>
<path d="M463.8 584.302C463.8 584.302 462.7 587.602 462.5 587.602H462H461.5C461.4 587.602 460.6 584.202 460.6 584.202L461.5 582.402L463.1 582.502L463.8 584.302Z" fill="#EBEBEB"/>
<path d="M462.717 539.86L461.419 539.795L460.582 556.575L461.881 556.64L462.717 539.86Z" fill="#263238"/>
<path d="M465.119 539.959L463.82 539.895L462.983 556.674L464.282 556.739L465.119 539.959Z" fill="#263238"/>
<path d="M467.519 540.057L466.22 539.992L465.385 556.772L466.684 556.837L467.519 540.057Z" fill="#263238"/>
<path d="M474.125 580.706L480.578 579.928L475.786 540.216L469.333 540.994L474.125 580.706Z" fill="#263238"/>
<path d="M469.157 545.175L477.099 544.217L476.141 536.274L468.199 537.233L469.157 545.175Z" fill="#C7C7C7"/>
<path d="M476.2 536.602C476.2 536.602 483.8 531.102 487.8 530.602L489.5 544.402L477.1 543.802L476.2 536.602Z" fill="#C7C7C7"/>
<g opacity="0.2">
<path d="M488.5 537.001L483.4 544.101L480.2 544.001L488.1 533.201L488.5 537.001Z" fill="white"/>
<path d="M487.2 530.801L477.7 543.901H477.1L477 542.701L485.1 531.501C485.8 531.101 486.5 530.901 487.2 530.801Z" fill="white"/>
<path d="M483.4 532.201L476.8 541.301L476.7 540.301L482.1 532.801C482.5 532.701 482.9 532.401 483.4 532.201Z" fill="white"/>
</g>
<path d="M489.7 537.721L484.863 536.941L483.637 544.543L488.474 545.323L489.7 537.721Z" fill="#EBEBEB"/>
<path d="M489.4 540.103C489.4 540.103 492.2 540.603 492.7 540.603C493.2 540.703 495.5 538.703 497 539.003C498.5 539.203 497.2 539.003 498.7 539.303C500.2 539.603 506.1 542.003 505.5 545.903C504.9 549.703 505.1 548.203 505.1 548.203C505.1 548.203 504.6 546.103 503.2 545.403C501.7 544.703 500.2 545.603 499.7 546.703C499.1 548.003 498.5 550.003 498.5 550.003L492.5 549.003C492.5 549.003 492.3 545.903 491.9 544.903C491.5 543.903 488.6 543.603 488.6 543.603L489.4 540.103Z" fill="#EBEBEB"/>
<path d="M497.462 549.682L493.71 549.076L491.528 562.601L495.279 563.206L497.462 549.682Z" fill="#EBEBEB"/>
<path d="M497.305 557.14L491.678 556.232L486.806 586.441L492.433 587.348L497.305 557.14Z" fill="#263238"/>
<path d="M502.9 561.402H445.3V591.902H502.9V561.402Z" fill="#FFC727"/>
<g opacity="0.1">
<path d="M445.3 565.003C448.1 564.903 450.9 564.803 453.7 564.803C456.5 564.803 459.3 564.803 462.1 564.703L470.5 564.803C473.3 564.803 476.1 564.903 478.9 565.003C476.1 565.103 473.3 565.203 470.5 565.203L462.1 565.303C459.3 565.303 456.5 565.303 453.7 565.203C450.9 565.103 448.1 565.103 445.3 565.003Z" fill="black"/>
<path d="M458.9 567.702C462.6 567.602 466.2 567.502 469.9 567.502L480.9 567.402L491.9 567.502C495.6 567.502 499.2 567.602 502.9 567.702C499.2 567.802 495.6 567.902 491.9 567.902L480.9 568.002L469.9 567.902C466.3 567.902 462.6 567.802 458.9 567.702Z" fill="black"/>
<path d="M493.1 571.904C489.7 572.004 486.4 572.104 483 572.104L472.9 572.203L462.8 572.104C459.4 572.104 456.1 572.004 452.7 571.904C456.1 571.804 459.4 571.703 462.8 571.703L472.9 571.604L483 571.703C486.3 571.703 489.7 571.804 493.1 571.904Z" fill="black"/>
<path d="M445.3 573.603C447.4 573.503 449.6 573.403 451.7 573.403C453.8 573.403 456 573.403 458.1 573.303C460.2 573.303 462.4 573.303 464.5 573.403C466.6 573.403 468.8 573.503 470.9 573.603C468.8 573.703 466.6 573.803 464.5 573.803C462.4 573.803 460.2 573.803 458.1 573.903C456 573.903 453.8 573.903 451.7 573.803C449.6 573.703 447.4 573.703 445.3 573.603Z" fill="black"/>
<path d="M445.3 575.603L451.7 575.403H458.1L471 575.303L483.8 575.403H490.3L496.7 575.603L490.3 575.703L483.8 575.803L471 575.903L458.1 575.803L451.7 575.703L445.3 575.603Z" fill="black"/>
<path d="M502.8 577.202C500.5 577.302 498.1 577.402 495.8 577.402C493.5 577.402 491.1 577.402 488.8 577.502C486.5 577.502 484.1 577.502 481.8 577.402C479.5 577.402 477.1 577.302 474.8 577.202C477.1 577.102 479.5 577.002 481.8 577.002C484.1 577.002 486.5 577.002 488.8 576.902C491.1 576.902 493.5 576.902 495.8 577.002C498.2 577.002 500.5 577.002 502.8 577.202Z" fill="black"/>
<path d="M467.1 579.603C469.3 579.503 471.4 579.403 473.6 579.403C475.8 579.403 477.9 579.403 480.1 579.303C482.3 579.303 484.4 579.303 486.6 579.403C488.8 579.403 490.9 579.503 493.1 579.603C490.9 579.703 488.8 579.803 486.6 579.803C484.4 579.803 482.3 579.803 480.1 579.903C477.9 579.903 475.8 579.903 473.6 579.803C471.4 579.803 469.2 579.703 467.1 579.603Z" fill="black"/>
<path d="M445.3 584.103C448.9 584.003 452.5 583.903 456 583.903L466.7 583.803L477.4 583.903C481 583.903 484.6 584.003 488.1 584.103C484.5 584.203 480.9 584.303 477.4 584.303L466.7 584.403L456 584.303C452.4 584.303 448.9 584.203 445.3 584.103Z" fill="black"/>
<path d="M502.8 587.202C500.4 587.302 498 587.402 495.6 587.402C493.2 587.402 490.8 587.402 488.4 587.502C486 587.502 483.6 587.502 481.2 587.402C478.8 587.402 476.4 587.302 474 587.202C476.4 587.102 478.8 587.002 481.2 587.002C483.6 587.002 486 587.002 488.4 586.902C490.8 586.902 493.2 586.902 495.6 587.002C498.1 587.002 500.5 587.102 502.8 587.202Z" fill="black"/>
<path d="M445.3 589.804C447.3 589.704 449.3 589.604 451.3 589.604C453.3 589.604 455.3 589.604 457.3 589.504C459.3 589.504 461.3 589.504 463.3 589.604C465.3 589.604 467.3 589.704 469.3 589.804C467.3 589.904 465.3 590.004 463.3 590.004C461.3 590.004 459.3 590.004 457.3 590.104C455.3 590.104 453.3 590.104 451.3 590.004C449.3 589.904 447.3 589.904 445.3 589.804Z" fill="black"/>
</g>
<path d="M370.341 428.96C369.038 429.394 332.421 428.598 331.046 427.657C330.54 427.296 330.322 421.94 330.25 415.5C330.25 414.125 330.25 412.678 330.25 411.23C330.25 409.494 330.25 407.757 330.25 406.02C330.322 398.349 330.612 391.619 330.612 391.619L354.42 392.053L354.131 406.454L354.059 411.665L353.841 415.934C353.841 415.934 367.736 422.519 369.111 423.677C370.558 424.835 371.643 428.526 370.341 428.96Z" fill="#F7A9A0"/>
<path d="M370.341 428.96C369.038 429.394 332.421 428.598 331.046 427.657C330.54 427.295 330.322 421.94 330.25 415.499C330.25 414.125 330.25 412.677 330.25 411.23C330.25 409.493 330.25 407.756 330.25 406.02L354.131 406.454L354.059 411.664L353.841 415.934C353.841 415.934 367.736 422.519 369.111 423.677C370.558 424.835 371.643 428.525 370.341 428.96Z" fill="white"/>
<path d="M370.486 429.032C369.617 429.322 354.059 429.032 342.697 428.598C340.092 428.526 337.704 428.381 335.75 428.236C333.072 428.092 331.263 427.875 330.974 427.73C330.322 427.296 330.178 419.48 330.178 411.23L354.131 411.665L353.914 416.007C353.914 416.007 367.88 422.592 369.255 423.75C370.703 424.908 371.788 428.598 370.486 429.032Z" fill="#E34545"/>
<path d="M369.979 427.513C363.828 427.224 338.934 426.645 332.783 426.862C332.71 426.862 332.71 426.862 332.783 426.934C338.862 427.369 363.828 427.73 369.979 427.658C370.124 427.658 370.124 427.513 369.979 427.513Z" fill="#263238"/>
<path d="M354.854 414.56C352.466 414.053 349.427 414.343 347.545 416.08C347.473 416.152 347.545 416.224 347.618 416.224C350.006 415.501 352.249 415.067 354.782 414.922C354.999 414.849 354.999 414.632 354.854 414.56Z" fill="#263238"/>
<path d="M356.591 415.718C354.203 415.212 351.164 415.501 349.282 417.238C349.21 417.31 349.282 417.383 349.355 417.383C351.743 416.659 353.986 416.225 356.519 416.08C356.736 416.008 356.736 415.718 356.591 415.718Z" fill="#263238"/>
<path d="M358.256 416.804C355.867 416.298 352.828 416.587 350.947 418.324C350.874 418.396 350.947 418.469 351.019 418.469C353.407 417.745 355.65 417.311 358.183 417.166C358.473 417.094 358.473 416.804 358.256 416.804Z" fill="#263238"/>
<path d="M359.992 417.888C357.604 417.382 354.565 417.671 352.683 419.408C352.611 419.48 352.683 419.553 352.756 419.553C355.144 418.829 357.387 418.395 359.92 418.25C360.209 418.178 360.209 417.888 359.992 417.888Z" fill="#263238"/>
<path d="M359.413 409.06C358.473 407.757 356.664 408.264 355.65 409.132C353.986 410.507 352.466 412.606 351.815 414.632C351.815 414.704 351.815 414.704 351.887 414.704C351.887 414.921 352.032 415.066 352.249 414.994C354.276 414.27 356.519 413.763 358.256 412.533C359.269 411.737 360.282 410.362 359.413 409.06ZM355.072 413.329C354.058 413.691 353.118 413.98 352.105 414.415C352.828 413.329 353.552 412.244 354.42 411.231C354.854 410.724 355.289 410.29 355.723 409.856C356.446 409.204 359.341 407.902 358.835 410.507C358.69 412.027 356.302 412.895 355.072 413.329Z" fill="#263238"/>
<path d="M345.664 413.835C347.618 414.704 349.934 414.704 352.105 414.993C352.322 414.993 352.466 414.776 352.394 414.631C352.466 414.631 352.466 414.559 352.394 414.559C351.309 412.75 349.355 411.013 347.473 410C346.315 409.421 344.434 409.276 343.782 410.724C343.204 412.171 344.506 413.329 345.664 413.835ZM344.578 412.099C343.565 409.638 346.677 410.289 347.473 410.796C348.052 411.085 348.559 411.447 349.065 411.881C350.151 412.677 351.019 413.618 352.032 414.487C351.019 414.27 349.934 414.197 348.92 414.052C347.69 413.763 345.157 413.473 344.578 412.099Z" fill="#263238"/>
<path opacity="0.2" d="M351.743 428.89C348.631 428.817 345.519 428.745 342.697 428.6C340.092 428.528 337.704 428.383 335.75 428.238C333.072 428.093 331.263 427.876 330.974 427.659C330.395 427.297 330.25 421.219 330.178 414.199C335.605 417.89 346.315 425.199 351.743 428.89Z" fill="black"/>
<path d="M356.302 415.645H329.092C329.092 415.645 330.612 354.423 330.322 352.976C329.599 349.575 314.185 295.59 314.185 295.59L335.678 295.952L342.986 296.096C342.986 296.096 342.335 305.07 342.625 306.011C346.243 319.109 353.19 341.47 354.637 349.792C357.025 364.193 356.302 415.645 356.302 415.645Z" fill="#0A0E20"/>
<path d="M355.361 411.087C351.091 410.942 336.112 410.508 330.467 410.942C330.395 410.942 330.395 411.014 330.467 411.014C332.421 411.304 351.164 411.231 355.361 411.159C355.433 411.231 355.433 411.087 355.361 411.087Z" fill="#535662"/>
<path d="M332.421 351.674C331.625 348.345 325.546 327.721 323.665 321.208C321.783 314.695 320.046 308.182 318.454 301.597C318.237 300.728 318.02 299.932 317.803 299.136C317.803 299.064 317.658 299.064 317.731 299.136C318.31 302.465 319.178 305.722 319.902 308.978C320.698 312.235 321.494 315.491 322.362 318.747C324.099 325.26 326.053 331.773 328.079 338.214C329.092 341.398 330.829 347.983 331.77 351.24C332.71 354.496 331.191 407.83 331.263 408.698C331.263 408.915 331.625 408.915 331.625 408.698C331.842 402.475 333.217 354.93 332.421 351.674Z" fill="#535662"/>
<path d="M335.605 296.024C335.605 296.024 330.322 353.338 330.322 353.048C329.671 349.719 315.125 298.991 314.185 295.807C314.185 295.734 314.112 295.662 314.112 295.662L335.605 296.024Z" fill="#535662"/>
<path d="M342.118 432.071C340.815 432.505 304.198 431.709 302.823 430.769C302.317 430.407 302.1 425.052 302.027 418.611C302.027 417.236 302.027 415.789 302.027 414.342C302.027 412.605 302.027 410.868 302.027 409.131C302.1 401.46 302.389 394.73 302.389 394.73L326.197 395.165L325.908 409.565L325.836 414.776L325.619 419.045C325.619 419.045 339.513 425.631 340.888 426.789C342.407 428.019 343.421 431.709 342.118 432.071Z" fill="#F7A9A0"/>
<path d="M342.118 432.071C340.815 432.505 304.198 431.709 302.823 430.768C302.317 430.406 302.1 425.051 302.027 418.611C302.027 417.236 302.027 415.789 302.027 414.341C302.027 412.604 302.027 410.868 302.027 409.131L325.908 409.565L325.836 414.775L325.619 419.045C325.619 419.045 339.513 425.63 340.888 426.788C342.407 428.018 343.421 431.709 342.118 432.071Z" fill="white"/>
<path d="M342.263 432.142C341.394 432.431 325.836 432.142 314.474 431.708C311.869 431.635 309.481 431.491 307.527 431.346C304.849 431.201 303.04 430.984 302.751 430.839C302.1 430.405 301.955 422.59 301.955 414.34L325.908 414.774L325.691 419.116C325.691 419.116 339.658 425.701 341.032 426.859C342.48 428.017 343.565 431.708 342.263 432.142Z" fill="#E34545"/>
<path d="M341.756 430.691C335.605 430.402 310.711 429.823 304.56 430.04C304.488 430.04 304.488 430.04 304.56 430.112C310.639 430.546 335.605 430.908 341.756 430.836C341.901 430.763 341.901 430.691 341.756 430.691Z" fill="#535662"/>
<path d="M326.632 417.738C324.244 417.231 321.204 417.521 319.323 419.257C319.25 419.33 319.323 419.402 319.395 419.402C321.783 418.678 324.026 418.244 326.559 418.1C326.776 418.027 326.776 417.738 326.632 417.738Z" fill="#535662"/>
<path d="M328.368 418.824C325.98 418.317 322.941 418.607 321.06 420.343C320.987 420.416 321.06 420.488 321.132 420.488C323.52 419.764 325.763 419.33 328.296 419.186C328.513 419.113 328.513 418.824 328.368 418.824Z" fill="#535662"/>
<path d="M330.105 419.91C327.717 419.403 324.678 419.693 322.796 421.429C322.724 421.502 322.796 421.574 322.869 421.574C325.257 420.85 327.5 420.416 330.033 420.271C330.25 420.199 330.25 419.982 330.105 419.91Z" fill="#535662"/>
<path d="M331.842 420.994C329.454 420.487 326.415 420.776 324.533 422.513C324.461 422.586 324.533 422.658 324.605 422.658C326.993 421.934 329.237 421.5 331.77 421.355C331.987 421.283 331.987 421.066 331.842 420.994Z" fill="#535662"/>
<path d="M331.19 412.239C330.25 410.937 328.441 411.443 327.427 412.312C325.763 413.687 324.243 415.785 323.592 417.811C323.592 417.884 323.592 417.884 323.664 417.884C323.664 418.101 323.809 418.246 324.026 418.173C326.052 417.45 328.296 416.943 330.033 415.713C331.046 414.917 332.131 413.469 331.19 412.239ZM326.921 416.437C325.908 416.798 324.967 417.088 323.954 417.522C324.678 416.437 325.401 415.351 326.27 414.338C326.704 413.831 327.138 413.397 327.572 412.963C328.296 412.312 331.19 411.009 330.684 413.614C330.467 415.134 328.079 416.002 326.921 416.437Z" fill="#535662"/>
<path d="M317.441 416.943C319.395 417.811 321.71 417.811 323.881 418.101C324.099 418.101 324.243 417.883 324.171 417.739C324.243 417.739 324.243 417.666 324.171 417.666C323.085 415.857 321.131 414.12 319.25 413.107C318.092 412.528 316.211 412.384 315.559 413.831C314.98 415.278 316.283 416.436 317.441 416.943ZM316.428 415.206C315.415 412.745 318.526 413.397 319.322 413.903C319.901 414.193 320.408 414.555 320.914 414.989C322 415.785 322.868 416.726 323.881 417.594C322.868 417.377 321.783 417.305 320.77 417.16C319.467 416.87 317.007 416.581 316.428 415.206Z" fill="#535662"/>
<path d="M327.283 418.467L300.87 417.961C300.87 417.961 308.251 322.799 307.382 317.734C305.863 309.484 307.165 300.077 311.145 295.59L336.835 296.096C336.835 296.096 337.197 303.333 334.447 307.603C334.447 307.603 331.987 309.05 330.829 309.701L327.283 418.467Z" fill="#0A0E20"/>
<path d="M326.559 413.763C322.579 413.618 323.737 413.546 319.685 413.474C317.731 413.401 304.85 412.967 303.04 413.257C302.968 413.257 302.968 413.329 303.04 413.329C304.85 413.691 317.731 413.836 319.685 413.908C323.665 413.98 322.507 413.908 326.559 413.908C326.632 413.836 326.632 413.763 326.559 413.763Z" fill="#535662"/>
<path d="M336.112 306.369C333.579 307.527 331.119 308.974 328.803 310.494C328.731 310.566 328.803 310.711 328.875 310.639C331.336 309.336 333.869 308.033 336.257 306.658C336.474 306.586 336.329 306.297 336.112 306.369Z" fill="#535662"/>
<path d="M332.855 305.937C332.711 306.444 332.566 306.95 332.494 307.457C332.421 307.819 332.276 308.253 332.421 308.687C332.421 308.759 332.566 308.759 332.566 308.687C332.783 308.325 332.855 307.891 333 307.457C333.145 307.023 333.29 306.516 333.362 306.082C333.434 305.792 333 305.648 332.855 305.937Z" fill="#535662"/>
<path d="M332.711 303.476C332.783 303.042 332.855 302.607 332.928 302.173C333 301.739 333.145 301.305 333.217 300.871C333.217 300.798 333.362 300.798 333.362 300.871C333.29 301.305 333.29 301.739 333.217 302.173C333.145 302.607 333.145 303.042 333.073 303.476C333 304.272 332.855 305.068 332.638 305.864C333.073 305.792 333.507 305.647 333.796 305.43C334.158 305.14 334.303 304.634 334.448 304.2C334.592 303.693 334.665 303.186 334.809 302.752C334.954 302.246 335.171 301.667 335.244 301.088C335.244 301.015 335.388 301.015 335.388 301.088C335.244 302.246 335.099 303.403 334.665 304.561C334.52 304.996 334.375 305.43 334.013 305.719C333.579 306.009 333.073 306.081 332.566 306.153C332.494 306.153 332.421 306.153 332.421 306.081C332.421 305.213 332.566 304.344 332.711 303.476Z" fill="#535662"/>
<path d="M311.579 317.443C311.435 315.561 311.145 313.68 311.001 311.798C310.639 307.963 311.001 304.2 311.869 300.509C311.869 300.437 311.797 300.437 311.797 300.509C311.073 303.766 310.494 307.095 310.566 310.423C310.639 313.752 311.218 317.081 311.218 320.41C311.218 323.811 310.856 327.14 310.566 330.541C310.277 333.942 309.987 337.344 309.698 340.745C308.54 354.35 307.527 368.027 306.441 381.632C306.152 385.467 305.863 389.23 305.573 393.065C305.284 396.973 304.849 406.525 304.632 410.361C304.632 410.723 305.139 410.65 305.139 410.361C305.863 403.558 306.441 390.967 306.948 384.092C307.527 377.29 308.034 370.56 308.54 363.757C309.047 356.955 309.626 350.225 310.132 343.422C310.422 340.021 310.639 336.62 310.928 333.219C311.218 329.818 311.507 326.489 311.579 323.088C311.724 321.206 311.724 319.324 311.579 317.443Z" fill="#535662"/>
<path d="M320.987 300.437C320.987 300.365 320.915 300.365 320.915 300.437C320.698 300.799 320.698 301.378 320.625 301.812C320.553 302.319 320.408 302.825 320.263 303.332C319.902 304.345 319.467 305.213 318.671 305.865C317.007 307.384 314.836 307.891 312.737 308.325C312.665 308.325 312.665 308.47 312.737 308.47C313.968 308.614 315.198 308.325 316.356 307.963C317.369 307.601 318.382 307.167 319.178 306.443C319.974 305.72 320.481 304.779 320.77 303.694C320.915 303.187 320.915 302.608 320.987 302.029C320.987 301.74 320.987 301.523 320.987 301.233C321.059 300.944 321.132 300.654 320.987 300.437Z" fill="#535662"/>
<path d="M304.714 297.915C304.815 298.085 351.034 303.886 351.538 303.495C352.206 302.914 354.791 248.905 348.5 237.999C346.971 235.269 335.464 239.508 332.432 241.769C323.676 248.348 321.367 254.462 318.791 259.352C316.833 262.956 314.271 269.265 311.892 275.65C307.871 286.325 304.411 297.404 304.714 297.915Z" fill="#EBEBEB"/>
<path d="M331.548 241.832C331.548 241.832 340.765 257.97 341.5 262C342.438 267.613 336.918 303.841 336.918 303.841L303.951 298.413C303.951 298.413 304.046 255.972 312.5 243.999C319.191 234.64 331.548 241.832 331.548 241.832Z" fill="#E34545"/>
<path d="M348.062 243C348.062 243 348.653 257.832 348.897 260.06C349.141 262.288 346.326 304.605 346.326 304.605L351.233 304.025C351.233 304.025 354.154 273.818 353.5 258.452C352.749 243.257 348.062 243 348.062 243Z" fill="#E34545"/>
<path d="M339.518 289.642L304.69 286.422C305.097 285.327 305.251 284.608 305.262 283.107L339.755 286.163C339.547 287.332 339.532 288.487 339.518 289.642Z" fill="#EBEBEB"/>
<path d="M352.365 291.524L347.117 290.544C347.142 289.394 347.168 288.155 347.293 287.006L352.543 287.897C352.414 289.223 352.39 290.373 352.365 291.524Z" fill="#EBEBEB"/>
<path d="M338.724 295.842L304.357 292.101C303.835 290.603 304.638 289.598 304.644 288.599L338.854 292.371C338.848 293.614 338.742 294.776 338.724 295.842Z" fill="#EBEBEB"/>
<path d="M351.944 297.73L346.653 296.82C346.678 295.669 346.703 294.518 346.832 293.282L352.123 294.192C351.993 295.428 351.966 296.668 351.944 297.73Z" fill="#EBEBEB"/>
<path d="M431.709 255.476V249.825H426.057V244.173H420.405H414.754V238.521H409.102H403.451H397.799H392.147H386.496H380.844V232.87H375.077V227.218H369.426V221.451H363.774H358.122V227.218H352.471H346.819V232.87H341.168H335.516H329.864H324.213H318.561H312.91V227.218H307.258V221.451H301.606V227.218H295.955V232.87V238.521H290.303H284.652H279V244.173H273.348H267.581H261.93V238.521H256.278H250.627H244.975V244.173H239.323H233.672V249.825H228.02V255.476H222.369H216.717H211.065V249.825H205.414H199.762V255.476H194.111V261.128H199.762H205.414H211.065H216.717H222.369H228.02H233.672H239.323H244.975H250.627H256.278H261.93H267.581H273.348H279H284.652H290.303H295.955H301.606H307.258H312.91H318.561H324.213H329.864H335.516H341.168H346.819H352.471H358.122H363.774H369.426H375.077H380.844H386.496H392.147H397.799H403.451H409.102H414.754H420.405H426.057H431.709H437.36V255.476H431.709Z" fill="#D7EDFF"/>
<path d="M233.672 244.172H228.02V249.824H233.672V244.172Z" fill="#ECF7FB"/>
<path d="M216.717 244.172H211.065V249.824H216.717V244.172Z" fill="#ECF7FB"/>
<path d="M414.754 238.52V244.171H420.406H426.057V238.52H420.406H414.754Z" fill="#ECF7FB"/>
<path d="M267.581 238.52H261.93V244.171H267.581H273.348H279V238.52H273.348H267.581Z" fill="#ECF7FB"/>
<path d="M437.36 232.869H431.709V238.521H437.36V232.869Z" fill="#ECF7FB"/>
<path d="M397.799 232.869V238.521H403.45H409.102V232.869H403.45H397.799Z" fill="#ECF7FB"/>
<path d="M443.012 227.221H437.36V232.872H443.012V227.221Z" fill="#ECF7FB"/>
<path d="M346.819 227.221H341.167V232.872H346.819V227.221Z" fill="#ECF7FB"/>
<path d="M312.909 227.221V232.872H318.561H324.213V227.221H318.561H312.909Z" fill="#ECF7FB"/>
<path d="M448.664 221.451H443.012V227.103H448.664V221.451Z" fill="#ECF7FB"/>
<path d="M358.122 221.451H352.471V227.103H358.122V221.451Z" fill="#ECF7FB"/>
<path d="M312.909 221.451H307.258V227.103H312.909V221.451Z" fill="#ECF7FB"/>
<path d="M301.606 221.451H295.955V227.103H301.606V221.451Z" fill="#ECF7FB"/>
<path d="M216.717 227.218V232.87H222.368V227.218V221.451H216.717V227.218Z" fill="#ECF7FB"/>
<path d="M369.425 215.799H363.774V221.45H369.425V215.799Z" fill="#ECF7FB"/>
<path d="M216.717 204.497V198.846H211.065V204.497V210.149H216.717V204.497Z" fill="#ECF7FB"/>
<path d="M443.012 198.846H437.36V204.497H443.012V198.846Z" fill="#ECF7FB"/>
<path d="M431.709 193.193H426.057H420.406H414.754V198.845H420.406H426.057H431.709V193.193Z" fill="#ECF7FB"/>
<path d="M431.708 181.889H426.057V187.54H431.708V181.889Z" fill="#ECF7FB"/>
<path d="M228.02 181.89V176.238H222.369V181.89V187.542H228.02V181.89Z" fill="#ECF7FB"/>
<path d="M273.348 181.889V176.238V170.586H267.581V176.238H261.93V181.889H267.581H273.348Z" fill="#ECF7FB"/>
<path d="M431.708 153.633H426.057V159.284H431.708V153.633Z" fill="#ECF7FB"/>
<path d="M426.057 147.979H420.405V153.63H426.057V147.979Z" fill="#ECF7FB"/>
<path d="M420.406 142.328H414.754V147.98H420.406V142.328Z" fill="#ECF7FB"/>
<path d="M369.425 142.328H363.774V147.98H369.425V142.328Z" fill="#ECF7FB"/>
<path d="M273.348 142.331V136.68H267.581V142.331V147.983H273.348V142.331Z" fill="#ECF7FB"/>
<path d="M414.754 136.68H409.102V142.331H414.754V136.68Z" fill="#ECF7FB"/>
<path d="M380.729 136.68H375.077V142.331H380.729V136.68Z" fill="#ECF7FB"/>
<path d="M352.471 142.331V147.983V153.634H358.122V147.983V142.331V136.68H352.471V142.331Z" fill="#ECF7FB"/>
<path d="M352.471 125.375H346.819V131.027H352.471V125.375Z" fill="#ECF7FB"/>
<path d="M279 125.375H273.348V131.027H279V125.375Z" fill="#ECF7FB"/>
<path d="M346.819 113.955H341.167V119.607H346.819V113.955Z" fill="#ECF7FB"/>
<path d="M284.651 113.955H279V119.607H284.651V113.955Z" fill="#ECF7FB"/>
<path d="M341.167 108.305H335.516V113.956H341.167V108.305Z" fill="#ECF7FB"/>
<path d="M290.303 108.305H284.651V113.956H290.303V108.305Z" fill="#ECF7FB"/>
<path d="M335.516 102.654H329.864V108.306H335.516V102.654Z" fill="#ECF7FB"/>
<path d="M295.955 102.654H290.303V108.306H295.955V102.654Z" fill="#ECF7FB"/>
<path d="M324.213 97H318.561V102.652H324.213V97Z" fill="#ECF7FB"/>
<path d="M216.717 244.172V249.824H211.065V255.475H216.717H222.368H228.02V249.824V244.172H222.368H216.717Z" fill="white"/>
<path d="M443.012 204.496H437.36V198.844H431.708H426.057H420.405H414.754V193.193H420.405V187.541H426.057V181.889H431.708V176.238V170.586V164.935V159.283H426.057V153.631H420.405V147.98H414.754V142.328H409.102V136.677H403.45H397.799H392.147H386.496H380.844V142.328H375.077H369.425V147.98H363.774V153.631H358.122H352.471V147.98V142.328V136.677V131.025H346.819V125.373V119.722H341.167V113.955H335.516V108.303H329.864V102.652H324.213H318.561V97H312.909H307.258V102.652H301.606H295.955V108.303H290.303V113.955H284.651V119.722H279V125.373V131.025H273.348V136.677V142.328V147.98H267.581V153.631V159.283V164.935V170.586H273.348V176.238V181.889H267.581H261.93V176.238V170.586H256.278H250.626H244.975H239.323H233.672H228.02V176.238V181.889V187.541H222.368H216.717V193.193V198.844V204.496V210.147H211.065V215.799V221.451H216.717H222.368V227.218V232.869V238.521H228.02V244.172H233.672H239.323H244.975V238.521H250.626H256.278H261.93H267.581H273.348H279H284.651H290.303H295.955V232.869V227.218V221.451H301.606H307.258H312.909V227.218H318.561H324.213V232.869H329.864H335.516H341.167V227.218H346.819H352.471V221.451H358.122H363.774V215.799H369.425V221.451V227.218H375.077V232.869H380.844V238.521H386.496H392.147H397.799V232.869H403.45H409.102V238.521H414.754H420.405H426.057H431.708V232.869H437.36V227.218H443.012V221.451H448.663V215.799V210.147V204.496H443.012Z" fill="white"/>
<path d="M420.406 187.541H414.754V193.193H420.406V187.541Z" fill="#D7EDFF"/>
<path d="M420.406 181.889H414.754V187.54H420.406V181.889Z" fill="#D7EDFF"/>
<path d="M426.057 181.889H420.405V187.54H426.057V181.889Z" fill="#D7EDFF"/>
<path d="M431.708 176.238H426.057V181.89H431.708V176.238Z" fill="#D7EDFF"/>
<path d="M426.057 176.238H420.405V181.89H426.057V176.238Z" fill="#D7EDFF"/>
<path d="M431.708 170.586H426.057V176.238H431.708V170.586Z" fill="#D7EDFF"/>
<path d="M414.754 187.541H409.102V193.193H414.754V187.541Z" fill="#D7EDFF"/>
<path d="M414.754 181.889H409.102V187.54H414.754V181.889Z" fill="#D7EDFF"/>
<path d="M414.754 193.193H409.102V198.845H414.754V193.193Z" fill="#D7EDFF"/>
<path d="M420.406 193.193H414.754V198.845H420.406V193.193Z" fill="#D7EDFF"/>
<path d="M414.754 198.846H409.102V204.497H414.754V198.846Z" fill="#D7EDFF"/>
<path d="M414.754 204.037H409.102V209.689H414.754V204.037Z" fill="#ECF7FB"/>
<path d="M392.148 181.889H386.496V187.54H392.148V181.889Z" fill="#ECF7FB"/>
<path d="M386.496 187.541H380.844V193.193H386.496V187.541Z" fill="#ECF7FB"/>
<path d="M409.333 198.613H403.681V204.265H409.333V198.613Z" fill="#ECF7FB"/>
<path d="M420.406 198.846H414.754V204.497H420.406V198.846Z" fill="#D7EDFF"/>
<path d="M420.406 204.037H414.754V209.689H420.406V204.037Z" fill="#D7EDFF"/>
<path d="M426.057 204.037H420.405V209.689H426.057V204.037Z" fill="#D7EDFF"/>
<path d="M409.102 193.193H403.451V198.845H409.102V193.193Z" fill="#D7EDFF"/>
<path d="M409.102 187.541H403.451V193.193H409.102V187.541Z" fill="#D7EDFF"/>
<path d="M403.45 187.541H397.799V193.193H403.45V187.541Z" fill="#D7EDFF"/>
<path d="M273.233 176.238H267.581V181.89H273.233V176.238Z" fill="#D7EDFF"/>
<path d="M279 176.238H273.348V181.89H279V176.238Z" fill="#D7EDFF"/>
<path d="M273.233 181.889H267.581V187.54H273.233V181.889Z" fill="#D7EDFF"/>
<path d="M273.233 187.541H267.581V193.193H273.233V187.541Z" fill="#D7EDFF"/>
<path d="M222.369 221.451H216.717V227.103H222.369V221.451Z" fill="#D7EDFF"/>
<path d="M222.369 227.221H216.717V232.872H222.369V227.221Z" fill="#D7EDFF"/>
<path d="M228.02 227.221H222.369V232.872H228.02V227.221Z" fill="#D7EDFF"/>
<path d="M233.672 232.869H228.02V238.521H233.672V232.869Z" fill="#D7EDFF"/>
<path d="M228.02 232.869H222.369V238.521H228.02V232.869Z" fill="#D7EDFF"/>
<path d="M228.02 221.451H222.369V227.103H228.02V221.451Z" fill="#D7EDFF"/>
<path d="M216.717 215.799H211.065V221.45H216.717V215.799Z" fill="#D7EDFF"/>
<path d="M222.369 215.799H216.717V221.45H222.369V215.799Z" fill="#D7EDFF"/>
<path d="M233.672 227.221H228.02V232.872H233.672V227.221Z" fill="#D7EDFF"/>
<path d="M233.672 221.451H228.02V227.103H233.672V221.451Z" fill="#D7EDFF"/>
<path d="M239.324 227.221H233.672V232.872H239.324V227.221Z" fill="#D7EDFF"/>
<path d="M244.975 227.221H239.323V232.872H244.975V227.221Z" fill="#D7EDFF"/>
<path d="M307.258 215.799H301.606V221.45H307.258V215.799Z" fill="#D7EDFF"/>
<path d="M307.258 210.146H301.606V215.798H307.258V210.146Z" fill="#D7EDFF"/>
<path d="M295.955 232.869H290.303V238.521H295.955V232.869Z" fill="#D7EDFF"/>
<path d="M312.91 204.494H307.258V210.146H312.91V204.494Z" fill="#D7EDFF"/>
<path d="M312.91 210.146H307.258V215.798H312.91V210.146Z" fill="#ECF7FB"/>
<path d="M279 181.889H273.348V187.54H279V181.889Z" fill="#D7EDFF"/>
<path d="M279 187.541H273.348V193.193H279V187.541Z" fill="#D7EDFF"/>
<path d="M279 193.193H273.348V198.845H279V193.193Z" fill="#ECF7FB"/>
<path d="M284.652 181.889H279V187.54H284.652V181.889Z" fill="#D7EDFF"/>
<path d="M284.652 187.541H279V193.193H284.652V187.541Z" fill="#D7EDFF"/>
<path d="M290.303 187.541H284.651V193.193H290.303V187.541Z" fill="#ECF7FB"/>
<path d="M284.652 193.193H279V198.845H284.652V193.193Z" fill="#D7EDFF"/>
<path d="M290.303 193.193H284.651V198.845H290.303V193.193Z" fill="#D7EDFF"/>
<path d="M267.581 176.238H261.93V181.89H267.581V176.238Z" fill="#D7EDFF"/>
<path d="M267.581 181.889H261.93V187.54H267.581V181.889Z" fill="#D7EDFF"/>
<path d="M261.93 170.586H256.278V176.238H261.93V170.586Z" fill="#D7EDFF"/>
<path d="M261.93 176.238H256.278V181.89H261.93V176.238Z" fill="#D7EDFF"/>
<path d="M403.45 193.193H397.799V198.845H403.45V193.193Z" fill="#D7EDFF"/>
<path d="M397.799 187.541H392.147V193.193H397.799V187.541Z" fill="#D7EDFF"/>
<path d="M392.148 187.541H386.496V193.193H392.148V187.541Z" fill="#D7EDFF"/>
<path d="M386.496 181.889H380.844V187.54H386.496V181.889Z" fill="#D7EDFF"/>
<path d="M380.729 181.889H375.077V187.54H380.729V181.889Z" fill="#D7EDFF"/>
<path d="M363.774 153.633H358.122V159.284H363.774V153.633Z" fill="#D7EDFF"/>
<path d="M358.122 153.633H352.471V159.284H358.122V153.633Z" fill="#D7EDFF"/>
<path d="M363.774 159.281H358.122V164.933H363.774V159.281Z" fill="#D7EDFF"/>
<path d="M363.774 164.934H358.122V170.585H363.774V164.934Z" fill="#D7EDFF"/>
<path d="M538.957 268.572V264.808H535.193V268.572H531.43V272.336H527.666H523.902V268.572H520.139H516.375V264.808H512.535H508.771H505.007H501.244H497.48V261.045H493.716V257.281H489.953H486.189V261.045H482.426H478.662V264.808H474.898H471.135V268.572H467.371H463.607H459.844H456.08H452.317H448.553V264.808H444.712H440.949V261.045V257.281H437.185V253.518H433.422V257.281H429.658V261.045H425.894H422.131V264.808H418.367V268.572H414.603H410.84H407.076H403.313H399.549V272.336V276.099H403.313V279.863H407.076H410.84H414.603H418.367H422.131H425.894H429.658H433.422H437.185H440.949H444.712H448.553H452.317H456.08H459.844H463.607H467.371H471.135H474.898H478.662H482.426H486.189H489.953H493.716H497.48H501.244H505.007H508.771H512.535H516.375H520.139H523.902H527.666H531.43H535.193H538.957H542.72V276.099V272.336V268.572H538.957Z" fill="#D7EDFF"/>
<path d="M531.43 264.81V261.047H527.666V257.283H523.902V261.047H520.139V257.283V253.52H516.375H512.535V249.756H508.771V245.992V242.152V238.388V234.625H512.535V230.861V227.097H508.771V223.334V219.57H505.007V215.806H501.244V212.043V208.279H497.48H493.716V204.516H489.953H486.189V200.752H482.426H478.662H474.898V204.516H471.135H467.371H463.607V208.279H459.844V212.043H456.08H452.317V215.806H448.553V219.57H444.712V223.334H440.949V227.097V230.861V234.625H437.185V238.388V242.152H433.422H429.658V238.388H425.894V234.625H422.131H418.367V238.388H414.603H410.84V242.152H407.076V245.992H403.313V249.756V253.52H399.549V257.283V261.047V264.81H403.313V268.574H407.076H410.84H414.603V264.81H418.367V261.047H422.131H425.894V257.283H429.658V253.52H433.422H437.185V257.283H440.949H444.712V261.047H448.553V264.81H452.317V268.574H456.08H459.844H463.607V264.81H467.371H471.135H474.898V261.047H478.662V257.283H482.426H486.189H489.953H493.716H497.48H501.244V261.047H505.007V264.81H508.771V261.047H512.535H516.375V264.81V268.574H520.139H523.902H527.666H531.43H535.193V264.81H531.43Z" fill="white"/>
<path d="M531.43 257.283H527.666V261.047H531.43V257.283Z" fill="#ECF7FB"/>
<path d="M523.902 257.283H520.139V261.047H523.902V257.283Z" fill="#ECF7FB"/>
<path d="M523.902 268.574V272.338H527.666H531.43V268.574H527.666H523.902Z" fill="#ECF7FB"/>
<path d="M463.607 264.811V268.574H467.371H471.135V264.811H467.371H463.607Z" fill="#ECF7FB"/>
<path d="M452.317 264.811H448.553V268.574H452.317V264.811Z" fill="#ECF7FB"/>
<path d="M418.367 264.811H414.604V268.574H418.367V264.811Z" fill="#ECF7FB"/>
<path d="M535.193 261.047H531.43V264.811H535.193V261.047Z" fill="#ECF7FB"/>
<path d="M508.771 261.047V264.811H512.535H516.375V261.047H512.535H508.771Z" fill="#ECF7FB"/>
<path d="M478.662 261.047H474.898V264.811H478.662V261.047Z" fill="#ECF7FB"/>
<path d="M444.713 261.047V257.283H440.949V261.047V264.81H444.713H448.553V261.047H444.713Z" fill="#ECF7FB"/>
<path d="M422.131 261.047H418.367V264.811H422.131V261.047Z" fill="#ECF7FB"/>
<path d="M501.244 257.283H497.48H493.717V261.047H497.48V264.81H501.244H505.007V261.047H501.244V257.283Z" fill="#ECF7FB"/>
<path d="M478.662 257.283V261.047H482.426H486.189V257.283H482.426H478.662Z" fill="#ECF7FB"/>
<path d="M429.658 257.283H425.895V261.047H429.658V257.283Z" fill="#ECF7FB"/>
<path d="M433.422 253.518H429.658V257.281H433.422V253.518Z" fill="#ECF7FB"/>
<path d="M395.785 257.281V261.045V264.808V268.572H399.549H403.313V264.808H399.549V261.045V257.281V253.518H395.785V257.281Z" fill="#ECF7FB"/>
<path d="M520.139 249.756H516.375H512.535V253.519H516.375H520.139V249.756Z" fill="#ECF7FB"/>
<path d="M403.313 249.756H399.549V253.519H403.313V249.756Z" fill="#ECF7FB"/>
<path d="M410.84 238.389H407.076V242.152H410.84V238.389Z" fill="#ECF7FB"/>
<path d="M512.535 234.625H508.771V238.389H512.535V234.625Z" fill="#ECF7FB"/>
<path d="M433.422 238.389H429.658V242.152H433.422H437.185V238.389V234.625H433.422V238.389Z" fill="#ECF7FB"/>
<path d="M429.658 234.625H425.895V238.389H429.658V234.625Z" fill="#ECF7FB"/>
<path d="M418.367 234.625H414.604V238.389H418.367V234.625Z" fill="#ECF7FB"/>
<path d="M440.949 230.861V227.098H437.185V230.861V234.625H440.949V230.861Z" fill="#ECF7FB"/>
<path d="M508.771 215.807H505.007V219.57H508.771V215.807Z" fill="#ECF7FB"/>
<path d="M448.476 215.807H444.712V219.57H448.476V215.807Z" fill="#ECF7FB"/>
<path d="M505.008 212.043H501.244V215.807H505.008V212.043Z" fill="#ECF7FB"/>
<path d="M452.317 212.043H448.553V215.807H452.317V212.043Z" fill="#ECF7FB"/>
<path d="M459.844 208.279H456.08V212.043H459.844V208.279Z" fill="#ECF7FB"/>
<path d="M497.48 204.516H493.717V208.279H497.48V204.516Z" fill="#ECF7FB"/>
<path d="M493.717 200.752H489.953H486.189V204.516H489.953H493.717V200.752Z" fill="#ECF7FB"/>
<path d="M474.898 200.752H471.135H467.371V204.516H471.135H474.898V200.752Z" fill="#ECF7FB"/>
<path d="M437.185 249.758H433.422V253.521H437.185V249.758Z" fill="#D7EDFF"/>
<path d="M433.422 245.994H429.658V249.758H433.422V245.994Z" fill="#D7EDFF"/>
<path d="M433.422 249.758H429.658V253.521H433.422V249.758Z" fill="#D7EDFF"/>
<path d="M433.422 242.152H429.658V245.916H433.422V242.152Z" fill="#D7EDFF"/>
<path d="M508.771 238.389H505.007V242.152H508.771V238.389Z" fill="#D7EDFF"/>
<path d="M508.771 242.152H505.007V245.916H508.771V242.152Z" fill="#D7EDFF"/>
<path d="M505.007 238.389H501.244V242.152H505.007V238.389Z" fill="#D7EDFF"/>
<path d="M508.771 234.625H505.007V238.389H508.771V234.625Z" fill="#D7EDFF"/>
<path d="M512.535 230.861H508.771V234.625H512.535V230.861Z" fill="#D7EDFF"/>
<path d="M508.771 230.861H505.007V234.625H508.771V230.861Z" fill="#D7EDFF"/>
<path d="M505.007 230.861H501.244V234.625H505.007V230.861Z" fill="#D7EDFF"/>
<path d="M505.007 234.625H501.244V238.389H505.007V234.625Z" fill="#D7EDFF"/>
<path d="M501.243 234.625H497.48V238.389H501.243V234.625Z" fill="#D7EDFF"/>
<path d="M497.48 238.389H493.717V242.152H497.48V238.389Z" fill="#D7EDFF"/>
<path d="M493.717 238.389H489.953V242.152H493.717V238.389Z" fill="#D7EDFF"/>
<path d="M493.717 242.152H489.953V245.916H493.717V242.152Z" fill="#D7EDFF"/>
<path d="M489.953 238.389H486.189V242.152H489.953V238.389Z" fill="#D7EDFF"/>
<path d="M486.189 238.389H482.426V242.152H486.189V238.389Z" fill="#ECF7FB"/>
<path d="M489.953 242.152H486.189V245.916H489.953V242.152Z" fill="#ECF7FB"/>
<path d="M486.189 234.625H482.426V238.389H486.189V234.625Z" fill="#D7EDFF"/>
<path d="M482.426 234.625H478.662V238.389H482.426V234.625Z" fill="#D7EDFF"/>
<path d="M501.243 238.389H497.48V242.152H501.243V238.389Z" fill="#D7EDFF"/>
<path d="M512.535 227.098H508.771V230.861H512.535V227.098Z" fill="#D7EDFF"/>
<path d="M508.771 227.098H505.007V230.861H508.771V227.098Z" fill="#D7EDFF"/>
<path d="M429.658 238.389H425.894V242.152H429.658V238.389Z" fill="#D7EDFF"/>
<path d="M274.394 272.459H268.614H262.834H257.055V266.679H251.275H245.495V272.459H239.715V266.679H233.935H228.155H222.375H216.596H210.816H205.036H199.138H193.358V260.899H187.578V255.119H181.798V260.899V266.679H176.019H170.239H164.459H158.679H152.899V272.459H147.119H141.339V278.239H147.119H152.899H158.679H164.459H170.239H176.019H181.798H187.578H193.358H199.138H205.036H210.816H216.596H222.375H228.155H233.935H239.715H245.495H251.275H257.055H262.834H268.614H274.394H280.174V272.459H274.394Z" fill="#D7EDFF"/>
<path d="M124 272.457V278.237H129.78H135.559V272.457H129.78H124Z" fill="#D7EDFF"/>
<path d="M268.614 266.68H262.834V272.46H268.614H274.394V266.68H268.614Z" fill="white"/>
<path d="M135.559 266.68H129.78V272.46H135.559H141.339H147.119V266.68H141.339H135.559Z" fill="white"/>
<path d="M262.834 255.119H257.055V249.34H251.275H245.495H239.715V255.119H233.935H228.155V249.34V243.56V237.78H222.375H216.596V232H210.816V237.78H205.036V243.56H199.138H193.358V249.34H187.578V243.56H181.798V237.78H176.019V232H170.239H164.459V237.78H158.679V243.56H152.899V249.34H147.119V255.119H141.339V260.899H147.119V266.679H152.899H158.679H164.459H170.239H176.019V260.899H181.798V255.119H187.578H193.358V260.899V266.679H199.138H205.036H210.816H216.596H222.375V260.899H228.155V266.679H233.935H239.715V260.899H245.495V266.679H251.275H257.055H262.834V260.899V255.119Z" fill="white"/>
<path d="M147.119 260.9H141.34V266.68H147.119V260.9Z" fill="#ECF7FB"/>
<path d="M141.34 272.459H135.56V278.239H141.34V272.459Z" fill="#ECF7FB"/>
<path d="M280.174 266.68H274.394V272.46H280.174V266.68Z" fill="#ECF7FB"/>
<path d="M262.834 266.68H257.054V272.46H262.834V266.68Z" fill="#ECF7FB"/>
<path d="M152.899 266.68H147.119V272.46H152.899V266.68Z" fill="#ECF7FB"/>
<path d="M129.78 266.68H124V272.46H129.78V266.68Z" fill="#ECF7FB"/>
<path d="M239.715 266.68V272.46H245.495V266.68V260.9H239.715V266.68Z" fill="#ECF7FB"/>
<path d="M228.155 260.9H222.375V266.68H228.155V260.9Z" fill="#ECF7FB"/>
<path d="M181.798 260.9H176.019V266.68H181.798V260.9Z" fill="#ECF7FB"/>
<path d="M193.358 255.119H187.578V260.899H193.358V255.119Z" fill="#ECF7FB"/>
<path d="M262.834 249.338H257.054V255.118H262.834V249.338Z" fill="#ECF7FB"/>
<path d="M239.715 249.338H233.935V255.118H239.715V249.338Z" fill="#ECF7FB"/>
<path d="M204.918 237.781H199.138V243.561H204.918V237.781Z" fill="#ECF7FB"/>
<path d="M187.578 237.781H181.798V243.561H187.578V237.781Z" fill="#ECF7FB"/>
<path d="M222.375 232H216.596V237.78H222.375V232Z" fill="#ECF7FB"/>
<path d="M210.815 232H205.036V237.78H210.815V232Z" fill="#ECF7FB"/>
<path d="M181.798 232H176.019V237.78H181.798V232Z" fill="#ECF7FB"/>
<path d="M164.459 232H158.679V237.78H164.459V232Z" fill="#ECF7FB"/>
<mask id="mask0_5001_168630" style="mask-type:alpha" maskUnits="userSpaceOnUse" x="296" y="280" width="28" height="29">
<ellipse cx="310" cy="294.5" rx="14" ry="14.5" fill="#D9D9D9"/>
</mask>
<g mask="url(#mask0_5001_168630)">
<path d="M302.687 291.859C301.607 289.979 301.757 287.731 302.888 286.061L305.147 289.982L307.701 289.52L309.41 287.532L307.152 283.611C309.166 283.499 311.19 284.487 312.27 286.367C313.783 289.013 312.884 292.383 310.238 293.896C307.565 295.426 304.2 294.505 302.687 291.859Z" fill="#455A64"/>
<path d="M319.617 315.172L323.873 312.727L310.507 289.464L306.252 291.909L319.617 315.172Z" fill="#455A64"/>
<path d="M316.94 307.616L318.692 306.609L313.183 297.019L311.43 298.026L316.94 307.616Z" fill="#37474F"/>
</g>
<path d="M625.198 175.495H621.397H617.596H613.795V179.296H609.993H606.192V175.495H602.391V171.694H598.512V175.495H594.711H590.91H587.108H583.307V171.694H579.506V167.893H575.705H571.903V171.694H568.102H564.301V175.495H560.5H556.698H552.897H549.096H545.295H541.493H537.692H533.891H530.09H526.211V171.694H522.41H518.608V167.893H514.807V171.694V175.495H511.006H507.205H503.403V179.296H499.602V183.098H503.403H507.205H511.006H514.807H518.608H522.41H526.211H530.09H533.891H537.692H541.493H545.295H549.096H552.897H556.698H560.5H564.301H568.102H571.903H575.705H579.506H583.307H587.108H590.91H594.711H598.512H602.391H606.192H609.993H613.795H617.596H621.397H625.198H629V179.296V175.495H625.198Z" fill="#D7EDFF"/>
<path d="M499.602 175.496H495.801V179.297H499.602V175.496Z" fill="#D7EDFF"/>
<path d="M613.795 167.891H609.994H606.193V171.692H602.391V175.493H606.193H609.994H613.795H617.596V171.692V167.891H613.795Z" fill="white"/>
<path d="M594.711 160.289H590.91H587.109V164.09H583.308H579.506V167.892H583.308V171.693V175.494H587.109H590.91H594.711V171.693V167.892H598.513V164.09H594.711V160.289Z" fill="white"/>
<path d="M583.308 160.289V156.488V152.686V148.885V145.084H579.506V141.283V137.481H575.705V133.68H571.904V129.879H568.103V126H564.301H560.5H556.699V129.879H552.898H549.096H545.295H541.494V133.68H537.693V137.481H533.891V141.283H530.09H526.211V145.084V148.885V152.686V156.488H522.41V160.289H518.609V156.488H514.807V152.686H511.006H507.205H503.404V156.488H499.602V160.289H495.801V164.09V167.891H492V171.693V175.494H495.801H499.602H503.404H507.205H511.006V171.693H514.807V167.891H518.609H522.41V171.693H526.211V175.494H530.09H533.891H537.693H541.494H545.295H549.096H552.898H556.699H560.5V171.693H564.301H568.103V167.891H571.904V164.09H575.705H579.506V160.289H583.308Z" fill="white"/>
<path d="M606.193 175.494V179.295H609.994H613.795V175.494H609.994H606.193Z" fill="#ECF7FB"/>
<path d="M503.404 175.494H499.602V179.295H503.404V175.494Z" fill="#ECF7FB"/>
<path d="M621.397 171.693H617.596V175.495H621.397V171.693Z" fill="#ECF7FB"/>
<path d="M564.301 171.693H560.5V175.495H564.301V171.693Z" fill="#ECF7FB"/>
<path d="M514.807 171.693H511.006V175.495H514.807V171.693Z" fill="#ECF7FB"/>
<path d="M594.711 171.692V175.493H598.512V171.692V167.891H594.711V171.692Z" fill="#ECF7FB"/>
<path d="M583.307 167.891H579.506V171.692H583.307V167.891Z" fill="#ECF7FB"/>
<path d="M571.904 167.891H568.102V171.692H571.904V167.891Z" fill="#ECF7FB"/>
<path d="M522.41 167.891H518.609V171.692H522.41V167.891Z" fill="#ECF7FB"/>
<path d="M571.904 164.09V167.891H575.705H579.506V164.09H575.705H571.904Z" fill="#ECF7FB"/>
<path d="M583.307 160.289H579.506V164.09H583.307V160.289Z" fill="#ECF7FB"/>
<path d="M522.41 156.488H518.609V160.29H522.41V156.488Z" fill="#ECF7FB"/>
<path d="M499.602 156.488H495.801V160.29H499.602V156.488Z" fill="#ECF7FB"/>
<path d="M526.211 152.686H522.41V156.487H526.211V152.686Z" fill="#ECF7FB"/>
<path d="M518.609 152.686H514.807V156.487H518.609V152.686Z" fill="#ECF7FB"/>
<path d="M503.404 152.686H499.602V156.487H503.404V152.686Z" fill="#ECF7FB"/>
<path d="M579.506 141.284V145.085H583.307V141.284V137.482H579.506V141.284Z" fill="#ECF7FB"/>
<path d="M533.891 137.482H530.09V141.284H533.891V137.482Z" fill="#ECF7FB"/>
<path d="M579.506 133.68H575.705V137.481H579.506V133.68Z" fill="#ECF7FB"/>
<path d="M537.693 133.68H533.891V137.481H537.693V133.68Z" fill="#ECF7FB"/>
<path d="M575.705 129.879H571.904V133.68H575.705V129.879Z" fill="#ECF7FB"/>
<path d="M541.494 129.879H537.693V133.68H541.494V129.879Z" fill="#ECF7FB"/>
<path d="M549.096 126V129.879H552.897H556.699V126H552.897H549.096Z" fill="#ECF7FB"/>
<path d="M522.41 156.488H518.609V160.29H522.41V156.488Z" fill="#D7EDFF"/>
<path d="M522.41 160.289H518.609V164.09H522.41V160.289Z" fill="#D7EDFF"/>
<path d="M583.308 156.488H579.506V160.29H583.308V156.488Z" fill="#D7EDFF"/>
<path d="M579.506 160.289H575.705V164.09H579.506V160.289Z" fill="#D7EDFF"/>
<path d="M575.705 160.289H571.904V164.09H575.705V160.289Z" fill="#D7EDFF"/>
<path d="M571.904 160.289H568.103V164.09H571.904V160.289Z" fill="#D7EDFF"/>
<path d="M571.904 164.09H568.103V167.891H571.904V164.09Z" fill="#D7EDFF"/>
<path d="M564.301 156.488H560.5V160.29H564.301V156.488Z" fill="#D7EDFF"/>
<path d="M564.301 160.289H560.5V164.09H564.301V160.289Z" fill="#ECF7FB"/>
<path d="M560.5 156.488H556.699V160.29H560.5V156.488Z" fill="#D7EDFF"/>
<path d="M560.5 152.686H556.699V156.487H560.5V152.686Z" fill="#D7EDFF"/>
<path d="M560.5 148.885H556.699V152.686H560.5V148.885Z" fill="#D7EDFF"/>
<path d="M556.699 148.885H552.897V152.686H556.699V148.885Z" fill="#ECF7FB"/>
<path d="M560.5 145.084H556.699V148.885H560.5V145.084Z" fill="#ECF7FB"/>
<path d="M568.103 160.289H564.301V164.09H568.103V160.289Z" fill="#D7EDFF"/>
<path d="M518.609 164.09H514.807V167.891H518.609V164.09Z" fill="#D7EDFF"/>
<path d="M499.603 171.693H495.801V175.495H499.603V171.693Z" fill="#D7EDFF"/>
<path d="M147.5 170.3V165.4H142.6H137.7H132.8H127.9H123H118.1V160.5H113.2V165.4H108.2V170.3H103.3H98.4V165.4H93.5V170.3H88.6H83.7V165.4H78.8V170.3H73.9V175.2H69V180.1H73.9H78.8H83.7H88.6H93.5H98.4H103.3H108.2H113.2H118.1H123H127.9H132.8H137.7H142.6H147.5H152.4V175.2V170.3H147.5Z" fill="#D7EDFF"/>
<path d="M147.5 145.8V140.9H142.6V136H137.7H132.8H127.9H123V140.9V145.8H118.1H113.2V150.7H108.2H103.3V145.8H98.4V140.9H93.5V136H88.6001H83.7V140.9H78.8V145.8V150.7V155.6V160.5H83.7V165.4H88.6001H93.5H98.4H103.3H108.2H113.2V160.5H118.1H123V165.4H127.9H132.8H137.7V160.5H142.6V155.6V150.7H147.5H152.4V145.8H147.5Z" fill="white"/>
<path d="M98.4 165.4V170.3H103.3H108.2V165.4H103.3H98.4Z" fill="#ECF7FB"/>
<path d="M83.7001 165.4V170.3H88.6001H93.5001V165.4H88.6001H83.7001Z" fill="#ECF7FB"/>
<path d="M142.6 160.5H137.7V165.4H142.6V160.5Z" fill="#ECF7FB"/>
<path d="M123 160.5H118.1V165.4H123V160.5Z" fill="#ECF7FB"/>
<path d="M83.7 160.5H78.8V165.4H83.7V160.5Z" fill="#ECF7FB"/>
<path d="M78.8 150.699H73.9V155.599H78.8V150.699Z" fill="#ECF7FB"/>
<path d="M147.5 150.699H142.6V155.599H147.5V150.699Z" fill="#ECF7FB"/>
<path d="M108.2 145.801H103.3V150.701H108.2V145.801Z" fill="#ECF7FB"/>
<path d="M123 140.9H118.1V145.8H123V140.9Z" fill="#ECF7FB"/>
<path d="M103.3 140.9H98.4V145.8H103.3V140.9Z" fill="#ECF7FB"/>
<path d="M147.5 136H142.6V140.9H147.5V136Z" fill="#ECF7FB"/>
<path d="M98.4 136H93.5V140.9H98.4V136Z" fill="#ECF7FB"/>
<path d="M83.7 136H78.8V140.9H83.7V136Z" fill="#ECF7FB"/>
<path d="M216.7 575.5H179.4L179.9 573.9L180.7 571.3L184 560L186.9 549.8L188.8 543.1L191.7 532.9L193.3 527.3C194.9 522.9 201.2 522.9 202.9 527.3L203.5 529.5L204.5 532.9L207.4 543.1L209.3 549.8L212.2 560L213.4 564.3L216.7 575.5Z" fill="#E34545"/>
<path d="M218 585.201H169L176.8 565.801H225.8L218 585.201Z" fill="#E34545"/>
<path d="M207.3 543.001H188.7L191.7 532.801H204.4L207.3 543.001Z" fill="#EBEBEB"/>
<path d="M212.2 559.899H183.9L186.8 549.699H209.3L212.2 559.899Z" fill="#EBEBEB"/>
<path d="M178.9 572.9C181.9 574.3 185.1 575.2 188.3 575.8C191.5 576.4 194.8 576.6 198.1 576.5C199.7 576.4 201.4 576.4 203 576.1C203.8 576 204.6 575.9 205.4 575.8C206.2 575.6 207 575.5 207.8 575.4C208.2 575.3 208.6 575.3 209 575.2L210.2 574.9L212.6 574.3C214.2 573.9 215.8 573.3 217.4 572.9C215.9 573.6 214.4 574.3 212.8 575L210.4 575.8L209.2 576.2C208.8 576.3 208.4 576.4 208 576.5C207.2 576.7 206.4 576.9 205.5 577.1C204.7 577.3 203.8 577.4 203 577.5C201.3 577.8 199.6 577.8 198 578C194.6 578 191.2 577.7 187.9 576.9C184.8 576 181.6 574.8 178.9 572.9Z" fill="#263238"/>
<path opacity="0.1" d="M180.2 573.5C180.2 573.5 182.4 574 184.4 574.9C189.9 577.4 200.6 578.2 212.3 574.7C213.3 574.4 215 574 215.9 573.4L215.4 571.2C215.4 571.2 191.2 564.2 192.6 529.4L191.6 532.8L188.7 543L186.8 549.7L183.9 559.9L180.2 573.5Z" fill="black"/>
<path d="M359.1 589.4L364.7 551.1L366.3 551.8L368.9 553L380.1 558L390.1 562.5L396.7 565.5L406.7 570L412.2 572.5C416.5 574.8 415.6 581.3 410.8 582.3L408.5 582.6L404.9 583.1L393.9 584.7L386.7 585.7L375.8 587.2L371.2 587.8L359.1 589.4Z" fill="#E34545"/>
<path opacity="0.1" d="M366.6 552.199C366.6 552.199 365.8 554.399 364.6 556.299C361.2 561.599 358.7 572.399 360.6 584.999C360.8 586.099 360.9 587.899 361.4 588.899L363.7 588.699C363.7 588.699 374.6 564.899 410.1 571.499L406.7 569.999L396.7 565.499L390.1 562.499L380.1 557.999L366.6 552.199Z" fill="black"/>
<path d="M393.9 584.7L396.6 565.6L406.7 570.1L404.7 583.2L393.9 584.7Z" fill="#EBEBEB"/>
<path d="M375.8 587.2L380 558.1L390.1 562.6L386.7 585.7L375.8 587.2Z" fill="#EBEBEB"/>
<path d="M349 589.4L356.3 539L375 549.9L367.7 600.3L349 589.4Z" fill="#E34545"/>
<path d="M367.6 570.801C366.6 580.101 363.2 587.401 360.1 587.001C357 586.701 355.3 578.801 356.4 569.501C357.4 560.201 360.8 552.901 363.9 553.301C367 553.601 368.6 561.501 367.6 570.801Z" fill="#263238"/>
<defs>
<filter id="filter0_f_5001_168630" x="-477.239" y="-939.239" width="1953.48" height="1953.48" filterUnits="userSpaceOnUse" color-interpolation-filters="sRGB">
<feFlood flood-opacity="0" result="BackgroundImageFix"/>
<feBlend mode="normal" in="SourceGraphic" in2="BackgroundImageFix" result="shape"/>
<feGaussianBlur stdDeviation="308.12" result="effect1_foregroundBlur_5001_168630"/>
</filter>
<linearGradient id="paint0_linear_5001_168630" x1="500.86" y1="-513.082" x2="1059.92" y2="387.975" gradientUnits="userSpaceOnUse">
<stop stop-color="#5164D8"/>
<stop offset="1" stop-color="#0824B6"/>
</linearGradient>
</defs>
</svg>
