<svg width="20" height="20" viewBox="0 0 20 20" fill="none" xmlns="http://www.w3.org/2000/svg">
<g clip-path="url(#clip0_2053_46667)">
<path d="M19.9998 7.61914H19.0498V12.3816H19.9998V7.61914Z" fill="white"/>
<path d="M19.0496 12.3809H18.0996V14.2871H19.0496V12.3809Z" fill="white"/>
<path d="M19.0496 5.71875H18.0996V7.61875H19.0496V5.71875Z" fill="white"/>
<path d="M18.0998 14.2871H17.1436V16.1934H18.0998V14.2871Z" fill="white"/>
<path d="M18.0998 3.8125H17.1436V5.71875H18.0998V3.8125Z" fill="white"/>
<path d="M17.1434 16.1934H16.1934V17.1434H17.1434V16.1934Z" fill="white"/>
<path d="M17.1434 2.8623H16.1934V3.8123H17.1434V2.8623Z" fill="white"/>
<path d="M16.1934 17.1436H14.2871V18.0998H16.1934V17.1436Z" fill="white"/>
<path d="M16.1934 1.90625H14.2871V2.8625H16.1934V1.90625Z" fill="white"/>
<path d="M14.2871 18.0996H12.3809V19.0496H14.2871V18.0996Z" fill="white"/>
<path d="M14.2871 0.956055H12.3809V1.90605H14.2871V0.956055Z" fill="white"/>
<path d="M12.3812 19.0498H7.625V19.9998H12.3812V19.0498Z" fill="white"/>
<path d="M12.3812 0H7.625V0.95625H12.3812V0Z" fill="white"/>
<path d="M7.625 18.0996H5.71875V19.0496H7.625V18.0996Z" fill="white"/>
<path d="M7.625 0.956055H5.71875V1.90605H7.625V0.956055Z" fill="white"/>
<path d="M5.71875 17.1436H3.8125V18.0998H5.71875V17.1436Z" fill="white"/>
<path d="M5.71875 1.90625H3.8125V2.8625H5.71875V1.90625Z" fill="white"/>
<path d="M3.8123 16.1934H2.8623V17.1434H3.8123V16.1934Z" fill="white"/>
<path d="M3.8123 2.8623H2.8623V3.8123H3.8123V2.8623Z" fill="white"/>
<path d="M2.8625 14.2871H1.90625V16.1934H2.8625V14.2871Z" fill="white"/>
<path d="M2.8625 3.8125H1.90625V5.71875H2.8625V3.8125Z" fill="white"/>
<path d="M1.90605 12.3809H0.956055V14.2871H1.90605V12.3809Z" fill="white"/>
<path d="M1.90605 5.71875H0.956055V7.61875H1.90605V5.71875Z" fill="white"/>
<path d="M0.95625 7.61914H0V12.3816H0.95625V7.61914Z" fill="white"/>
<path d="M4.73926 10.9383H5.67445V11.8735H6.60964V12.8087H7.55099V13.75H9.42137V12.8087H10.3627V11.8735H11.2979V10.9383H12.2393V9.99692H13.1744V9.06173H14.1096V8.12654H15.051V7.18519H14.1096V6.25H13.1744V7.18519H12.2393V8.12654H11.2979V9.06173H10.3627V9.99692H9.42137V10.9383H7.55099V9.99692H6.60964V9.06173H5.67445V9.99692H4.73926V10.9383Z" fill="white"/>
</g>
<defs>
<clipPath id="clip0_2053_46667">
<rect width="20" height="20" fill="white"/>
</clipPath>
</defs>
</svg>
