<svg width="53" height="52" viewBox="0 0 53 52" fill="none" xmlns="http://www.w3.org/2000/svg">
<path d="M50.03 14.8525H47.5438V9.89625H45.0737V7.42625H42.5875V4.95625H37.6475V2.47H32.6912V0H20.3088V2.47H15.3525V4.95625H10.3962V7.42625H7.92625V9.89625H5.45625V14.8525H2.97V19.8088H0.5V32.1912H2.97V37.1475H5.45625V42.0875H7.92625V44.5737H10.3962V47.0438H15.3525V49.53H20.3088V52H32.6912V49.53H37.6475V47.0438H42.5875V44.5737H45.0737V42.0875H47.5438V37.1475H50.03V32.1912H52.5V19.8088H50.03V14.8525Z" fill="#CDDFFD"/>
<path d="M39.2717 26.6908V32.2505C39.3462 32.893 39.2744 33.5441 39.0617 34.155C38.8491 34.7658 38.501 35.3207 38.0436 35.7781C37.5862 36.2355 37.0314 36.5835 36.4205 36.7962C35.8096 37.0089 35.1586 37.0806 34.516 37.0062H19.2979C18.6553 37.0806 18.0043 37.0089 17.3934 36.7962C16.7825 36.5835 16.2276 36.2355 15.7703 35.7781C15.3129 35.3207 14.9648 34.7658 14.7522 34.155C14.5395 33.5441 14.4677 32.893 14.5422 32.2505V26.6908C14.5406 26.0475 14.67 25.4106 14.9227 24.819L17.4349 18.9638C18.069 17.4813 18.6701 16.0812 21.8076 16.0812C22.0599 16.0812 22.3018 16.1814 22.4802 16.3598C22.6585 16.5382 22.7587 16.7801 22.7587 17.0323C22.7587 17.2846 22.6585 17.5265 22.4802 17.7049C22.3018 17.8833 22.0599 17.9835 21.8076 17.9835C19.9244 17.9835 19.7531 18.3842 19.1837 19.7133L16.7996 25.2755H20.509C21.2618 25.2934 21.9965 25.5095 22.6391 25.9021C23.2817 26.2946 23.8094 26.8497 24.1689 27.5113C24.4482 27.9897 24.848 28.3865 25.3284 28.6623C25.8087 28.9382 26.353 29.0833 26.9069 29.0833C27.4609 29.0833 28.0051 28.9382 28.4855 28.6623C28.9659 28.3865 29.3657 27.9897 29.6449 27.5113C30.0045 26.8497 30.5322 26.2946 31.1748 25.9021C31.8174 25.5095 32.5521 25.2934 33.3049 25.2755H37.0143L34.6302 19.7133C34.0607 18.3842 33.8895 17.9835 32.0063 17.9835C31.754 17.9835 31.5121 17.8833 31.3337 17.7049C31.1554 17.5265 31.0552 17.2846 31.0552 17.0323C31.0552 16.7801 31.1554 16.5382 31.3337 16.3598C31.5121 16.1814 31.754 16.0812 32.0063 16.0812C35.1438 16.0812 35.7436 17.4762 36.379 18.9638L38.8874 24.8177C39.1412 25.4095 39.272 26.0468 39.2717 26.6908ZM25.0427 15.1681L25.9558 14.2563V22.1051C25.9558 22.3573 26.056 22.5992 26.2344 22.7776C26.4128 22.956 26.6547 23.0562 26.9069 23.0562C27.1592 23.0562 27.4011 22.956 27.5795 22.7776C27.7579 22.5992 27.8581 22.3573 27.8581 22.1051V14.2563L28.7712 15.1681C28.9515 15.3361 29.1899 15.4276 29.4364 15.4233C29.6828 15.4189 29.9179 15.3191 30.0921 15.1448C30.2664 14.9706 30.3662 14.7355 30.3706 14.489C30.3749 14.2426 30.2834 14.0042 30.1154 13.8239L27.5791 11.2875C27.49 11.1999 27.385 11.1301 27.2696 11.0821C27.0366 10.9857 26.7748 10.9857 26.5417 11.0821C26.4264 11.1301 26.3213 11.1999 26.2323 11.2875L23.6959 13.8239C23.5279 14.0042 23.4364 14.2426 23.4408 14.489C23.4451 14.7355 23.545 14.9706 23.7192 15.1448C23.8935 15.3191 24.1286 15.4189 24.375 15.4233C24.6214 15.4276 24.8599 15.3361 25.0402 15.1681H25.0427Z" fill="#055DF5"/>
</svg>
