<svg width="20" height="20" viewBox="0 0 20 20" fill="none" xmlns="http://www.w3.org/2000/svg">
<path fill-rule="evenodd" clip-rule="evenodd" d="M14.9995 1.66602H13.3328V3.33268H14.9995V1.66602ZM3.33268 3.33269H8.33268V4.99936H3.33268V16.666H14.9994V11.666H16.6661V18.3327L16.666 18.3327H1.66602V16.666V4.99936V3.33269H3.33268ZM6.66617 9.99931H4.9995V13.3327V14.9993V14.9994H9.9995V13.3327L11.666 13.3327V11.666H9.99935V13.3327L6.66617 13.3327V9.99931ZM9.9994 8.3327H8.33278V9.9993H6.66612V8.33263H8.33273V6.66603H9.99935V4.99936H11.666V6.66603H9.9994V8.3327ZM11.6662 3.33269H13.3329V4.99936H11.6662V3.33269ZM14.9994 3.33269H16.6661V4.99936H18.3327V6.66603H16.6661V8.3327H14.9995V9.9993H13.3328V8.33263H14.9994V6.66603H16.666V4.99936H14.9994V3.33269ZM11.6662 9.99931H13.3329V11.666H11.6662V9.99931Z" fill="currentColor"/>
</svg>
