<svg width="34" height="34" viewBox="0 0 34 34" fill="none" xmlns="http://www.w3.org/2000/svg">
<path d="M34 17C34 7.61116 26.3888 0 17 0C7.61116 0 0 7.61116 0 17C0 26.3888 7.61116 34 17 34C26.3888 34 34 26.3888 34 17Z" fill="#E34545"/>
<path fill-rule="evenodd" clip-rule="evenodd" d="M14.4646 17.5934V9.44112C14.4646 8.07261 15.5843 6.95312 16.9526 6.95312C18.3212 6.95312 19.4406 8.07261 19.4406 9.44112V17.5934C19.4406 18.9617 18.3212 20.0812 16.9526 20.0812C15.5843 20.0812 14.4646 18.9617 14.4646 17.5934ZM14.2954 24.3412C14.2954 22.8476 15.5065 21.6363 17.0003 21.6363C18.4939 21.6363 19.7052 22.8476 19.7052 24.3412C19.7052 25.8347 18.4939 27.046 17.0003 27.046C15.5065 27.046 14.2954 25.8347 14.2954 24.3412Z" fill="white"/>
</svg>
