<svg width="30" height="30" viewBox="0 0 30 30" fill="none" xmlns="http://www.w3.org/2000/svg">
<g clip-path="url(#clip0_6037_76899)">
<path d="M30.0008 4.28516H28.5664V11.4289H30.0008V4.28516Z" fill="white"/>
<path d="M28.5617 11.4287H27.1367V12.8537H28.5617V11.4287Z" fill="white"/>
<path d="M28.5617 2.85938H27.1367V4.28438H28.5617V2.85938Z" fill="white"/>
<path d="M25.7156 25.7162V21.4318H28.5656V19.9975H27.1406V18.5725H25.7156V17.1475H24.2812V18.5725H22.8562V19.9975H21.4219V21.4318H24.2812V25.7162H25.7156Z" fill="white"/>
<path d="M27.1398 12.8535H25.7148V14.2879H27.1398V12.8535Z" fill="white"/>
<path d="M27.1398 1.4248H25.7148V2.85918H27.1398V1.4248Z" fill="white"/>
<path d="M25.7156 8.56836H24.2812V10.0027H25.7156V8.56836Z" fill="white"/>
<path d="M24.2805 25.7148H22.8555V27.1398H24.2805V25.7148Z" fill="white"/>
<path d="M25.7141 14.2871H18.5703V15.7121H25.7141V14.2871Z" fill="white"/>
<path d="M24.2844 7.14355H20V8.56856H24.2844V7.14355Z" fill="white"/>
<path d="M20 10.002V11.427H21.425V12.852H22.8594V11.427H24.2844V10.002H20Z" fill="white"/>
<path d="M24.2844 5.71875V4.28438H22.8594V2.85938H21.425V4.28438H20V5.71875H24.2844Z" fill="white"/>
<path d="M22.8555 27.1406H17.1367V28.575H22.8555V27.1406Z" fill="white"/>
<path d="M25.7141 0H18.5703V1.425H25.7141V0Z" fill="white"/>
<path d="M19.9953 5.71777H18.5703V7.14277H19.9953V5.71777Z" fill="white"/>
<path d="M18.5711 12.8535H17.1367V14.2879H18.5711V12.8535Z" fill="white"/>
<path d="M18.5711 1.4248H17.1367V2.85918H18.5711V1.4248Z" fill="white"/>
<path d="M17.1359 11.4287H15.7109V12.8537H17.1359V11.4287Z" fill="white"/>
<path d="M17.1359 2.85938H15.7109V4.28438H17.1359V2.85938Z" fill="white"/>
<path d="M15.7102 18.5723H14.2852V25.716H15.7102V18.5723Z" fill="white"/>
<path d="M15.7102 4.28516H14.2852V11.4289H15.7102V4.28516Z" fill="white"/>
<path d="M14.2859 25.7148H12.8516V27.1398H14.2859V25.7148Z" fill="white"/>
<path d="M14.2859 17.1475H12.8516V18.5725H14.2859V17.1475Z" fill="white"/>
<path d="M12.8547 27.1406H11.4297V28.575H12.8547V27.1406Z" fill="white"/>
<path d="M12.8547 15.7129H11.4297V17.1473H12.8547V15.7129Z" fill="white"/>
<path d="M11.4289 28.5762H4.28516V30.0012H11.4289V28.5762Z" fill="white"/>
<path d="M12.85 1.4248H7.14062V2.85918H12.85V1.4248Z" fill="white"/>
<path d="M9.99062 25.7148H7.14062V27.1398H9.99062V25.7148Z" fill="white"/>
<path d="M9.99062 17.1475H7.14062V18.5725H9.99062V17.1475Z" fill="white"/>
<path d="M5.71094 25.716H7.14531V24.291H8.57031V22.8566H5.71094V21.4316H9.99531V19.9973H7.14531V18.5723H5.71094V19.9973H2.85156V21.4316H4.28594V22.8566H2.85156V24.291H5.71094V25.716Z" fill="white"/>
<path d="M11.4289 14.2871H4.28516V15.7121H11.4289V14.2871Z" fill="white"/>
<path d="M7.14141 2.85938H5.70703V4.28438H7.14141V2.85938Z" fill="white"/>
<path d="M4.28594 27.1406H2.85156V28.575H4.28594V27.1406Z" fill="white"/>
<path d="M4.28594 15.7129H2.85156V17.1473H4.28594V15.7129Z" fill="white"/>
<path d="M2.85078 11.4289H4.28516V12.8539H5.71016V11.4289H7.14453V10.0039H8.56953V8.56953H5.71016V4.28516H4.28516V8.56953H1.42578V10.0039H2.85078V11.4289Z" fill="white"/>
<path d="M2.85078 25.7158H1.42578V27.1408H2.85078V25.7158Z" fill="white"/>
<path d="M2.85078 17.1475H1.42578V18.5725H2.85078V17.1475Z" fill="white"/>
<path d="M1.425 18.5723H0V25.716H1.425V18.5723Z" fill="white"/>
</g>
<defs>
<clipPath id="clip0_6037_76899">
<rect width="30" height="30" fill="white"/>
</clipPath>
</defs>
</svg>
