<svg width="20" height="20" viewBox="0 0 20 20" fill="none" xmlns="http://www.w3.org/2000/svg">
<path fill-rule="evenodd" clip-rule="evenodd" d="M6.66667 5H13.3333V6.66667H6.66667V5ZM3.33333 8.33333V6.66667H6.66667V8.33333H3.33333ZM1.66667 10V8.33333H3.33333V10H1.66667ZM1.66667 11.6667V10L0 10V11.6667H1.66667ZM3.33333 13.3333H1.66667V11.6667H3.33333V13.3333ZM6.66667 15L3.33333 15V13.3333H6.66667V15ZM13.3333 15V16.6667H6.66667V15H13.3333ZM16.6667 13.3333V15L13.3333 15V13.3333H16.6667ZM18.3333 11.6667V13.3333H16.6667V11.6667H18.3333ZM18.3333 10L20 10V11.6667H18.3333V10ZM16.6667 8.33333H18.3333V10H16.6667V8.33333ZM16.6667 8.33333V6.66667H13.3333V8.33333H16.6667ZM8.33333 9.16667H11.6667V12.5H8.33333V9.16667Z" fill="#0A0E20"/>
</svg>
