<svg width="17" height="18" viewBox="0 0 17 18" fill="none" xmlns="http://www.w3.org/2000/svg">
<g clip-path="url(#clip0_3556_166403)">
<path d="M16.1903 2.92773H15.3828V6.97586H16.1903V2.92773Z" fill="#6C6E79"/>
<path d="M15.3856 6.97559H14.5781V7.78309H15.3856V6.97559Z" fill="#6C6E79"/>
<path d="M15.3856 2.12012H14.5781V2.92762H15.3856V2.12012Z" fill="#6C6E79"/>
<path d="M14.5784 7.7832H13.7656V8.59602H14.5784V7.7832Z" fill="#6C6E79"/>
<path d="M13.7606 8.59668H12.9531V9.40418H13.7606V8.59668Z" fill="#6C6E79"/>
<path d="M12.9616 2.12012H4.05781V2.92762H2.4375V4.54793H4.05781V5.35543H5.67281V6.16824H11.3412V5.35543H12.9616V4.54793H14.5819V2.92762H12.9616V2.12012Z" fill="#6C6E79"/>
<path d="M14.5734 1.30762H12.9531V2.12043H14.5734V1.30762Z" fill="#6C6E79"/>
<path d="M12.9534 9.40332H12.1406V10.2161H12.9534V9.40332Z" fill="#6C6E79"/>
<path d="M12.1434 10.2168H11.3359V11.0243H12.1434V10.2168Z" fill="#6C6E79"/>
<path d="M11.3387 11.0244H10.5312V11.8319H11.3387V11.0244Z" fill="#6C6E79"/>
<path d="M10.5316 11.832H9.71875V15.8802H10.5316V11.832Z" fill="#6C6E79"/>
<path d="M9.71375 15.8799H8.90625V16.6927H9.71375V15.8799Z" fill="#6C6E79"/>
<path d="M8.90937 16.6924H7.28906V17.4999H8.90937V16.6924Z" fill="#6C6E79"/>
<path d="M7.29188 11.832H6.48438V16.693H7.29188V11.832Z" fill="#6C6E79"/>
<path d="M6.48469 11.0244H5.67188V11.8319H6.48469V11.0244Z" fill="#6C6E79"/>
<path d="M5.66687 10.2168H4.85938V11.0243H5.66687V10.2168Z" fill="#6C6E79"/>
<path d="M12.9584 0.5H4.05469V1.3075H12.9584V0.5Z" fill="#6C6E79"/>
<path d="M4.86219 9.40332H4.05469V10.2161H4.86219V9.40332Z" fill="#6C6E79"/>
<path d="M4.055 8.59668H3.24219V9.40418H4.055V8.59668Z" fill="#6C6E79"/>
<path d="M4.05781 1.30762H2.4375V2.12043H4.05781V1.30762Z" fill="#6C6E79"/>
<path d="M3.245 7.7832H2.4375V8.59602H3.245V7.7832Z" fill="#6C6E79"/>
<path d="M2.4325 6.97559H1.625V7.78309H2.4325V6.97559Z" fill="#6C6E79"/>
<path d="M2.4325 2.12012H1.625V2.92762H2.4325V2.12012Z" fill="#6C6E79"/>
<path d="M1.62531 2.92773H0.8125V6.97586H1.62531V2.92773Z" fill="#6C6E79"/>
</g>
<defs>
<clipPath id="clip0_3556_166403">
<rect width="17" height="17" fill="white" transform="translate(0 0.5)"/>
</clipPath>
</defs>
</svg>
