<svg width="350" height="219" viewBox="0 0 350 219" fill="none" xmlns="http://www.w3.org/2000/svg">
<path d="M-451.491 85.8672C-462.767 72.8428 -472.522 61.6208 -492 61.6208V255.757H418.448V61.5867C399.012 61.5867 389.289 72.7581 378.036 85.6864L377.908 85.8332L377.889 85.8547C366.429 99.0439 353.411 114.024 327.391 114.024C300.406 114.024 288.149 88.3157 276.304 63.4571L276.289 63.4267C265.747 41.3321 254.853 18.5008 236.302 18.5008C218.017 18.5008 206.557 48.1849 196.431 74.4146L196.395 74.5091C184.106 106.373 172.482 136.502 145.244 136.502C119.146 136.502 106.129 120.996 94.6638 107.291L94.6461 107.27C83.3467 93.8125 73.5917 82.1945 54.1868 82.1945C35.3917 82.1945 25.0684 100.455 14.1215 119.817L14.0898 119.873L14.0323 119.975C2.14142 140.993 -10.1508 162.721 -36.8391 162.721C-63.6654 162.721 -75.9543 139.495 -87.8313 116.983C-98.3148 97.1233 -109.178 76.5835 -127.865 76.5835C-147.945 76.5835 -157.668 84.575 -168.944 93.8587C-180.441 103.312 -193.49 114.024 -218.922 114.024C-246.066 114.024 -257.721 85.7652 -270.041 55.8397L-270.066 55.7796C-280.163 31.2758 -291.593 3.53809 -309.948 3.53809C-328.318 3.53809 -339.752 31.3212 -349.855 55.8737C-362.176 85.7992 -373.831 114.058 -400.974 114.058C-427.009 114.058 -440.026 99.0956 -451.491 85.8672Z" fill="url(#paint0_linear_3266_132313)"/>
<path d="M-492 59.799C-472.522 59.799 -462.767 70.9662 -451.491 83.927C-440.026 97.0908 -427.009 111.98 -400.974 111.98C-373.831 111.98 -362.176 83.8593 -349.855 54.08C-339.752 29.6474 -328.318 2 -309.948 2C-291.578 2 -280.145 29.6474 -270.041 54.0461C-257.721 83.8255 -246.066 111.947 -218.922 111.947C-193.49 111.947 -180.441 101.287 -168.944 91.8794C-157.668 82.6411 -147.945 74.6886 -127.865 74.6886C-109.178 74.6886 -98.3148 95.1281 -87.8313 114.891C-75.9542 137.293 -63.6654 160.406 -36.8391 160.406C-10.1077 160.406 2.18104 138.714 14.0898 117.767C25.0484 98.4782 35.3735 80.2722 54.1868 80.2722C73.6018 80.2722 83.3568 91.8456 94.6638 105.246C106.129 118.884 119.146 134.315 145.244 134.315C172.482 134.315 184.106 104.333 196.395 72.6244C206.53 46.4998 217.995 16.8897 236.302 16.8897C254.862 16.8897 265.757 39.6302 276.304 61.6263C288.149 86.3635 300.406 111.947 327.391 111.947C353.426 111.947 366.443 97.0231 377.908 83.8932C389.215 70.9662 398.938 59.7651 418.449 59.7651" stroke="#D4D9E1" stroke-width="3"/>
<g opacity="0.16" filter="url(#filter0_f_3266_132313)">
<path d="M-492 82.8673C-472.522 82.8673 -462.767 94.0346 -451.491 106.995C-440.026 120.159 -427.009 135.049 -400.974 135.049C-373.831 135.049 -362.176 106.928 -349.855 77.1483C-339.752 52.7158 -328.318 25.0684 -309.948 25.0684C-291.578 25.0684 -280.145 52.7158 -270.041 77.1145C-257.721 106.894 -246.066 135.015 -218.922 135.015C-193.49 135.015 -180.441 124.355 -168.944 114.948C-157.668 105.709 -147.945 97.757 -127.865 97.757C-109.178 97.757 -98.3148 118.196 -87.8313 137.959C-75.9542 160.361 -63.6654 183.474 -36.8391 183.474C-10.1077 183.474 2.18104 161.783 14.0898 140.835C25.0484 121.547 35.3735 103.341 54.1868 103.341C73.6018 103.341 83.3568 114.914 94.6638 128.315C106.129 141.952 119.146 157.383 145.244 157.383C172.482 157.383 184.106 127.401 196.395 95.6927C206.53 69.5682 217.995 39.958 236.302 39.958C254.862 39.958 265.757 62.6986 276.304 84.6947C288.149 109.432 300.406 135.015 327.391 135.015C353.426 135.015 366.443 120.091 377.908 106.962C389.215 94.0346 398.938 82.8335 418.449 82.8335" stroke="#D4D9E1" stroke-width="3"/>
</g>
<defs>
<filter id="filter0_f_3266_132313" x="-502" y="13.5684" width="930.445" height="181.405" filterUnits="userSpaceOnUse" color-interpolation-filters="sRGB">
<feFlood flood-opacity="0" result="BackgroundImageFix"/>
<feBlend mode="normal" in="SourceGraphic" in2="BackgroundImageFix" result="shape"/>
<feGaussianBlur stdDeviation="5" result="effect1_foregroundBlur_3266_132313"/>
</filter>
<linearGradient id="paint0_linear_3266_132313" x1="-36.7758" y1="3.53809" x2="-36.7758" y2="255.757" gradientUnits="userSpaceOnUse">
<stop stop-color="#E4E4E4"/>
<stop offset="1" stop-color="white" stop-opacity="0"/>
</linearGradient>
</defs>
</svg>
