<svg width="165" height="152" viewBox="0 0 165 152" fill="none" xmlns="http://www.w3.org/2000/svg">
<path d="M71.1128 5.23235C71.0216 4.68764 70.5057 4.31936 69.9623 4.41792C55.2096 7.09362 41.6185 14.1927 30.9942 24.7722C30.6029 25.1619 30.6104 25.7957 31.0054 26.1818L33.7624 28.8766C34.1573 29.2626 34.7901 29.2547 35.1819 28.8654C44.9376 19.1734 57.4012 12.6632 70.9294 10.1934C71.4727 10.0942 71.8407 9.5794 71.7495 9.0347L71.1128 5.23235Z" fill="url(#paint0_linear_2152_61646)"/>
<path d="M95.8331 5.34248C95.9291 4.7986 95.5661 4.27917 95.021 4.19052C87.9674 3.04344 80.7848 2.92521 73.6973 3.83951C73.1496 3.91017 72.7697 4.41738 72.8477 4.96412L73.3927 8.78069C73.4707 9.32743 73.9772 9.7066 74.525 9.63658C80.9994 8.80902 87.5593 8.91701 94.0029 9.9572C94.5482 10.0452 95.0668 9.68292 95.1628 9.13905L95.8331 5.34248Z" fill="url(#paint1_linear_2152_61646)"/>
<path d="M29.6893 27.5647C29.2844 27.1891 28.651 27.2126 28.281 27.6226C19.7847 37.036 13.8488 48.4816 11.0519 60.8615C8.2549 73.2413 8.6936 86.1271 12.3176 98.2789C12.4755 98.8082 13.0372 99.1016 13.5643 98.9366L17.179 97.8051C17.7061 97.6402 17.9989 97.0793 17.8416 96.5498C14.5219 85.3715 14.125 73.5221 16.6973 62.1369C19.2695 50.7518 24.722 40.2239 32.5251 31.5585C32.8946 31.1481 32.8714 30.5158 32.4665 30.1403L29.6893 27.5647Z" fill="url(#paint2_linear_2152_61646)"/>
<path d="M14.0626 100.489C13.5394 100.665 13.2578 101.233 13.4416 101.754C17.6465 113.671 24.8385 124.316 34.3365 132.669C44.0851 141.241 55.9191 147.095 68.6484 149.642C81.3776 152.189 94.5532 151.34 106.85 147.178C119.146 143.017 130.13 135.691 138.696 125.937C147.263 116.183 153.109 104.345 155.648 91.614C158.187 78.8831 157.329 65.7081 153.16 53.4143C148.991 41.1204 141.657 30.1413 131.898 21.5811C122.389 13.2409 110.904 7.48367 98.5442 4.85255C98.0041 4.73755 97.4774 5.09006 97.3697 5.63175L96.6463 9.27106C96.5386 9.81275 96.8907 10.3384 97.4308 10.454C108.807 12.8892 119.378 18.1953 128.132 25.8742C137.138 33.7731 143.905 43.9041 147.752 55.2483C151.599 66.5925 152.391 78.7497 150.048 90.4971C147.705 102.245 142.31 113.168 134.406 122.168C126.501 131.169 116.366 137.929 105.019 141.769C93.6725 145.609 81.5147 146.393 69.7688 144.043C58.0229 141.693 47.103 136.291 38.1075 128.38C29.3625 120.69 22.7361 110.893 18.8524 99.9266C18.6681 99.406 18.1013 99.1247 17.5781 99.3015L14.0626 100.489Z" fill="url(#paint3_linear_2152_61646)"/>
<defs>
<linearGradient id="paint0_linear_2152_61646" x1="110.45" y1="-32.3978" x2="177.531" y2="174.441" gradientUnits="userSpaceOnUse">
<stop stop-color="#5164D8"/>
<stop offset="1" stop-color="#0824B6"/>
</linearGradient>
<linearGradient id="paint1_linear_2152_61646" x1="162.286" y1="19.9705" x2="109.766" y2="218.099" gradientUnits="userSpaceOnUse">
<stop stop-color="#F0AD78"/>
<stop offset="1" stop-color="#DD8464"/>
</linearGradient>
<linearGradient id="paint2_linear_2152_61646" x1="18.4136" y1="112.39" x2="-29.2207" y2="84.8946" gradientUnits="userSpaceOnUse">
<stop stop-color="#914FEA"/>
<stop offset="1" stop-color="#3B2EC6"/>
</linearGradient>
<linearGradient id="paint3_linear_2152_61646" x1="218.007" y1="101.425" x2="42.8603" y2="184.985" gradientUnits="userSpaceOnUse">
<stop stop-color="#57D3BF"/>
<stop offset="1" stop-color="#0FA7BA"/>
</linearGradient>
</defs>
</svg>
