<svg width="20" height="20" viewBox="0 0 20 20" fill="none" xmlns="http://www.w3.org/2000/svg">
<g clip-path="url(#clip0_1844_22036)">
<path d="M19.05 5.7125H18.0938V3.80625H17.1437V2.85625H16.1875V1.90625H14.2875V0.95H12.3812V0H7.61875V0.95H5.7125V1.90625H3.80625V2.85625H2.85625V3.80625H1.90625V5.7125H0.95V7.61875H0V12.3812H0.95V14.2875H1.90625V16.1875H2.85625V17.1437H3.80625V18.0938H5.7125V19.05H7.61875V20H12.3812V19.05H14.2875V18.0938H16.1875V17.1437H17.1437V16.1875H18.0938V14.2875H19.05V12.3812H20V7.61875H19.05V5.7125ZM12.3812 16.1875H11.4313V17.1437H8.56875V16.1875H7.61875V13.3313H8.56875V12.3812H11.4313V13.3313H12.3812V16.1875ZM15.2375 7.61875H14.2875V8.56875H13.3313V9.525H12.3812V10.475H11.4313V11.4313H8.56875V9.525H9.525V8.56875H10.475V7.61875H11.4313V5.7125H10.475V4.7625H8.56875V5.7125H7.61875V7.61875H4.7625V4.7625H5.7125V3.80625H6.66875V2.85625H7.61875V1.90625H12.3812V2.85625H13.3313V3.80625H14.2875V4.7625H15.2375V7.61875Z" fill="white"/>
</g>
<defs>
<clipPath id="clip0_1844_22036">
<rect width="20" height="20" fill="white"/>
</clipPath>
</defs>
</svg>
