<svg width="26" height="26" viewBox="0 0 26 26" fill="none" xmlns="http://www.w3.org/2000/svg">
<g clip-path="url(#clip0_1916_31034)">
<path d="M24.7567 11.7651H23.5217V10.522H21.0436V4.33887H19.8086V19.1914H21.0436V22.9045H22.2867V20.4264H23.5217V19.1914H24.7567V17.9564H25.9998V13.0001H24.7567V11.7651ZM22.2867 17.9564H21.0436V11.7651H22.2867V17.9564Z" fill="white"/>
<path d="M21.0452 22.9043H17.332V24.1474H21.0452V22.9043Z" fill="white"/>
<path d="M19.8095 3.0957H18.5664V4.33883H19.8095V3.0957Z" fill="white"/>
<path d="M18.567 1.86035H17.332V3.09535H18.567V1.86035Z" fill="white"/>
<path d="M17.3295 0.617188H8.66016V1.86031H17.3295V0.617188Z" fill="white"/>
<path d="M17.3303 24.1475H13.6172V25.3825H17.3303V24.1475Z" fill="white"/>
<path d="M17.3303 21.6689H13.6172V22.9039H17.3303V21.6689Z" fill="white"/>
<path d="M13.6178 22.9043H12.3828V24.1474H13.6178V22.9043Z" fill="white"/>
<path d="M8.66078 1.86035H7.42578V3.09535H8.66078V1.86035Z" fill="white"/>
<path d="M7.42641 3.0957H6.19141V4.33883H7.42641V3.0957Z" fill="white"/>
<path d="M4.94812 10.522H2.47812V11.7651H1.235V13.0001H0V17.9564H1.235V19.1914H2.47812V20.4264H4.94812V19.1914H6.19125V4.33887H4.94812V10.522ZM4.94812 17.9564H3.71313V11.7651H4.94812V17.9564Z" fill="white"/>
</g>
<defs>
<clipPath id="clip0_1916_31034">
<rect width="26" height="26" fill="white"/>
</clipPath>
</defs>
</svg>
