<svg width="24" height="24" viewBox="0 0 24 24" fill="none" xmlns="http://www.w3.org/2000/svg">
<g clip-path="url(#clip0_6014_82389)">
<path d="M22.8526 11.43H12.5701V1.14H14.8576V0H9.14258V1.14H11.4301V12.57H10.2826V13.7175H12.5701V14.8575H13.7101V15.9975H14.8576V17.145H15.9976V18.285H17.1376V19.425H18.2851V20.5725H17.1376V21.7125H19.4251V20.5725H20.5726V19.425H21.7126V17.145H22.8526V14.8575H24.0001V9.1425H22.8526V11.43Z" fill="#E6EFFE"/>
<path d="M22.8524 6.85547H21.7124V9.14297H22.8524V6.85547Z" fill="#E6EFFE"/>
<path d="M21.7125 4.5752H20.5725V6.8552H21.7125V4.5752Z" fill="#E6EFFE"/>
<path d="M20.5725 9.14258H19.425V10.2826H20.5725V9.14258Z" fill="#E6EFFE"/>
<path d="M20.5725 3.42773H19.425V4.57523H20.5725V3.42773Z" fill="#E6EFFE"/>
<path d="M19.4249 6.85547H18.2849V8.00297H19.4249V6.85547Z" fill="#E6EFFE"/>
<path d="M19.425 2.28711H17.1375V3.42711H19.425V2.28711Z" fill="#E6EFFE"/>
<path d="M17.1376 9.14258H15.9976V10.2826H17.1376V9.14258Z" fill="#E6EFFE"/>
<path d="M17.1376 4.5752H15.9976V5.7152H17.1376V4.5752Z" fill="#E6EFFE"/>
<path d="M15.9974 20.5723H14.8574V22.8598H17.1374V21.7123H15.9974V20.5723Z" fill="#E6EFFE"/>
<path d="M17.1374 1.13965H14.8574V2.28715H17.1374V1.13965Z" fill="#E6EFFE"/>
<path d="M14.8575 19.4248H13.71V20.5723H14.8575V19.4248Z" fill="#E6EFFE"/>
<path d="M14.8575 6.85547H13.71V8.00297H14.8575V6.85547Z" fill="#E6EFFE"/>
<path d="M14.8575 3.42773H13.71V4.57523H14.8575V3.42773Z" fill="#E6EFFE"/>
<path d="M12.5701 21.7129H11.4301V22.8604H9.14258V24.0004H14.8576V22.8604H12.5701V21.7129Z" fill="#E6EFFE"/>
<path d="M13.7101 18.2852H12.5701V19.4252H13.7101V18.2852Z" fill="#E6EFFE"/>
<path d="M12.5699 17.1445H11.4299V18.2845H12.5699V17.1445Z" fill="#E6EFFE"/>
<path d="M11.43 20.5723H10.2825V21.7123H11.43V20.5723Z" fill="#E6EFFE"/>
<path d="M11.43 15.998H10.2825V17.1455H11.43V15.998Z" fill="#E6EFFE"/>
<path d="M10.2826 19.4248H9.14258V20.5723H10.2826V19.4248Z" fill="#E6EFFE"/>
<path d="M9.14262 14.8578H7.99512V15.9978H10.2826V13.7178H9.14262V14.8578Z" fill="#E6EFFE"/>
<path d="M9.14248 21.7129H6.85498V22.8604H9.14248V21.7129Z" fill="#E6EFFE"/>
<path d="M9.14262 18.2852H7.99512V19.4252H9.14262V18.2852Z" fill="#E6EFFE"/>
<path d="M9.14248 1.13965H6.85498V2.28715H9.14248V1.13965Z" fill="#E6EFFE"/>
<path d="M6.85509 17.1455H5.71509V18.2855H7.99509V15.998H6.85509V17.1455Z" fill="#E6EFFE"/>
<path d="M6.85488 20.5723H4.56738V21.7123H6.85488V20.5723Z" fill="#E6EFFE"/>
<path d="M6.85488 2.28711H4.56738V3.42711H6.85488V2.28711Z" fill="#E6EFFE"/>
<path d="M5.71488 18.2852H4.56738V19.4252H5.71488V18.2852Z" fill="#E6EFFE"/>
<path d="M4.56749 19.4248H3.42749V20.5723H4.56749V19.4248Z" fill="#E6EFFE"/>
<path d="M4.56749 3.42773H3.42749V4.57523H4.56749V3.42773Z" fill="#E6EFFE"/>
<path d="M3.4276 17.1445H2.2876V19.4245H3.4276V17.1445Z" fill="#E6EFFE"/>
<path d="M3.4276 4.5752H2.2876V6.8552H3.4276V4.5752Z" fill="#E6EFFE"/>
<path d="M2.28764 14.8574H1.14014V17.1449H2.28764V14.8574Z" fill="#E6EFFE"/>
<path d="M2.28764 6.85547H1.14014V9.14297H2.28764V6.85547Z" fill="#E6EFFE"/>
<path d="M1.14 9.14258H0V14.8576H1.14V9.14258Z" fill="#E6EFFE"/>
</g>
<defs>
<clipPath id="clip0_6014_82389">
<rect width="24" height="24" fill="white"/>
</clipPath>
</defs>
</svg>
