<svg width="20" height="21" viewBox="0 0 20 21" fill="none" xmlns="http://www.w3.org/2000/svg">
<g clip-path="url(#clip0_6037_5799)">
<path fill-rule="evenodd" clip-rule="evenodd" d="M18.1 0.989258H12.3812V1.94551H13.3375V2.89551H14.2875V3.84551H13.3375V4.80176H11.4312V3.84551H10.4812V2.89551H9.52497V1.94551H7.61872V2.89551H6.66872V3.84551H5.71872V4.80176H4.76247V5.75176H3.81247V6.70176H5.71872V5.75176H6.66872V4.80176H7.61872V3.84551H9.52497V4.80176H10.4812V5.75176H11.4312V6.70176H13.3375V5.75176H14.2875V4.80176H16.1937V5.75176H17.1437V6.70176H18.1V0.989258ZM6.66876 8.60791H7.61876V9.56416H6.66876V8.60791ZM6.66876 10.5145V11.4645H8.57501V9.56445H7.61876V10.5145H6.66876ZM18.1 11.4644H14.2875V12.4204H13.3375V13.3704H14.2875V12.4206H18.1V11.4644ZM19.05 12.4204H18.1V13.3704H19.05V12.4204ZM18.1 14.3269H19.05V13.3706H20V16.2269H19.05V17.1828H18.1V16.2266H19.05V15.2769H18.1V14.3269ZM14.2875 15.2769H18.1V16.2269H14.2875V15.2769ZM14.2875 17.1831H18.1V18.1331H14.2875V17.1831ZM11.4312 15.2767H12.3812V14.3269H11.4312V13.3706H12.3812V14.3267H13.3375V19.0829H12.3812V18.1329H11.4312V17.1829H12.3812V16.2267H11.4313V17.1828H6.66876V16.2267H5.71876V17.1829H6.66876V18.1329H5.71876V19.0829H4.76251V14.3267H5.71876V15.2767H6.66876V16.2266H11.4312V15.2767ZM11.4312 19.0833H6.66878V20.0393H5.71878V19.083H6.66876V18.1333H11.4313V19.083H12.3812V20.0393H11.4312V19.0833ZM11.4313 20.0396H6.66876V20.9896H11.4313V20.0396ZM6.66876 12.4204H11.4313V13.3704H6.66876V12.4204ZM6.66878 13.3706H5.71878V14.3269H6.66878V13.3706ZM1.90625 11.4644H6.66875V12.4206H1.90625V11.4645H0.95625V12.4207H1.90625V13.3706H3.8125V14.3269H1.90625V13.3707H0.95625V14.327H1.90625V15.2769H3.8125V16.2269H1.90625V15.277H0.95625V17.1832H0V9.56445H0.95625V10.5145H1.90625V11.4644ZM1.90625 7.65771H6.66875V8.60771H1.90625V7.65771ZM3.8125 18.1333H1.90625V19.0833H3.8125V18.1333ZM0.956268 17.1831H1.90627V18.1331H0.956268V17.1831ZM1.90627 8.60791H0.956268V9.56416H1.90627V8.60791Z" fill="url(#paint0_linear_6037_5799)"/>
</g>
<defs>
<linearGradient id="paint0_linear_6037_5799" x1="13.283" y1="-7.25329" x2="24.5868" y2="16.4399" gradientUnits="userSpaceOnUse">
<stop stop-color="#57D3BF"/>
<stop offset="1" stop-color="#0FA7BA"/>
</linearGradient>
<clipPath id="clip0_6037_5799">
<rect width="20" height="20" fill="white" transform="translate(0 0.989258)"/>
</clipPath>
</defs>
</svg>
