<svg width="20" height="20" viewBox="0 0 20 20" fill="none" xmlns="http://www.w3.org/2000/svg">
<path fill-rule="evenodd" clip-rule="evenodd" d="M18.1 0H12.3812V0.95625H13.3375V1.90625H14.2875V2.85625H13.3375V3.8125H11.4312V2.85625H10.4812V1.90625H9.52497V0.95625H7.61872V1.90625H6.66872V2.85625H5.71872V3.8125H4.76247V4.7625H3.81247V5.7125H5.71872V4.7625H6.66872V3.8125H7.61872V2.85625H9.52497V3.8125H10.4812V4.7625H11.4312V5.7125H13.3375V4.7625H14.2875V3.8125H16.1937V4.7625H17.1437V5.7125H18.1V0ZM6.66876 7.61865H7.61876V8.5749H6.66876V7.61865ZM6.66876 9.5252V10.4752H8.57501V8.5752H7.61876V9.5252H6.66876ZM18.1 10.4751H14.2875V11.4312H13.3375V12.3812H14.2875V11.4313H18.1V10.4751ZM19.05 11.4312H18.1V12.3812H19.05V11.4312ZM18.1 13.3376H19.05V12.3813H20V15.2376H19.05V16.1936H18.1V15.2373H19.05V14.2876H18.1V13.3376ZM14.2875 14.2876H18.1V15.2376H14.2875V14.2876ZM14.2875 16.1938H18.1V17.1438H14.2875V16.1938ZM11.4312 14.2874H12.3812V13.3376H11.4312V12.3813H12.3812V13.3374H13.3375V18.0937H12.3812V17.1437H11.4312V16.1937H12.3812V15.2374H11.4313V16.1936H6.66876V15.2374H5.71876V16.1937H6.66876V17.1437H5.71876V18.0937H4.76251V13.3374H5.71876V14.2874H6.66876V15.2373H11.4312V14.2874ZM11.4312 18.094H6.66878V19.05H5.71878V18.0938H6.66876V17.144H11.4313V18.0938H12.3812V19.05H11.4312V18.094ZM11.4313 19.0503H6.66876V20.0003H11.4313V19.0503ZM6.66876 11.4312H11.4313V12.3812H6.66876V11.4312ZM6.66878 12.3813H5.71878V13.3376H6.66878V12.3813ZM1.90625 10.4751H6.66875V11.4313H1.90625V10.4752H0.95625V11.4314H1.90625V12.3813H3.8125V13.3376H1.90625V12.3814H0.95625V13.3377H1.90625V14.2876H3.8125V15.2376H1.90625V14.2877H0.95625V16.1939H0V8.5752H0.95625V9.5252H1.90625V10.4751ZM1.90625 6.66846H6.66875V7.61846H1.90625V6.66846ZM3.8125 17.144H1.90625V18.094H3.8125V17.144ZM0.956268 16.1938H1.90627V17.1438H0.956268V16.1938ZM1.90627 7.61865H0.956268V8.5749H1.90627V7.61865Z" fill="url(#paint0_linear_6037_20478)"/>
<defs>
<linearGradient id="paint0_linear_6037_20478" x1="10.0378" y1="-5.2728" x2="25.546" y2="19.722" gradientUnits="userSpaceOnUse">
<stop stop-color="#5164D8"/>
<stop offset="1" stop-color="#0824B6"/>
</linearGradient>
</defs>
</svg>
