<svg width="16" height="16" viewBox="0 0 16 16" fill="none" xmlns="http://www.w3.org/2000/svg">
<path fill-rule="evenodd" clip-rule="evenodd" d="M6.39961 2.39961H4.79961V3.99961H6.39961V2.39961ZM8.79961 4.79961H7.19961V6.39961H8.79961V4.79961ZM8.79961 7.19961H7.19961V11.1996H8.79961V7.19961ZM11.1996 2.39961H9.59961V3.99961H11.1996V2.39961ZM6.39961 11.9996H4.79961V13.5996H6.39961V11.9996ZM3.99961 4.79961H2.39961V6.39961H3.99961V4.79961ZM12.7996 3.19961H11.1996V4.79961H12.7996V3.19961ZM13.5996 4.79961H11.9996V6.39961H13.5996V4.79961ZM4.79961 11.1996H3.19961V12.7996H4.79961V11.1996ZM3.99961 9.59961H2.39961V11.1996H3.99961V9.59961ZM12.7996 11.1996H11.1996V12.7996H12.7996V11.1996ZM11.1996 11.9996H9.59961V13.5996H11.1996V11.9996ZM13.5996 9.59961H11.9996V11.1996H13.5996V9.59961ZM3.19961 6.39961H1.59961V9.59961H3.19961V6.39961ZM14.3996 6.39961H12.7996V9.59961H14.3996V6.39961ZM9.59961 12.7996H6.39961V14.3996H9.59961V12.7996ZM9.59961 1.59961H6.39961V3.19961H9.59961V1.59961ZM4.79961 3.19961H3.19961V4.79961H4.79961V3.19961Z" fill="#9D9FA6"/>
</svg>
