<svg width="16" height="16" viewBox="0 0 16 16" fill="none" xmlns="http://www.w3.org/2000/svg">
<path fill-rule="evenodd" clip-rule="evenodd" d="M6.40156 2.39961H4.80156V3.99961H6.40156V2.39961ZM8.80156 4.79961H7.20156V6.39961H8.80156V4.79961ZM8.80156 7.19961H7.20156V11.1996H8.80156V7.19961ZM11.2016 2.39961H9.60156V3.99961H11.2016V2.39961ZM6.40156 11.9996H4.80156V13.5996H6.40156V11.9996ZM4.00156 4.79961H2.40156V6.39961H4.00156V4.79961ZM12.8016 3.19961H11.2016V4.79961H12.8016V3.19961ZM13.6016 4.79961H12.0016V6.39961H13.6016V4.79961ZM4.80156 11.1996H3.20156V12.7996H4.80156V11.1996ZM4.00156 9.59961H2.40156V11.1996H4.00156V9.59961ZM12.8016 11.1996H11.2016V12.7996H12.8016V11.1996ZM11.2016 11.9996H9.60156V13.5996H11.2016V11.9996ZM13.6016 9.59961H12.0016V11.1996H13.6016V9.59961ZM3.20156 6.39961H1.60156V9.59961H3.20156V6.39961ZM14.4016 6.39961H12.8016V9.59961H14.4016V6.39961ZM9.60156 12.7996H6.40156V14.3996H9.60156V12.7996ZM9.60156 1.59961H6.40156V3.19961H9.60156V1.59961ZM4.80156 3.19961H3.20156V4.79961H4.80156V3.19961Z" fill="white"/>
</svg>
