<svg width="20" height="21" viewBox="0 0 20 21" fill="none" xmlns="http://www.w3.org/2000/svg">
<path d="M13.9997 2.40039H5.9999C3.80015 2.40039 2 4.20054 2 6.40029V14.4005C2 16.5997 3.80015 18.4004 5.9999 18.4004H13.9997C16.1995 18.4004 17.9996 16.5997 17.9996 14.4005V6.40029C17.9996 4.20054 16.1995 2.40039 13.9997 2.40039ZM16.6662 14.4005C16.6662 15.8705 15.4705 17.067 13.9997 17.067H5.9999C4.52974 17.067 3.33337 15.8705 3.33337 14.4005V6.40029C3.33337 4.92994 4.52974 3.73376 5.9999 3.73376H13.9997C15.4705 3.73376 16.6662 4.92994 16.6662 6.40029V14.4005Z" fill="currentColor"/>
<path d="M14.3333 7.06636C14.8856 7.06636 15.3333 6.61865 15.3333 6.06638C15.3333 5.51411 14.8856 5.06641 14.3333 5.06641C13.781 5.06641 13.3333 5.51411 13.3333 6.06638C13.3333 6.61865 13.781 7.06636 14.3333 7.06636Z" fill="currentColor"/>
<path d="M9.99978 6.40039C7.79022 6.40039 5.99988 8.19093 5.99988 10.4003C5.99988 12.6088 7.79022 14.4006 9.99978 14.4006C12.2087 14.4006 13.9997 12.6088 13.9997 10.4003C13.9997 8.19093 12.2087 6.40039 9.99978 6.40039ZM9.99978 13.0672C8.5272 13.0672 7.33324 11.8733 7.33324 10.4003C7.33324 8.92732 8.5272 7.73376 9.99978 7.73376C11.4724 7.73376 12.6663 8.92732 12.6663 10.4003C12.6663 11.8733 11.4724 13.0672 9.99978 13.0672Z" fill="currentColor"/>
</svg>
