<svg width="16" height="16" viewBox="0 0 16 16" fill="none" xmlns="http://www.w3.org/2000/svg">
<path fill-rule="evenodd" clip-rule="evenodd" d="M8.16814 2.42967C8.65231 1.83717 9.48314 1.38217 10.194 1.33301C10.3131 2.143 9.98397 2.93633 9.54897 3.49716C9.08397 4.09966 8.28148 4.56549 7.50481 4.54132C7.36315 3.76549 7.72648 2.96717 8.16814 2.42967ZM10.4555 4.45398C11.3613 4.45398 12.3205 4.95064 13.003 5.80647C10.7655 7.04063 11.128 10.2556 13.3888 11.1164C13.078 11.8098 12.9288 12.1189 12.528 12.7331C11.9688 13.5898 11.1813 14.6573 10.2038 14.6648C9.802 14.669 9.53839 14.5474 9.25415 14.4163C8.92472 14.2643 8.56759 14.0995 7.93549 14.1031C7.30686 14.1062 6.94401 14.2689 6.61007 14.4187C6.31851 14.5494 6.04898 14.6703 5.64383 14.6664C4.66717 14.6581 3.92051 13.6948 3.36135 12.8381C1.79886 10.4439 1.63386 7.63313 2.59802 6.13814C3.28385 5.07647 4.36551 4.45564 5.38134 4.45564C5.92274 4.45564 6.35908 4.61209 6.7749 4.76118C7.15335 4.89688 7.51481 5.02647 7.92299 5.02647C8.30069 5.02647 8.61122 4.90816 8.94994 4.7791C9.35632 4.62427 9.80328 4.45398 10.4555 4.45398Z" fill="currentColor"/>
</svg>
