<svg width="20" height="20" viewBox="0 0 20 20" fill="none" xmlns="http://www.w3.org/2000/svg">
<path d="M15.7117 2.85645H14.7617V7.61895H15.7117V2.85645Z" fill="white"/>
<path d="M14.7629 16.1934H13.8066V17.1434H14.7629V16.1934Z" fill="white"/>
<path d="M14.7629 12.3809H13.8066V13.3309H14.7629V12.3809Z" fill="white"/>
<path d="M14.7629 7.61914H13.8066V8.56914H14.7629V7.61914Z" fill="white"/>
<path d="M14.7629 1.90625H13.8066V2.85625H14.7629V1.90625Z" fill="white"/>
<path d="M13.8055 8.56836H12.8555V9.52461H13.8055V8.56836Z" fill="white"/>
<path d="M13.8055 0.950195H12.8555V1.90645H13.8055V0.950195Z" fill="white"/>
<path d="M10.9492 17.1436V19.0498H11.9055V18.0936H13.8055V17.1436H10.9492Z" fill="white"/>
<path d="M10.9492 13.3311V16.1936H13.8055V15.2373H11.9055V14.2873H13.8055V13.3311H10.9492Z" fill="white"/>
<path d="M12.8555 10.4754V9.52539H10.9492V12.3816H13.8055V11.4316H11.9055V10.4754H12.8555Z" fill="white"/>
<path d="M10.95 4.7625H11.9062V2.85625H10.95V3.8125H10V2.85625H10.95V1.90625H9.04375V2.85625H8.09375V4.7625H9.04375V5.7125H10.95V4.7625Z" fill="white"/>
<path d="M10.9492 19.0498H9.04297V19.9998H10.9492V19.0498Z" fill="white"/>
<path d="M9.04258 9.52539H7.14258V10.4754H8.09258V19.0504H9.04258V9.52539Z" fill="white"/>
<path d="M12.8551 0H7.14258V0.95H12.8551V0Z" fill="white"/>
<path d="M7.14375 8.56836H6.1875V9.52461H7.14375V8.56836Z" fill="white"/>
<path d="M7.14375 0.950195H6.1875V1.90645H7.14375V0.950195Z" fill="white"/>
<path d="M6.18633 7.61914H5.23633V8.56914H6.18633V7.61914Z" fill="white"/>
<path d="M6.18633 1.90625H5.23633V2.85625H6.18633V1.90625Z" fill="white"/>
<path d="M5.23711 2.85645H4.28711V7.61895H5.23711V2.85645Z" fill="white"/>
</svg>
