<svg width="20" height="20" viewBox="0 0 20 20" fill="none" xmlns="http://www.w3.org/2000/svg">
<path fill-rule="evenodd" clip-rule="evenodd" d="M17.2466 4.92734V7.10125H18.3335V8.55049H16.1596V9.63745H13.9857V6.01428H12.8988V10.7241H7.10174L7.10174 6.01428H6.01477V9.63745H3.8409V8.55049H1.66699V7.10125H2.75393V4.92734H3.8409V3.84041H4.92783V2.75344H7.10174V1.6665H9.27561V2.75344H8.18867V3.84041H7.10174L7.10174 6.01396H8.18867V3.84009H9.27561V2.75312H10.7249L10.7249 1.6665H12.8988V2.75344H15.0727V3.84041H16.1596V4.92734H17.2466ZM16.1596 9.63745H18.3335V12.8983H17.2466V15.0722H16.1596V16.1591H15.0727V17.2461H12.8988V18.333H10.7249V17.2461H11.8118V16.1591H12.8988V13.9852H13.9857V10.7244H16.1596V9.63745ZM10.7249 2.75344L10.7249 3.84009H11.8118V2.75344H10.7249ZM11.8118 3.84041V6.01396H12.8988V3.84041H11.8118ZM7.10174 11.8111V13.985H8.18867V16.1589H9.27561V17.2459H10.7249V16.1589H11.8118V13.985H12.8988V11.8111H7.10174ZM8.18867 16.1595V17.2465H9.27561V18.3334H7.10174V17.2465H4.92783V16.1595H3.8409V15.0726H2.75393V12.8987H1.66699V9.63789H3.8409V10.7248H6.01477V13.9857H7.10174V16.1595H8.18867Z"/>
</svg>
