<svg width="20" height="20" viewBox="0 0 20 20" fill="none" xmlns="http://www.w3.org/2000/svg">
<g clip-path="url(#clip0_1800_36354)">
<path d="M20.0008 4.76172H19.0508V15.2366H20.0008V4.76172Z" fill="white"/>
<path d="M19.05 15.2383H18.0938V16.1883H19.05V15.2383Z" fill="white"/>
<path d="M19.05 3.80664H18.0938V4.76288H19.05V3.80664Z" fill="white"/>
<path d="M18.0926 16.1875H17.1426V17.1437H18.0926V16.1875Z" fill="white"/>
<path d="M18.0926 2.85547H17.1426V3.80546H18.0926V2.85547Z" fill="white"/>
<path d="M17.1434 17.1426H16.1934V18.0926H17.1434V17.1426Z" fill="white"/>
<path d="M17.1434 1.90625H16.1934V2.85624H17.1434V1.90625Z" fill="white"/>
<path d="M16.1926 18.0938H15.2363V19.05H16.1926V18.0938Z" fill="white"/>
<path d="M16.1926 0.951172H15.2363V1.90742H16.1926V0.951172Z" fill="white"/>
<path d="M15.2371 6.66797H14.2871V15.2367H15.2371V6.66797Z" fill="white"/>
<path d="M15.2366 19.0488H4.76172V19.9988H15.2366V19.0488Z" fill="white"/>
<path d="M14.2879 15.2383H13.3379V16.1883H14.2879V15.2383Z" fill="white"/>
<path d="M12.3809 10.4742H13.3371V6.66796H14.2871V5.71171H13.3371V4.76172H12.3809V10.4742Z" fill="white"/>
<path d="M13.3379 16.1875H7.61914V17.1437H13.3379V16.1875Z" fill="white"/>
<path d="M12.3797 13.3301H11.4297V14.2863H12.3797V13.3301Z" fill="white"/>
<path d="M12.3797 11.4258H11.4297V12.382H12.3797V11.4258Z" fill="white"/>
<path d="M10.4746 10.4753H11.4309V4.76288H12.3808V3.80664H10.4746V10.4753Z" fill="white"/>
<path d="M11.4316 14.2871H9.52539V15.2371H11.4316V14.2871Z" fill="white"/>
<path d="M9.52421 13.3301H8.57422V14.2863H9.52421V13.3301Z" fill="white"/>
<path d="M9.52421 11.4258H8.57422V12.382H9.52421V11.4258Z" fill="white"/>
<path d="M8.57538 10.4742H9.52538V3.80546H10.4754V2.85547H8.57538V3.80546H7.61914V4.76171H8.57538V10.4742Z" fill="white"/>
<path d="M7.61796 15.2383H6.66797V16.1883H7.61796V15.2383Z" fill="white"/>
<path d="M6.66874 13.3301H5.71875V15.2363H6.66874V13.3301Z" fill="white"/>
<path d="M6.66874 10.4742V11.4242H7.61874V4.76172H6.66874V9.52419H5.71875V10.4742H6.66874Z" fill="white"/>
<path d="M15.2366 0H4.76172V0.949994H15.2366V0Z" fill="white"/>
<path d="M5.71796 12.3809H4.76172V13.3309H5.71796V12.3809Z" fill="white"/>
<path d="M5.71874 8.56836H3.8125V9.5246H5.71874V8.56836Z" fill="white"/>
<path d="M4.76249 18.0938H3.8125V19.05H4.76249V18.0938Z" fill="white"/>
<path d="M4.76249 11.4258H3.8125V12.382H4.76249V11.4258Z" fill="white"/>
<path d="M4.76249 0.951172H3.8125V1.90742H4.76249V0.951172Z" fill="white"/>
<path d="M3.81367 17.1426H2.85742V18.0926H3.81367V17.1426Z" fill="white"/>
<path d="M3.81367 9.52539H2.85742V11.4254H3.81367V9.52539Z" fill="white"/>
<path d="M3.81367 1.90625H2.85742V2.85624H3.81367V1.90625Z" fill="white"/>
<path d="M2.85624 16.1875H1.90625V17.1437H2.85624V16.1875Z" fill="white"/>
<path d="M2.85624 2.85547H1.90625V3.80546H2.85624V2.85547Z" fill="white"/>
<path d="M1.90702 15.2383H0.957031V16.1883H1.90702V15.2383Z" fill="white"/>
<path d="M1.90702 3.80664H0.957031V4.76288H1.90702V3.80664Z" fill="white"/>
<path d="M0.956243 4.76172H0V15.2366H0.956243V4.76172Z" fill="white"/>
</g>
<defs>
<clipPath id="clip0_1800_36354">
<rect width="20" height="20" fill="white"/>
</clipPath>
</defs>
</svg>
