<svg width="20" height="21" viewBox="0 0 20 21" fill="none" xmlns="http://www.w3.org/2000/svg">
<path d="M4.736 6.92374H1.21474C0.912097 6.92374 0.666809 7.1687 0.666809 7.4706V19.1856C0.666809 19.4876 0.912097 19.7324 1.21474 19.7324H4.736C5.03868 19.7324 5.28393 19.4876 5.28393 19.1856V7.4706C5.28393 7.1687 5.03868 6.92374 4.736 6.92374ZM4.18807 18.6387H1.76266V8.01746H4.18807V18.6387ZM2.97551 1.06641C1.70246 1.06641 0.666809 2.10004 0.666809 3.37031C0.666809 4.64091 1.70246 5.6744 2.97551 5.6744C4.24846 5.6744 5.28393 4.64077 5.28393 3.37031C5.28393 2.10004 4.24846 1.06641 2.97551 1.06641ZM2.97551 4.58068C2.30675 4.58068 1.76266 4.0378 1.76266 3.37031C1.76266 2.703 2.30675 2.16012 2.97551 2.16012C3.64417 2.16012 4.18807 2.70296 4.18807 3.37031C4.18807 4.0378 3.64417 4.58068 2.97551 4.58068ZM13.5398 6.84642C12.7069 6.84642 11.886 7.04679 11.1509 7.4216C11.1259 7.14263 10.8912 6.92374 10.6051 6.92374H7.08354C6.78104 6.92374 6.53561 7.1687 6.53561 7.4706V19.1856C6.53561 19.4876 6.78104 19.7324 7.08354 19.7324H10.6051C10.9077 19.7324 11.153 19.4876 11.153 19.1856V12.7424C11.153 11.9135 11.8288 11.2392 12.6593 11.2392C13.4897 11.2392 14.1652 11.9135 14.1652 12.7424V19.1856C14.1652 19.4876 14.4106 19.7324 14.7131 19.7324H18.2346C18.5372 19.7324 18.7825 19.4876 18.7825 19.1856V12.0788C18.7825 9.19363 16.4307 6.84642 13.5398 6.84642ZM17.6866 18.6387H15.2612V12.7424C15.2612 11.3104 14.094 10.1455 12.6594 10.1455C11.2245 10.1455 10.0572 11.3104 10.0572 12.7424V18.6387H7.63161V8.01746H10.0572V8.42147C10.0572 8.63183 10.178 8.82348 10.3681 8.91452C10.4612 8.95908 10.565 8.97649 10.6676 8.96476C10.7702 8.95302 10.8674 8.9126 10.948 8.84817C11.69 8.25413 12.5864 7.94013 13.5398 7.94013C15.8264 7.94013 17.6866 9.79674 17.6866 12.0788V18.6387Z" fill="currentColor"/>
</svg>
