<svg width="22" height="22" viewBox="0 0 22 22" fill="none" xmlns="http://www.w3.org/2000/svg">
<g clip-path="url(#clip0_1907_30361)">
<path d="M18.3443 9.52832H17.3672V19.3255H18.3443V9.52832Z" fill="white"/>
<path d="M17.3664 19.3262H16.3828V20.3097H17.3664V19.3262Z" fill="white"/>
<path d="M16.3837 20.3096H5.60938V21.2867H16.3837V20.3096Z" fill="white"/>
<path d="M15.4068 1.69141H14.4297V2.67498H15.4068V1.69141Z" fill="white"/>
<path d="M12.4683 13.45H11.4912V12.4728H12.4683V11.4893H9.53045V12.4728H8.54688V14.4271H9.53045V15.4107H10.5076V18.3485H11.4912V15.4107H12.4683V14.4271H13.4454V12.4728H12.4683V13.45Z" fill="white"/>
<path d="M14.4296 0.714844H7.57031V1.69199H14.4296V0.714844Z" fill="white"/>
<path d="M7.57089 1.69141H6.59375V2.67498H7.57089V1.69141Z" fill="white"/>
<path d="M17.3678 9.52766V8.55052H16.3842V2.6748H15.4071V8.55052H6.59353V2.6748H5.60996V8.55052H4.63281V9.52766H17.3678Z" fill="white"/>
<path d="M5.60996 19.3262H4.63281V20.3097H5.60996V19.3262Z" fill="white"/>
<path d="M4.63339 9.52832H3.65625V19.3255H4.63339V9.52832Z" fill="white"/>
</g>
<defs>
<clipPath id="clip0_1907_30361">
<rect width="20.5714" height="20.5714" fill="white" transform="translate(0.714844 0.713867)"/>
</clipPath>
</defs>
</svg>
