<svg width="152" height="48" viewBox="0 0 152 48" fill="none" xmlns="http://www.w3.org/2000/svg">
<path d="M126.295 32.1994V29.0115H123.071V19.0583H126.295V15.835H136.283V19.0583H139.542V29.0115H136.283V32.1994H126.295ZM126.649 28.6573H135.929V19.377H126.649V28.6573Z" fill="#0A0E20"/>
<path d="M116.39 32.0919C114.59 32.0919 113.081 31.7265 111.863 30.9958C110.645 30.2544 109.723 29.2695 109.099 28.0411C108.484 26.802 108.177 25.4358 108.177 23.9426C108.177 22.4176 108.479 21.0303 109.083 19.7806C109.697 18.5309 110.624 17.5354 111.863 16.7941C113.102 16.0528 114.664 15.6821 116.549 15.6821C117.417 15.6821 118.212 15.7774 118.932 15.9681C119.652 16.1481 120.277 16.3811 120.806 16.667L120.441 19.6059C119.922 19.3411 119.35 19.1293 118.725 18.9704C118.1 18.801 117.449 18.7163 116.771 18.7163C115.183 18.7163 113.954 19.1875 113.086 20.1301C112.228 21.062 111.799 22.317 111.799 23.8949C111.799 25.4094 112.228 26.659 113.086 27.6439C113.944 28.6288 115.156 29.1213 116.724 29.1213C117.391 29.1213 118.037 29.0313 118.662 28.8512C119.287 28.6712 119.89 28.4223 120.473 28.1046L120.838 31.0593C120.33 31.3453 119.678 31.5888 118.884 31.79C118.1 31.9913 117.269 32.0919 116.39 32.0919Z" fill="#0A0E20"/>
<path d="M102.412 31.7744V16.0001H105.954V31.7744H102.412ZM102.412 13.2042V9.53467H105.954V13.2042H102.412Z" fill="#0A0E20"/>
<path d="M82.812 32.189V28.3101H85.929V25.193H89.0461V22.9418H85.929V19.8594H82.812V15.9805H86.6217V19.0975H89.7041V22.1106H92.1978V19.0975H95.2801V15.9805H99.1245V19.8594H95.9728V22.9418H92.8558V25.193H95.9728V28.3101H99.1245V32.189H95.2801V29.1066H92.1978V26.0242H89.7041V29.1066H86.6217V32.189H82.812Z" fill="#0A0E20"/>
<path d="M74.5171 32.0911C72.632 32.0911 71.0541 31.7098 69.7832 30.9473C68.523 30.1848 67.5698 29.1787 66.9238 27.9291C66.2884 26.6688 65.9707 25.2868 65.9707 23.783C65.9707 22.3321 66.2672 20.9977 66.8603 19.7798C67.4639 18.5513 68.3376 17.5717 69.4814 16.841C70.6358 16.0997 72.0337 15.729 73.6752 15.729C75.1155 15.729 76.3439 16.0202 77.3606 16.6027C78.3773 17.1852 79.1504 17.99 79.6799 19.0173C80.22 20.034 80.4901 21.1989 80.4901 22.5121C80.4901 22.8087 80.4689 23.1211 80.4265 23.4494C80.3948 23.7671 80.3471 24.0954 80.2836 24.4343H69.6403C69.7885 25.5886 70.1115 26.5047 70.6093 27.1825C71.107 27.8602 71.7266 28.3527 72.4679 28.6598C73.2092 28.9563 74.0088 29.1046 74.8666 29.1046C75.7138 29.1046 76.5293 29.004 77.313 28.8028C78.1072 28.591 78.8433 28.305 79.5211 27.945L79.7911 30.8838C79.1875 31.1803 78.4408 31.4557 77.5512 31.7098C76.6617 31.964 75.6503 32.0911 74.5171 32.0911ZM69.7991 22.0197H76.8682C76.8682 21.4478 76.757 20.913 76.5346 20.4152C76.3228 19.9069 75.9786 19.4992 75.502 19.192C75.036 18.8743 74.4218 18.7155 73.6593 18.7155C72.5473 18.7155 71.6789 19.0173 71.0541 19.621C70.4398 20.2246 70.0215 21.0242 69.7991 22.0197Z" fill="#0A0E20"/>
<path d="M63.7293 32.0913C62.7656 32.0913 61.9819 31.906 61.3782 31.5353C60.7852 31.1647 60.351 30.6775 60.0756 30.0738C59.8003 29.4596 59.6626 28.7924 59.6626 28.0723V7.94531H63.221V26.4519C63.221 27.3098 63.2739 27.9346 63.3798 28.3264C63.4857 28.7077 63.6869 28.9513 63.9835 29.0572C64.2906 29.1525 64.746 29.2001 65.3496 29.2001L64.9684 32.0913H63.7293Z" fill="#0A0E20"/>
<path d="M42.3184 39.462V15.9991H45.146L45.8291 18.9696L44.7806 18.509C45.4902 17.6617 46.2897 16.9893 47.1793 16.4915C48.0795 15.9832 49.1756 15.729 50.4676 15.729C51.9821 15.729 53.2582 16.0997 54.296 16.841C55.3445 17.5823 56.1388 18.5725 56.6789 19.8116C57.219 21.0507 57.489 22.4168 57.489 23.91C57.489 25.4033 57.2243 26.7694 56.6948 28.0085C56.1652 29.2476 55.3816 30.2378 54.3437 30.9791C53.3058 31.7204 52.0138 32.0911 50.4676 32.0911C49.2286 32.0911 48.1801 31.8899 47.3223 31.4874C46.4751 31.085 45.7179 30.4602 45.0507 29.6129L45.8608 28.8981V39.462H42.3184ZM49.8958 29.1046C51.1454 29.1046 52.1197 28.6333 52.8187 27.6908C53.5177 26.7377 53.8671 25.4774 53.8671 23.91C53.8671 22.3321 53.5177 21.0718 52.8187 20.1293C52.1197 19.1868 51.1454 18.7155 49.8958 18.7155C49.0062 18.7155 48.2437 18.9273 47.6082 19.3509C46.9834 19.7639 46.5068 20.357 46.1785 21.1301C45.8502 21.9032 45.6861 22.8298 45.6861 23.91C45.6861 25.0114 45.8502 25.9487 46.1785 26.7218C46.5068 27.4949 46.9834 28.0879 47.6082 28.501C48.2437 28.9034 49.0062 29.1046 49.8958 29.1046Z" fill="#0A0E20"/>
<path d="M8.15527 17.1804C8.15527 12.7239 11.8716 9.13623 16.3281 9.13623H23.3886C28.9593 9.13623 33.4751 13.6521 33.4751 19.2227V23.7617C33.4751 28.2182 29.8624 31.7791 25.4059 31.7791H24.4578C23.9007 31.7791 23.4491 31.3275 23.4491 30.7704V24.247C23.4491 23.6899 23.9007 23.2384 24.4578 23.2384H27.6202V21.0535H25.4353V18.8687H23.2505V16.6838H21.4629V14.6976H19.0795V16.6838H17.2919V18.8687H15.107V21.0535L12.9222 21.0799V23.2384H16.0759C16.633 23.2384 17.0846 23.6899 17.0846 24.247V36.1177C17.0846 37.2318 16.1814 38.135 15.0673 38.135H11.2848C9.61362 38.135 8.15527 36.7802 8.15527 35.109V31.8309V17.1804Z" fill="#055DF5"/>
</svg>
