<svg width="125" height="40" viewBox="0 0 125 40" fill="none" xmlns="http://www.w3.org/2000/svg">
<path d="M106.482 27.065V24.3854H103.772V16.019H106.482V13.3096H114.878V16.019H117.617V24.3854H114.878V27.065H106.482ZM106.779 24.0876H114.58V16.2869H106.779V24.0876Z" fill="white"/>
<path d="M98.1566 26.9742C96.6433 26.9742 95.3748 26.6671 94.351 26.0528C93.3273 25.4297 92.5529 24.6018 92.0276 23.5692C91.5113 22.5277 91.2532 21.3793 91.2532 20.1242C91.2532 18.8423 91.5069 17.6761 92.0143 16.6257C92.5306 15.5753 93.3095 14.7385 94.351 14.1154C95.3926 13.4922 96.7056 13.1807 98.2901 13.1807C99.0201 13.1807 99.6877 13.2608 100.293 13.421C100.898 13.5723 101.424 13.7682 101.869 14.0085L101.562 16.4788C101.125 16.2563 100.645 16.0782 100.119 15.9447C99.5943 15.8023 99.0468 15.7311 98.4771 15.7311C97.1418 15.7311 96.1092 16.1272 95.3792 16.9195C94.6582 17.7028 94.2976 18.7577 94.2976 20.0841C94.2976 21.3571 94.6582 22.4075 95.3792 23.2354C96.1003 24.0633 97.1195 24.4772 98.437 24.4772C98.9978 24.4772 99.5409 24.4015 100.066 24.2502C100.591 24.0989 101.099 23.8897 101.588 23.6226L101.895 26.1062C101.468 26.3466 100.921 26.5513 100.253 26.7205C99.5943 26.8896 98.8955 26.9742 98.1566 26.9742Z" fill="white"/>
<path d="M86.407 26.7077V13.4483H89.3847V26.7077H86.407ZM86.407 11.0982V8.01367H89.3847V11.0982H86.407Z" fill="white"/>
<path d="M69.9319 27.0561V23.7955H72.552V21.1754H75.172V19.2832H72.552V16.6922H69.9319V13.4316H73.1342V16.0517H75.7252V18.5845H77.8212V16.0517H80.4122V13.4316H83.6436V16.6922H80.9944V19.2832H78.3744V21.1754H80.9944V23.7955H83.6436V27.0561H80.4122V24.4651H77.8212V21.8741H75.7252V24.4651H73.1342V27.0561H69.9319Z" fill="white"/>
<path d="M62.9595 26.9742C61.3749 26.9742 60.0486 26.6537 58.9803 26.0127C57.921 25.3718 57.1198 24.5261 56.5768 23.4757C56.0427 22.4164 55.7756 21.2547 55.7756 19.9906C55.7756 18.771 56.0249 17.6494 56.5234 16.6257C57.0308 15.5931 57.7652 14.7696 58.7266 14.1554C59.6969 13.5323 60.872 13.2207 62.2518 13.2207C63.4624 13.2207 64.4951 13.4655 65.3496 13.9551C66.2042 14.4447 66.8541 15.1213 67.2992 15.9847C67.7532 16.8393 67.9802 17.8185 67.9802 18.9224C67.9802 19.1716 67.9624 19.4342 67.9267 19.7102C67.9 19.9773 67.86 20.2532 67.8066 20.5381H58.8601C58.9848 21.5084 59.2563 22.2784 59.6747 22.8481C60.0931 23.4178 60.6138 23.8318 61.237 24.0899C61.8601 24.3392 62.5322 24.4638 63.2532 24.4638C63.9654 24.4638 64.6508 24.3792 65.3096 24.2101C65.9772 24.0321 66.5959 23.7917 67.1656 23.4891L67.3926 25.9593C66.8852 26.2086 66.2576 26.44 65.5099 26.6537C64.7621 26.8673 63.912 26.9742 62.9595 26.9742ZM58.9937 18.5084H64.9357C64.9357 18.0277 64.8422 17.5782 64.6553 17.1598C64.4773 16.7325 64.1879 16.3898 63.7874 16.1316C63.3957 15.8646 62.8794 15.731 62.2384 15.731C61.3037 15.731 60.5738 15.9847 60.0486 16.4922C59.5322 16.9996 59.1806 17.6717 58.9937 18.5084Z" fill="white"/>
<path d="M53.8917 26.9751C53.0816 26.9751 52.4229 26.8193 51.9155 26.5077C51.417 26.1962 51.052 25.7867 50.8206 25.2793C50.5891 24.7629 50.4734 24.2021 50.4734 23.5968V6.67871H53.4644V22.2348C53.4644 22.9559 53.5089 23.4811 53.598 23.8104C53.687 24.1309 53.8561 24.3357 54.1054 24.4247C54.3635 24.5048 54.7463 24.5449 55.2537 24.5449L54.9332 26.9751H53.8917Z" fill="white"/>
<path d="M35.8945 33.1699V13.4477H38.2713L38.8455 15.9447L37.9642 15.5575C38.5607 14.8453 39.2327 14.28 39.9805 13.8616C40.7372 13.4343 41.6585 13.2207 42.7446 13.2207C44.0175 13.2207 45.0902 13.5323 45.9626 14.1554C46.8439 14.7785 47.5115 15.6109 47.9655 16.6524C48.4195 17.6939 48.6465 18.8423 48.6465 20.0974C48.6465 21.3526 48.424 22.5009 47.9789 23.5425C47.5338 24.584 46.875 25.4163 46.0027 26.0395C45.1303 26.6626 44.0442 26.9742 42.7446 26.9742C41.703 26.9742 40.8217 26.805 40.1007 26.4667C39.3885 26.1285 38.752 25.6033 38.1912 24.8911L38.8722 24.2902V33.1699H35.8945ZM42.2638 24.4638C43.3143 24.4638 44.1333 24.0677 44.7208 23.2754C45.3083 22.4742 45.6021 21.4149 45.6021 20.0974C45.6021 18.771 45.3083 17.7117 44.7208 16.9194C44.1333 16.1272 43.3143 15.731 42.2638 15.731C41.5161 15.731 40.8752 15.9091 40.341 16.2652C39.8158 16.6123 39.4152 17.1108 39.1393 17.7607C38.8633 18.4105 38.7253 19.1894 38.7253 20.0974C38.7253 21.0232 38.8633 21.811 39.1393 22.4609C39.4152 23.1107 39.8158 23.6092 40.341 23.9564C40.8752 24.2947 41.5161 24.4638 42.2638 24.4638Z" fill="white"/>
<path d="M7.17822 14.4423C7.17822 10.6963 10.302 7.68066 14.048 7.68066H19.9829C24.6654 7.68066 28.4613 11.4766 28.4613 16.1591V19.9744C28.4613 23.7204 25.4246 26.7135 21.6786 26.7135H20.8816C20.4134 26.7135 20.0338 26.3339 20.0338 25.8657V20.3823C20.0338 19.9141 20.4134 19.5345 20.8816 19.5345H23.5398V17.698H21.7033V15.8615H19.8668V14.025H18.3642V12.3554H16.3607V14.025H14.8582V15.8615H13.0216V17.698L11.1851 17.7201V19.5345H13.8361C14.3043 19.5345 14.6839 19.9141 14.6839 20.3823V30.3604C14.6839 31.2969 13.9247 32.0561 12.9882 32.0561H9.80881C8.40406 32.0561 7.17822 30.9173 7.17822 29.5126V26.7571V14.4423Z" fill="#055DF5"/>
</svg>
