<svg width="38" height="38" viewBox="0 0 38 38" fill="none" xmlns="http://www.w3.org/2000/svg">
<path d="M35.9648 14.5352V12.7539H34.1719V10.9609H32.3906V7.39844H30.6094V21.6836H32.3906V19.8906H34.1719V18.1094H35.9648V34.1758H37.7461V14.5352H35.9648Z" fill="white"/>
<path d="M35.9648 34.1758H34.1719V35.9687H35.9648V34.1758Z" fill="white"/>
<path d="M34.1797 35.9707H3.82812V37.752H34.1797V35.9707Z" fill="white"/>
<path d="M30.6133 21.6846H28.8203V23.4658H30.6133V21.6846Z" fill="white"/>
<path d="M28.8203 30.6123H27.0391V32.3936H28.8203V30.6123Z" fill="white"/>
<path d="M28.8203 23.4639H27.0391V25.2451H28.8203V23.4639Z" fill="white"/>
<path d="M27.043 28.8203H25.25V30.6133H27.043V28.8203Z" fill="white"/>
<path d="M27.043 25.2461H25.25V27.0391H27.043V25.2461Z" fill="white"/>
<path d="M27.043 12.7539H25.25V18.1094H27.043V12.7539Z" fill="white"/>
<path d="M25.2422 10.96H23.4609V12.7529H25.2422V10.96Z" fill="white"/>
<path d="M25.2422 27.04H12.75V28.8213H25.2422V27.04Z" fill="white"/>
<path d="M25.25 18.1104H21.6875V19.8916H25.25V18.1104Z" fill="white"/>
<path d="M21.6836 12.7539H16.3281V14.5352H19.8906V18.1094H21.6836V12.7539Z" fill="white"/>
<path d="M19.8906 18.1104H16.3281V19.8916H19.8906V18.1104Z" fill="white"/>
<path d="M23.4688 9.17969H14.5391V10.9609H23.4688V9.17969Z" fill="white"/>
<path d="M23.4688 21.6846H14.5391V23.4658H23.4688V21.6846Z" fill="white"/>
<path d="M16.332 14.5361H14.5391V18.1104H16.332V14.5361Z" fill="white"/>
<path d="M14.5312 19.8896H12.75V21.6826H14.5312V19.8896Z" fill="white"/>
<path d="M14.5312 10.96H12.75V12.7529H14.5312V10.96Z" fill="white"/>
<path d="M12.7539 28.8203H10.9609V30.6133H12.7539V28.8203Z" fill="white"/>
<path d="M12.7539 25.2461H10.9609V27.0391H12.7539V25.2461Z" fill="white"/>
<path d="M12.7539 12.7539H10.9609V19.8906H12.7539V12.7539Z" fill="white"/>
<path d="M10.9609 30.6123H9.17969V32.3936H10.9609V30.6123Z" fill="white"/>
<path d="M10.9609 23.4639H9.17969V25.2451H10.9609V23.4639Z" fill="white"/>
<path d="M30.6133 7.39844V5.60547H27.0391V3.82422H25.2461V2.03125H23.4648V0.25H14.5352V2.03125H12.7539V3.82422H10.9609V5.60547H7.39844V7.39844H30.6133Z" fill="white"/>
<path d="M9.17969 21.6846H7.39844V23.4658H9.17969V21.6846Z" fill="white"/>
<path d="M3.82422 34.1758H2.03125V35.9687H3.82422V34.1758Z" fill="white"/>
<path d="M2.03125 18.1094H3.82422V19.8906H5.60547V21.6836H7.39844V7.39844H5.60547V10.9609H3.82422V12.7539H2.03125V14.5352H0.25V34.1758H2.03125V18.1094Z" fill="white"/>
</svg>
