<svg width="132" height="132" viewBox="0 0 132 132" fill="none" xmlns="http://www.w3.org/2000/svg">
<path d="M112.821 29H109.403H105.743H102.241H98.5807H94.9207H91.2607H87.6128H84.1103H80.4503H76.9478H73.2878H69.6278H65.9678H62.4653H58.8053H55.1453H51.6428H47.9828H44.4803H40.8203H37.1603H33.5003H29.8403H26.3378H22.6778H19.139V32.6358H15.5032V36.1261V39.7861V43.4462V46.9486V50.6086V54.1111V57.7711V61.4311V65.0911V68.7512V72.2536V75.9136V79.4161V83.0761V86.7361V90.3962V93.9956H19.139V97.6314H22.7141H26.3741H29.8039V101.207V104.709V108.369V112.029V115.568H33.4397V112.053H37.0755V108.418H40.7112V104.782H44.347V101.267H47.8616V97.6314H51.6549H55.1574H58.8174H62.4774H65.9799H69.6399H73.2999H76.9599H80.4624H84.1224H87.6249H91.2849H94.9449H98.6049H102.265H105.767H109.427H112.845V93.9956H116.481V90.3962V86.7361V83.0519V79.3919V75.8894V72.2294V68.7269V65.0669V61.4069V57.7469V54.0869V50.5844V46.9244V43.4219V39.7861V36.1261V32.6358H112.845V29H112.821ZM87.6128 32.6358H91.2728H94.9328H98.5928H102.168V36.1504H105.683V39.7861V43.4462V46.9486V50.6086V54.0869H102.168V57.8438H98.5928H94.9328H91.2728H87.4916V61.419V65.079V68.739V72.2415V75.9136H84.1103H80.4503H76.9478H73.2878H69.6278H65.9678H62.4653H58.8053H55.1453H51.6428H47.9828H44.347V72.2415V68.739V65.079V61.419V57.759V54.099V50.5965V46.9365H48.007H51.667H55.1695H58.8295H62.4895H65.992H69.652H73.312H76.972H80.3654V43.434V39.7861V36.1504H84.0012V32.6358H87.6128Z" fill="#F1F4F9"/>
<path d="M94.9208 54.0869H98.5202V50.6935H94.8844V46.9486V43.4341V39.7862V36.1504H91.1275V39.7862H87.4917V43.4219H91.1275V46.9486V50.6935H87.4917V54.0869H91.2729H94.9208Z" fill="white"/>
<path d="M102.156 32.6357H98.5808H94.9208H91.2608H87.6129H83.9771V36.1503H80.3413V39.7861V43.4461V46.9486V50.6086V54.0868H83.9771V57.8438H87.6129H91.2729H94.9329H98.5929H102.168V54.0868H105.683V50.5965V46.9365V43.434V39.7861V36.1503H102.168V32.6357H102.156ZM94.9208 54.0868H91.2608H87.4917V50.6934H91.1274V46.9486V43.4219H87.4917V39.7861H91.1274V36.1503H94.8844V39.7861V43.4461V46.9486V50.6934H98.5202V54.0868H94.9208Z" fill="#34C759"/>
<path d="M80.3412 54.0869H76.8267V57.8439H80.3412V54.0869Z" fill="#012C69"/>
<path d="M76.8267 57.8438H73.1909V61.4795H76.8267V57.8438Z" fill="#012C69"/>
<path d="M65.9799 61.4795H62.4774H58.7689V65.1153H62.4774H65.9799H69.6399H73.1908V61.4795H69.6399H65.9799Z" fill="#012C69"/>
<path d="M58.7691 57.8438H55.0121V61.4795H58.7691V57.8438Z" fill="#012C69"/>
<path d="M55.0119 54.0869H51.6185V57.8439H55.0119V54.0869Z" fill="#012C69"/>
<path d="M51.6184 50.6934H47.8615V54.0868H51.6184V50.6934Z" fill="#012C69"/>
<path d="M47.8616 46.9365H44.347V50.6935H47.8616V46.9365Z" fill="#012C69"/>
<path d="M83.977 68.751H80.3412V65.1153H76.8267V61.4795H73.1909V65.1153H69.6399H65.9799H62.4775H58.769V61.4795H55.012V65.1153H51.6186V68.751H47.8616V72.2656H44.347V75.9014H48.0071H51.655H55.1695H58.8174H62.4775H65.9799H69.6399H73.2878H76.9478H80.4503H84.1103H87.4916V72.2656H83.977V68.751Z" fill="#055DF5"/>
<path d="M83.977 54.0869H80.3412V57.8439H76.8267V61.4191V65.1154H80.3412V68.7512H83.977V72.2658H87.4916V68.727V65.067V61.4191V57.8439H83.977V54.0869Z" fill="#508EF8"/>
<path d="M80.3411 54.0869V50.5965V46.9365H76.9477H73.2877H69.6397H65.9797H62.4773H58.8173H55.1694H51.6548H47.8615V50.6935H51.6184V54.0869H55.0118V57.8439H58.7688V61.4796H62.4773H65.9797H69.6397H73.1907V57.8439H76.8265V54.0869H80.3411Z" fill="#508EF8"/>
<path d="M51.6186 54.0868H47.8616V50.6934H44.347V54.111V57.7589V61.4189V65.0668V68.7268V72.2656H47.8616V68.7511H51.6186V65.1153H55.012V61.4189V57.8437H51.6186V54.0868Z" fill="#508EF8"/>
</svg>
