<svg width="38" height="39" viewBox="0 0 38 39" fill="none" xmlns="http://www.w3.org/2000/svg">
<g clip-path="url(#clip0_6092_56317)">
<path d="M35.9687 15.0352V13.2539H34.1758V11.4609H32.3945V7.89844H30.6133V22.1836H32.3945V20.3906H34.1758V18.6094H35.9687V34.6758H37.75V15.0352H35.9687Z" fill="white"/>
<path d="M35.9687 34.6758H34.1758V36.4687H35.9687V34.6758Z" fill="white"/>
<path d="M34.1758 36.4707H3.82422V38.252H34.1758V36.4707Z" fill="white"/>
<path d="M30.6133 22.1836H28.8203V23.9648H30.6133V22.1836Z" fill="white"/>
<path d="M28.8203 31.1133H27.0391V32.8945H28.8203V31.1133Z" fill="white"/>
<path d="M28.8203 23.9648H27.0391V25.7461H28.8203V23.9648Z" fill="white"/>
<path d="M27.0391 29.3203H25.2461V31.1133H27.0391V29.3203Z" fill="white"/>
<path d="M27.0391 25.7461H25.2461V27.5391H27.0391V25.7461Z" fill="white"/>
<path d="M27.0391 13.2539H25.2461V18.6094H27.0391V13.2539Z" fill="white"/>
<path d="M25.2461 11.4609H23.4648V13.2539H25.2461V11.4609Z" fill="white"/>
<path d="M25.2461 27.5391H12.7539V29.3203H25.2461V27.5391Z" fill="white"/>
<path d="M25.2461 18.6094H21.6836V20.3906H25.2461V18.6094Z" fill="white"/>
<path d="M21.6836 13.2539H16.3281V15.0352H19.8906V18.6094H21.6836V13.2539Z" fill="white"/>
<path d="M19.8906 18.6094H16.3281V20.3906H19.8906V18.6094Z" fill="white"/>
<path d="M23.4648 9.67969H14.5352V11.4609H23.4648V9.67969Z" fill="white"/>
<path d="M23.4648 22.1836H14.5352V23.9648H23.4648V22.1836Z" fill="white"/>
<path d="M16.3281 15.0352H14.5352V18.6094H16.3281V15.0352Z" fill="white"/>
<path d="M14.5352 20.3906H12.7539V22.1836H14.5352V20.3906Z" fill="white"/>
<path d="M14.5352 11.4609H12.7539V13.2539H14.5352V11.4609Z" fill="white"/>
<path d="M12.7539 29.3203H10.9609V31.1133H12.7539V29.3203Z" fill="white"/>
<path d="M12.7539 25.7461H10.9609V27.5391H12.7539V25.7461Z" fill="white"/>
<path d="M12.7539 13.2539H10.9609V20.3906H12.7539V13.2539Z" fill="white"/>
<path d="M10.9609 31.1133H9.17969V32.8945H10.9609V31.1133Z" fill="white"/>
<path d="M10.9609 23.9648H9.17969V25.7461H10.9609V23.9648Z" fill="white"/>
<path d="M30.6133 7.89844V6.10547H27.0391V4.32422H25.2461V2.53125H23.4648V0.75H14.5352V2.53125H12.7539V4.32422H10.9609V6.10547H7.39844V7.89844H30.6133Z" fill="white"/>
<path d="M9.17969 22.1836H7.39844V23.9648H9.17969V22.1836Z" fill="white"/>
<path d="M3.82227 34.6758H2.0293V36.4687H3.82227V34.6758Z" fill="white"/>
<path d="M2.03125 18.6094H3.82422V20.3906H5.60547V22.1836H7.39844V7.89844H5.60547V11.4609H3.82422V13.2539H2.03125V15.0352H0.25V34.6758H2.03125V18.6094Z" fill="white"/>
</g>
<defs>
<clipPath id="clip0_6092_56317">
<rect width="37.5" height="37.5" fill="white" transform="translate(0.25 0.75)"/>
</clipPath>
</defs>
</svg>
