<svg width="20" height="20" viewBox="0 0 20 20" fill="none" xmlns="http://www.w3.org/2000/svg">
<g clip-path="url(#clip0_6081_60998)">
<path fill-rule="evenodd" clip-rule="evenodd" d="M8.57506 -0.000976562H19.0501V0.955273H8.57506V-0.000976562ZM19.05 0.95599H20V10.4747H19.0501V11.4298H15.2439V10.4736H19.05V0.95599ZM15.2439 6.66693H16.1939V8.57318H15.2439V6.66693ZM16.1939 3.81146H15.2439V4.76146H16.1939V3.81146ZM14.2874 11.4297H15.2437V12.3797H14.2874V11.4297ZM14.2874 12.3809H13.3374V13.3359H11.4313V11.4297H10.4813V14.2859H13.3376V13.3371H14.2874V12.3809ZM13.3376 10.4729V9.52288H12.3814V8.57435H11.4314V7.6181H12.3814V8.57288H13.3376V6.66663H12.3814V5.71146H11.4314V3.81146H12.3814V5.71038H13.3376V3.81038H12.3814V2.85413H13.3376V1.90413H14.2876V2.85413H15.2439V3.81038H14.2876V5.71038H15.2439V6.66663H14.2876V8.57288H15.2439V9.52288H14.2876V10.4729H13.3376ZM9.52515 19.0488H11.4314V19.9988H9.52515V19.0488ZM9.5249 18.0937H7.61865V19.0499H9.5249V18.0937ZM7.61865 16.1933H8.5749V17.1433H7.6188V18.0925H5.7188V19.9988H4.76255V18.0925H2.86255V17.1433H1.90649V16.1933H2.86274V17.1425H7.61865V16.1933ZM8.5749 0.95599H7.61865V6.66849H8.5749V0.95599ZM7.6188 14.286H6.6688V15.236H7.6188V14.286ZM6.6688 12.3809H7.6188V13.3371H6.6688V12.3809ZM6.6688 15.2371H4.76255V16.1934H6.6688V15.2371ZM2.86248 12.3809H3.81248V13.3371H2.86248V12.3809ZM0.956543 18.0937H2.86279V19.0499H0.956543V18.0937ZM1.90654 11.4306H2.86279V10.4743H7.61904V11.4306H8.57529V16.1931H9.52529V9.52435H8.57529V8.57435H7.61904V7.6181H2.86279V8.57435H1.90654V9.52435H0.956543V16.1931H1.90654V11.4306ZM0 19.0488H0.95625V19.9988H0V19.0488Z" fill="url(#paint0_linear_6081_60998)"/>
</g>
<defs>
<linearGradient id="paint0_linear_6081_60998" x1="12.3397" y1="-3.63729" x2="25.4684" y2="19.2413" gradientUnits="userSpaceOnUse">
<stop stop-color="#914FEA"/>
<stop offset="1" stop-color="#3B2EC6"/>
</linearGradient>
<clipPath id="clip0_6081_60998">
<rect width="20" height="20" fill="white"/>
</clipPath>
</defs>
</svg>
