<svg width="18" height="18" viewBox="0 0 18 18" fill="none" xmlns="http://www.w3.org/2000/svg">
<g clip-path="url(#clip0_6096_85434)">
<path d="M18.0003 14.5693H17.1396V16.285H18.0003V14.5693Z" fill="white"/>
<path d="M18.0003 1.71582H17.1396V3.43145H18.0003V1.71582Z" fill="white"/>
<path d="M17.1397 16.2842H16.2847V17.1448H17.1397V16.2842Z" fill="white"/>
<path d="M17.1397 0.854492H16.2847V1.71512H17.1397V0.854492Z" fill="white"/>
<path d="M16.2842 14.5693H15.4292V15.43H16.2842V14.5693Z" fill="white"/>
<path d="M16.2842 11.1426H15.4292V12.8582H16.2842V11.1426Z" fill="white"/>
<path d="M16.2842 2.57129H15.4292V3.43191H16.2842V2.57129Z" fill="white"/>
<path d="M16.2845 0H14.5688V0.855H16.2845V0Z" fill="white"/>
<path d="M16.2845 17.1455H14.5688V18.0005H16.2845V17.1455Z" fill="white"/>
<path d="M15.4295 15.4287H14.5688V16.2837H15.4295V15.4287Z" fill="white"/>
<path d="M15.4295 12.8594H14.5688V13.7144H15.4295V12.8594Z" fill="white"/>
<path d="M15.4295 10.2881H14.5688V11.1431H15.4295V10.2881Z" fill="white"/>
<path d="M15.4295 1.71582H14.5688V2.57082H15.4295V1.71582Z" fill="white"/>
<path d="M14.5687 13.7139H12.853V14.5689H14.5687V13.7139Z" fill="white"/>
<path d="M14.5689 6.00195H13.7139V10.2882H14.5689V6.00195Z" fill="white"/>
<path d="M13.7137 11.998H12.853V12.8587H13.7137V11.998Z" fill="white"/>
<path d="M13.7137 4.28613H12.853V6.00176H13.7137V4.28613Z" fill="white"/>
<path d="M5.1416 11.9976H6.85723V12.8582H7.71223V13.7132H10.2829V12.8582H11.1435V11.9976H12.8535V11.1426H5.1416V11.9976Z" fill="white"/>
<path d="M12.853 3.43066H11.998V4.28566H12.853V3.43066Z" fill="white"/>
<path d="M12.8535 14.5693H5.1416V15.43H12.8535V14.5693Z" fill="white"/>
<path d="M11.9979 2.57129H10.2822V3.43191H11.9979V2.57129Z" fill="white"/>
<path d="M10.2825 1.71582H7.71191V2.57082H10.2825V1.71582Z" fill="white"/>
<path d="M7.71221 2.57129H5.99658V3.43191H7.71221V2.57129Z" fill="white"/>
<path d="M5.9966 3.43066H5.1416V4.28566H5.9966V3.43066Z" fill="white"/>
<path d="M5.14092 13.7139H3.42529V14.5689H5.14092V13.7139Z" fill="white"/>
<path d="M5.14113 11.998H4.28613V12.8587H5.14113V11.998Z" fill="white"/>
<path d="M5.14113 4.28613H4.28613V6.00176H5.14113V4.28613Z" fill="white"/>
<path d="M4.28592 6.00195H3.42529V10.2882H4.28592V6.00195Z" fill="white"/>
<path d="M3.4258 15.4287H2.5708V16.2837H3.4258V15.4287Z" fill="white"/>
<path d="M3.4258 12.8594H2.5708V13.7144H3.4258V12.8594Z" fill="white"/>
<path d="M3.4258 10.2881H2.5708V11.1431H3.4258V10.2881Z" fill="white"/>
<path d="M3.4258 1.71582H2.5708V2.57082H3.4258V1.71582Z" fill="white"/>
<path d="M3.42582 0H1.71582V0.855H3.42582V0Z" fill="white"/>
<path d="M3.42582 17.1455H1.71582V18.0005H3.42582V17.1455Z" fill="white"/>
<path d="M2.57082 14.5693H1.71582V15.43H2.57082V14.5693Z" fill="white"/>
<path d="M2.57082 11.1426H1.71582V12.8582H2.57082V11.1426Z" fill="white"/>
<path d="M2.57082 2.57129H1.71582V3.43191H2.57082V2.57129Z" fill="white"/>
<path d="M1.71561 16.2842H0.85498V17.1448H1.71561V16.2842Z" fill="white"/>
<path d="M1.71561 0.854492H0.85498V1.71512H1.71561V0.854492Z" fill="white"/>
<path d="M0.855 14.5693H0V16.285H0.855V14.5693Z" fill="white"/>
<path d="M0.855 1.71582H0V3.43145H0.855V1.71582Z" fill="white"/>
</g>
<defs>
<clipPath id="clip0_6096_85434">
<rect width="18" height="18" fill="white"/>
</clipPath>
</defs>
</svg>
