<svg width="20" height="21" viewBox="0 0 20 21" fill="none" xmlns="http://www.w3.org/2000/svg">
<path d="M19.0434 10.0223H18.0934V7.16602H17.1434V10.0223H15.2371V10.9785H14.2871V12.8785H15.2371V13.8348H17.1434V17.641H18.0934V13.8348H19.0434V12.8785H19.9996V10.9785H19.0434V10.0223ZM17.1434 11.9285H16.1871V10.9785H17.1434V11.9285Z" fill="white"/>
<path d="M17.1438 17.6406H16.1875V18.5969H17.1438V17.6406Z" fill="white"/>
<path d="M17.1438 6.21484H16.1875V7.16484H17.1438V6.21484Z" fill="white"/>
<path d="M16.1875 18.5977H1.90625V19.5477H16.1875V18.5977Z" fill="white"/>
<path d="M14.2871 2.40234H12.3809V3.35859H14.2871V2.40234Z" fill="white"/>
<path d="M12.3809 3.35938H10.4746V4.30937H12.3809V3.35938Z" fill="white"/>
<path d="M10.4754 2.40234H9.52539V3.35859H10.4754V2.40234Z" fill="white"/>
<path d="M9.52539 1.45312H7.61914V2.40313H9.52539V1.45312Z" fill="white"/>
<path d="M7.61914 2.40234H5.71289V3.35859H7.61914V2.40234Z" fill="white"/>
<path d="M5.71289 3.35938H3.80664V4.30937H5.71289V3.35938Z" fill="white"/>
<path d="M4.76289 7.16602H3.80664V17.641H4.76289V7.16602Z" fill="white"/>
<path d="M16.1875 6.21563V5.25937H15.2375V3.35938H14.2875V5.25937H10.475V4.30937H9.525V5.25937H3.80625V4.30937H2.85625V5.25937H1.90625V6.21563H16.1875Z" fill="white"/>
<path d="M1.90547 17.6406H0.949219V18.5969H1.90547V17.6406Z" fill="white"/>
<path d="M1.90547 6.2168H0.949219V7.1668H1.90547V6.2168Z" fill="white"/>
<path d="M0.95 7.16602H0V17.641H0.95V7.16602Z" fill="white"/>
</svg>
