<svg width="20" height="20" viewBox="0 0 20 20" fill="none" xmlns="http://www.w3.org/2000/svg">
<g clip-path="url(#clip0_6081_60970)">
<path d="M19.9998 11.4268H19.0498V12.383H19.9998V11.4268Z" fill="#055DF5"/>
<path d="M19.0498 10.4775H17.1436V11.4275H19.0498V10.4775Z" fill="#055DF5"/>
<path d="M18.0936 8.57227H17.1436V9.52852H18.0936V8.57227Z" fill="#055DF5"/>
<path d="M14.2878 9.52715V7.6209H13.3378V6.66465H12.3815V4.76465H13.3378V3.8084H17.144V4.76465H18.094V8.5709H19.0503V2.8584H18.094V1.90215H17.144V0.952148H13.3378V1.90215H12.3815V2.8584H11.4315V5.71465H8.57529V2.8584H7.61904V1.90215H6.66904V0.952148H2.85654V1.90215H1.90654V2.8584H0.956543V8.5709H1.90654V4.76465H2.85654V3.8084H6.66904V4.76465H7.61904V6.66465H6.66904V7.6209H5.71904V9.52715H2.85654V10.4771H5.71904V14.2834H6.66904V9.52715H7.61904V8.5709H12.3815V9.52715H13.3378V14.2834H14.2878V10.4771H17.144V9.52715H14.2878Z" fill="#055DF5"/>
<path d="M16.1936 18.0957H15.2373V19.0457H16.1936V18.0957Z" fill="#055DF5"/>
<path d="M15.2376 17.1465H14.2876V18.0965H15.2376V17.1465Z" fill="#055DF5"/>
<path d="M14.2876 16.1904H12.3813V17.1467H14.2876V16.1904Z" fill="#055DF5"/>
<path d="M13.3376 14.2832H12.3813V15.2395H13.3376V14.2832Z" fill="#055DF5"/>
<path d="M12.3812 10.4775H11.4312V12.3838H12.3812V10.4775Z" fill="#055DF5"/>
<path d="M12.3812 15.2402H7.61865V16.1902H12.3812V15.2402Z" fill="#055DF5"/>
<path d="M11.431 13.334H8.57471V14.284H11.431V13.334Z" fill="#055DF5"/>
<path d="M8.5749 10.4775H7.61865V12.3838H8.5749V10.4775Z" fill="#055DF5"/>
<path d="M7.61895 14.2832H6.66895V15.2395H7.61895V14.2832Z" fill="#055DF5"/>
<path d="M7.61875 16.1904H5.71875V17.1467H7.61875V16.1904Z" fill="#055DF5"/>
<path d="M5.71895 17.1465H4.7627V18.0965H5.71895V17.1465Z" fill="#055DF5"/>
<path d="M4.7625 18.0957H3.8125V19.0457H4.7625V18.0957Z" fill="#055DF5"/>
<path d="M2.85625 8.57227H1.90625V9.52852H2.85625V8.57227Z" fill="#055DF5"/>
<path d="M2.85605 10.4775H0.956055V11.4275H2.85605V10.4775Z" fill="#055DF5"/>
<path d="M0.95625 11.4268H0V12.383H0.95625V11.4268Z" fill="#055DF5"/>
</g>
<defs>
<clipPath id="clip0_6081_60970">
<rect width="20" height="20" fill="white"/>
</clipPath>
</defs>
</svg>
