<svg width="20" height="20" viewBox="0 0 20 20" fill="none" xmlns="http://www.w3.org/2000/svg">
<path fill-rule="evenodd" clip-rule="evenodd" d="M15.1342 15.1778H16.3148V11.626H17.5V8.07191H16.3148V4.51774H15.1342V3.33301H3.69258V4.51774H2.5V15.1778H3.69734V16.3629H15.1342V15.1778ZM11.5754 9.25645H10.3907V8.07172H11.5754V6.88708H12.7601V8.07182H11.5754V9.25645ZM16.3143 12.8106H15.1296H13.9449V12.8107H12.7601V11.6259H13.9448V11.6258H15.1296H16.3143V12.8106ZM16.3143 8.07172H15.1296H13.9449V8.07182H12.7601V6.88708H13.9448V6.88698H15.1296H16.3143V8.07172ZM10.3907 11.6261H11.5754V12.8107H12.7601V11.6259H11.5754V10.4414V9.25666H10.3907V10.4414V11.6261ZM13.9449 10.4414H12.7601V9.25666H13.9449V10.4414Z"/>
</svg>
