<svg width="100" height="100" viewBox="0 0 100 100" fill="none" xmlns="http://www.w3.org/2000/svg">
<rect x="6.7793" y="6.78125" width="86.4407" height="86.4407" rx="12.4531" fill="#F1F4F9"/>
<g clip-path="url(#clip0_2513_90875)">
<path d="M29.999 43.0516H32.3719V40.6787H62.2024V43.0516H64.5753V66.1024H62.2024V68.4753H59.8295V70.8482H34.7448V68.4753H32.3719V66.1024H29.999V43.0516Z" fill="#508EF8"/>
<path d="M64.7146 42.9473H62.396V66.1947H64.7146V42.9473Z" fill="#012C69"/>
<path d="M62.3959 66.1934H60.062V68.5273H62.3959V66.1934Z" fill="#012C69"/>
<path d="M60.0627 68.5283H34.4966V70.847H60.0627V68.5283Z" fill="#012C69"/>
<path d="M57.7435 24.3516H55.4248V28.1353H57.7435V24.3516Z" fill="#012C69"/>
<path d="M50.7729 52.2522H48.4542V49.9335H50.7729V47.5996H43.8017V49.9335H41.4678V54.5708H43.8017V56.9047H46.1203V63.8759H48.4542V56.9047H50.7729V54.5708H53.0915V49.9335H50.7729V52.2522Z" fill="#055DF5"/>
<path d="M55.4257 22.7119H39.1494V26.1017H55.4257V22.7119Z" fill="#012C69"/>
<path d="M39.1497 24.3516H36.8311V28.1353H39.1497V24.3516Z" fill="#012C69"/>
<path d="M62.3969 42.9475V40.6289H60.063V26.6865H57.1182V40.6289H37.4571V26.6865H34.4969V40.6289H32.1782V42.9475H62.3969Z" fill="#012C69"/>
<path d="M34.4969 66.1934H32.1782V68.5273H34.4969V66.1934Z" fill="#012C69"/>
<path d="M32.178 42.9473H29.8594V66.1947H32.178V42.9473Z" fill="#012C69"/>
</g>
<path d="M78.4735 74.3575V76.2698H47.3812V74.3575H45.5836V72.4453H43.6714V65.1789H45.5836V63.2513H47.3812V61.3545H78.4735V63.2667H80.3857V65.1789H82.298V72.4453H80.3857V74.3575H78.4735Z" fill="#34C759"/>
<path d="M78.5241 69.6152H69.3623V71.4452H78.5241V69.6152Z" fill="white"/>
<path d="M67.5204 69.6152H65.6904V71.4452H67.5204V69.6152Z" fill="white"/>
<path d="M67.5204 65.9443H65.6904V67.7863H67.5204V65.9443Z" fill="white"/>
<path d="M65.6896 67.7871H63.8477V69.6171H65.6896V67.7871Z" fill="white"/>
<path d="M63.8485 69.6152H62.0186V71.4452H63.8485V69.6152Z" fill="white"/>
<path d="M63.8485 65.9443H62.0186V67.7863H63.8485V65.9443Z" fill="white"/>
<path d="M60.1896 69.6152H58.3477V71.4452H60.1896V69.6152Z" fill="white"/>
<path d="M60.1896 65.9443H58.3477V67.7863H60.1896V65.9443Z" fill="white"/>
<path d="M58.347 67.7871H56.5171V69.6171H58.347V67.7871Z" fill="white"/>
<path d="M56.517 69.6152H54.687V71.4452H56.517V69.6152Z" fill="white"/>
<path d="M56.5174 65.9443H54.6875V67.7863H56.5174V65.9443Z" fill="white"/>
<path d="M52.8451 69.6152H51.0151V71.4452H52.8451V69.6152Z" fill="white"/>
<path d="M52.8451 65.9443H51.0151V67.7863H52.8451V65.9443Z" fill="white"/>
<path d="M51.0148 67.7871H49.1729V69.6171H51.0148V67.7871Z" fill="white"/>
<path d="M49.1727 69.6152H47.3428V71.4452H49.1727V69.6152Z" fill="white"/>
<path d="M49.1727 65.9443H47.3428V67.7863H49.1727V65.9443Z" fill="white"/>
<defs>
<clipPath id="clip0_2513_90875">
<rect width="48.8136" height="48.8136" fill="white" transform="translate(22.8813 22.0342)"/>
</clipPath>
</defs>
</svg>
