<svg width="18" height="18" viewBox="0 0 18 18" fill="none" xmlns="http://www.w3.org/2000/svg">
<path fill-rule="evenodd" clip-rule="evenodd" d="M12.917 1.43555H11.4818V2.87073H10.0467V4.30592H8.61147V5.7411H7.17629V7.17629H5.7411V8.61147H4.30592V10.0467H2.87073V11.4818H1.43555V14.3522V15.7874H2.87073H5.7411V14.3522H7.17629V12.917H8.61147V11.4818H10.0467V10.0467H11.4818V8.61147H12.917V7.17629H14.3522V5.7411H15.7874V4.30592H14.3522V2.87073H12.917V1.43555ZM12.917 7.17629H11.4818V8.61147H10.0467V10.0467H8.61147V11.4818H7.17629V12.917H5.7411V11.4818H4.30592V10.0467H5.7411V8.61147H7.17629V7.17629H8.61147V5.7411H10.0467V4.30592H11.4818V5.7411H12.917V7.17629ZM4.30592 11.4818H2.87073V14.3522H5.7411V12.917H4.30592V11.4818Z" fill="currentColor"/>
</svg>
