<svg width="20" height="20" viewBox="0 0 20 20" fill="none" xmlns="http://www.w3.org/2000/svg">
<path fill-rule="evenodd" clip-rule="evenodd" d="M4.99984 1.6665H11.6665V3.33317H4.99984V1.6665ZM3.33317 4.99984V3.33317H4.99984V4.99984H3.33317ZM3.33317 11.6665H1.6665V4.99984H3.33317V11.6665ZM4.99984 13.3332H3.33317V11.6665H4.99984V13.3332ZM11.6665 13.3332V14.9998H4.99984V13.3332H11.6665ZM13.3332 11.6665H11.6665V13.3332H13.3332V14.9998H14.9998V16.6665H16.6665L16.6665 18.3332H18.3332V16.6665L16.6665 16.6665V14.9998H14.9998V13.3332H13.3332V11.6665ZM13.3332 4.99984H14.9998V11.6665H13.3332V4.99984ZM13.3332 4.99984V3.33317H11.6665V4.99984H13.3332Z" fill="currentColor"/>
</svg>
