<svg width="152" height="152" viewBox="0 0 152 152" fill="none" xmlns="http://www.w3.org/2000/svg">
<rect x="19" y="37" width="98" height="13" fill="url(#paint0_linear_1909_31704)"/>
<path fill-rule="evenodd" clip-rule="evenodd" d="M117 51.5H19V129H117V51.5ZM117 49.5H19V37H117V49.5ZM119 131H17V35H119V131ZM112.5 39.5H116H116.5V40V43.5H115.5V41.2071L110.207 46.5H112.5V47.5H109H108.5V47V43.5H109.5V45.7929L114.793 40.5H112.5V39.5ZM23.5 46C24.8807 46 26 44.8807 26 43.5C26 42.1193 24.8807 41 23.5 41C22.1193 41 21 42.1193 21 43.5C21 44.8807 22.1193 46 23.5 46ZM30.5 46C31.8807 46 33 44.8807 33 43.5C33 42.1193 31.8807 41 30.5 41C29.1193 41 28 42.1193 28 43.5C28 44.8807 29.1193 46 30.5 46ZM40 43.5C40 44.8807 38.8807 46 37.5 46C36.1193 46 35 44.8807 35 43.5C35 42.1193 36.1193 41 37.5 41C38.8807 41 40 42.1193 40 43.5Z" fill="#0A0E20"/>
<rect x="19" y="51" width="98" height="78" fill="white"/>
<rect x="26" y="30" width="98" height="13" fill="url(#paint1_linear_1909_31704)"/>
<path fill-rule="evenodd" clip-rule="evenodd" d="M124 44.5H26V122H124V44.5ZM124 42.5H26V30H124V42.5ZM126 124H24V28H126V124ZM119.5 32.5H123H123.5V33V36.5H122.5V34.2071L117.207 39.5H119.5V40.5H116H115.5V40V36.5H116.5V38.7929L121.793 33.5H119.5V32.5ZM30.5 39C31.8807 39 33 37.8807 33 36.5C33 35.1193 31.8807 34 30.5 34C29.1193 34 28 35.1193 28 36.5C28 37.8807 29.1193 39 30.5 39ZM37.5 39C38.8807 39 40 37.8807 40 36.5C40 35.1193 38.8807 34 37.5 34C36.1193 34 35 35.1193 35 36.5C35 37.8807 36.1193 39 37.5 39ZM47 36.5C47 37.8807 45.8807 39 44.5 39C43.1193 39 42 37.8807 42 36.5C42 35.1193 43.1193 34 44.5 34C45.8807 34 47 35.1193 47 36.5Z" fill="#0A0E20"/>
<rect x="26" y="44" width="98" height="78" fill="white"/>
<rect x="34" y="23" width="98" height="13" fill="url(#paint2_linear_1909_31704)"/>
<path fill-rule="evenodd" clip-rule="evenodd" d="M132 37.5H34V115H132V37.5ZM132 35.5H34V23H132V35.5ZM134 117H32V21H134V117ZM127.5 25.5H131H131.5V26V29.5H130.5V27.2071L125.207 32.5H127.5V33.5H124H123.5V33V29.5H124.5V31.7929L129.793 26.5H127.5V25.5ZM38.5 32C39.8807 32 41 30.8807 41 29.5C41 28.1193 39.8807 27 38.5 27C37.1193 27 36 28.1193 36 29.5C36 30.8807 37.1193 32 38.5 32ZM45.5 32C46.8807 32 48 30.8807 48 29.5C48 28.1193 46.8807 27 45.5 27C44.1193 27 43 28.1193 43 29.5C43 30.8807 44.1193 32 45.5 32ZM55 29.5C55 30.8807 53.8807 32 52.5 32C51.1193 32 50 30.8807 50 29.5C50 28.1193 51.1193 27 52.5 27C53.8807 27 55 28.1193 55 29.5Z" fill="#0A0E20"/>
<rect x="34" y="37" width="98" height="78" fill="white"/>
<g clip-path="url(#clip0_1909_31704)">
<ellipse cx="82.9806" cy="75.5052" rx="27.0314" ry="25.6087" fill="#F1F4F9"/>
<path d="M109.999 68.9521H107.387V82.049H109.999V68.9521Z" fill="#0A0E20"/>
<path d="M107.386 82.0488H104.773V87.291H107.386V82.0488Z" fill="#0A0E20"/>
<path d="M107.386 63.7266H104.773V68.9516H107.386V63.7266Z" fill="#0A0E20"/>
<path d="M104.774 87.2881H102.145V92.5303H104.774V87.2881Z" fill="#0A0E20"/>
<path d="M104.774 58.4844H102.145V63.7266H104.774V58.4844Z" fill="#0A0E20"/>
<path d="M102.144 92.5322H99.5312V95.1447H102.144V92.5322Z" fill="#0A0E20"/>
<path d="M102.144 55.8711H99.5312V58.4836H102.144V55.8711Z" fill="#0A0E20"/>
<path d="M99.5312 95.1465H94.2891V97.7762H99.5312V95.1465Z" fill="#0A0E20"/>
<path d="M99.5312 53.2432H94.2891V55.8729H99.5312V53.2432Z" fill="#0A0E20"/>
<path d="M94.293 97.7744H89.0508V100.387H94.293V97.7744Z" fill="#0A0E20"/>
<path d="M94.293 50.6309H89.0508V53.2434H94.293V50.6309Z" fill="#0A0E20"/>
<path d="M89.0484 100.388H75.9688V103H89.0484V100.388Z" fill="#0A0E20"/>
<path d="M89.0484 48H75.9688V50.6297H89.0484V48Z" fill="#0A0E20"/>
<path d="M75.9688 97.7744H70.7266V100.387H75.9688V97.7744Z" fill="#0A0E20"/>
<path d="M75.9688 50.6309H70.7266V53.2434H75.9688V50.6309Z" fill="#0A0E20"/>
<path d="M70.7266 95.1465H65.4844V97.7762H70.7266V95.1465Z" fill="#0A0E20"/>
<path d="M70.7266 53.2432H65.4844V55.8729H70.7266V53.2432Z" fill="#0A0E20"/>
<path d="M65.4836 92.5322H62.8711V95.1447H65.4836V92.5322Z" fill="#0A0E20"/>
<path d="M65.4836 55.8711H62.8711V58.4836H65.4836V55.8711Z" fill="#0A0E20"/>
<path d="M62.8719 87.2881H60.2422V92.5303H62.8719V87.2881Z" fill="#0A0E20"/>
<path d="M62.8719 58.4844H60.2422V63.7266H62.8719V58.4844Z" fill="#0A0E20"/>
<path d="M60.2414 82.0488H57.6289V87.291H60.2414V82.0488Z" fill="#0A0E20"/>
<path d="M60.2414 63.7266H57.6289V68.9516H60.2414V63.7266Z" fill="#0A0E20"/>
<path d="M57.6297 68.9521H55V82.049H57.6297V68.9521Z" fill="#0A0E20"/>
<path d="M68.0352 78.0802H70.6069V80.652H73.1787V83.2238H75.7674V85.8125H80.911V83.2238H83.4997V80.652H86.0715V78.0802H88.6602V75.4915H91.2319V72.9198H93.8037V70.348H96.3924V67.7593H93.8037V65.1875H91.2319V67.7593H88.6602V70.348H86.0715V72.9198H83.4997V75.4915H80.911V78.0802H75.7674V75.4915H73.1787V72.9198H70.6069V75.4915H68.0352V78.0802Z" fill="#00AC45"/>
</g>
<defs>
<linearGradient id="paint0_linear_1909_31704" x1="68" y1="37" x2="68" y2="50" gradientUnits="userSpaceOnUse">
<stop stop-color="#4658C9"/>
</linearGradient>
<linearGradient id="paint1_linear_1909_31704" x1="75" y1="30" x2="75" y2="43" gradientUnits="userSpaceOnUse">
<stop stop-color="#4658C9"/>
</linearGradient>
<linearGradient id="paint2_linear_1909_31704" x1="83" y1="23" x2="83" y2="36" gradientUnits="userSpaceOnUse">
<stop stop-color="#4658C9"/>
</linearGradient>
<clipPath id="clip0_1909_31704">
<rect width="55" height="55" fill="white" transform="translate(55 48)"/>
</clipPath>
</defs>
</svg>
