<svg width="132" height="132" viewBox="0 0 132 132" fill="none" xmlns="http://www.w3.org/2000/svg">
<path d="M109.403 29H112.821H112.845V32.6358H116.481V36.1261V39.7861V43.4219V46.9244V50.5844V54.0869V57.7469V61.4069V65.0669V68.7269V72.2294V75.8894V79.3919V83.0519V86.7361V90.3962V93.9956H112.845V97.6314H109.427H105.767H102.265H98.6047H94.9447H91.2847H87.6246H84.1222H80.4622H76.9597H73.2997H69.6396H65.9796H62.4772H58.8172H55.1571H51.6547H47.8613V101.267H44.3468V104.782H40.711V108.418H37.0752V112.053H33.4394V115.568H29.8037V112.029V108.369V104.709V101.207V97.6314H26.3739H22.7139H19.1387V93.9956H15.5029V90.3962V86.7361V83.0761V79.4161V75.9136V72.2536V68.7512V65.0911V61.4311V57.7711V54.1111V50.6086V46.9486V43.4462V39.7861V36.1261V32.6358H19.1387V29H22.6775H26.3375H29.84H33.5H37.16H40.8201H44.4801H47.9825H51.6426H55.145H58.805H62.4651H65.9675H69.6275H73.2876H76.9476H80.45H84.11H87.6125H91.2604H94.9204H98.5804H102.24H105.743H109.403Z" fill="#F1F4F9"/>
<path d="M80.3408 54.0869H76.8262V57.8439H80.3408V54.0869Z" fill="#012C69"/>
<path d="M76.8262 57.8438H73.1904V61.4795H76.8262V57.8438Z" fill="#012C69"/>
<path d="M65.9795 61.4795H62.477H58.7686V65.1153H62.477H65.9795H69.6395H73.1905V61.4795H69.6395H65.9795Z" fill="#012C69"/>
<path d="M58.7687 57.8438H55.0117V61.4795H58.7687V57.8438Z" fill="#012C69"/>
<path d="M55.0116 54.0869H51.6182V57.8439H55.0116V54.0869Z" fill="#012C69"/>
<path d="M51.6183 50.6934H47.8613V54.0868H51.6183V50.6934Z" fill="#012C69"/>
<path d="M47.8613 46.9365H44.3467V50.6935H47.8613V46.9365Z" fill="#012C69"/>
<path d="M83.9767 68.751H80.3409V65.1153H76.8263V61.4795H73.1905V65.1153H69.6396H65.9796H62.4771H58.7686V61.4795H55.0116V65.1153H51.6182V68.751H47.8613V72.2656H44.3467V75.9014H48.0067H51.6546H55.1692H58.8171H62.4771H65.9796H69.6396H73.2875H76.9475H80.4499H84.11H87.4912V72.2656H83.9767V68.751Z" fill="#055DF5"/>
<path d="M83.9765 54.0869H80.3408V57.8439H76.8262V61.4191V65.1154H80.3408V68.7512H83.9765V72.2658H87.4911V68.727V65.067V61.4191V56.5H83.9765V54.0869Z" fill="#508EF8"/>
<path d="M80.3409 54.0869V50.5965V46.9365H76.9475H73.2875H69.6396H65.9796H62.4771H58.8171H55.1692H51.6547H47.8613V50.6935H51.6183V54.0869H55.0117V57.8439H58.7687V61.4796H62.4771H65.9796H69.6396H73.1906V57.8439H76.8264V54.0869H80.3409Z" fill="#508EF8"/>
<path d="M51.6182 54.0868H47.8613V50.6934H44.3467V54.111V57.7589V61.4189V65.0668V68.7268V72.2656H47.8613V68.7511H51.6182V65.1153H55.0116V61.4189V57.8437H51.6182V54.0868Z" fill="#508EF8"/>
<path d="M102.5 54V56.5H61.8501V54H59.5V51.5H57V42H59.5V39.4799H61.8501V37H102.5V39.5H105V42H107.5V51.5H105V54H102.5Z" fill="#34C759"/>
<path d="M102.568 47.7998H90.5898V50.1923H102.568V47.7998Z" fill="white"/>
<path d="M88.1815 47.7998H85.7891V50.1923H88.1815V47.7998Z" fill="white"/>
<path d="M88.1815 43H85.7891V45.4082H88.1815V43Z" fill="white"/>
<path d="M85.7881 45.4082H83.3799V47.8007H85.7881V45.4082Z" fill="white"/>
<path d="M83.3807 47.7998H80.9883V50.1923H83.3807V47.7998Z" fill="white"/>
<path d="M83.3807 43H80.9883V45.4082H83.3807V43Z" fill="white"/>
<path d="M78.5957 47.7998H76.1875V50.1923H78.5957V47.7998Z" fill="white"/>
<path d="M78.5957 43H76.1875V45.4082H78.5957V43Z" fill="white"/>
<path d="M76.1874 45.4082H73.7949V47.8007H76.1874V45.4082Z" fill="white"/>
<path d="M73.7948 47.7998H71.4023V50.1923H73.7948V47.7998Z" fill="white"/>
<path d="M73.7948 43H71.4023V45.4082H73.7948V43Z" fill="white"/>
<path d="M68.994 47.7998H66.6016V50.1923H68.994V47.7998Z" fill="white"/>
<path d="M68.994 43H66.6016V45.4082H68.994V43Z" fill="white"/>
<path d="M66.6015 45.4082H64.1934V47.8007H66.6015V45.4082Z" fill="white"/>
<path d="M64.1932 47.7998H61.8008V50.1923H64.1932V47.7998Z" fill="white"/>
<path d="M64.1932 43H61.8008V45.4082H64.1932V43Z" fill="white"/>
</svg>
