<svg width="27" height="21" viewBox="0 0 27 21" fill="none" xmlns="http://www.w3.org/2000/svg">
<path fill-rule="evenodd" clip-rule="evenodd" d="M7.75622 16.2965V9.26953H10.8059C10.9046 9.26935 11.0014 9.24287 11.0864 9.19281C11.1714 9.14276 11.2415 9.07094 11.2895 8.98477C11.3375 8.89859 11.3617 8.80118 11.3595 8.70255C11.3574 8.60393 11.3289 8.50767 11.2772 8.42369L8.7678 4.39399L6.20669 0.274325C6.15764 0.193531 6.08839 0.126917 6.00575 0.0810517C5.92311 0.0351867 5.82995 0.0116554 5.73544 0.0127802C5.64121 0.0113696 5.54827 0.0347995 5.46596 0.0807123C5.38366 0.126625 5.3149 0.193401 5.2666 0.274325L2.70299 4.39399L0.196549 8.42369C0.142301 8.50668 0.112184 8.60312 0.109562 8.70223C0.10694 8.80135 0.131915 8.89924 0.181699 8.98498C0.228796 9.07192 0.298719 9.14436 0.383936 9.1945C0.469154 9.24464 0.566436 9.27058 0.665305 9.26953H3.71484V18.0963C3.71611 18.8623 4.02088 19.5966 4.56242 20.1384C5.10395 20.6801 5.83811 20.9852 6.60411 20.9868H13.0662C13.1813 20.9865 13.2916 20.9405 13.3729 20.8591C13.4543 20.7777 13.5001 20.6673 13.5003 20.5522V17.3781C13.5 17.263 13.4542 17.1526 13.3728 17.0712C13.2915 16.9897 13.1811 16.9438 13.066 16.9434H8.40506C8.23328 16.9435 8.06849 16.8754 7.94684 16.7541C7.82519 16.6328 7.75669 16.4683 7.75622 16.2965ZM19.2418 4.70317V11.7301H16.1946C16.0959 11.7302 15.9991 11.7566 15.9141 11.8067C15.8291 11.8567 15.7589 11.9285 15.7109 12.0147C15.6629 12.1009 15.6387 12.1983 15.6409 12.2969C15.6431 12.3956 15.6716 12.4918 15.7233 12.5758L18.2298 16.6056L20.7934 20.7253C20.843 20.8052 20.9122 20.8713 20.9945 20.917C21.0767 20.9628 21.1693 20.9868 21.2634 20.9868C21.3576 20.9868 21.4501 20.9628 21.5324 20.917C21.6147 20.8713 21.6839 20.8052 21.7335 20.7253L24.2971 16.6056L26.8035 12.5758C26.8578 12.4928 26.8879 12.3964 26.8905 12.2973C26.8931 12.1982 26.8682 12.1003 26.8184 12.0146C26.7713 11.9277 26.7014 11.8552 26.6161 11.8051C26.5309 11.7549 26.4336 11.729 26.3348 11.7301H23.2857V2.90317C23.2844 2.13717 22.9796 1.40288 22.4381 0.861123C21.8966 0.319363 21.1624 0.014284 20.3964 0.0126953H13.9345C13.8194 0.0130129 13.709 0.0589241 13.6276 0.140386C13.5463 0.221847 13.5005 0.332226 13.5003 0.447373V3.62145C13.5005 3.7366 13.5463 3.84698 13.6276 3.92844C13.709 4.0099 13.8194 4.05582 13.9345 4.05613H18.5955C18.6804 4.05616 18.7645 4.07291 18.843 4.10544C18.9214 4.13798 18.9927 4.18565 19.0527 4.24573C19.1127 4.30582 19.1604 4.37714 19.1928 4.45563C19.2253 4.53412 19.2419 4.61824 19.2418 4.70317Z" fill="#508EF8"/>
</svg>
