<svg width="20" height="21" viewBox="0 0 20 21" fill="none" xmlns="http://www.w3.org/2000/svg">
<path d="M1.64327 10.0072L6.02174 12.1893C6.1048 12.2306 6.19679 12.2506 6.28949 12.2476C6.38218 12.2446 6.47269 12.2187 6.55291 12.1721L10.4502 9.90645L8.09123 11.9968C8.03191 12.0494 7.98441 12.1139 7.95187 12.1862C7.91933 12.2585 7.9025 12.3368 7.90249 12.4161V17.5078C7.90249 18.0449 8.58809 18.271 8.90963 17.8442L10.8023 15.3279L15.4829 17.9934C15.5599 18.0372 15.6461 18.0621 15.7345 18.066C15.8229 18.07 15.911 18.0529 15.9915 18.0162C16.0721 17.9795 16.1427 17.9242 16.1978 17.8549C16.2528 17.7856 16.2906 17.7042 16.308 17.6174L19.2273 3.0698C19.247 2.97136 19.2398 2.86942 19.2066 2.77467C19.1734 2.67993 19.1152 2.59588 19.0383 2.53133C18.9614 2.46679 18.8686 2.42412 18.7695 2.40782C18.6704 2.39151 18.5688 2.40217 18.4753 2.43866L1.68953 8.9851C1.58859 9.02446 1.50126 9.09229 1.43813 9.18033C1.375 9.26837 1.33878 9.37285 1.33389 9.48108C1.32899 9.58931 1.35562 9.69663 1.41054 9.79002C1.46546 9.88341 1.54631 9.95884 1.64327 10.0072ZM17.9292 3.85314L15.3636 16.6379L10.9284 14.1118C10.81 14.0447 10.6712 14.0229 10.538 14.0505C10.4047 14.0781 10.286 14.1532 10.204 14.2618L9.02154 15.8337V12.6675L15.4009 7.01557C15.9059 6.5687 15.3255 5.77417 14.7488 6.11287L6.25152 11.0531L3.27335 9.56924L17.9292 3.85314Z" fill="currentColor"/>
</svg>
