<svg width="44" height="44" viewBox="0 0 44 44" fill="none" xmlns="http://www.w3.org/2000/svg">
<path d="M22 44C34.1503 44 44 34.1503 44 22C44 9.84974 34.1503 0 22 0C9.84974 0 0 9.84974 0 22C0 34.1503 9.84974 44 22 44Z" fill="#D9F3F2"/>
<path d="M24.2828 19.2925V16.6943H30.1942V12.5957H13.7888V16.6943H19.7156V19.2925C14.7502 19.5323 11.0234 20.5289 11.0234 21.7125C11.0234 22.8961 14.7458 23.8971 19.7156 24.1325V32.7125H24.2828V24.1325C29.2482 23.8949 32.975 22.8983 32.975 21.7125C32.975 20.5267 29.2592 19.5323 24.2828 19.2925ZM21.9992 23.3757C16.6224 23.3757 12.2642 22.5441 12.2642 21.5431C12.2642 20.6829 15.4388 19.9591 19.7112 19.7655V22.7003C20.446 22.7333 21.2094 22.7531 21.9948 22.7531C22.7802 22.7531 23.548 22.7333 24.2784 22.7003V19.7655C28.5508 19.9591 31.7254 20.6829 31.7254 21.5431C31.7342 22.5551 27.376 23.3757 21.9992 23.3757Z" fill="url(#paint0_linear_7003_77065)"/>
<defs>
<linearGradient id="paint0_linear_7003_77065" x1="25.6026" y1="4.30514" x2="36.3408" y2="28.8659" gradientUnits="userSpaceOnUse">
<stop stop-color="#57D3BF"/>
<stop offset="1" stop-color="#0FA7BA"/>
</linearGradient>
</defs>
</svg>
