<svg width="17" height="17" viewBox="0 0 17 17" fill="none" xmlns="http://www.w3.org/2000/svg">
<path fill-rule="evenodd" clip-rule="evenodd" d="M11.1663 1.83301H11.1665V3.16634H11.1663V4.49967H12.4997H13.833H15.1663V5.83301H13.833V13.833H13.8332V15.1663L13.833 15.1663H12.4997H4.49984L3.1665 15.1663V13.833V5.83301H1.83301V4.49967H3.1665H4.49984H5.83317V3.16634V1.83301H7.1665H9.83301H11.1663ZM9.83301 3.16634H7.1665V4.49967H9.83301V3.16634ZM9.83301 5.83301H7.1665H5.83317H4.49984V13.833H12.4997V5.83301H11.1663H9.83301ZM6.49967 7.16634H7.83301V12.4997H6.49967V7.16634ZM10.4998 7.16634H9.1665V12.4997H10.4998V7.16634Z" fill="currentColor"/>
</svg>
