<svg width="26" height="26" viewBox="0 0 26 26" fill="none" xmlns="http://www.w3.org/2000/svg">
<path fill-rule="evenodd" clip-rule="evenodd" d="M15.1641 6.5H21.6641H23.8307V8.66667L23.8307 15.1667H21.6641V10.8334H19.4977V13H17.331V10.8333H19.4975V8.66668H21.6641V8.66667H15.1641V6.5ZM8.66406 10.8333H10.8307V13H8.66406V10.8333ZM8.6642 13H6.49753V15.1667H8.6642V13ZM4.33099 15.1667H6.49766V17.3334H4.33099V15.1667ZM2.16406 17.3333H4.33073V19.5H2.16406V17.3333ZM12.9977 13H10.831V15.1667H12.9977V13ZM12.9975 15.1667H15.1642V17.3334H12.9975V15.1667ZM17.3307 13H15.1641V15.1667H17.3307V13Z" fill="black"/>
</svg>
