<svg width="18" height="20" viewBox="0 0 18 20" fill="none" xmlns="http://www.w3.org/2000/svg">
<path fill-rule="evenodd" clip-rule="evenodd" d="M14 0H12V1.99992H5.99984V0H3.99984V1.99992H2H0V3.99992V6V8V18V19.9999V20H18V18H17.9998V8H18V6H17.9998V3.99992H18V1.99992H17.9998H15.9998H14V0ZM3.99984 4V3.99992H2V6H15.9998V3.99992H14V4H12V3.99992H5.99984V4H3.99984ZM2 18V8H15.9998V18H2ZM8 13.9999H6V15.9999H8V13.9999ZM10.0002 12.0001H11.9998V10.0001H9.99984V12H8.00016V14H9.99984V15.9999H11.9998V13.9999H10.0002V12.0001ZM8 10.0001H6V12.0001H8V10.0001Z" fill="white"/>
</svg>
