<svg width="24" height="24" viewBox="0 0 24 24" fill="none" xmlns="http://www.w3.org/2000/svg">
<path d="M15.6688 13.8525C15.6913 12.3112 14.1032 11.2275 12.0538 11.0138C10.85 10.8919 10.1957 10.5487 10.1957 9.75375C10.1957 8.99437 10.9682 8.43 11.8288 8.47687C13.3925 8.565 13.6194 9.5325 13.6194 10.1231C13.6194 10.1231 15.3219 10.1419 15.3219 10.1231C15.3219 8.685 14.4932 7.41938 12.8 7.04625V5.34375H11.1125V6.98625C9.36316 7.26375 8.39379 8.67375 8.37691 9.87375C8.35254 11.4619 9.68004 12.345 11.8832 12.6638C13.2519 12.8513 13.8613 13.3744 13.8482 14.0681C13.8369 14.8181 13.3475 15.5363 11.9375 15.5363C10.5988 15.5363 10.0494 14.7094 10.0494 13.8375H8.21191C8.21191 15.4013 9.04816 16.5487 11.1032 16.815V18.4537H12.7907V16.8319C15.1757 16.53 15.6538 14.7375 15.6688 13.8525Z" fill="#E6E6E8"/>
<path d="M3.82641 12C3.82645 10.2879 4.36418 8.619 5.36369 7.22891C6.3632 5.83881 7.77402 4.7977 9.39703 4.25252V2.45439C7.30306 3.02557 5.455 4.26944 4.13757 5.99436C2.82014 7.71928 2.10645 9.82954 2.10645 12C2.10645 14.1705 2.82014 16.2808 4.13757 18.0057C5.455 19.7306 7.30306 20.9745 9.39703 21.5456V19.7475C7.77402 19.2023 6.3632 18.1612 5.36369 16.7711C4.36418 15.381 3.82645 13.7122 3.82641 12ZM14.5064 2.42627V4.21877C16.1521 4.75017 17.5869 5.78963 18.6046 7.18776C19.6224 8.58589 20.1706 10.2707 20.1706 12C20.1706 13.7293 19.6224 15.4141 18.6046 16.8123C17.5869 18.2104 16.1521 19.2499 14.5064 19.7813V21.5738C16.6223 21.0183 18.4945 19.7776 19.8306 18.0455C21.1667 16.3135 21.8913 14.1875 21.8913 12C21.8913 9.81249 21.1667 7.68658 19.8306 5.95449C18.4945 4.22239 16.6223 2.9817 14.5064 2.42627Z" fill="#E6E6E8"/>
</svg>
