<svg width="36" height="36" viewBox="0 0 36 36" fill="none" xmlns="http://www.w3.org/2000/svg">
<g clip-path="url(#clip0_6037_59870)">
<path d="M18 36C27.9411 36 36 27.9411 36 18C36 8.05888 27.9411 0 18 0C8.05888 0 0 8.05888 0 18C0 27.9411 8.05888 36 18 36Z" fill="#FAECE2"/>
<path d="M21.6678 19.853C21.6903 18.3117 20.1022 17.228 18.0528 17.0142C16.8491 16.8924 16.1947 16.5492 16.1947 15.7542C16.1947 14.9949 16.9672 14.4305 17.8278 14.4774C19.3916 14.5655 19.6184 15.533 19.6184 16.1236C19.6184 16.1236 21.3209 16.1424 21.3209 16.1236C21.3209 14.6855 20.4922 13.4199 18.7991 13.0467V11.3442H17.1116V12.9867C15.3622 13.2642 14.3928 14.6742 14.3759 15.8742C14.3516 17.4624 15.6791 18.3455 17.8822 18.6642C19.2509 18.8517 19.8603 19.3749 19.8472 20.0686C19.8359 20.8186 19.3466 21.5367 17.9366 21.5367C16.5978 21.5367 16.0484 20.7099 16.0484 19.838H14.2109C14.2109 21.4017 15.0472 22.5492 17.1022 22.8155V24.4542H18.7897V22.8324C21.1747 22.5305 21.6528 20.738 21.6678 19.853Z" fill="url(#paint0_linear_6037_59870)"/>
<path d="M9.82543 18.001C9.82548 16.2889 10.3632 14.62 11.3627 13.2299C12.3622 11.8398 13.773 10.7987 15.3961 10.2535V8.45537C13.3021 9.02655 11.454 10.2704 10.1366 11.9953C8.81916 13.7203 8.10547 15.8305 8.10547 18.001C8.10547 20.1715 8.81916 22.2817 10.1366 24.0067C11.454 25.7316 13.3021 26.9754 15.3961 27.5466V25.7485C13.773 25.2033 12.3622 24.1622 11.3627 22.7721C10.3632 21.382 9.82548 19.7131 9.82543 18.001ZM20.5054 8.42725V10.2197C22.1511 10.7511 23.5859 11.7906 24.6036 13.1887C25.6214 14.5869 26.1697 16.2717 26.1697 18.001C26.1697 19.7303 25.6214 21.4151 24.6036 22.8133C23.5859 24.2114 22.1511 25.2508 20.5054 25.7822V27.5747C22.6213 27.0193 24.4935 25.7786 25.8296 24.0465C27.1657 22.3144 27.8904 20.1885 27.8904 18.001C27.8904 15.8135 27.1657 13.6876 25.8296 11.9555C24.4935 10.2234 22.6213 8.98267 20.5054 8.42725Z" fill="url(#paint1_linear_6037_59870)"/>
</g>
<defs>
<linearGradient id="paint0_linear_6037_59870" x1="19.0792" y1="9.47706" x2="29.0591" y2="21.1586" gradientUnits="userSpaceOnUse">
<stop stop-color="#F0AD78"/>
<stop offset="1" stop-color="#DD8464"/>
</linearGradient>
<linearGradient id="paint1_linear_6037_59870" x1="21.0216" y1="5.70018" x2="32.388" y2="29.8686" gradientUnits="userSpaceOnUse">
<stop stop-color="#F0AD78"/>
<stop offset="1" stop-color="#DD8464"/>
</linearGradient>
<clipPath id="clip0_6037_59870">
<rect width="36" height="36" fill="white"/>
</clipPath>
</defs>
</svg>
