<svg width="36" height="36" viewBox="0 0 36 36" fill="none" xmlns="http://www.w3.org/2000/svg">
<g clip-path="url(#clip0_6014_55416)">
<path d="M18 36C27.9411 36 36 27.9411 36 18C36 8.05888 27.9411 0 18 0C8.05888 0 0 8.05888 0 18C0 27.9411 8.05888 36 18 36Z" fill="#FAECE2"/>
<path d="M21.669 19.8525C21.6915 18.3112 20.1034 17.2275 18.054 17.0138C16.8503 16.8919 16.1959 16.5487 16.1959 15.7537C16.1959 14.9944 16.9684 14.43 17.829 14.4769C19.3928 14.565 19.6197 15.5325 19.6197 16.1231C19.6197 16.1231 21.3222 16.1419 21.3222 16.1231C21.3222 14.685 20.4934 13.4194 18.8003 13.0463V11.3438H17.1128V12.9862C15.3634 13.2637 14.394 14.6737 14.3772 15.8737C14.3528 17.4619 15.6803 18.345 17.8834 18.6638C19.2522 18.8513 19.8615 19.3744 19.8484 20.0681C19.8372 20.8181 19.3478 21.5363 17.9378 21.5363C16.599 21.5363 16.0497 20.7094 16.0497 19.8375H14.2122C14.2122 21.4013 15.0484 22.5487 17.1034 22.815V24.4537H18.7909V22.8319C21.1759 22.53 21.654 20.7375 21.669 19.8525Z" fill="url(#paint0_linear_6014_55416)"/>
<path d="M9.82617 18.0005C9.82621 16.2884 10.3639 14.6195 11.3634 13.2294C12.363 11.8393 13.7738 10.7982 15.3968 10.253V8.45488C13.3028 9.02606 11.4548 10.2699 10.1373 11.9949C8.81989 13.7198 8.1062 15.83 8.1062 18.0005C8.1062 20.171 8.81989 22.2812 10.1373 24.0062C11.4548 25.7311 13.3028 26.975 15.3968 27.5461V25.748C13.7738 25.2028 12.363 24.1617 11.3634 22.7716C10.3639 21.3815 9.82621 19.7126 9.82617 18.0005ZM20.5062 8.42676V10.2193C22.1518 10.7507 23.5866 11.7901 24.6044 13.1883C25.6221 14.5864 26.1704 16.2712 26.1704 18.0005C26.1704 19.7298 25.6221 21.4146 24.6044 22.8128C23.5866 24.2109 22.1518 25.2504 20.5062 25.7818V27.5743C22.622 27.0188 24.4942 25.7781 25.8303 24.046C27.1664 22.3139 27.8911 20.188 27.8911 18.0005C27.8911 15.813 27.1664 13.6871 25.8303 11.955C24.4942 10.2229 22.622 8.98219 20.5062 8.42676Z" fill="url(#paint1_linear_6014_55416)"/>
</g>
<defs>
<linearGradient id="paint0_linear_6014_55416" x1="19.0804" y1="9.47657" x2="29.0603" y2="21.1582" gradientUnits="userSpaceOnUse">
<stop stop-color="#F0AD78"/>
<stop offset="1" stop-color="#DD8464"/>
</linearGradient>
<linearGradient id="paint1_linear_6014_55416" x1="21.0224" y1="5.69969" x2="32.3887" y2="29.8681" gradientUnits="userSpaceOnUse">
<stop stop-color="#F0AD78"/>
<stop offset="1" stop-color="#DD8464"/>
</linearGradient>
<clipPath id="clip0_6014_55416">
<rect width="36" height="36" fill="white"/>
</clipPath>
</defs>
</svg>
