<svg width="24" height="25" viewBox="0 0 24 25" fill="none" xmlns="http://www.w3.org/2000/svg">
<g opacity="0.4">
<path d="M15.6717 14.352C15.6942 12.8108 14.1061 11.727 12.0567 11.5133C10.853 11.3914 10.1986 11.0483 10.1986 10.2533C10.1986 9.49389 10.9711 8.92951 11.8317 8.97639C13.3955 9.06451 13.6223 10.032 13.6223 10.6226C13.6223 10.6226 15.3248 10.6414 15.3248 10.6226C15.3248 9.18451 14.4961 7.91889 12.803 7.54576V5.84326H11.1155V7.48576C9.36609 7.76326 8.39672 9.17326 8.37984 10.3733C8.35547 11.9614 9.68297 12.8445 11.8861 13.1633C13.2548 13.3508 13.8642 13.8739 13.8511 14.5676C13.8398 15.3176 13.3505 16.0358 11.9405 16.0358C10.6017 16.0358 10.0523 15.2089 10.0523 14.337H8.21484C8.21484 15.9008 9.05109 17.0483 11.1061 17.3145V18.9533H12.7936V17.3314C15.1786 17.0295 15.6567 15.237 15.6717 14.352Z" fill="white"/>
<path d="M3.82934 12.5C3.82938 10.7879 4.36711 9.119 5.36662 7.72891C6.36613 6.33881 7.77695 5.2977 9.39996 4.75252V2.95439C7.30599 3.52557 5.45793 4.76944 4.1405 6.49436C2.82307 8.21928 2.10938 10.3295 2.10938 12.5C2.10937 14.6705 2.82307 16.7808 4.1405 18.5057C5.45793 20.2306 7.30599 21.4745 9.39996 22.0456V20.2475C7.77695 19.7023 6.36613 18.6612 5.36662 17.2711C4.36711 15.881 3.82938 14.2122 3.82934 12.5ZM14.5093 2.92627V4.71877C16.155 5.25017 17.5898 6.28963 18.6075 7.68776C19.6253 9.08589 20.1736 10.7707 20.1736 12.5C20.1736 14.2293 19.6253 15.9141 18.6075 17.3123C17.5898 18.7104 16.155 19.7499 14.5093 20.2813V22.0738C16.6252 21.5183 18.4974 20.2776 19.8335 18.5455C21.1696 16.8135 21.8943 14.6875 21.8943 12.5C21.8943 10.3125 21.1696 8.18658 19.8335 6.45449C18.4974 4.72239 16.6252 3.4817 14.5093 2.92627Z" fill="white"/>
</g>
</svg>
