<svg width="36" height="36" viewBox="0 0 36 36" fill="none" xmlns="http://www.w3.org/2000/svg">
<g clip-path="url(#clip0_6014_58888)">
<path d="M18 36C27.9411 36 36 27.9411 36 18C36 8.05888 27.9411 0 18 0C8.05888 0 0 8.05888 0 18C0 27.9411 8.05888 36 18 36Z" fill="#D9F3F2"/>
<path d="M19.8684 15.7849V13.6591H24.705V10.3057H11.2824V13.6591H16.1316V15.7849C12.069 15.9811 9.01978 16.7965 9.01978 17.7649C9.01978 18.7333 12.0654 19.5523 16.1316 19.7449V26.7649H19.8684V19.7449C23.931 19.5505 26.9802 18.7351 26.9802 17.7649C26.9802 16.7947 23.94 15.9811 19.8684 15.7849ZM18 19.1257C13.6008 19.1257 10.035 18.4453 10.035 17.6263C10.035 16.9225 12.6324 16.3303 16.128 16.1719V18.5731C16.7292 18.6001 17.3538 18.6163 17.9964 18.6163C18.639 18.6163 19.2672 18.6001 19.8648 18.5731V16.1719C23.3604 16.3303 25.9578 16.9225 25.9578 17.6263C25.965 18.4543 22.3992 19.1257 18 19.1257Z" fill="url(#paint0_linear_6014_58888)"/>
</g>
<defs>
<linearGradient id="paint0_linear_6014_58888" x1="20.9482" y1="3.52248" x2="29.7339" y2="23.6176" gradientUnits="userSpaceOnUse">
<stop stop-color="#57D3BF"/>
<stop offset="1" stop-color="#0FA7BA"/>
</linearGradient>
<clipPath id="clip0_6014_58888">
<rect width="36" height="36" fill="white"/>
</clipPath>
</defs>
</svg>
