<svg width="36" height="36" viewBox="0 0 36 36" fill="none" xmlns="http://www.w3.org/2000/svg">
<g clip-path="url(#clip0_6037_45563)">
<path d="M18 36C27.9411 36 36 27.9411 36 18C36 8.05888 27.9411 0 18 0C8.05888 0 0 8.05888 0 18C0 27.9411 8.05888 36 18 36Z" fill="#D9F3F2"/>
<path d="M19.8681 15.7844V13.6586H24.7047V10.3052H11.2821V13.6586H16.1313V15.7844C12.0687 15.9806 9.01953 16.796 9.01953 17.7644C9.01953 18.7328 12.0651 19.5518 16.1313 19.7444V26.7644H19.8681V19.7444C23.9307 19.55 26.9799 18.7346 26.9799 17.7644C26.9799 16.7942 23.9397 15.9806 19.8681 15.7844ZM17.9997 19.1252C13.6005 19.1252 10.0347 18.4448 10.0347 17.6258C10.0347 16.922 12.6321 16.3298 16.1277 16.1714V18.5726C16.7289 18.5996 17.3535 18.6158 17.9961 18.6158C18.6387 18.6158 19.2669 18.5996 19.8645 18.5726V16.1714C23.3601 16.3298 25.9575 16.922 25.9575 17.6258C25.9647 18.4538 22.3989 19.1252 17.9997 19.1252Z" fill="url(#paint0_linear_6037_45563)"/>
</g>
<defs>
<linearGradient id="paint0_linear_6037_45563" x1="20.9479" y1="3.52199" x2="29.7337" y2="23.6172" gradientUnits="userSpaceOnUse">
<stop stop-color="#57D3BF"/>
<stop offset="1" stop-color="#0FA7BA"/>
</linearGradient>
<clipPath id="clip0_6037_45563">
<rect width="36" height="36" fill="white"/>
</clipPath>
</defs>
</svg>
