<svg width="24" height="24" viewBox="0 0 24 24" fill="none" xmlns="http://www.w3.org/2000/svg">
<path d="M14.1989 8.65556V6.46173H19.1898V3H5.33588V6.46173H10.3408V8.65556C6.14782 8.85723 3 9.69899 3 10.7073C3 11.7157 6.14432 12.5522 10.3408 12.7591V20H14.1989V12.7591C18.3919 12.5592 21.5397 11.7175 21.5397 10.7073C21.5397 9.69724 18.3954 8.85723 14.1989 8.65556ZM12.2699 12.1033C7.72963 12.1033 4.04869 11.4018 4.04869 10.5565C4.04869 9.82876 6.73004 9.21849 10.3373 9.0554V11.5333C11.6227 11.5915 12.91 11.5915 14.1954 11.5333V9.0554C17.8027 9.21849 20.484 9.82876 20.484 10.5565C20.491 11.4106 16.8101 12.1033 12.2699 12.1033Z" fill="#E6E6E8"/>
</svg>
