<svg width="24" height="25" viewBox="0 0 24 25" fill="none" xmlns="http://www.w3.org/2000/svg">
<g opacity="0.4">
<path d="M14.1989 9.15556V6.96173H19.1898V3.5H5.33588V6.96173H10.3408V9.15556C6.14782 9.35723 3 10.199 3 11.2073C3 12.2157 6.14432 13.0522 10.3408 13.2591V20.5H14.1989V13.2591C18.3919 13.0592 21.5397 12.2175 21.5397 11.2073C21.5397 10.1972 18.3954 9.35723 14.1989 9.15556ZM12.2699 12.6033C7.72963 12.6033 4.04869 11.9018 4.04869 11.0565C4.04869 10.3288 6.73004 9.71849 10.3373 9.5554V12.0333C11.6227 12.0915 12.91 12.0915 14.1954 12.0333V9.5554C17.8027 9.71849 20.484 10.3288 20.484 11.0565C20.491 11.9106 16.8101 12.6033 12.2699 12.6033Z" fill="white"/>
</g>
</svg>
