<svg width="50" height="22" viewBox="0 0 50 22" fill="none" xmlns="http://www.w3.org/2000/svg">
<g clip-path="url(#clip0_3556_166274)">
<rect x="2.91406" y="2" width="18" height="18" rx="9" fill="#5856D6"/>
<g clip-path="url(#clip1_3556_166274)">
<path d="M12.444 12.8711H11.2109V14.1041H12.444V12.8711Z" fill="#D69365"/>
<path d="M9.99086 11.6377H8.75781V12.8707H9.99086V11.6377Z" fill="#F9D4BB"/>
<path d="M12.444 11.6377H11.2109V12.8707H12.444V11.6377Z" fill="white"/>
<path d="M14.9049 11.6377H13.6719V12.8707H14.9049V11.6377Z" fill="#F9D4BB"/>
<path d="M9.99086 10.4043H8.75781V11.6373H9.99086V10.4043Z" fill="#F9D4BB"/>
<path d="M12.444 10.4043H11.2109V11.6373H12.444V10.4043Z" fill="#F9D4BB"/>
<path d="M14.9049 10.4043H13.6719V11.6373H14.9049V10.4043Z" fill="#F9D4BB"/>
<path d="M9.99086 9.17285H8.75781V10.4059H9.99086V9.17285Z" fill="#F9D4BB"/>
<path d="M8.75648 10.4043H7.52344V11.6373H8.75648V10.4043Z" fill="#F9BE8F"/>
<path d="M8.75648 9.17285H7.52344V10.4059H8.75648V9.17285Z" fill="#4F0000"/>
<path d="M16.1393 10.4043H14.9062V11.6373H16.1393V10.4043Z" fill="#F9BE8F"/>
<path d="M16.1393 9.17285H14.9062V10.4059H16.1393V9.17285Z" fill="#4F0000"/>
<path d="M12.444 9.17285H11.2109V10.4059H12.444V9.17285Z" fill="#F9D4BB"/>
<path d="M14.9049 9.17285H13.6719V10.4059H14.9049V9.17285Z" fill="#F9D4BB"/>
<path d="M9.99086 7.93848H8.75781V9.17152H9.99086V7.93848Z" fill="#F9D4BB"/>
<path d="M8.75648 7.93848H7.52344V9.17152H8.75648V7.93848Z" fill="#710000"/>
<path d="M8.75648 14.0918H7.52344V15.3248H8.75648V14.0918Z" fill="#BAAE5F"/>
<path d="M16.1393 14.0918H14.9062V15.3248H16.1393V14.0918Z" fill="#BAAE5F"/>
<path d="M16.1393 7.93848H14.9062V9.17152H16.1393V7.93848Z" fill="#710000"/>
<path d="M8.75648 6.71777H7.52344V7.95082H8.75648V6.71777Z" fill="#710000"/>
<path d="M16.1393 6.71777H14.9062V7.95082H16.1393V6.71777Z" fill="#710000"/>
<path d="M17.358 9.17285H16.125V10.4059H17.358V9.17285Z" fill="#4F0000"/>
<path d="M17.358 10.4043H16.125V11.6373H17.358V10.4043Z" fill="#4F0000"/>
<path d="M17.358 7.93848H16.125V9.17152H17.358V7.93848Z" fill="#710000"/>
<path d="M16.1393 11.6377H14.9062V12.8707H16.1393V11.6377Z" fill="#4F0000"/>
<path d="M8.75648 5.48535H7.52344V6.71839H8.75648V5.48535Z" fill="#710000"/>
<path d="M16.1393 5.48535H14.9062V6.71839H16.1393V5.48535Z" fill="#710000"/>
<path d="M12.444 7.93848H11.2109V9.17152H12.444V7.93848Z" fill="#F9D4BB"/>
<path d="M14.9049 7.93848H13.6719V9.17152H14.9049V7.93848Z" fill="#F9D4BB"/>
<path d="M9.99086 6.71777H8.75781V7.95082H9.99086V6.71777Z" fill="#8C1414"/>
<path d="M12.444 6.71777H11.2109V7.95082H12.444V6.71777Z" fill="#F9D4BB"/>
<path d="M14.9049 6.71777H13.6719V7.95082H14.9049V6.71777Z" fill="#8C1414"/>
<path d="M14.9049 7.93848H13.6719V9.17152H14.9049V7.93848Z" fill="#F9D4BB"/>
<path d="M9.99086 5.48535H8.75781V6.71839H9.99086V5.48535Z" fill="#710000"/>
<path d="M12.444 5.48535H11.2109V6.71839H12.444V5.48535Z" fill="#A82626"/>
<path d="M12.444 6.71777H11.2109V7.95082H12.444V6.71777Z" fill="#8C1414"/>
<path d="M11.2096 11.6377H9.97656V12.8707H11.2096V11.6377Z" fill="#F9D4BB"/>
<path d="M11.2096 10.4043H9.97656V11.6373H11.2096V10.4043Z" fill="#F9D4BB"/>
<path d="M11.2096 9.17285H9.97656V10.4059H11.2096V9.17285Z" fill="#211C19"/>
<path d="M11.2096 7.93848H9.97656V9.17152H11.2096V7.93848Z" fill="#F9D4BB"/>
<path d="M11.2096 6.71777H9.97656V7.95082H11.2096V6.71777Z" fill="#8C1414"/>
<path d="M11.2096 5.48535H9.97656V6.71839H11.2096V5.48535Z" fill="#8C1414"/>
<path d="M13.6784 11.6377H12.4453V12.8707H13.6784V11.6377Z" fill="#F9D4BB"/>
<path d="M13.6784 10.4043H12.4453V11.6373H13.6784V10.4043Z" fill="#F9D4BB"/>
<path d="M13.6784 9.17285H12.4453V10.4059H13.6784V9.17285Z" fill="#211C19"/>
<path d="M13.6784 7.93848H12.4453V9.17152H13.6784V7.93848Z" fill="#F9D4BB"/>
<path d="M13.6784 6.71777H12.4453V7.95082H13.6784V6.71777Z" fill="#F9D4BB"/>
<path d="M13.6784 5.48535H12.4453V6.71839H13.6784V5.48535Z" fill="#8C1414"/>
<path d="M13.6784 6.71777H12.4453V7.95082H13.6784V6.71777Z" fill="#8C1414"/>
<path d="M14.9049 5.48535H13.6719V6.71839H14.9049V5.48535Z" fill="#710000"/>
<path d="M9.99086 4.25195H8.75781V5.485H9.99086V4.25195Z" fill="#8C1414"/>
<path d="M12.444 4.25195H11.2109V5.485H12.444V4.25195Z" fill="#A82626"/>
<path d="M11.2096 4.25195H9.97656V5.485H11.2096V4.25195Z" fill="#A82626"/>
<path d="M13.6784 4.25195H12.4453V5.485H13.6784V4.25195Z" fill="#A82626"/>
<path d="M14.9049 4.25195H13.6719V5.485H14.9049V4.25195Z" fill="#8C1414"/>
<path d="M9.99086 14.0918H8.75781V15.3248H9.99086V14.0918Z" fill="#968F3C"/>
<path d="M11.2096 14.0918H9.97656V15.3248H11.2096V14.0918Z" fill="#F9BE8F"/>
<path d="M12.444 14.0918H11.2109V15.3248H12.444V14.0918Z" fill="#F9BE8F"/>
<path d="M13.6784 14.0918H12.4453V15.3248H13.6784V14.0918Z" fill="#F9BE8F"/>
<path d="M14.9049 14.0918H13.6719V15.3248H14.9049V14.0918Z" fill="#968F3C"/>
<path d="M9.99086 15.3252H8.75781V16.5582H9.99086V15.3252Z" fill="#968F3C"/>
<path d="M11.2096 15.3252H9.97656V16.5582H11.2096V15.3252Z" fill="#7F7B00"/>
<path d="M12.444 15.3252H11.2109V16.5582H12.444V15.3252Z" fill="#F9BE8F"/>
<path d="M13.6784 15.3252H12.4453V16.5582H13.6784V15.3252Z" fill="#7F7B00"/>
<path d="M14.9049 15.3252H13.6719V16.5582H14.9049V15.3252Z" fill="#968F3C"/>
<path d="M9.99086 16.5566H8.75781V17.7897H9.99086V16.5566Z" fill="#968F3C"/>
<path d="M7.52211 16.5566H6.28906V17.7897H7.52211V16.5566Z" fill="#BAAE5F"/>
<path d="M11.2096 16.5566H9.97656V17.7897H11.2096V16.5566Z" fill="#7F7B00"/>
<path d="M12.444 16.5566H11.2109V17.7897H12.444V16.5566Z" fill="#7F7B00"/>
<path d="M13.6784 16.5566H12.4453V17.7897H13.6784V16.5566Z" fill="#7F7B00"/>
<path d="M14.9049 16.5566H13.6719V17.7897H14.9049V16.5566Z" fill="#968F3C"/>
<path d="M17.358 16.5566H16.125V17.7897H17.358V16.5566Z" fill="#BAAE5F"/>
<path d="M7.52211 15.3252H6.28906V16.5582H7.52211V15.3252Z" fill="#BAAE5F"/>
<path d="M17.358 15.3252H16.125V16.5582H17.358V15.3252Z" fill="#BAAE5F"/>
<path d="M9.99086 17.791H8.75781V19.0241H9.99086V17.791Z" fill="#968F3C"/>
<path d="M7.52211 17.791H6.28906V19.0241H7.52211V17.791Z" fill="#BAAE5F"/>
<path d="M11.2096 17.791H9.97656V19.0241H11.2096V17.791Z" fill="#7F7B00"/>
<path d="M12.444 17.791H11.2109V19.0241H12.444V17.791Z" fill="#7F7B00"/>
<path d="M13.6784 17.791H12.4453V19.0241H13.6784V17.791Z" fill="#7F7B00"/>
<path d="M14.9049 17.791H13.6719V19.0241H14.9049V17.791Z" fill="#968F3C"/>
<path d="M17.358 17.791H16.125V19.0241H17.358V17.791Z" fill="#BAAE5F"/>
<path d="M9.99086 19.0234H8.75781V20.2565H9.99086V19.0234Z" fill="#968F3C"/>
<path d="M7.52211 19.0234H6.28906V20.2565H7.52211V19.0234Z" fill="#D69365"/>
<path d="M11.2096 19.0234H9.97656V20.2565H11.2096V19.0234Z" fill="#7F7B00"/>
<path d="M12.444 19.0234H11.2109V20.2565H12.444V19.0234Z" fill="#7F7B00"/>
<path d="M13.6784 19.0234H12.4453V20.2565H13.6784V19.0234Z" fill="#7F7B00"/>
<path d="M14.9049 19.0234H13.6719V20.2565H14.9049V19.0234Z" fill="#968F3C"/>
<path d="M17.358 19.0234H16.125V20.2565H17.358V19.0234Z" fill="#D69365"/>
<path d="M8.75648 15.3252H7.52344V16.5582H8.75648V15.3252Z" fill="#968F3C"/>
<path d="M8.75648 16.5566H7.52344V17.7897H8.75648V16.5566Z" fill="#968F3C"/>
<path d="M8.75648 17.791H7.52344V19.0241H8.75648V17.791Z" fill="#968F3C"/>
<path d="M8.75648 19.0234H7.52344V20.2565H8.75648V19.0234Z" fill="#968F3C"/>
<path d="M16.1393 15.3252H14.9062V16.5582H16.1393V15.3252Z" fill="#968F3C"/>
<path d="M16.1393 16.5566H14.9062V17.7897H16.1393V16.5566Z" fill="#968F3C"/>
<path d="M16.1393 17.791H14.9062V19.0241H16.1393V17.791Z" fill="#968F3C"/>
<path d="M16.1393 19.0234H14.9062V20.2565H16.1393V19.0234Z" fill="#968F3C"/>
<path d="M8.75648 11.6377H7.52344V12.8707H8.75648V11.6377Z" fill="#4F0000"/>
<path d="M7.52211 9.17285H6.28906V10.4059H7.52211V9.17285Z" fill="#4F0000"/>
<path d="M7.52211 7.93848H6.28906V9.17152H7.52211V7.93848Z" fill="#710000"/>
<path d="M7.52211 10.4043H6.28906V11.6373H7.52211V10.4043Z" fill="#4F0000"/>
</g>
</g>
<rect x="1.91406" y="1" width="20" height="20" rx="10" stroke="white" stroke-width="2"/>
<g clip-path="url(#clip2_3556_166274)">
<rect x="16.4609" y="2" width="18" height="18" rx="9" fill="#34C759"/>
<g clip-path="url(#clip3_3556_166274)">
<path d="M26.2432 13.168H24.9531V14.4577H26.2432V13.168Z" fill="#D69365"/>
<path d="M23.6729 11.8789H22.3828V13.1686H23.6729V11.8789Z" fill="#F9D4BB"/>
<path d="M26.2432 11.8789H24.9531V13.1686H26.2432V11.8789Z" fill="white"/>
<path d="M28.8213 11.8789H27.5312V13.1686H28.8213V11.8789Z" fill="#F9D4BB"/>
<path d="M23.6729 10.5889H22.3828V11.8786H23.6729V10.5889Z" fill="#F9D4BB"/>
<path d="M26.2432 10.5889H24.9531V11.8786H26.2432V10.5889Z" fill="#F9D4BB"/>
<path d="M28.8213 10.5889H27.5312V11.8786H28.8213V10.5889Z" fill="#F9D4BB"/>
<path d="M23.6729 9.2998H22.3828V10.5895H23.6729V9.2998Z" fill="#F9D4BB"/>
<path d="M22.3838 10.5889H21.0938V11.8786H22.3838V10.5889Z" fill="#F9BE8F"/>
<path d="M30.1104 10.5889H28.8203V11.8786H30.1104V10.5889Z" fill="#F9BE8F"/>
<path d="M26.2432 9.2998H24.9531V10.5895H26.2432V9.2998Z" fill="#F9D4BB"/>
<path d="M28.8213 9.2998H27.5312V10.5895H28.8213V9.2998Z" fill="#F9D4BB"/>
<path d="M23.6729 8.01074H22.3828V9.30043H23.6729V8.01074Z" fill="#714400"/>
<path d="M26.2432 8.01074H24.9531V9.30043H26.2432V8.01074Z" fill="#F9D4BB"/>
<path d="M28.8213 8.01074H27.5312V9.30043H28.8213V8.01074Z" fill="#714400"/>
<path d="M23.6729 6.7334H22.3828V8.02309H23.6729V6.7334Z" fill="#714400"/>
<path d="M26.2432 6.7334H24.9531V8.02309H26.2432V6.7334Z" fill="#F9D4BB"/>
<path d="M28.8213 6.7334H27.5312V8.02309H28.8213V6.7334Z" fill="#714400"/>
<path d="M23.6729 5.44434H22.3828V6.73402H23.6729V5.44434Z" fill="#714400"/>
<path d="M26.2432 5.44434H24.9531V6.73402H26.2432V5.44434Z" fill="#8C6214"/>
<path d="M24.9463 11.8789H23.6562V13.1686H24.9463V11.8789Z" fill="#F9D4BB"/>
<path d="M24.9463 10.5889H23.6562V11.8786H24.9463V10.5889Z" fill="#F9D4BB"/>
<path d="M24.9463 9.2998H23.6562V10.5895H24.9463V9.2998Z" fill="#211C19"/>
<path d="M24.9463 8.01074H23.6562V9.30043H24.9463V8.01074Z" fill="#F9D4BB"/>
<path d="M24.9463 6.7334H23.6562V8.02309H24.9463V6.7334Z" fill="#F9D4BB"/>
<path d="M24.9463 5.44434H23.6562V6.73402H24.9463V5.44434Z" fill="#714400"/>
<path d="M26.2432 4.1543H24.9531V5.44398H26.2432V4.1543Z" fill="#8C6214"/>
<path d="M24.9463 4.1543H23.6562V5.44398H24.9463V4.1543Z" fill="#8C6214"/>
<path d="M27.5322 11.8789H26.2422V13.1686H27.5322V11.8789Z" fill="#F9D4BB"/>
<path d="M27.5322 10.5889H26.2422V11.8786H27.5322V10.5889Z" fill="#F9D4BB"/>
<path d="M27.5322 9.2998H26.2422V10.5895H27.5322V9.2998Z" fill="#211C19"/>
<path d="M27.5322 8.01074H26.2422V9.30043H27.5322V8.01074Z" fill="#F9D4BB"/>
<path d="M27.5322 6.7334H26.2422V8.02309H27.5322V6.7334Z" fill="#F9D4BB"/>
<path d="M27.5322 5.44434H26.2422V6.73402H27.5322V5.44434Z" fill="#8C6214"/>
<path d="M27.5322 4.1543H26.2422V5.44398H27.5322V4.1543Z" fill="#8C6214"/>
<path d="M28.8213 5.44434H27.5312V6.73402H28.8213V5.44434Z" fill="#714400"/>
<path d="M23.6729 14.4463H22.3828V15.736H23.6729V14.4463Z" fill="#7F0000"/>
<path d="M24.9463 14.4463H23.6562V15.736H24.9463V14.4463Z" fill="#F9BE8F"/>
<path d="M26.2432 14.4463H24.9531V15.736H26.2432V14.4463Z" fill="#F9BE8F"/>
<path d="M27.5322 14.4463H26.2422V15.736H27.5322V14.4463Z" fill="#F9BE8F"/>
<path d="M28.8213 14.4463H27.5312V15.736H28.8213V14.4463Z" fill="#7F0000"/>
<path d="M23.6729 15.7354H22.3828V17.025H23.6729V15.7354Z" fill="#7F0000"/>
<path d="M21.0947 15.7354H19.8047V17.025H21.0947V15.7354Z" fill="#BABABA"/>
<path d="M24.9463 15.7354H23.6562V17.025H24.9463V15.7354Z" fill="#BABABA"/>
<path d="M26.2432 15.7354H24.9531V17.025H26.2432V15.7354Z" fill="#F9BE8F"/>
<path d="M27.5322 15.7354H26.2422V17.025H27.5322V15.7354Z" fill="#BABABA"/>
<path d="M28.8213 15.7354H27.5312V17.025H28.8213V15.7354Z" fill="#7F0000"/>
<path d="M31.3916 15.7354H30.1016V17.025H31.3916V15.7354Z" fill="#BABABA"/>
<path d="M23.6729 17.0254H22.3828V18.3151H23.6729V17.0254Z" fill="#7F0000"/>
<path d="M21.0947 17.0254H19.8047V18.3151H21.0947V17.0254Z" fill="#BABABA"/>
<path d="M24.9463 17.0254H23.6562V18.3151H24.9463V17.0254Z" fill="#BABABA"/>
<path d="M26.2432 17.0254H24.9531V18.3151H26.2432V17.0254Z" fill="#BABABA"/>
<path d="M27.5322 17.0254H26.2422V18.3151H27.5322V17.0254Z" fill="#BABABA"/>
<path d="M28.8213 17.0254H27.5312V18.3151H28.8213V17.0254Z" fill="#7F0000"/>
<path d="M31.3916 17.0254H30.1016V18.3151H31.3916V17.0254Z" fill="#BABABA"/>
<path d="M23.6729 18.3145H22.3828V19.6041H23.6729V18.3145Z" fill="#7F0000"/>
<path d="M21.0947 18.3145H19.8047V19.6041H21.0947V18.3145Z" fill="#BABABA"/>
<path d="M24.9463 18.3145H23.6562V19.6041H24.9463V18.3145Z" fill="#BABABA"/>
<path d="M26.2432 18.3145H24.9531V19.6041H26.2432V18.3145Z" fill="#BABABA"/>
<path d="M27.5322 18.3145H26.2422V19.6041H27.5322V18.3145Z" fill="#BABABA"/>
<path d="M28.8213 18.3145H27.5312V19.6041H28.8213V18.3145Z" fill="#7F0000"/>
<path d="M31.3916 18.3145H30.1016V19.6041H31.3916V18.3145Z" fill="#BABABA"/>
<path d="M23.6729 19.6045H22.3828V20.8942H23.6729V19.6045Z" fill="#7F0000"/>
<path d="M21.0947 19.6045H19.8047V20.8942H21.0947V19.6045Z" fill="#D69365"/>
<path d="M24.9463 19.6045H23.6562V20.8942H24.9463V19.6045Z" fill="#BABABA"/>
<path d="M26.2432 19.6045H24.9531V20.8942H26.2432V19.6045Z" fill="#BABABA"/>
<path d="M27.5322 19.6045H26.2422V20.8942H27.5322V19.6045Z" fill="#BABABA"/>
<path d="M28.8213 19.6045H27.5312V20.8942H28.8213V19.6045Z" fill="#7F0000"/>
<path d="M31.3916 19.6045H30.1016V20.8942H31.3916V19.6045Z" fill="#D69365"/>
<path d="M22.3838 14.4463H21.0938V15.736H22.3838V14.4463Z" fill="#963C3C"/>
<path d="M22.3838 15.7354H21.0938V17.025H22.3838V15.7354Z" fill="#7F0000"/>
<path d="M22.3838 17.0254H21.0938V18.3151H22.3838V17.0254Z" fill="#7F0000"/>
<path d="M22.3838 18.3145H21.0938V19.6041H22.3838V18.3145Z" fill="#7F0000"/>
<path d="M22.3838 19.6045H21.0938V20.8942H22.3838V19.6045Z" fill="#7F0000"/>
<path d="M30.1104 14.4463H28.8203V15.736H30.1104V14.4463Z" fill="#963C3C"/>
<path d="M30.1104 15.7354H28.8203V17.025H30.1104V15.7354Z" fill="#7F0000"/>
<path d="M30.1104 17.0254H28.8203V18.3151H30.1104V17.0254Z" fill="#7F0000"/>
<path d="M30.1104 18.3145H28.8203V19.6041H30.1104V18.3145Z" fill="#7F0000"/>
<path d="M30.1104 19.6045H28.8203V20.8942H30.1104V19.6045Z" fill="#7F0000"/>
</g>
</g>
<rect x="15.4609" y="1" width="20" height="20" rx="10" stroke="white" stroke-width="2"/>
<g clip-path="url(#clip4_3556_166274)">
<rect x="30" y="2" width="18" height="18" rx="9" fill="#007AFF"/>
<g clip-path="url(#clip5_3556_166274)">
<path d="M39.4941 12.834H38.2656V14.0621H39.4941V12.834Z" fill="#AD6F59"/>
<path d="M37.0566 11.6055H35.8281V12.8336H37.0566V11.6055Z" fill="#D6957F"/>
<path d="M39.4941 11.6055H38.2656V12.8336H39.4941V11.6055Z" fill="white"/>
<path d="M41.955 11.6055H40.7266V12.8336H41.955V11.6055Z" fill="#D6957F"/>
<path d="M37.0566 10.3779H35.8281V11.606H37.0566V10.3779Z" fill="#D6957F"/>
<path d="M39.4941 10.3779H38.2656V11.606H39.4941V10.3779Z" fill="#D6957F"/>
<path d="M41.955 10.3779H40.7266V11.606H41.955V10.3779Z" fill="#D6957F"/>
<path d="M37.0566 9.14941H35.8281V10.3775H37.0566V9.14941Z" fill="#D6957F"/>
<path d="M35.8222 10.3779H34.5938V11.606H35.8222V10.3779Z" fill="#C67F60"/>
<path d="M35.8222 9.14941H34.5938V10.3775H35.8222V9.14941Z" fill="black"/>
<path d="M43.1816 10.3779H41.9531V11.606H43.1816V10.3779Z" fill="#C67F60"/>
<path d="M43.1816 9.14941H41.9531V10.3775H43.1816V9.14941Z" fill="black"/>
<path d="M39.4941 9.14941H38.2656V10.3775H39.4941V9.14941Z" fill="#D6957F"/>
<path d="M41.955 9.14941H40.7266V10.3775H41.955V9.14941Z" fill="#D6957F"/>
<path d="M37.0566 7.92188H35.8281V9.14998H37.0566V7.92188Z" fill="#D6957F"/>
<path d="M35.8222 7.92188H34.5938V9.14998H35.8222V7.92188Z" fill="#181C24"/>
<path d="M43.1816 7.92188H41.9531V9.14998H43.1816V7.92188Z" fill="#181C24"/>
<path d="M35.8222 6.70605H34.5938V7.93416H35.8222V6.70605Z" fill="#181C24"/>
<path d="M43.1816 6.70605H41.9531V7.93416H43.1816V6.70605Z" fill="#181C24"/>
<path d="M35.8222 5.47852H34.5938V6.70662H35.8222V5.47852Z" fill="#181C24"/>
<path d="M43.1816 5.47852H41.9531V6.70662H43.1816V5.47852Z" fill="#181C24"/>
<path d="M39.4941 7.92188H38.2656V9.14998H39.4941V7.92188Z" fill="#D6957F"/>
<path d="M41.955 7.92188H40.7266V9.14998H41.955V7.92188Z" fill="#D6957F"/>
<path d="M37.0566 6.70605H35.8281V7.93416H37.0566V6.70605Z" fill="#181C24"/>
<path d="M39.4941 6.70605H38.2656V7.93416H39.4941V6.70605Z" fill="#D6957F"/>
<path d="M41.955 6.70605H40.7266V7.93416H41.955V6.70605Z" fill="#181C24"/>
<path d="M37.0566 5.47852H35.8281V6.70662H37.0566V5.47852Z" fill="#181C24"/>
<path d="M39.4941 5.47852H38.2656V6.70662H39.4941V5.47852Z" fill="#252A36"/>
<path d="M38.2675 11.6055H37.0391V12.8336H38.2675V11.6055Z" fill="#D6957F"/>
<path d="M38.2675 10.3779H37.0391V11.606H38.2675V10.3779Z" fill="#D6957F"/>
<path d="M38.2675 9.14941H37.0391V10.3775H38.2675V9.14941Z" fill="#211C19"/>
<path d="M38.2675 7.92188H37.0391V9.14998H38.2675V7.92188Z" fill="#D6957F"/>
<path d="M38.2675 6.70605H37.0391V7.93416H38.2675V6.70605Z" fill="#D6957F"/>
<path d="M38.2675 5.47852H37.0391V6.70662H38.2675V5.47852Z" fill="#181C24"/>
<path d="M40.7206 11.6055H39.4922V12.8336H40.7206V11.6055Z" fill="#D6957F"/>
<path d="M40.7206 10.3779H39.4922V11.606H40.7206V10.3779Z" fill="#D6957F"/>
<path d="M40.7206 9.14941H39.4922V10.3775H40.7206V9.14941Z" fill="#211C19"/>
<path d="M40.7206 7.92188H39.4922V9.14998H40.7206V7.92188Z" fill="#D6957F"/>
<path d="M40.7206 6.70605H39.4922V7.93416H40.7206V6.70605Z" fill="#D6957F"/>
<path d="M40.7206 5.47852H39.4922V6.70662H40.7206V5.47852Z" fill="#181C24"/>
<path d="M41.955 5.47852H40.7266V6.70662H41.955V5.47852Z" fill="#181C24"/>
<path d="M37.0566 4.25H35.8281V5.4781H37.0566V4.25Z" fill="#181C24"/>
<path d="M39.4941 4.25H38.2656V5.4781H39.4941V4.25Z" fill="#252A36"/>
<path d="M38.2675 4.25H37.0391V5.4781H38.2675V4.25Z" fill="#252A36"/>
<path d="M40.7206 4.25H39.4922V5.4781H40.7206V4.25Z" fill="#252A36"/>
<path d="M41.955 4.25H40.7266V5.4781H41.955V4.25Z" fill="#181C24"/>
<path d="M37.0566 14.0498H35.8281V15.2779H37.0566V14.0498Z" fill="#344199"/>
<path d="M38.2675 14.0498H37.0391V15.2779H38.2675V14.0498Z" fill="#C67F60"/>
<path d="M39.4941 14.0498H38.2656V15.2779H39.4941V14.0498Z" fill="#C67F60"/>
<path d="M40.7206 14.0498H39.4922V15.2779H40.7206V14.0498Z" fill="#C67F60"/>
<path d="M41.955 14.0498H40.7266V15.2779H41.955V14.0498Z" fill="#344199"/>
<path d="M37.0566 15.2783H35.8281V16.5064H37.0566V15.2783Z" fill="#344199"/>
<path d="M34.5956 15.2783H33.3672V16.5064H34.5956V15.2783Z" fill="#C67F60"/>
<path d="M38.2675 15.2783H37.0391V16.5064H38.2675V15.2783Z" fill="#2C397C"/>
<path d="M39.4941 15.2783H38.2656V16.5064H39.4941V15.2783Z" fill="#2C397C"/>
<path d="M40.7206 15.2783H39.4922V16.5064H40.7206V15.2783Z" fill="#2C397C"/>
<path d="M41.955 15.2783H40.7266V16.5064H41.955V15.2783Z" fill="#344199"/>
<path d="M44.4003 15.2783H43.1719V16.5064H44.4003V15.2783Z" fill="#C67F60"/>
<path d="M37.0566 16.5068H35.8281V17.7349H37.0566V16.5068Z" fill="#344199"/>
<path d="M34.5956 16.5068H33.3672V17.7349H34.5956V16.5068Z" fill="#C67F60"/>
<path d="M38.2675 16.5068H37.0391V17.7349H38.2675V16.5068Z" fill="white"/>
<path d="M39.4941 16.5068H38.2656V17.7349H39.4941V16.5068Z" fill="#2C397C"/>
<path d="M40.7206 16.5068H39.4922V17.7349H40.7206V16.5068Z" fill="white"/>
<path d="M41.955 16.5068H40.7266V17.7349H41.955V16.5068Z" fill="#344199"/>
<path d="M44.4003 16.5068H43.1719V17.7349H44.4003V16.5068Z" fill="#C67F60"/>
<path d="M37.0566 17.7344H35.8281V18.9625H37.0566V17.7344Z" fill="#344199"/>
<path d="M34.5956 17.7344H33.3672V18.9625H34.5956V17.7344Z" fill="#C67F60"/>
<path d="M38.2675 17.7344H37.0391V18.9625H38.2675V17.7344Z" fill="#2C397C"/>
<path d="M39.4941 17.7344H38.2656V18.9625H39.4941V17.7344Z" fill="white"/>
<path d="M40.7206 17.7344H39.4922V18.9625H40.7206V17.7344Z" fill="#2C397C"/>
<path d="M41.955 17.7344H40.7266V18.9625H41.955V17.7344Z" fill="#344199"/>
<path d="M44.4003 17.7344H43.1719V18.9625H44.4003V17.7344Z" fill="#C67F60"/>
<path d="M37.0566 18.9629H35.8281V20.191H37.0566V18.9629Z" fill="#344199"/>
<path d="M34.5956 18.9629H33.3672V20.191H34.5956V18.9629Z" fill="#C67F60"/>
<path d="M38.2675 18.9629H37.0391V20.191H38.2675V18.9629Z" fill="#2C397C"/>
<path d="M39.4941 18.9629H38.2656V20.191H39.4941V18.9629Z" fill="#2C397C"/>
<path d="M40.7206 18.9629H39.4922V20.191H40.7206V18.9629Z" fill="#2C397C"/>
<path d="M41.955 18.9629H40.7266V20.191H41.955V18.9629Z" fill="#344199"/>
<path d="M44.4003 18.9629H43.1719V20.191H44.4003V18.9629Z" fill="#C67F60"/>
<path d="M35.8222 14.0498H34.5938V15.2779H35.8222V14.0498Z" fill="#4B5EBC"/>
<path d="M35.8222 15.2783H34.5938V16.5064H35.8222V15.2783Z" fill="#344199"/>
<path d="M35.8222 16.5068H34.5938V17.7349H35.8222V16.5068Z" fill="#344199"/>
<path d="M35.8222 17.7344H34.5938V18.9625H35.8222V17.7344Z" fill="#344199"/>
<path d="M35.8222 18.9629H34.5938V20.191H35.8222V18.9629Z" fill="#344199"/>
<path d="M43.1816 14.0498H41.9531V15.2779H43.1816V14.0498Z" fill="#4B5EBC"/>
<path d="M43.1816 15.2783H41.9531V16.5064H43.1816V15.2783Z" fill="#344199"/>
<path d="M43.1816 16.5068H41.9531V17.7349H43.1816V16.5068Z" fill="#344199"/>
<path d="M43.1816 17.7344H41.9531V18.9625H43.1816V17.7344Z" fill="#344199"/>
<path d="M43.1816 18.9629H41.9531V20.191H43.1816V18.9629Z" fill="#344199"/>
</g>
</g>
<rect x="29" y="1" width="20" height="20" rx="10" stroke="white" stroke-width="2"/>
<defs>
<clipPath id="clip0_3556_166274">
<rect x="2.91406" y="2" width="18" height="18" rx="9" fill="white"/>
</clipPath>
<clipPath id="clip1_3556_166274">
<rect width="11.2533" height="15.7546" fill="white" transform="translate(6.28906 4.25098)"/>
</clipPath>
<clipPath id="clip2_3556_166274">
<rect x="16.4609" y="2" width="18" height="18" rx="9" fill="white"/>
</clipPath>
<clipPath id="clip3_3556_166274">
<rect width="11.5736" height="19.1736" fill="white" transform="translate(19.8359 4.15332)"/>
</clipPath>
<clipPath id="clip4_3556_166274">
<rect x="30" y="2" width="18" height="18" rx="9" fill="white"/>
</clipPath>
<clipPath id="clip5_3556_166274">
<rect width="11.0313" height="34.3125" fill="white" transform="translate(33.375 4.25)"/>
</clipPath>
</defs>
</svg>
