<svg width="50" height="22" viewBox="0 0 50 22" fill="none" xmlns="http://www.w3.org/2000/svg">
<g clip-path="url(#clip0_3556_166282)">
<rect x="2.90625" y="2" width="18.0052" height="18" rx="9" fill="#FABB1D"/>
<g clip-path="url(#clip1_3556_166282)">
<path d="M12.5863 13.3232H11.3281V14.5815H12.5863V13.3232Z" fill="#D69365"/>
<path d="M10.0785 12.0645H8.82031V13.3227H10.0785V12.0645Z" fill="#F9D4BB"/>
<path d="M12.5863 12.0645H11.3281V13.3227H12.5863V12.0645Z" fill="white"/>
<path d="M15.0942 12.0645H13.8359V13.3227H15.0942V12.0645Z" fill="#F9D4BB"/>
<path d="M10.0785 10.8066H8.82031V12.0649H10.0785V10.8066Z" fill="#F9D4BB"/>
<path d="M12.5863 10.8066H11.3281V12.0649H12.5863V10.8066Z" fill="#F9D4BB"/>
<path d="M15.0942 10.8066H13.8359V12.0649H15.0942V10.8066Z" fill="#F9D4BB"/>
<path d="M10.0785 9.54785H8.82031V10.8061H10.0785V9.54785Z" fill="#F9D4BB"/>
<path d="M8.82071 10.8066H7.5625V12.0649H8.82071V10.8066Z" fill="#F9BE8F"/>
<path d="M8.82071 9.54785H7.5625V10.8061H8.82071V9.54785Z" fill="#4F2B00"/>
<path d="M16.3598 10.8066H15.1016V12.0649H16.3598V10.8066Z" fill="#F9BE8F"/>
<path d="M16.3598 9.54785H15.1016V10.8061H16.3598V9.54785Z" fill="#4F2B00"/>
<path d="M12.5863 9.54785H11.3281V10.8061H12.5863V9.54785Z" fill="#F9D4BB"/>
<path d="M15.0942 9.54785H13.8359V10.8061H15.0942V9.54785Z" fill="#F9D4BB"/>
<path d="M10.0785 8.29004H8.82031V9.54825H10.0785V8.29004Z" fill="#F9D4BB"/>
<path d="M8.82071 8.29004H7.5625V9.54825H8.82071V8.29004Z" fill="#714400"/>
<path d="M8.82071 13.3232H7.5625V14.5815H8.82071V13.3232Z" fill="#4F2B00"/>
<path d="M10.0785 13.3232H8.82031V14.5815H10.0785V13.3232Z" fill="#351C00"/>
<path d="M11.3285 13.3232H10.0703V14.5815H11.3285V13.3232Z" fill="#351C00"/>
<path d="M13.8363 13.3232H12.5781V14.5815H13.8363V13.3232Z" fill="#351C00"/>
<path d="M15.0942 13.3232H13.8359V14.5815H15.0942V13.3232Z" fill="#351C00"/>
<path d="M8.82071 14.5684H7.5625V15.8266H8.82071V14.5684Z" fill="#963C3C"/>
<path d="M8.82071 12.0645H7.5625V13.3227H8.82071V12.0645Z" fill="#4F2B00"/>
<path d="M16.3598 13.3232H15.1016V14.5815H16.3598V13.3232Z" fill="#4F2B00"/>
<path d="M16.3598 14.5684H15.1016V15.8266H16.3598V14.5684Z" fill="#963C3C"/>
<path d="M16.3598 12.0645H15.1016V13.3227H16.3598V12.0645Z" fill="#4F2B00"/>
<path d="M16.3598 8.29004H15.1016V9.54825H16.3598V8.29004Z" fill="#714400"/>
<path d="M8.82071 7.04492H7.5625V8.30314H8.82071V7.04492Z" fill="#714400"/>
<path d="M16.3598 7.04492H15.1016V8.30314H16.3598V7.04492Z" fill="#714400"/>
<path d="M8.82071 5.78613H7.5625V7.04435H8.82071V5.78613Z" fill="#714400"/>
<path d="M16.3598 5.78613H15.1016V7.04435H16.3598V5.78613Z" fill="#714400"/>
<path d="M12.5863 8.29004H11.3281V9.54825H12.5863V8.29004Z" fill="#F9D4BB"/>
<path d="M15.0942 8.29004H13.8359V9.54825H15.0942V8.29004Z" fill="#F9D4BB"/>
<path d="M10.0785 7.04492H8.82031V8.30314H10.0785V7.04492Z" fill="#714400"/>
<path d="M12.5863 7.04492H11.3281V8.30314H12.5863V7.04492Z" fill="#F9D4BB"/>
<path d="M15.0942 7.04492H13.8359V8.30314H15.0942V7.04492Z" fill="#8C6214"/>
<path d="M15.0942 8.29004H13.8359V9.54825H15.0942V8.29004Z" fill="#8C6214"/>
<path d="M10.0785 5.78613H8.82031V7.04435H10.0785V5.78613Z" fill="#714400"/>
<path d="M12.5863 5.78613H11.3281V7.04435H12.5863V5.78613Z" fill="#8C6214"/>
<path d="M12.5863 7.04492H11.3281V8.30314H12.5863V7.04492Z" fill="#8C6214"/>
<path d="M11.3285 12.0645H10.0703V13.3227H11.3285V12.0645Z" fill="#F9D4BB"/>
<path d="M11.3285 10.8066H10.0703V12.0649H11.3285V10.8066Z" fill="#F9D4BB"/>
<path d="M11.3285 9.54785H10.0703V10.8061H11.3285V9.54785Z" fill="#211C19"/>
<path d="M11.3285 8.29004H10.0703V9.54825H11.3285V8.29004Z" fill="#F9D4BB"/>
<path d="M11.3285 7.04492H10.0703V8.30314H11.3285V7.04492Z" fill="#F9D4BB"/>
<path d="M11.3285 5.78613H10.0703V7.04435H11.3285V5.78613Z" fill="#714400"/>
<path d="M13.8363 12.0645H12.5781V13.3227H13.8363V12.0645Z" fill="#F9D4BB"/>
<path d="M13.8363 10.8066H12.5781V12.0649H13.8363V10.8066Z" fill="#F9D4BB"/>
<path d="M13.8363 9.54785H12.5781V10.8061H13.8363V9.54785Z" fill="#211C19"/>
<path d="M13.8363 8.29004H12.5781V9.54825H13.8363V8.29004Z" fill="#F9D4BB"/>
<path d="M13.8363 7.04492H12.5781V8.30314H13.8363V7.04492Z" fill="#F9D4BB"/>
<path d="M13.8363 5.78613H12.5781V7.04435H13.8363V5.78613Z" fill="#8C6214"/>
<path d="M13.8363 7.04492H12.5781V8.30314H13.8363V7.04492Z" fill="#8C6214"/>
<path d="M15.0942 5.78613H13.8359V7.04435H15.0942V5.78613Z" fill="#714400"/>
<path d="M10.0785 4.52832H8.82031V5.78653H10.0785V4.52832Z" fill="#714400"/>
<path d="M12.5863 4.52832H11.3281V5.78653H12.5863V4.52832Z" fill="#8C6214"/>
<path d="M11.3285 4.52832H10.0703V5.78653H11.3285V4.52832Z" fill="#8C6214"/>
<path d="M13.8363 4.52832H12.5781V5.78653H13.8363V4.52832Z" fill="#8C6214"/>
<path d="M15.0942 4.52832H13.8359V5.78653H15.0942V4.52832Z" fill="#714400"/>
<path d="M10.0785 14.5684H8.82031V15.8266H10.0785V14.5684Z" fill="#7F0000"/>
<path d="M11.3285 14.5684H10.0703V15.8266H11.3285V14.5684Z" fill="#F9BE8F"/>
<path d="M12.5863 14.5684H11.3281V15.8266H12.5863V14.5684Z" fill="#F9BE8F"/>
<path d="M13.8363 14.5684H12.5781V15.8266H13.8363V14.5684Z" fill="#F9BE8F"/>
<path d="M15.0942 14.5684H13.8359V15.8266H15.0942V14.5684Z" fill="#7F0000"/>
<path d="M10.0785 15.8262H8.82031V17.0844H10.0785V15.8262Z" fill="#963C3C"/>
<path d="M11.3285 15.8262H10.0703V17.0844H11.3285V15.8262Z" fill="#F9BE8F"/>
<path d="M12.5863 15.8262H11.3281V17.0844H12.5863V15.8262Z" fill="#F9BE8F"/>
<path d="M13.8363 15.8262H12.5781V17.0844H13.8363V15.8262Z" fill="#F9BE8F"/>
<path d="M15.0942 15.8262H13.8359V17.0844H15.0942V15.8262Z" fill="#963C3C"/>
<path d="M10.0785 17.085H8.82031V18.3432H10.0785V17.085Z" fill="#963C3C"/>
<path d="M7.5629 17.085H6.30469V18.3432H7.5629V17.085Z" fill="#BA5F5F"/>
<path d="M11.3285 17.085H10.0703V18.3432H11.3285V17.085Z" fill="#7F0000"/>
<path d="M12.5863 17.085H11.3281V18.3432H12.5863V17.085Z" fill="#7F0000"/>
<path d="M13.8363 17.085H12.5781V18.3432H13.8363V17.085Z" fill="#7F0000"/>
<path d="M15.0942 17.085H13.8359V18.3432H15.0942V17.085Z" fill="#963C3C"/>
<path d="M17.602 17.085H16.3438V18.3432H17.602V17.085Z" fill="#BA5F5F"/>
<path d="M7.5629 15.8262H6.30469V17.0844H7.5629V15.8262Z" fill="#BA5F5F"/>
<path d="M17.602 15.8262H16.3438V17.0844H17.602V15.8262Z" fill="#BA5F5F"/>
<path d="M10.0785 18.3428H8.82031V19.601H10.0785V18.3428Z" fill="#963C3C"/>
<path d="M7.5629 18.3428H6.30469V19.601H7.5629V18.3428Z" fill="#BA5F5F"/>
<path d="M11.3285 18.3428H10.0703V19.601H11.3285V18.3428Z" fill="#7F0000"/>
<path d="M12.5863 18.3428H11.3281V19.601H12.5863V18.3428Z" fill="#7F0000"/>
<path d="M13.8363 18.3428H12.5781V19.601H13.8363V18.3428Z" fill="#7F0000"/>
<path d="M15.0942 18.3428H13.8359V19.601H15.0942V18.3428Z" fill="#963C3C"/>
<path d="M17.602 18.3428H16.3438V19.601H17.602V18.3428Z" fill="#BA5F5F"/>
<path d="M10.0785 19.6016H8.82031V20.8598H10.0785V19.6016Z" fill="#963C3C"/>
<path d="M7.5629 19.6016H6.30469V20.8598H7.5629V19.6016Z" fill="#D69365"/>
<path d="M11.3285 19.6016H10.0703V20.8598H11.3285V19.6016Z" fill="#7F0000"/>
<path d="M12.5863 19.6016H11.3281V20.8598H12.5863V19.6016Z" fill="#7F0000"/>
<path d="M13.8363 19.6016H12.5781V20.8598H13.8363V19.6016Z" fill="#7F0000"/>
<path d="M15.0942 19.6016H13.8359V20.8598H15.0942V19.6016Z" fill="#963C3C"/>
<path d="M17.602 19.6016H16.3438V20.8598H17.602V19.6016Z" fill="#D69365"/>
<path d="M8.82071 15.8262H7.5625V17.0844H8.82071V15.8262Z" fill="#963C3C"/>
<path d="M8.82071 17.085H7.5625V18.3432H8.82071V17.085Z" fill="#963C3C"/>
<path d="M8.82071 18.3428H7.5625V19.601H8.82071V18.3428Z" fill="#963C3C"/>
<path d="M8.82071 19.6016H7.5625V20.8598H8.82071V19.6016Z" fill="#963C3C"/>
<path d="M16.3598 15.8262H15.1016V17.0844H16.3598V15.8262Z" fill="#963C3C"/>
<path d="M16.3598 17.085H15.1016V18.3432H16.3598V17.085Z" fill="#963C3C"/>
<path d="M16.3598 18.3428H15.1016V19.601H16.3598V18.3428Z" fill="#963C3C"/>
<path d="M16.3598 19.6016H15.1016V20.8598H16.3598V19.6016Z" fill="#963C3C"/>
</g>
</g>
<rect x="1.90625" y="1" width="20.0052" height="20" rx="10" stroke="white" stroke-width="2"/>
<g clip-path="url(#clip2_3556_166282)">
<rect x="16.4531" y="2" width="18" height="18" rx="9" fill="#4DBCE0"/>
<g clip-path="url(#clip3_3556_166282)">
<path d="M26.1446 13.6377H24.8203V14.962H26.1446V13.6377Z" fill="#D69365"/>
<path d="M23.5118 12.3135H22.1875V13.6378H23.5118V12.3135Z" fill="#F9D4BB"/>
<path d="M26.1446 12.3135H24.8203V13.6378H26.1446V12.3135Z" fill="white"/>
<path d="M28.8009 12.3135H27.4766V13.6378H28.8009V12.3135Z" fill="#F9D4BB"/>
<path d="M23.5118 10.9893H22.1875V12.3136H23.5118V10.9893Z" fill="#F9D4BB"/>
<path d="M26.1446 10.9893H24.8203V12.3136H26.1446V10.9893Z" fill="#F9D4BB"/>
<path d="M28.8009 10.9893H27.4766V12.3136H28.8009V10.9893Z" fill="#F9D4BB"/>
<path d="M23.5118 9.66504H22.1875V10.9893H23.5118V9.66504Z" fill="#F9D4BB"/>
<path d="M22.1837 10.9893H20.8594V12.3136H22.1837V10.9893Z" fill="#F9BE8F"/>
<path d="M22.1837 9.66504H20.8594V10.9893H22.1837V9.66504Z" fill="#350000"/>
<path d="M30.1212 10.9893H28.7969V12.3136H30.1212V10.9893Z" fill="#F9BE8F"/>
<path d="M30.1212 9.66504H28.7969V10.9893H30.1212V9.66504Z" fill="#350000"/>
<path d="M26.1446 9.66504H24.8203V10.9893H26.1446V9.66504Z" fill="#F9D4BB"/>
<path d="M28.8009 9.66504H27.4766V10.9893H28.8009V9.66504Z" fill="#F9D4BB"/>
<path d="M23.5118 8.34082H22.1875V9.66512H23.5118V8.34082Z" fill="#F9D4BB"/>
<path d="M22.1837 8.34082H20.8594V9.66512H22.1837V8.34082Z" fill="#4F0000"/>
<path d="M30.1212 8.34082H28.7969V9.66512H30.1212V8.34082Z" fill="#4F0000"/>
<path d="M22.1837 7.03027H20.8594V8.35457H22.1837V7.03027Z" fill="#4F0000"/>
<path d="M30.1212 7.03027H28.7969V8.35457H30.1212V7.03027Z" fill="#4F0000"/>
<path d="M22.1837 5.70508H20.8594V7.02938H22.1837V5.70508Z" fill="#4F0000"/>
<path d="M30.1212 5.70508H28.7969V7.02938H30.1212V5.70508Z" fill="#4F0000"/>
<path d="M26.1446 8.34082H24.8203V9.66512H26.1446V8.34082Z" fill="#F9D4BB"/>
<path d="M28.8009 8.34082H27.4766V9.66512H28.8009V8.34082Z" fill="#F9D4BB"/>
<path d="M23.5118 7.03027H22.1875V8.35457H23.5118V7.03027Z" fill="#4F0000"/>
<path d="M26.1446 7.03027H24.8203V8.35457H26.1446V7.03027Z" fill="#F9D4BB"/>
<path d="M28.8009 7.03027H27.4766V8.35457H28.8009V7.03027Z" fill="#4F0000"/>
<path d="M23.5118 5.70508H22.1875V7.02938H23.5118V5.70508Z" fill="#4F0000"/>
<path d="M26.1446 5.70508H24.8203V7.02938H26.1446V5.70508Z" fill="#710000"/>
<path d="M24.8243 12.3135H23.5V13.6378H24.8243V12.3135Z" fill="#F9D4BB"/>
<path d="M24.8243 10.9893H23.5V12.3136H24.8243V10.9893Z" fill="#F9D4BB"/>
<path d="M24.8243 9.66504H23.5V10.9893H24.8243V9.66504Z" fill="#211C19"/>
<path d="M24.8243 8.34082H23.5V9.66512H24.8243V8.34082Z" fill="#F9D4BB"/>
<path d="M24.8243 7.03027H23.5V8.35457H24.8243V7.03027Z" fill="#F9D4BB"/>
<path d="M24.8243 5.70508H23.5V7.02938H24.8243V5.70508Z" fill="#4F0000"/>
<path d="M27.4727 12.3135H26.1484V13.6378H27.4727V12.3135Z" fill="#F9D4BB"/>
<path d="M27.4727 10.9893H26.1484V12.3136H27.4727V10.9893Z" fill="#F9D4BB"/>
<path d="M27.4727 9.66504H26.1484V10.9893H27.4727V9.66504Z" fill="#211C19"/>
<path d="M27.4727 8.34082H26.1484V9.66512H27.4727V8.34082Z" fill="#F9D4BB"/>
<path d="M27.4727 7.03027H26.1484V8.35457H27.4727V7.03027Z" fill="#F9D4BB"/>
<path d="M27.4727 5.70508H26.1484V7.02938H27.4727V5.70508Z" fill="#4F0000"/>
<path d="M28.8009 5.70508H27.4766V7.02938H28.8009V5.70508Z" fill="#4F0000"/>
<path d="M23.5118 4.38086H22.1875V5.70516H23.5118V4.38086Z" fill="#4F0000"/>
<path d="M26.1446 4.38086H24.8203V5.70516H26.1446V4.38086Z" fill="#710000"/>
<path d="M24.8243 4.38086H23.5V5.70516H24.8243V4.38086Z" fill="#710000"/>
<path d="M27.4727 4.38086H26.1484V5.70516H27.4727V4.38086Z" fill="#710000"/>
<path d="M28.8009 4.38086H27.4766V5.70516H28.8009V4.38086Z" fill="#4F0000"/>
<path d="M23.5118 14.9482H22.1875V16.2725H23.5118V14.9482Z" fill="#122D3F"/>
<path d="M24.8243 14.9482H23.5V16.2725H24.8243V14.9482Z" fill="#FFE99C"/>
<path d="M26.1446 14.9482H24.8203V16.2725H26.1446V14.9482Z" fill="#FFE99C"/>
<path d="M27.4727 14.9482H26.1484V16.2725H27.4727V14.9482Z" fill="#FFE99C"/>
<path d="M24.8243 13.6377H23.5V14.962H24.8243V13.6377Z" fill="#0B1E28"/>
<path d="M27.4727 13.6377H26.1484V14.962H27.4727V13.6377Z" fill="#0B1E28"/>
<path d="M28.8009 14.9482H27.4766V16.2725H28.8009V14.9482Z" fill="#122D3F"/>
<path d="M23.5118 13.6377H22.1875V14.962H23.5118V13.6377Z" fill="#122D3F"/>
<path d="M28.8009 13.6377H27.4766V14.962H28.8009V13.6377Z" fill="#122D3F"/>
<path d="M23.5118 16.2725H22.1875V17.5968H23.5118V16.2725Z" fill="#122D3F"/>
<path d="M20.8634 16.2725H19.5391V17.5968H20.8634V16.2725Z" fill="#FFE99C"/>
<path d="M24.8243 16.2725H23.5V17.5968H24.8243V16.2725Z" fill="#FFE99C"/>
<path d="M26.1446 16.2725H24.8203V17.5968H26.1446V16.2725Z" fill="#FFE99C"/>
<path d="M27.4727 16.2725H26.1484V17.5968H27.4727V16.2725Z" fill="#FFE99C"/>
<path d="M28.8009 16.2725H27.4766V17.5968H28.8009V16.2725Z" fill="#122D3F"/>
<path d="M31.4337 16.2725H30.1094V17.5968H31.4337V16.2725Z" fill="#FFE99C"/>
<path d="M23.5118 17.5967H22.1875V18.921H23.5118V17.5967Z" fill="#122D3F"/>
<path d="M20.8634 17.5967H19.5391V18.921H20.8634V17.5967Z" fill="#FFE99C"/>
<path d="M24.8243 17.5967H23.5V18.921H24.8243V17.5967Z" fill="#FFE99C"/>
<path d="M26.1446 17.5967H24.8203V18.921H26.1446V17.5967Z" fill="#FFE99C"/>
<path d="M27.4727 17.5967H26.1484V18.921H27.4727V17.5967Z" fill="#FFE99C"/>
<path d="M28.8009 17.5967H27.4766V18.921H28.8009V17.5967Z" fill="#122D3F"/>
<path d="M31.4337 17.5967H30.1094V18.921H31.4337V17.5967Z" fill="#FFE99C"/>
<path d="M23.5118 18.9219H22.1875V20.2462H23.5118V18.9219Z" fill="#122D3F"/>
<path d="M20.8634 18.9219H19.5391V20.2462H20.8634V18.9219Z" fill="#FFE99C"/>
<path d="M24.8243 18.9219H23.5V20.2462H24.8243V18.9219Z" fill="#FFE99C"/>
<path d="M26.1446 18.9219H24.8203V20.2462H26.1446V18.9219Z" fill="#FFE99C"/>
<path d="M27.4727 18.9219H26.1484V20.2462H27.4727V18.9219Z" fill="#FFE99C"/>
<path d="M28.8009 18.9219H27.4766V20.2462H28.8009V18.9219Z" fill="#122D3F"/>
<path d="M31.4337 18.9219H30.1094V20.2462H31.4337V18.9219Z" fill="#FFE99C"/>
<path d="M22.1837 14.9482H20.8594V16.2725H22.1837V14.9482Z" fill="#3B6582"/>
<path d="M22.1837 16.2725H20.8594V17.5968H22.1837V16.2725Z" fill="#214563"/>
<path d="M22.1837 17.5967H20.8594V18.921H22.1837V17.5967Z" fill="#214563"/>
<path d="M22.1837 18.9219H20.8594V20.2462H22.1837V18.9219Z" fill="#214563"/>
<path d="M30.1212 14.9482H28.7969V16.2725H30.1212V14.9482Z" fill="#3B6582"/>
<path d="M30.1212 16.2725H28.7969V17.5968H30.1212V16.2725Z" fill="#214563"/>
<path d="M30.1212 17.5967H28.7969V18.921H30.1212V17.5967Z" fill="#214563"/>
<path d="M30.1212 18.9219H28.7969V20.2462H30.1212V18.9219Z" fill="#214563"/>
</g>
</g>
<rect x="15.4531" y="1" width="20" height="20" rx="10" stroke="white" stroke-width="2"/>
<g clip-path="url(#clip4_3556_166282)">
<rect x="30" y="2" width="18" height="18" rx="9" fill="#00C7BE"/>
<g clip-path="url(#clip5_3556_166282)">
<path d="M39.5085 12.5527H38.3203V13.7406H39.5085V12.5527Z" fill="#9E7440"/>
<path d="M37.1413 11.3652H35.9531V12.5531H37.1413V11.3652Z" fill="#E6BE81"/>
<path d="M39.5085 11.3652H38.3203V12.5531H39.5085V11.3652Z" fill="white"/>
<path d="M41.8835 11.3652H40.6953V12.5531H41.8835V11.3652Z" fill="#E6BE81"/>
<path d="M37.1413 10.1768H35.9531V11.3646H37.1413V10.1768Z" fill="#E6BE81"/>
<path d="M39.5085 10.1768H38.3203V11.3646H39.5085V10.1768Z" fill="#E6BE81"/>
<path d="M41.8835 10.1768H40.6953V11.3646H41.8835V10.1768Z" fill="#E6BE81"/>
<path d="M37.1413 8.99023H35.9531V10.1781H37.1413V8.99023Z" fill="#E6BE81"/>
<path d="M35.9538 10.1768H34.7656V11.3646H35.9538V10.1768Z" fill="#CF9E66"/>
<path d="M35.9538 8.99023H34.7656V10.1781H35.9538V8.99023Z" fill="black"/>
<path d="M43.071 10.1768H41.8828V11.3646H43.071V10.1768Z" fill="#CF9E66"/>
<path d="M43.071 8.99023H41.8828V10.1781H43.071V8.99023Z" fill="black"/>
<path d="M39.5085 8.99023H38.3203V10.1781H39.5085V8.99023Z" fill="#E6BE81"/>
<path d="M41.8835 8.99023H40.6953V10.1781H41.8835V8.99023Z" fill="#E6BE81"/>
<path d="M37.1413 7.80078H35.9531V8.98862H37.1413V7.80078Z" fill="#E6BE81"/>
<path d="M35.9538 7.80078H34.7656V8.98862H35.9538V7.80078Z" fill="#181C24"/>
<path d="M35.9538 13.7285H34.7656V14.9164H35.9538V13.7285Z" fill="#181C24"/>
<path d="M43.071 13.7285H41.8828V14.9164H43.071V13.7285Z" fill="#181C24"/>
<path d="M43.071 7.80078H41.8828V8.98862H43.071V7.80078Z" fill="#181C24"/>
<path d="M35.9538 6.62598H34.7656V7.81382H35.9538V6.62598Z" fill="#181C24"/>
<path d="M43.071 6.62598H41.8828V7.81382H43.071V6.62598Z" fill="#181C24"/>
<path d="M43.071 11.3652H41.8828V12.5531H43.071V11.3652Z" fill="#181C24"/>
<path d="M43.071 12.5527H41.8828V13.7406H43.071V12.5527Z" fill="#181C24"/>
<path d="M35.9538 5.4375H34.7656V6.62534H35.9538V5.4375Z" fill="#181C24"/>
<path d="M43.071 5.4375H41.8828V6.62534H43.071V5.4375Z" fill="#181C24"/>
<path d="M39.5085 7.80078H38.3203V8.98862H39.5085V7.80078Z" fill="#E6BE81"/>
<path d="M41.8835 7.80078H40.6953V8.98862H41.8835V7.80078Z" fill="#E6BE81"/>
<path d="M37.1413 6.62598H35.9531V7.81382H37.1413V6.62598Z" fill="#252A36"/>
<path d="M39.5085 6.62598H38.3203V7.81382H39.5085V6.62598Z" fill="#E6BE81"/>
<path d="M41.8835 6.62598H40.6953V7.81382H41.8835V6.62598Z" fill="#252A36"/>
<path d="M41.8835 7.80078H40.6953V8.98862H41.8835V7.80078Z" fill="#E6BE81"/>
<path d="M37.1413 5.4375H35.9531V6.62534H37.1413V5.4375Z" fill="#181C24"/>
<path d="M39.5085 5.4375H38.3203V6.62534H39.5085V5.4375Z" fill="#252A36"/>
<path d="M39.5085 6.62598H38.3203V7.81382H39.5085V6.62598Z" fill="#252A36"/>
<path d="M38.321 11.3652H37.1328V12.5531H38.321V11.3652Z" fill="#E6BE81"/>
<path d="M38.321 10.1768H37.1328V11.3646H38.321V10.1768Z" fill="#E6BE81"/>
<path d="M38.321 8.99023H37.1328V10.1781H38.321V8.99023Z" fill="#211C19"/>
<path d="M38.321 7.80078H37.1328V8.98862H38.321V7.80078Z" fill="#E6BE81"/>
<path d="M38.321 6.62598H37.1328V7.81382H38.321V6.62598Z" fill="#252A36"/>
<path d="M38.321 5.4375H37.1328V6.62534H38.321V5.4375Z" fill="#252A36"/>
<path d="M40.696 11.3652H39.5078V12.5531H40.696V11.3652Z" fill="#E6BE81"/>
<path d="M40.696 10.1768H39.5078V11.3646H40.696V10.1768Z" fill="#E6BE81"/>
<path d="M40.696 8.99023H39.5078V10.1781H40.696V8.99023Z" fill="#211C19"/>
<path d="M40.696 7.80078H39.5078V8.98862H40.696V7.80078Z" fill="#E6BE81"/>
<path d="M40.696 6.62598H39.5078V7.81382H40.696V6.62598Z" fill="#E6BE81"/>
<path d="M40.696 5.4375H39.5078V6.62534H40.696V5.4375Z" fill="#252A36"/>
<path d="M40.696 6.62598H39.5078V7.81382H40.696V6.62598Z" fill="#252A36"/>
<path d="M41.8835 12.5527H40.6953V13.7406H41.8835V12.5527Z" fill="black"/>
<path d="M40.696 12.5527H39.5078V13.7406H40.696V12.5527Z" fill="black"/>
<path d="M34.7571 12.5469H35.9453V11.359H34.7571V12.5469Z" fill="#181C24"/>
<path d="M34.7571 13.7285H35.9453V12.5407H34.7571V13.7285Z" fill="#181C24"/>
<path d="M35.9446 13.7285H37.1328V12.5407H35.9446V13.7285Z" fill="black"/>
<path d="M37.1399 13.7285H38.3281V12.5407H37.1399V13.7285Z" fill="black"/>
<path d="M41.8835 5.4375H40.6953V6.62534H41.8835V5.4375Z" fill="#181C24"/>
<path d="M37.1413 4.25H35.9531V5.43784H37.1413V4.25Z" fill="#181C24"/>
<path d="M39.5085 4.25H38.3203V5.43784H39.5085V4.25Z" fill="#181C24"/>
<path d="M38.321 4.25H37.1328V5.43784H38.321V4.25Z" fill="#181C24"/>
<path d="M40.696 4.25H39.5078V5.43784H40.696V4.25Z" fill="#181C24"/>
<path d="M41.8835 4.25H40.6953V5.43784H41.8835V4.25Z" fill="#181C24"/>
<path d="M37.1413 13.7285H35.9531V14.9164H37.1413V13.7285Z" fill="#181C24"/>
<path d="M38.321 13.7285H37.1328V14.9164H38.321V13.7285Z" fill="#CF9E66"/>
<path d="M39.5085 13.7285H38.3203V14.9164H39.5085V13.7285Z" fill="#CF9E66"/>
<path d="M40.696 13.7285H39.5078V14.9164H40.696V13.7285Z" fill="#CF9E66"/>
<path d="M41.8835 13.7285H40.6953V14.9164H41.8835V13.7285Z" fill="#181C24"/>
<path d="M37.1413 14.916H35.9531V16.1039H37.1413V14.916Z" fill="#CF9E66"/>
<path d="M38.321 14.916H37.1328V16.1039H38.321V14.916Z" fill="#CF9E66"/>
<path d="M39.5085 14.916H38.3203V16.1039H39.5085V14.916Z" fill="#CF9E66"/>
<path d="M40.696 14.916H39.5078V16.1039H40.696V14.916Z" fill="#CF9E66"/>
<path d="M41.8835 14.916H40.6953V16.1039H41.8835V14.916Z" fill="#CF9E66"/>
<path d="M37.1413 16.1045H35.9531V17.2923H37.1413V16.1045Z" fill="#590071"/>
<path d="M34.7663 16.1045H33.5781V17.2923H34.7663V16.1045Z" fill="#590071"/>
<path d="M38.321 16.1045H37.1328V17.2923H38.321V16.1045Z" fill="#590071"/>
<path d="M39.5085 16.1045H38.3203V17.2923H39.5085V16.1045Z" fill="#410056"/>
<path d="M40.696 16.1045H39.5078V17.2923H40.696V16.1045Z" fill="#590071"/>
<path d="M41.8835 16.1045H40.6953V17.2923H41.8835V16.1045Z" fill="#590071"/>
<path d="M44.2507 16.1045H43.0625V17.2923H44.2507V16.1045Z" fill="#590071"/>
<path d="M34.7663 14.916H33.5781V16.1039H34.7663V14.916Z" fill="#CF9E66"/>
<path d="M44.2507 14.916H43.0625V16.1039H44.2507V14.916Z" fill="#CF9E66"/>
<path d="M37.1413 17.292H35.9531V18.4798H37.1413V17.292Z" fill="#590071"/>
<path d="M34.7663 17.292H33.5781V18.4798H34.7663V17.292Z" fill="#CF9E66"/>
<path d="M38.321 17.292H37.1328V18.4798H38.321V17.292Z" fill="#410056"/>
<path d="M39.5085 17.292H38.3203V18.4798H39.5085V17.292Z" fill="#410056"/>
<path d="M40.696 17.292H39.5078V18.4798H40.696V17.292Z" fill="#410056"/>
<path d="M41.8835 17.292H40.6953V18.4798H41.8835V17.292Z" fill="#590071"/>
<path d="M44.2507 17.292H43.0625V18.4798H44.2507V17.292Z" fill="#CF9E66"/>
<path d="M37.1413 18.4805H35.9531V19.6683H37.1413V18.4805Z" fill="#590071"/>
<path d="M34.7663 18.4805H33.5781V19.6683H34.7663V18.4805Z" fill="#CF9E66"/>
<path d="M38.321 18.4805H37.1328V19.6683H38.321V18.4805Z" fill="#410056"/>
<path d="M39.5085 18.4805H38.3203V19.6683H39.5085V18.4805Z" fill="#410056"/>
<path d="M40.696 18.4805H39.5078V19.6683H40.696V18.4805Z" fill="#410056"/>
<path d="M41.8835 18.4805H40.6953V19.6683H41.8835V18.4805Z" fill="#590071"/>
<path d="M44.2507 18.4805H43.0625V19.6683H44.2507V18.4805Z" fill="#CF9E66"/>
<path d="M35.9538 14.916H34.7656V16.1039H35.9538V14.916Z" fill="#CF9E66"/>
<path d="M35.9538 16.1045H34.7656V17.2923H35.9538V16.1045Z" fill="#590071"/>
<path d="M35.9538 17.292H34.7656V18.4798H35.9538V17.292Z" fill="#590071"/>
<path d="M35.9538 18.4805H34.7656V19.6683H35.9538V18.4805Z" fill="#590071"/>
<path d="M43.071 14.916H41.8828V16.1039H43.071V14.916Z" fill="#CF9E66"/>
<path d="M43.071 16.1045H41.8828V17.2923H43.071V16.1045Z" fill="#590071"/>
<path d="M43.071 17.292H41.8828V18.4798H43.071V17.292Z" fill="#590071"/>
<path d="M43.071 18.4805H41.8828V19.6683H43.071V18.4805Z" fill="#590071"/>
<path d="M37.1413 19.6562H35.9531V20.8441H37.1413V19.6562Z" fill="#590071"/>
<path d="M34.7663 19.6562H33.5781V20.8441H34.7663V19.6562Z" fill="#CF9E66"/>
<path d="M38.321 19.6562H37.1328V20.8441H38.321V19.6562Z" fill="#410056"/>
<path d="M39.5085 19.6562H38.3203V20.8441H39.5085V19.6562Z" fill="#410056"/>
<path d="M40.696 19.6562H39.5078V20.8441H40.696V19.6562Z" fill="#410056"/>
<path d="M41.8835 19.6562H40.6953V20.8441H41.8835V19.6562Z" fill="#590071"/>
<path d="M44.2507 19.6562H43.0625V20.8441H44.2507V19.6562Z" fill="#CF9E66"/>
<path d="M35.9538 19.6562H34.7656V20.8441H35.9538V19.6562Z" fill="#590071"/>
<path d="M43.071 19.6562H41.8828V20.8441H43.071V19.6562Z" fill="#590071"/>
</g>
</g>
<rect x="29" y="1" width="20" height="20" rx="10" stroke="white" stroke-width="2"/>
<defs>
<clipPath id="clip0_3556_166282">
<rect x="2.90625" y="2" width="18.0052" height="18" rx="9" fill="white"/>
</clipPath>
<clipPath id="clip1_3556_166282">
<rect width="12.9412" height="18.5679" fill="white" transform="translate(5.4375 1.71582)"/>
</clipPath>
<clipPath id="clip2_3556_166282">
<rect x="16.4531" y="2" width="18" height="18" rx="9" fill="white"/>
</clipPath>
<clipPath id="clip3_3556_166282">
<rect width="11.892" height="19.1305" fill="white" transform="translate(19.5391 2.5625)"/>
</clipPath>
<clipPath id="clip4_3556_166282">
<rect x="30" y="2" width="18" height="18" rx="9" fill="white"/>
</clipPath>
<clipPath id="clip5_3556_166282">
<rect width="10.6906" height="15.75" fill="white" transform="translate(33.375 4.25)"/>
</clipPath>
</defs>
</svg>
