<svg width="16" height="16" viewBox="0 0 16 16" fill="none" xmlns="http://www.w3.org/2000/svg">
<g clip-path="url(#clip0_6014_73599)">
<path fill-rule="evenodd" clip-rule="evenodd" d="M7.33333 1.33301H3.33333V2.66634H2.00016V6.66634L3.33333 6.66634V7.99967H7.33333V6.66634L3.3335 6.66634V2.66634H7.33333V1.33301ZM7.3335 2.66634H8.66683V6.66634H7.3335V2.66634ZM0 10.6663H1.33333V13.333H9.33333V14.6663H1.33333H0V10.6663ZM1.33333 10.6663H9.33333V9.33301H1.33333V10.6663ZM10.6668 10.6663H9.3335V14.6663H10.6668V10.6663ZM10 1.33301H12.6667V2.66634H10V1.33301ZM12.6667 6.66634H10V7.99967H12.6667V6.66634ZM12.6668 2.66634H14.0002V6.66634H12.6668V2.66634ZM16.0002 10.6663H14.6668V13.333H12V14.6663H16V13.333H16.0002V10.6663ZM12 9.33301H14.6667V10.6663H12V9.33301Z" fill="#055DF5"/>
</g>
<defs>
<clipPath id="clip0_6014_73599">
<rect width="16" height="16" fill="white"/>
</clipPath>
</defs>
</svg>
