<svg width="16" height="17" viewBox="0 0 16 17" fill="none" xmlns="http://www.w3.org/2000/svg">
<g clip-path="url(#clip0_3556_166182)">
<path fill-rule="evenodd" clip-rule="evenodd" d="M7.33333 1.8335H3.33333V3.16683L2.00016 3.16683V7.16683H3.33333V8.50016H7.33333V7.16683H3.3335V3.16683L7.33333 3.16683V1.8335ZM7.3335 3.16683H8.66683V7.16683H7.3335V3.16683ZM0 11.1668H1.33333V13.8335H9.33333V15.1668L1.33333 15.1668H0V11.1668ZM1.33333 11.1668L9.33333 11.1668V9.8335H1.33333V11.1668ZM10.6668 11.1668H9.3335V15.1668H10.6668V11.1668ZM10 1.8335H12.6667V3.16683H10V1.8335ZM12.6667 7.16683H10V8.50016H12.6667V7.16683ZM12.6668 3.16683H14.0002V7.16683H12.6668V3.16683ZM16.0002 11.1668H14.6668V13.8335L12 13.8335V15.1668H16V13.8335L16.0002 13.8335V11.1668ZM12 9.8335H14.6667V11.1668H12V9.8335Z" fill="white"/>
</g>
<defs>
<clipPath id="clip0_3556_166182">
<rect width="16" height="16" fill="white" transform="translate(0 0.5)"/>
</clipPath>
</defs>
</svg>
