<svg width="20" height="20" viewBox="0 0 20 20" fill="none" xmlns="http://www.w3.org/2000/svg">
<g clip-path="url(#clip0_6033_75253)">
<path d="M15.7463 15.7444L16.6287 16.6306C15.7593 17.5024 14.726 18.1937 13.5884 18.6647C12.4508 19.1357 11.2313 19.3771 10 19.375C7.80331 19.376 5.67692 18.6007 3.99625 17.1863L3.99563 18.1381H2.74563V15.12H5.76375V16.37H4.96625C6.39707 17.5081 8.17178 18.1268 10 18.125C12.1644 18.125 14.2056 17.2794 15.7463 15.7444ZM10 1.875C11.8425 1.875 13.5994 2.49375 15.0338 3.63H14.2362V4.88L17.2537 4.88V1.86125H16.0038V2.81375C14.3231 1.39926 12.1967 0.624053 10 0.625001C7.5025 0.625001 5.14813 1.6 3.37125 3.36875L4.25375 4.25625C5.00724 3.50005 5.90285 2.90036 6.88903 2.49168C7.87522 2.08301 8.93249 1.87343 10 1.875ZM19.3612 9.16438L18.1112 9.1875L18.125 10C18.125 10.1331 18.1213 10.265 18.115 10.3963L18.0856 11.0206L19.3344 11.0806L19.3638 10.4556C19.3713 10.3056 19.375 10.1525 19.375 9.99438L19.3612 9.16438ZM17.6769 12.6688C17.6144 12.8519 17.5444 13.0313 17.4681 13.2081L17.2206 13.7825L18.3687 14.2775L18.6156 13.7038C18.7044 13.4975 18.7844 13.29 18.8587 13.0775L19.0625 12.4869L17.8813 12.0781L17.6769 12.6688ZM17.7437 7.53563L17.935 8.13063L19.1256 7.7475L18.9338 7.15188C18.865 6.93875 18.7881 6.72813 18.7044 6.52188L18.4688 5.9425L17.3106 6.41313L17.5456 6.99188C17.6181 7.17 17.6844 7.35125 17.7437 7.53563ZM1.875 10C1.875 9.86688 1.87875 9.735 1.885 9.60375L1.91437 8.97938L0.665625 8.91938L0.63625 9.54438C0.62875 9.69438 0.625 9.8475 0.625 10.0056L0.63875 10.8356L1.88875 10.8125L1.875 10ZM2.25625 12.4644L2.065 11.8694L0.874375 12.2525L1.06625 12.8481C1.135 13.0613 1.21187 13.2719 1.29562 13.4781L1.53125 14.0575L2.68937 13.5869L2.45438 13.0081C2.38145 12.8295 2.31536 12.6481 2.25625 12.4644ZM2.32313 7.33125C2.38563 7.14813 2.45563 6.96875 2.53188 6.79188L2.77938 6.2175L1.63125 5.7225L1.38437 6.29625C1.29562 6.5025 1.21562 6.71 1.14125 6.9225L0.9375 7.51313L2.11875 7.92188L2.32313 7.33125ZM10.625 8.125H9.375V9.375H10.625C10.7908 9.375 10.9497 9.30915 11.0669 9.19194C11.1842 9.07473 11.25 8.91576 11.25 8.75C11.25 8.58424 11.1842 8.42527 11.0669 8.30806C10.9497 8.19085 10.7908 8.125 10.625 8.125ZM10.625 10.625H9.375L9.375 11.875H10.625C10.7908 11.875 10.9497 11.8092 11.0669 11.6919C11.1842 11.5747 11.25 11.4158 11.25 11.25C11.25 11.0842 11.1842 10.9253 11.0669 10.8081C10.9497 10.6908 10.7908 10.625 10.625 10.625ZM16.25 10C16.25 13.4463 13.4462 16.25 10 16.25C6.55375 16.25 3.75 13.4463 3.75 10C3.75 6.55375 6.55375 3.75 10 3.75C13.4462 3.75 16.25 6.55375 16.25 10ZM12.0125 10C12.3125 9.6675 12.5 9.23188 12.5 8.75C12.5 7.71625 11.6587 6.875 10.625 6.875V6.25H9.375V6.875H7.5V8.125H8.125V11.875H7.5V13.125H9.375V13.75H10.625V13.125C11.6587 13.125 12.5 12.2838 12.5 11.25C12.5 10.7681 12.3125 10.3325 12.0125 10Z" fill="currentColor"/>
</g>
<defs>
<clipPath id="clip0_6033_75253">
<rect width="20" height="20" fill="white"/>
</clipPath>
</defs>
</svg>
