<svg width="134" height="133" viewBox="0 0 134 133" fill="none" xmlns="http://www.w3.org/2000/svg">
<circle cx="66.75" cy="66.75" r="65.75" fill="#E6EFFE"/>
<path d="M96.2022 71.1992H93.6035V73.7979H96.2022V71.1992Z" fill="black"/>
<path d="M96.2022 68.6016H93.6035V71.2002H96.2022V68.6016Z" fill="black"/>
<path d="M96.2022 66.002H93.6035V68.6006H96.2022V66.002Z" fill="black"/>
<path d="M93.5987 73.7988H91V76.3975H93.5987V73.7988Z" fill="black"/>
<path d="M93.5987 71.1992H91V73.7979H93.5987V71.1992Z" fill="#9B3B1E"/>
<path d="M93.5987 68.6016H91V71.2002H93.5987V68.6016Z" fill="#9B3B1E"/>
<path d="M93.5987 66.002H91V68.6006H93.5987V66.002Z" fill="#9B3B1E"/>
<path d="M93.5987 63.3984H91V65.9971H93.5987V63.3984Z" fill="black"/>
<path d="M91.001 84.1973H88.4023V86.7959H91.001V84.1973Z" fill="black"/>
<path d="M91.001 81.5996H88.4023V84.1983H91.001V81.5996Z" fill="black"/>
<path d="M91.001 79.002H88.4023V81.6006H91.001V79.002Z" fill="black"/>
<path d="M91.001 76.4043H88.4023V79.003H91.001V76.4043Z" fill="black"/>
<path d="M91.001 73.7988H88.4023V76.3975H91.001V73.7988Z" fill="#8C290A"/>
<path d="M91.001 71.1992H88.4023V73.7979H91.001V71.1992Z" fill="#9B3B1E"/>
<path d="M91.001 68.6016H88.4023V71.2002H91.001V68.6016Z" fill="#AF4820"/>
<path d="M91.001 66.002H88.4023V68.6006H91.001V66.002Z" fill="#AF4820"/>
<path d="M91.001 63.3984H88.4023V65.9971H91.001V63.3984Z" fill="#8C290A"/>
<path d="M91.001 60.8008H88.4023V63.3994H91.001V60.8008Z" fill="black"/>
<path d="M91.001 58.2012H88.4023V60.7998H91.001V58.2012Z" fill="black"/>
<path d="M91.001 55.6035H88.4023V58.2022H91.001V55.6035Z" fill="black"/>
<path d="M91.001 52.998H88.4023V55.5967H91.001V52.998Z" fill="black"/>
<path d="M91.001 50.4004H88.4023V52.9991H91.001V50.4004Z" fill="black"/>
<path d="M91.001 47.8027H88.4023V50.4014H91.001V47.8027Z" fill="black"/>
<path d="M91.001 45.2031H88.4023V47.8018H91.001V45.2031Z" fill="black"/>
<path d="M88.4014 86.8027H85.8027V89.4014H88.4014V86.8027Z" fill="black"/>
<path d="M88.4014 84.1973H85.8027V86.7959H88.4014V84.1973Z" fill="#9B3B1E"/>
<path d="M88.4014 81.5996H85.8027V84.1983H88.4014V81.5996Z" fill="#9B3B1E"/>
<path d="M88.4014 79.002H85.8027V81.6006H88.4014V79.002Z" fill="#9B3B1E"/>
<path d="M88.4014 76.4043H85.8027V79.003H88.4014V76.4043Z" fill="#9B3B1E"/>
<path d="M88.4014 73.7988H85.8027V76.3975H88.4014V73.7988Z" fill="#8C290A"/>
<path d="M88.4014 71.1992H85.8027V73.7979H88.4014V71.1992Z" fill="#AF4820"/>
<path d="M88.4014 68.6016H85.8027V71.2002H88.4014V68.6016Z" fill="#AF4820"/>
<path d="M88.4014 66.002H85.8027V68.6006H88.4014V66.002Z" fill="#AF4820"/>
<path d="M88.4014 63.3984H85.8027V65.9971H88.4014V63.3984Z" fill="#8C290A"/>
<path d="M88.4014 60.8008H85.8027V63.3994H88.4014V60.8008Z" fill="#9B3B1E"/>
<path d="M88.4014 58.2012H85.8027V60.7998H88.4014V58.2012Z" fill="#9B3B1E"/>
<path d="M88.4014 55.6035H85.8027V58.2022H88.4014V55.6035Z" fill="#9B3B1E"/>
<path d="M88.4014 52.998H85.8027V55.5967H88.4014V52.998Z" fill="#9B3B1E"/>
<path d="M88.4014 50.4004H85.8027V52.9991H88.4014V50.4004Z" fill="#9B3B1E"/>
<path d="M88.4014 47.8027H85.8027V50.4014H88.4014V47.8027Z" fill="#75240E"/>
<path d="M88.4014 45.2031H85.8027V47.8018H88.4014V45.2031Z" fill="#8E371C"/>
<path d="M88.4014 42.5996H85.8027V45.1983H88.4014V42.5996Z" fill="black"/>
<path d="M85.7979 89.4023H83.1992V92.001H85.7979V89.4023Z" fill="black"/>
<path d="M85.7979 86.8027H83.1992V89.4014H85.7979V86.8027Z" fill="#9B3B1E"/>
<path d="M85.7979 84.1973H83.1992V86.7959H85.7979V84.1973Z" fill="#9B3B1E"/>
<path d="M85.7979 81.5996H83.1992V84.1983H85.7979V81.5996Z" fill="#8C290A"/>
<path d="M85.7979 79.002H83.1992V81.6006H85.7979V79.002Z" fill="#8C290A"/>
<path d="M85.7979 76.4043H83.1992V79.003H85.7979V76.4043Z" fill="#9B3B1E"/>
<path d="M85.7979 73.7988H83.1992V76.3975H85.7979V73.7988Z" fill="#8C290A"/>
<path d="M85.7979 71.1992H83.1992V73.7979H85.7979V71.1992Z" fill="#AF4820"/>
<path d="M85.7979 68.6016H83.1992V71.2002H85.7979V68.6016Z" fill="#AF4820"/>
<path d="M85.7979 66.002H83.1992V68.6006H85.7979V66.002Z" fill="#AF4820"/>
<path d="M85.7979 63.3984H83.1992V65.9971H85.7979V63.3984Z" fill="#8C290A"/>
<path d="M85.7979 60.8008H83.1992V63.3994H85.7979V60.8008Z" fill="#9B3B1E"/>
<path d="M85.7979 58.2012H83.1992V60.7998H85.7979V58.2012Z" fill="#8C290A"/>
<path d="M85.7979 55.6035H83.1992V58.2022H85.7979V55.6035Z" fill="#8C290A"/>
<path d="M85.7979 52.998H83.1992V55.5967H85.7979V52.998Z" fill="#8C290A"/>
<path d="M85.7979 50.4004H83.1992V52.9991H85.7979V50.4004Z" fill="#9B3B1E"/>
<path d="M85.7979 47.8027H83.1992V50.4014H85.7979V47.8027Z" fill="#9B3B1E"/>
<path d="M85.7979 45.2031H83.1992V47.8018H85.7979V45.2031Z" fill="#75240E"/>
<path d="M85.7979 42.5996H83.1992V45.1983H85.7979V42.5996Z" fill="#8E371C"/>
<path d="M85.7979 40H83.1992V42.5987H85.7979V40Z" fill="black"/>
<path d="M83.1983 89.4023H80.5996V92.001H83.1983V89.4023Z" fill="black"/>
<path d="M83.1983 86.8027H80.5996V89.4014H83.1983V86.8027Z" fill="#9B3B1E"/>
<path d="M83.1983 84.1973H80.5996V86.7959H83.1983V84.1973Z" fill="#9B3B1E"/>
<path d="M83.1983 81.5996H80.5996V84.1983H83.1983V81.5996Z" fill="#9B3B1E"/>
<path d="M83.1983 79.002H80.5996V81.6006H83.1983V79.002Z" fill="#9B3B1E"/>
<path d="M83.1983 76.4043H80.5996V79.003H83.1983V76.4043Z" fill="#9B3B1E"/>
<path d="M83.1983 73.7988H80.5996V76.3975H83.1983V73.7988Z" fill="#8C290A"/>
<path d="M83.1983 71.1992H80.5996V73.7979H83.1983V71.1992Z" fill="#AF4820"/>
<path d="M83.1983 68.6016H80.5996V71.2002H83.1983V68.6016Z" fill="#AF4820"/>
<path d="M83.1983 66.002H80.5996V68.6006H83.1983V66.002Z" fill="#AF4820"/>
<path d="M83.1983 63.3984H80.5996V65.9971H83.1983V63.3984Z" fill="#8C290A"/>
<path d="M83.1983 60.8008H80.5996V63.3994H83.1983V60.8008Z" fill="#9B3B1E"/>
<path d="M83.1983 58.2012H80.5996V60.7998H83.1983V58.2012Z" fill="#AF4820"/>
<path d="M83.1983 55.6035H80.5996V58.2022H83.1983V55.6035Z" fill="#AF4820"/>
<path d="M83.1983 52.998H80.5996V55.5967H83.1983V52.998Z" fill="#AF4820"/>
<path d="M83.1983 50.4004H80.5996V52.9991H83.1983V50.4004Z" fill="#8C290A"/>
<path d="M83.1983 47.8027H80.5996V50.4014H83.1983V47.8027Z" fill="#9B3B1E"/>
<path d="M83.1983 45.2031H80.5996V47.8018H83.1983V45.2031Z" fill="#75240E"/>
<path d="M83.1983 42.5996H80.5996V45.1983H83.1983V42.5996Z" fill="#8E371C"/>
<path d="M83.1983 40H80.5996V42.5987H83.1983V40Z" fill="black"/>
<path d="M80.6006 89.4023H78.002V92.001H80.6006V89.4023Z" fill="black"/>
<path d="M80.6006 86.8027H78.002V89.4014H80.6006V86.8027Z" fill="#9B3B1E"/>
<path d="M80.6006 84.1973H78.002V86.7959H80.6006V84.1973Z" fill="#8C290A"/>
<path d="M80.6006 81.5996H78.002V84.1983H80.6006V81.5996Z" fill="#9B3B1E"/>
<path d="M80.6006 79.002H78.002V81.6006H80.6006V79.002Z" fill="#9B3B1E"/>
<path d="M80.6006 76.4043H78.002V79.003H80.6006V76.4043Z" fill="#9B3B1E"/>
<path d="M80.6006 73.7988H78.002V76.3975H80.6006V73.7988Z" fill="#8C290A"/>
<path d="M80.6006 71.1992H78.002V73.7979H80.6006V71.1992Z" fill="#B9D3EA"/>
<path d="M80.6006 68.6016H78.002V71.2002H80.6006V68.6016Z" fill="#AF4820"/>
<path d="M80.6006 66.002H78.002V68.6006H80.6006V66.002Z" fill="#AF4820"/>
<path d="M80.6006 63.3984H78.002V65.9971H80.6006V63.3984Z" fill="#8C290A"/>
<path d="M80.6006 60.8008H78.002V63.3994H80.6006V60.8008Z" fill="#9B3B1E"/>
<path d="M80.6006 58.2012H78.002V60.7998H80.6006V58.2012Z" fill="#AF4820"/>
<path d="M80.6006 55.6035H78.002V58.2022H80.6006V55.6035Z" fill="#AF4820"/>
<path d="M80.6006 52.998H78.002V55.5967H80.6006V52.998Z" fill="#AF4820"/>
<path d="M80.6006 50.4004H78.002V52.9991H80.6006V50.4004Z" fill="#8C290A"/>
<path d="M80.6006 47.8027H78.002V50.4014H80.6006V47.8027Z" fill="#9B3B1E"/>
<path d="M80.6006 45.2031H78.002V47.8018H80.6006V45.2031Z" fill="#75240E"/>
<path d="M80.6006 42.5996H78.002V45.1983H80.6006V42.5996Z" fill="#8E371C"/>
<path d="M80.6006 40H78.002V42.5987H80.6006V40Z" fill="black"/>
<path d="M78.001 89.4023H75.4023V92.001H78.001V89.4023Z" fill="black"/>
<path d="M78.001 86.8027H75.4023V89.4014H78.001V86.8027Z" fill="#9B3B1E"/>
<path d="M78.001 84.1973H75.4023V86.7959H78.001V84.1973Z" fill="#8C290A"/>
<path d="M78.001 81.5996H75.4023V84.1983H78.001V81.5996Z" fill="#9B3B1E"/>
<path d="M78.001 79.002H75.4023V81.6006H78.001V79.002Z" fill="#9B3B1E"/>
<path d="M78.001 76.4043H75.4023V79.003H78.001V76.4043Z" fill="#9B3B1E"/>
<path d="M78.001 73.7988H75.4023V76.3975H78.001V73.7988Z" fill="#8C290A"/>
<path d="M78.001 71.1992H75.4023V73.7979H78.001V71.1992Z" fill="#B9D3EA"/>
<path d="M78.001 68.6016H75.4023V71.2002H78.001V68.6016Z" fill="#B9D3EA"/>
<path d="M78.001 66.002H75.4023V68.6006H78.001V66.002Z" fill="#B9D3EA"/>
<path d="M78.001 63.3984H75.4023V65.9971H78.001V63.3984Z" fill="#8C290A"/>
<path d="M78.001 60.8008H75.4023V63.3994H78.001V60.8008Z" fill="#AF4820"/>
<path d="M78.001 58.2012H75.4023V60.7998H78.001V58.2012Z" fill="#AF4820"/>
<path d="M78.001 55.6035H75.4023V58.2022H78.001V55.6035Z" fill="#AF4820"/>
<path d="M78.001 52.998H75.4023V55.5967H78.001V52.998Z" fill="#AF4820"/>
<path d="M78.001 50.4004H75.4023V52.9991H78.001V50.4004Z" fill="#8C290A"/>
<path d="M78.001 47.8027H75.4023V50.4014H78.001V47.8027Z" fill="#9B3B1E"/>
<path d="M78.001 45.2031H75.4023V47.8018H78.001V45.2031Z" fill="#75240E"/>
<path d="M78.001 42.5996H75.4023V45.1983H78.001V42.5996Z" fill="#8E371C"/>
<path d="M78.001 40H75.4023V42.5987H78.001V40Z" fill="black"/>
<path d="M75.3975 89.4023H72.7988V92.001H75.3975V89.4023Z" fill="black"/>
<path d="M75.3975 86.8027H72.7988V89.4014H75.3975V86.8027Z" fill="#9B3B1E"/>
<path d="M75.3975 84.1973H72.7988V86.7959H75.3975V84.1973Z" fill="#8C290A"/>
<path d="M75.3975 81.5996H72.7988V84.1983H75.3975V81.5996Z" fill="#9B3B1E"/>
<path d="M75.3975 79.002H72.7988V81.6006H75.3975V79.002Z" fill="#9B3B1E"/>
<path d="M75.3975 76.4043H72.7988V79.003H75.3975V76.4043Z" fill="#AF4820"/>
<path d="M75.3975 73.7988H72.7988V76.3975H75.3975V73.7988Z" fill="#AF4820"/>
<path d="M75.3975 71.1992H72.7988V73.7979H75.3975V71.1992Z" fill="#8C290A"/>
<path d="M75.3975 68.6016H72.7988V71.2002H75.3975V68.6016Z" fill="#8C290A"/>
<path d="M75.3975 66.002H72.7988V68.6006H75.3975V66.002Z" fill="#8C290A"/>
<path d="M75.3975 63.3984H72.7988V65.9971H75.3975V63.3984Z" fill="#AF4820"/>
<path d="M75.3975 60.8008H72.7988V63.3994H75.3975V60.8008Z" fill="#AF4820"/>
<path d="M75.3975 58.2012H72.7988V60.7998H75.3975V58.2012Z" fill="#AF4820"/>
<path d="M75.3975 55.6035H72.7988V58.2022H75.3975V55.6035Z" fill="#AF4820"/>
<path d="M75.3975 52.998H72.7988V55.5967H75.3975V52.998Z" fill="#AF4820"/>
<path d="M75.3975 50.4004H72.7988V52.9991H75.3975V50.4004Z" fill="#AF4820"/>
<path d="M75.3975 47.8027H72.7988V50.4014H75.3975V47.8027Z" fill="#9B3B1E"/>
<path d="M75.3975 45.2031H72.7988V47.8018H75.3975V45.2031Z" fill="#75240E"/>
<path d="M75.3975 42.5996H72.7988V45.1983H75.3975V42.5996Z" fill="#8E371C"/>
<path d="M75.3975 40H72.7988V42.5987H75.3975V40Z" fill="black"/>
<path d="M72.7979 89.4023H70.1992V92.001H72.7979V89.4023Z" fill="black"/>
<path d="M72.7979 86.8027H70.1992V89.4014H72.7979V86.8027Z" fill="#9B3B1E"/>
<path d="M72.7979 84.1973H70.1992V86.7959H72.7979V84.1973Z" fill="#9B3B1E"/>
<path d="M72.7979 81.5996H70.1992V84.1983H72.7979V81.5996Z" fill="#9B3B1E"/>
<path d="M72.7979 79.002H70.1992V81.6006H72.7979V79.002Z" fill="#9B3B1E"/>
<path d="M72.7979 76.4043H70.1992V79.003H72.7979V76.4043Z" fill="#AF4820"/>
<path d="M72.7979 73.7988H70.1992V76.3975H72.7979V73.7988Z" fill="#AF4820"/>
<path d="M72.7979 71.1992H70.1992V73.7979H72.7979V71.1992Z" fill="#AF4820"/>
<path d="M72.7979 68.6016H70.1992V71.2002H72.7979V68.6016Z" fill="#AF4820"/>
<path d="M72.7979 66.002H70.1992V68.6006H72.7979V66.002Z" fill="#AF4820"/>
<path d="M72.7979 63.3984H70.1992V65.9971H72.7979V63.3984Z" fill="#AF4820"/>
<path d="M72.7979 60.8008H70.1992V63.3994H72.7979V60.8008Z" fill="#AF4820"/>
<path d="M72.7979 58.2012H70.1992V60.7998H72.7979V58.2012Z" fill="#AF4820"/>
<path d="M72.7979 55.6035H70.1992V58.2022H72.7979V55.6035Z" fill="#AF4820"/>
<path d="M72.7979 52.998H70.1992V55.5967H72.7979V52.998Z" fill="#AF4820"/>
<path d="M72.7979 50.4004H70.1992V52.9991H72.7979V50.4004Z" fill="#8C290A"/>
<path d="M72.7979 47.8027H70.1992V50.4014H72.7979V47.8027Z" fill="#AF4820"/>
<path d="M72.7979 45.2031H70.1992V47.8018H72.7979V45.2031Z" fill="#75240E"/>
<path d="M72.7979 42.5996H70.1992V45.1983H72.7979V42.5996Z" fill="#8E371C"/>
<path d="M72.7979 40H70.1992V42.5987H72.7979V40Z" fill="black"/>
<path d="M70.2002 89.4023H67.6016V92.001H70.2002V89.4023Z" fill="black"/>
<path d="M70.2002 86.8027H67.6016V89.4014H70.2002V86.8027Z" fill="#9B3B1E"/>
<path d="M70.2002 84.1973H67.6016V86.7959H70.2002V84.1973Z" fill="#8C290A"/>
<path d="M70.2002 81.5996H67.6016V84.1983H70.2002V81.5996Z" fill="#9B3B1E"/>
<path d="M70.2002 79.002H67.6016V81.6006H70.2002V79.002Z" fill="#9B3B1E"/>
<path d="M70.2002 76.4043H67.6016V79.003H70.2002V76.4043Z" fill="#AF4820"/>
<path d="M70.2002 73.7988H67.6016V76.3975H70.2002V73.7988Z" fill="#AF4820"/>
<path d="M70.2002 71.1992H67.6016V73.7979H70.2002V71.1992Z" fill="#AF4820"/>
<path d="M70.2002 68.6016H67.6016V71.2002H70.2002V68.6016Z" fill="#AF4820"/>
<path d="M70.2002 66.002H67.6016V68.6006H70.2002V66.002Z" fill="#AF4820"/>
<path d="M70.2002 63.3984H67.6016V65.9971H70.2002V63.3984Z" fill="#AF4820"/>
<path d="M70.2002 60.8008H67.6016V63.3994H70.2002V60.8008Z" fill="#AF4820"/>
<path d="M70.2002 58.2012H67.6016V60.7998H70.2002V58.2012Z" fill="#AF4820"/>
<path d="M70.2002 55.6035H67.6016V58.2022H70.2002V55.6035Z" fill="#AF4820"/>
<path d="M70.2002 52.998H67.6016V55.5967H70.2002V52.998Z" fill="#AF4820"/>
<path d="M70.2002 50.4004H67.6016V52.9991H70.2002V50.4004Z" fill="#8C290A"/>
<path d="M70.2002 47.8027H67.6016V50.4014H70.2002V47.8027Z" fill="#AF4820"/>
<path d="M70.2002 45.2031H67.6016V47.8018H70.2002V45.2031Z" fill="#75240E"/>
<path d="M70.2002 42.5996H67.6016V45.1983H70.2002V42.5996Z" fill="#8E371C"/>
<path d="M70.2002 40H67.6016V42.5987H70.2002V40Z" fill="black"/>
<path d="M67.6026 89.4023H65.0039V92.001H67.6026V89.4023Z" fill="black"/>
<path d="M67.6026 86.8027H65.0039V89.4014H67.6026V86.8027Z" fill="#9B3B1E"/>
<path d="M67.6026 84.1973H65.0039V86.7959H67.6026V84.1973Z" fill="#8C290A"/>
<path d="M67.6026 81.5996H65.0039V84.1983H67.6026V81.5996Z" fill="#9B3B1E"/>
<path d="M67.6026 79.002H65.0039V81.6006H67.6026V79.002Z" fill="#AF4820"/>
<path d="M67.6026 76.4043H65.0039V79.003H67.6026V76.4043Z" fill="#AF4820"/>
<path d="M67.6026 73.7988H65.0039V76.3975H67.6026V73.7988Z" fill="#AF4820"/>
<path d="M67.6026 71.1992H65.0039V73.7979H67.6026V71.1992Z" fill="#AF4820"/>
<path d="M67.6026 68.6016H65.0039V71.2002H67.6026V68.6016Z" fill="#AF4820"/>
<path d="M67.6026 66.002H65.0039V68.6006H67.6026V66.002Z" fill="#AF4820"/>
<path d="M67.6026 63.3984H65.0039V65.9971H67.6026V63.3984Z" fill="#AF4820"/>
<path d="M67.6026 60.8008H65.0039V63.3994H67.6026V60.8008Z" fill="#AF4820"/>
<path d="M67.6026 58.2012H65.0039V60.7998H67.6026V58.2012Z" fill="#AF4820"/>
<path d="M67.6026 55.6035H65.0039V58.2022H67.6026V55.6035Z" fill="#AF4820"/>
<path d="M67.6026 52.998H65.0039V55.5967H67.6026V52.998Z" fill="#AF4820"/>
<path d="M67.6026 50.4004H65.0039V52.9991H67.6026V50.4004Z" fill="#8C290A"/>
<path d="M67.6026 47.8027H65.0039V50.4014H67.6026V47.8027Z" fill="#AF4820"/>
<path d="M67.6026 45.2031H65.0039V47.8018H67.6026V45.2031Z" fill="#75240E"/>
<path d="M67.6026 42.5996H65.0039V45.1983H67.6026V42.5996Z" fill="#8E371C"/>
<path d="M67.6026 40H65.0039V42.5987H67.6026V40Z" fill="black"/>
<path d="M64.9971 89.4023H62.3984V92.001H64.9971V89.4023Z" fill="black"/>
<path d="M64.9971 86.8027H62.3984V89.4014H64.9971V86.8027Z" fill="#9B3B1E"/>
<path d="M64.9971 84.1973H62.3984V86.7959H64.9971V84.1973Z" fill="#8C290A"/>
<path d="M64.9971 81.5996H62.3984V84.1983H64.9971V81.5996Z" fill="#9B3B1E"/>
<path d="M64.9971 79.002H62.3984V81.6006H64.9971V79.002Z" fill="#AF4820"/>
<path d="M64.9971 76.4043H62.3984V79.003H64.9971V76.4043Z" fill="#AF4820"/>
<path d="M64.9971 73.7988H62.3984V76.3975H64.9971V73.7988Z" fill="#AF4820"/>
<path d="M64.9971 71.1992H62.3984V73.7979H64.9971V71.1992Z" fill="#AF4820"/>
<path d="M64.9971 68.6016H62.3984V71.2002H64.9971V68.6016Z" fill="#AF4820"/>
<path d="M64.9971 66.002H62.3984V68.6006H64.9971V66.002Z" fill="#AF4820"/>
<path d="M64.9971 63.3984H62.3984V65.9971H64.9971V63.3984Z" fill="#AF4820"/>
<path d="M64.9971 60.8008H62.3984V63.3994H64.9971V60.8008Z" fill="#AF4820"/>
<path d="M64.9971 58.2012H62.3984V60.7998H64.9971V58.2012Z" fill="#AF4820"/>
<path d="M64.9971 55.6035H62.3984V58.2022H64.9971V55.6035Z" fill="#AF4820"/>
<path d="M64.9971 52.998H62.3984V55.5967H64.9971V52.998Z" fill="#AF4820"/>
<path d="M64.9971 50.4004H62.3984V52.9991H64.9971V50.4004Z" fill="#AF4820"/>
<path d="M64.9971 47.8027H62.3984V50.4014H64.9971V47.8027Z" fill="#AF4820"/>
<path d="M64.9971 45.2031H62.3984V47.8018H64.9971V45.2031Z" fill="#75240E"/>
<path d="M64.9971 42.5996H62.3984V45.1983H64.9971V42.5996Z" fill="#8E371C"/>
<path d="M64.9971 40H62.3984V42.5987H64.9971V40Z" fill="black"/>
<path d="M62.3994 89.4023H59.8008V92.001H62.3994V89.4023Z" fill="black"/>
<path d="M62.3994 86.8027H59.8008V89.4014H62.3994V86.8027Z" fill="#9B3B1E"/>
<path d="M62.3994 84.1973H59.8008V86.7959H62.3994V84.1973Z" fill="#9B3B1E"/>
<path d="M62.3994 81.5996H59.8008V84.1983H62.3994V81.5996Z" fill="#9B3B1E"/>
<path d="M62.3994 79.002H59.8008V81.6006H62.3994V79.002Z" fill="#AF4820"/>
<path d="M62.3994 76.4043H59.8008V79.003H62.3994V76.4043Z" fill="#AF4820"/>
<path d="M62.3994 73.7988H59.8008V76.3975H62.3994V73.7988Z" fill="#AF4820"/>
<path d="M62.3994 71.1992H59.8008V73.7979H62.3994V71.1992Z" fill="#AF4820"/>
<path d="M62.3994 68.6016H59.8008V71.2002H62.3994V68.6016Z" fill="#AF4820"/>
<path d="M62.3994 66.002H59.8008V68.6006H62.3994V66.002Z" fill="#AF4820"/>
<path d="M62.3994 63.3984H59.8008V65.9971H62.3994V63.3984Z" fill="#AF4820"/>
<path d="M62.3994 60.8008H59.8008V63.3994H62.3994V60.8008Z" fill="#AF4820"/>
<path d="M62.3994 58.2012H59.8008V60.7998H62.3994V58.2012Z" fill="#AF4820"/>
<path d="M62.3994 55.6035H59.8008V58.2022H62.3994V55.6035Z" fill="#AF4820"/>
<path d="M62.3994 52.998H59.8008V55.5967H62.3994V52.998Z" fill="#AF4820"/>
<path d="M62.3994 50.4004H59.8008V52.9991H62.3994V50.4004Z" fill="#8C290A"/>
<path d="M62.3994 47.8027H59.8008V50.4014H62.3994V47.8027Z" fill="#AF4820"/>
<path d="M62.3994 45.2031H59.8008V47.8018H62.3994V45.2031Z" fill="#75240E"/>
<path d="M62.3994 42.5996H59.8008V45.1983H62.3994V42.5996Z" fill="#8E371C"/>
<path d="M62.3994 40H59.8008V42.5987H62.3994V40Z" fill="black"/>
<path d="M59.7998 89.4023H57.2012V92.001H59.7998V89.4023Z" fill="black"/>
<path d="M59.7998 86.8027H57.2012V89.4014H59.7998V86.8027Z" fill="#9B3B1E"/>
<path d="M59.7998 84.1973H57.2012V86.7959H59.7998V84.1973Z" fill="#8C290A"/>
<path d="M59.7998 81.5996H57.2012V84.1983H59.7998V81.5996Z" fill="#AF4820"/>
<path d="M59.7998 79.002H57.2012V81.6006H59.7998V79.002Z" fill="#AF4820"/>
<path d="M59.7998 76.4043H57.2012V79.003H59.7998V76.4043Z" fill="#AF4820"/>
<path d="M59.7998 73.7988H57.2012V76.3975H59.7998V73.7988Z" fill="#AF4820"/>
<path d="M59.7998 71.1992H57.2012V73.7979H59.7998V71.1992Z" fill="#AF4820"/>
<path d="M59.7998 68.6016H57.2012V71.2002H59.7998V68.6016Z" fill="#AF4820"/>
<path d="M59.7998 66.002H57.2012V68.6006H59.7998V66.002Z" fill="#AF4820"/>
<path d="M59.7998 63.3984H57.2012V65.9971H59.7998V63.3984Z" fill="#AF4820"/>
<path d="M59.7998 60.8008H57.2012V63.3994H59.7998V60.8008Z" fill="#AF4820"/>
<path d="M59.7998 58.2012H57.2012V60.7998H59.7998V58.2012Z" fill="#AF4820"/>
<path d="M59.7998 55.6035H57.2012V58.2022H59.7998V55.6035Z" fill="#AF4820"/>
<path d="M59.7998 52.998H57.2012V55.5967H59.7998V52.998Z" fill="#AF4820"/>
<path d="M59.7998 50.4004H57.2012V52.9991H59.7998V50.4004Z" fill="#8C290A"/>
<path d="M59.7998 47.8027H57.2012V50.4014H59.7998V47.8027Z" fill="#AF4820"/>
<path d="M59.7998 45.2031H57.2012V47.8018H59.7998V45.2031Z" fill="#75240E"/>
<path d="M59.7998 42.5996H57.2012V45.1983H59.7998V42.5996Z" fill="#8E371C"/>
<path d="M59.7998 40H57.2012V42.5987H59.7998V40Z" fill="black"/>
<path d="M57.2022 89.4023H54.6035V92.001H57.2022V89.4023Z" fill="black"/>
<path d="M57.2022 86.8027H54.6035V89.4014H57.2022V86.8027Z" fill="#9B3B1E"/>
<path d="M57.2022 84.1973H54.6035V86.7959H57.2022V84.1973Z" fill="#8C290A"/>
<path d="M57.2022 81.5996H54.6035V84.1983H57.2022V81.5996Z" fill="#AF4820"/>
<path d="M57.2022 79.002H54.6035V81.6006H57.2022V79.002Z" fill="#AF4820"/>
<path d="M57.2022 76.4043H54.6035V79.003H57.2022V76.4043Z" fill="#AF4820"/>
<path d="M57.2022 73.7988H54.6035V76.3975H57.2022V73.7988Z" fill="#AF4820"/>
<path d="M57.2022 71.1992H54.6035V73.7979H57.2022V71.1992Z" fill="#AF4820"/>
<path d="M57.2022 68.6016H54.6035V71.2002H57.2022V68.6016Z" fill="#AF4820"/>
<path d="M57.2022 66.002H54.6035V68.6006H57.2022V66.002Z" fill="#AF4820"/>
<path d="M57.2022 63.3984H54.6035V65.9971H57.2022V63.3984Z" fill="#AF4820"/>
<path d="M57.2022 60.8008H54.6035V63.3994H57.2022V60.8008Z" fill="#AF4820"/>
<path d="M57.2022 58.2012H54.6035V60.7998H57.2022V58.2012Z" fill="#AF4820"/>
<path d="M57.2022 55.6035H54.6035V58.2022H57.2022V55.6035Z" fill="#AF4820"/>
<path d="M57.2022 52.998H54.6035V55.5967H57.2022V52.998Z" fill="#AF4820"/>
<path d="M57.2022 50.4004H54.6035V52.9991H57.2022V50.4004Z" fill="#8C290A"/>
<path d="M57.2022 47.8027H54.6035V50.4014H57.2022V47.8027Z" fill="#AF4820"/>
<path d="M57.2022 45.2031H54.6035V47.8018H57.2022V45.2031Z" fill="#75240E"/>
<path d="M57.2022 42.5996H54.6035V45.1983H57.2022V42.5996Z" fill="#8E371C"/>
<path d="M57.2022 40H54.6035V42.5987H57.2022V40Z" fill="black"/>
<path d="M54.6026 89.4023H52.0039V92.001H54.6026V89.4023Z" fill="black"/>
<path d="M54.6026 86.8027H52.0039V89.4014H54.6026V86.8027Z" fill="#9B3B1E"/>
<path d="M54.6026 84.1973H52.0039V86.7959H54.6026V84.1973Z" fill="#8C290A"/>
<path d="M54.6026 81.5996H52.0039V84.1983H54.6026V81.5996Z" fill="#AF4820"/>
<path d="M54.6026 79.002H52.0039V81.6006H54.6026V79.002Z" fill="#AF4820"/>
<path d="M54.6026 76.4043H52.0039V79.003H54.6026V76.4043Z" fill="#AF4820"/>
<path d="M54.6026 73.7988H52.0039V76.3975H54.6026V73.7988Z" fill="#AF4820"/>
<path d="M54.6026 71.1992H52.0039V73.7979H54.6026V71.1992Z" fill="#AF4820"/>
<path d="M54.6026 68.6016H52.0039V71.2002H54.6026V68.6016Z" fill="#AF4820"/>
<path d="M54.6026 66.002H52.0039V68.6006H54.6026V66.002Z" fill="#AF4820"/>
<path d="M54.6026 63.3984H52.0039V65.9971H54.6026V63.3984Z" fill="#AF4820"/>
<path d="M54.6026 60.8008H52.0039V63.3994H54.6026V60.8008Z" fill="#AF4820"/>
<path d="M54.6026 58.2012H52.0039V60.7998H54.6026V58.2012Z" fill="#AF4820"/>
<path d="M54.6026 55.6035H52.0039V58.2022H54.6026V55.6035Z" fill="#AF4820"/>
<path d="M54.6026 52.998H52.0039V55.5967H54.6026V52.998Z" fill="#AF4820"/>
<path d="M54.6026 50.4004H52.0039V52.9991H54.6026V50.4004Z" fill="#AF4820"/>
<path d="M54.6026 47.8027H52.0039V50.4014H54.6026V47.8027Z" fill="#AF4820"/>
<path d="M54.6026 45.2031H52.0039V47.8018H54.6026V45.2031Z" fill="#75240E"/>
<path d="M54.6026 42.5996H52.0039V45.1983H54.6026V42.5996Z" fill="#8E371C"/>
<path d="M54.6026 40H52.0039V42.5987H54.6026V40Z" fill="black"/>
<path d="M51.9991 89.4023H49.4004V92.001H51.9991V89.4023Z" fill="black"/>
<path d="M51.9991 86.8027H49.4004V89.4014H51.9991V86.8027Z" fill="#AF4820"/>
<path d="M51.9991 84.1973H49.4004V86.7959H51.9991V84.1973Z" fill="#AF4820"/>
<path d="M51.9991 81.5996H49.4004V84.1983H51.9991V81.5996Z" fill="#AF4820"/>
<path d="M51.9991 79.002H49.4004V81.6006H51.9991V79.002Z" fill="#AF4820"/>
<path d="M51.9991 76.4043H49.4004V79.003H51.9991V76.4043Z" fill="#AF4820"/>
<path d="M51.9991 73.7988H49.4004V76.3975H51.9991V73.7988Z" fill="#AF4820"/>
<path d="M51.9991 71.1992H49.4004V73.7979H51.9991V71.1992Z" fill="#AF4820"/>
<path d="M51.9991 68.6016H49.4004V71.2002H51.9991V68.6016Z" fill="#AF4820"/>
<path d="M51.9991 66.002H49.4004V68.6006H51.9991V66.002Z" fill="#AF4820"/>
<path d="M51.9991 63.3984H49.4004V65.9971H51.9991V63.3984Z" fill="#AF4820"/>
<path d="M51.9991 60.8008H49.4004V63.3994H51.9991V60.8008Z" fill="#AF4820"/>
<path d="M51.9991 58.2012H49.4004V60.7998H51.9991V58.2012Z" fill="#AF4820"/>
<path d="M51.9991 55.6035H49.4004V58.2022H51.9991V55.6035Z" fill="#AF4820"/>
<path d="M51.9991 52.998H49.4004V55.5967H51.9991V52.998Z" fill="#AF4820"/>
<path d="M51.9991 50.4004H49.4004V52.9991H51.9991V50.4004Z" fill="#8C290A"/>
<path d="M51.9991 47.8027H49.4004V50.4014H51.9991V47.8027Z" fill="#AF4820"/>
<path d="M51.9991 45.2031H49.4004V47.8018H51.9991V45.2031Z" fill="#75240E"/>
<path d="M51.9991 42.5996H49.4004V45.1983H51.9991V42.5996Z" fill="#8E371C"/>
<path d="M51.9991 40H49.4004V42.5987H51.9991V40Z" fill="black"/>
<path d="M49.3994 89.4023H46.8008V92.001H49.3994V89.4023Z" fill="black"/>
<path d="M49.3994 86.8027H46.8008V89.4014H49.3994V86.8027Z" fill="#AF4820"/>
<path d="M49.3994 84.1973H46.8008V86.7959H49.3994V84.1973Z" fill="#8C290A"/>
<path d="M49.3994 81.5996H46.8008V84.1983H49.3994V81.5996Z" fill="#AF4820"/>
<path d="M49.3994 79.002H46.8008V81.6006H49.3994V79.002Z" fill="#AF4820"/>
<path d="M49.3994 76.4043H46.8008V79.003H49.3994V76.4043Z" fill="#AF4820"/>
<path d="M49.3994 73.7988H46.8008V76.3975H49.3994V73.7988Z" fill="#AF4820"/>
<path d="M49.3994 71.1992H46.8008V73.7979H49.3994V71.1992Z" fill="#AF4820"/>
<path d="M49.3994 68.6016H46.8008V71.2002H49.3994V68.6016Z" fill="#AF4820"/>
<path d="M49.3994 66.002H46.8008V68.6006H49.3994V66.002Z" fill="#AF4820"/>
<path d="M49.3994 63.3984H46.8008V65.9971H49.3994V63.3984Z" fill="#AF4820"/>
<path d="M49.3994 60.8008H46.8008V63.3994H49.3994V60.8008Z" fill="#AF4820"/>
<path d="M49.3994 58.2012H46.8008V60.7998H49.3994V58.2012Z" fill="#AF4820"/>
<path d="M49.3994 55.6035H46.8008V58.2022H49.3994V55.6035Z" fill="#AF4820"/>
<path d="M49.3994 52.998H46.8008V55.5967H49.3994V52.998Z" fill="#AF4820"/>
<path d="M49.3994 50.4004H46.8008V52.9991H49.3994V50.4004Z" fill="#8C290A"/>
<path d="M49.3994 47.8027H46.8008V50.4014H49.3994V47.8027Z" fill="#AF4820"/>
<path d="M49.3994 45.2031H46.8008V47.8018H49.3994V45.2031Z" fill="#75240E"/>
<path d="M49.3994 42.5996H46.8008V45.1983H49.3994V42.5996Z" fill="#8E371C"/>
<path d="M49.3994 40H46.8008V42.5987H49.3994V40Z" fill="black"/>
<path d="M46.8018 89.4023H44.2031V92.001H46.8018V89.4023Z" fill="black"/>
<path d="M46.8018 86.8027H44.2031V89.4014H46.8018V86.8027Z" fill="#AF4820"/>
<path d="M46.8018 84.1973H44.2031V86.7959H46.8018V84.1973Z" fill="#8C290A"/>
<path d="M46.8018 81.5996H44.2031V84.1983H46.8018V81.5996Z" fill="#AF4820"/>
<path d="M46.8018 79.002H44.2031V81.6006H46.8018V79.002Z" fill="#AF4820"/>
<path d="M46.8018 76.4043H44.2031V79.003H46.8018V76.4043Z" fill="#AF4820"/>
<path d="M46.8018 73.7988H44.2031V76.3975H46.8018V73.7988Z" fill="#AF4820"/>
<path d="M46.8018 71.1992H44.2031V73.7979H46.8018V71.1992Z" fill="#AF4820"/>
<path d="M46.8018 68.6016H44.2031V71.2002H46.8018V68.6016Z" fill="#AF4820"/>
<path d="M46.8018 66.002H44.2031V68.6006H46.8018V66.002Z" fill="#AF4820"/>
<path d="M46.8018 63.3984H44.2031V65.9971H46.8018V63.3984Z" fill="#AF4820"/>
<path d="M46.8018 60.8008H44.2031V63.3994H46.8018V60.8008Z" fill="#AF4820"/>
<path d="M46.8018 58.2012H44.2031V60.7998H46.8018V58.2012Z" fill="#AF4820"/>
<path d="M46.8018 55.6035H44.2031V58.2022H46.8018V55.6035Z" fill="#AF4820"/>
<path d="M46.8018 52.998H44.2031V55.5967H46.8018V52.998Z" fill="#AF4820"/>
<path d="M46.8018 50.4004H44.2031V52.9991H46.8018V50.4004Z" fill="#8C290A"/>
<path d="M46.8018 47.8027H44.2031V50.4014H46.8018V47.8027Z" fill="#AF4820"/>
<path d="M46.8018 45.2031H44.2031V47.8018H46.8018V45.2031Z" fill="#75240E"/>
<path d="M46.8018 42.5996H44.2031V45.1983H46.8018V42.5996Z" fill="#8E371C"/>
<path d="M46.8018 40H44.2031V42.5987H46.8018V40Z" fill="black"/>
<path d="M44.2041 86.8027H41.6055V89.4014H44.2041V86.8027Z" fill="black"/>
<path d="M44.2041 84.1973H41.6055V86.7959H44.2041V84.1973Z" fill="#AF4820"/>
<path d="M44.2041 81.5996H41.6055V84.1983H44.2041V81.5996Z" fill="#F9DBD2"/>
<path d="M44.2041 79.002H41.6055V81.6006H44.2041V79.002Z" fill="#F9DBD2"/>
<path d="M44.2041 76.4043H41.6055V79.003H44.2041V76.4043Z" fill="#F9DBD2"/>
<path d="M44.2041 73.7988H41.6055V76.3975H44.2041V73.7988Z" fill="#AF4820"/>
<path d="M44.2041 71.1992H41.6055V73.7979H44.2041V71.1992Z" fill="#F9DBD2"/>
<path d="M44.2041 68.6016H41.6055V71.2002H44.2041V68.6016Z" fill="#AF4820"/>
<path d="M44.2041 66.002H41.6055V68.6006H44.2041V66.002Z" fill="#AF4820"/>
<path d="M44.2041 63.3984H41.6055V65.9971H44.2041V63.3984Z" fill="#F9DBD2"/>
<path d="M44.2041 60.8008H41.6055V63.3994H44.2041V60.8008Z" fill="#F9DBD2"/>
<path d="M44.2041 58.2012H41.6055V60.7998H44.2041V58.2012Z" fill="#F9DBD2"/>
<path d="M44.2041 55.6035H41.6055V58.2022H44.2041V55.6035Z" fill="#AF4820"/>
<path d="M44.2041 52.998H41.6055V55.5967H44.2041V52.998Z" fill="#F9DBD2"/>
<path d="M44.2041 50.4004H41.6055V52.9991H44.2041V50.4004Z" fill="#F9DBD2"/>
<path d="M44.2041 47.8027H41.6055V50.4014H44.2041V47.8027Z" fill="#AF4820"/>
<path d="M44.2041 45.2031H41.6055V47.8018H44.2041V45.2031Z" fill="#75240E"/>
<path d="M44.2041 42.5996H41.6055V45.1983H44.2041V42.5996Z" fill="black"/>
<path d="M41.5987 84.1973H39V86.7959H41.5987V84.1973Z" fill="black"/>
<path d="M41.5987 81.5996H39V84.1983H41.5987V81.5996Z" fill="black"/>
<path d="M41.5987 79.002H39V81.6006H41.5987V79.002Z" fill="black"/>
<path d="M41.5987 76.4043H39V79.003H41.5987V76.4043Z" fill="black"/>
<path d="M41.5987 73.7988H39V76.3975H41.5987V73.7988Z" fill="black"/>
<path d="M41.5987 71.1992H39V73.7979H41.5987V71.1992Z" fill="black"/>
<path d="M41.5987 68.6016H39V71.2002H41.5987V68.6016Z" fill="black"/>
<path d="M41.5987 66.002H39V68.6006H41.5987V66.002Z" fill="black"/>
<path d="M41.5987 63.3984H39V65.9971H41.5987V63.3984Z" fill="black"/>
<path d="M41.5987 60.8008H39V63.3994H41.5987V60.8008Z" fill="black"/>
<path d="M41.5987 58.2012H39V60.7998H41.5987V58.2012Z" fill="black"/>
<path d="M41.5987 55.6035H39V58.2022H41.5987V55.6035Z" fill="black"/>
<path d="M41.5987 52.998H39V55.5967H41.5987V52.998Z" fill="black"/>
<path d="M41.5987 50.4004H39V52.9991H41.5987V50.4004Z" fill="black"/>
<path d="M41.5987 47.8027H39V50.4014H41.5987V47.8027Z" fill="black"/>
<path d="M41.5987 45.2031H39V47.8018H41.5987V45.2031Z" fill="black"/>
</svg>
