<svg width="24" height="23" viewBox="0 0 24 23" fill="none" xmlns="http://www.w3.org/2000/svg">
<path d="M22.6648 18.1328H21.5938V20.2678H22.6648V18.1328Z" fill="white"/>
<path d="M21.5952 15.998H20.5312V18.133H21.5952V15.998Z" fill="white"/>
<path d="M21.5916 20.2676H2.39062V21.3316H21.5916V20.2676Z" fill="white"/>
<path d="M20.5328 13.8633H19.4688V15.9983H20.5328V13.8633Z" fill="white"/>
<path d="M19.4616 11.7344H18.3906V13.8624H19.4616V11.7344Z" fill="white"/>
<path d="M18.3921 9.59961H17.3281V11.7346H18.3921V9.59961Z" fill="white"/>
<path d="M17.3288 7.46484H16.2578V9.59984H17.3288V7.46484Z" fill="white"/>
<path d="M16.2593 5.32812H15.1953V7.46313H16.2593V5.32812Z" fill="white"/>
<path d="M15.1968 3.20117H14.1328V5.32917H15.1968V3.20117Z" fill="white"/>
<path d="M14.1335 2.13086H13.0625V3.20186H14.1335V2.13086Z" fill="white"/>
<path d="M10.9234 18.1333H13.0584V17.0693H14.1294V14.9343H13.0584V13.8633H10.9234V14.9343H9.85938V17.0693H10.9234V18.1333Z" fill="white"/>
<path d="M13.0569 6.40234H10.9219V12.8003H13.0569V6.40234Z" fill="white"/>
<path d="M13.0569 1.06641H10.9219V2.13041H13.0569V1.06641Z" fill="white"/>
<path d="M10.9234 2.13086H9.85938V3.20186H10.9234V2.13086Z" fill="white"/>
<path d="M9.86087 3.20117H8.79688V5.32917H9.86087V3.20117Z" fill="white"/>
<path d="M8.79756 5.32812H7.72656V7.46313H8.79756V5.32812Z" fill="white"/>
<path d="M7.72806 7.46484H6.66406V9.59984H7.72806V7.46484Z" fill="white"/>
<path d="M6.66166 9.59961H5.59766V11.7346H6.66166V9.59961Z" fill="white"/>
<path d="M5.59834 11.7344H4.52734V13.8624H5.59834V11.7344Z" fill="white"/>
<path d="M4.52494 13.8633H3.46094V15.9983H4.52494V13.8633Z" fill="white"/>
<path d="M3.46162 15.998H2.39062V18.133H3.46162V15.998Z" fill="white"/>
<path d="M2.39212 18.1328H1.32812V20.2678H2.39212V18.1328Z" fill="white"/>
</svg>
